%TF.GenerationSoftware,KiCad,Pcbnew,5.1.10-88a1d61d58~88~ubuntu20.04.1*%
%TF.CreationDate,2021-05-28T03:57:09-05:00*%
%TF.ProjectId,vizboard-nes,76697a62-6f61-4726-942d-6e65732e6b69,rev?*%
%TF.SameCoordinates,Original*%
%TF.FileFunction,Copper,L2,Bot*%
%TF.FilePolarity,Positive*%
%FSLAX46Y46*%
G04 Gerber Fmt 4.6, Leading zero omitted, Abs format (unit mm)*
G04 Created by KiCad (PCBNEW 5.1.10-88a1d61d58~88~ubuntu20.04.1) date 2021-05-28 03:57:09*
%MOMM*%
%LPD*%
G01*
G04 APERTURE LIST*
%TA.AperFunction,ComponentPad*%
%ADD10O,1.600000X1.600000*%
%TD*%
%TA.AperFunction,ComponentPad*%
%ADD11R,1.600000X1.600000*%
%TD*%
%TA.AperFunction,ComponentPad*%
%ADD12C,1.600000*%
%TD*%
%TA.AperFunction,ComponentPad*%
%ADD13O,1.700000X1.700000*%
%TD*%
%TA.AperFunction,ComponentPad*%
%ADD14R,1.700000X1.700000*%
%TD*%
%TA.AperFunction,ComponentPad*%
%ADD15C,1.800000*%
%TD*%
%TA.AperFunction,ComponentPad*%
%ADD16R,1.800000X1.800000*%
%TD*%
%TA.AperFunction,Conductor*%
%ADD17C,0.250000*%
%TD*%
%TA.AperFunction,Conductor*%
%ADD18C,0.600000*%
%TD*%
G04 APERTURE END LIST*
D10*
%TO.P,U2,20*%
%TO.N,/5V*%
X153938000Y-86704000D03*
%TO.P,U2,10*%
%TO.N,Net-(U2-Pad10)*%
X176798000Y-79084000D03*
%TO.P,U2,19*%
%TO.N,/RIGHT*%
X156478000Y-86704000D03*
%TO.P,U2,9*%
%TO.N,Net-(U1-Pad7)*%
X174258000Y-79084000D03*
%TO.P,U2,18*%
%TO.N,/LEFT*%
X159018000Y-86704000D03*
%TO.P,U2,8*%
%TO.N,Net-(U1-Pad6)*%
X171718000Y-79084000D03*
%TO.P,U2,17*%
%TO.N,/DOWN*%
X161558000Y-86704000D03*
%TO.P,U2,7*%
%TO.N,Net-(U1-Pad5)*%
X169178000Y-79084000D03*
%TO.P,U2,16*%
%TO.N,/UP*%
X164098000Y-86704000D03*
%TO.P,U2,6*%
%TO.N,Net-(U1-Pad4)*%
X166638000Y-79084000D03*
%TO.P,U2,15*%
%TO.N,/STA*%
X166638000Y-86704000D03*
%TO.P,U2,5*%
%TO.N,Net-(U1-Pad3)*%
X164098000Y-79084000D03*
%TO.P,U2,14*%
%TO.N,/SEL*%
X169178000Y-86704000D03*
%TO.P,U2,4*%
%TO.N,Net-(U1-Pad2)*%
X161558000Y-79084000D03*
%TO.P,U2,13*%
%TO.N,/B*%
X171718000Y-86704000D03*
%TO.P,U2,3*%
%TO.N,Net-(U1-Pad1)*%
X159018000Y-79084000D03*
%TO.P,U2,12*%
%TO.N,/A*%
X174258000Y-86704000D03*
%TO.P,U2,2*%
%TO.N,Net-(U1-Pad15)*%
X156478000Y-79084000D03*
%TO.P,U2,11*%
%TO.N,/GND*%
X176798000Y-86704000D03*
D11*
%TO.P,U2,1*%
%TO.N,Net-(U2-Pad1)*%
X153938000Y-79084000D03*
%TD*%
D10*
%TO.P,U1,16*%
%TO.N,/5V*%
X156732000Y-67146000D03*
%TO.P,U1,8*%
%TO.N,/GND*%
X174512000Y-74766000D03*
%TO.P,U1,15*%
%TO.N,Net-(U1-Pad15)*%
X159272000Y-67146000D03*
%TO.P,U1,7*%
%TO.N,Net-(U1-Pad7)*%
X171972000Y-74766000D03*
%TO.P,U1,14*%
%TO.N,/SER*%
X161812000Y-67146000D03*
%TO.P,U1,6*%
%TO.N,Net-(U1-Pad6)*%
X169432000Y-74766000D03*
%TO.P,U1,13*%
%TO.N,/GND*%
X164352000Y-67146000D03*
%TO.P,U1,5*%
%TO.N,Net-(U1-Pad5)*%
X166892000Y-74766000D03*
%TO.P,U1,12*%
%TO.N,/STROBE*%
X166892000Y-67146000D03*
%TO.P,U1,4*%
%TO.N,Net-(U1-Pad4)*%
X164352000Y-74766000D03*
%TO.P,U1,11*%
%TO.N,/CLK*%
X169432000Y-67146000D03*
%TO.P,U1,3*%
%TO.N,Net-(U1-Pad3)*%
X161812000Y-74766000D03*
%TO.P,U1,10*%
%TO.N,/5V*%
X171972000Y-67146000D03*
%TO.P,U1,2*%
%TO.N,Net-(U1-Pad2)*%
X159272000Y-74766000D03*
%TO.P,U1,9*%
%TO.N,Net-(U1-Pad9)*%
X174512000Y-67146000D03*
D11*
%TO.P,U1,1*%
%TO.N,Net-(U1-Pad1)*%
X156732000Y-74766000D03*
%TD*%
D10*
%TO.P,R8,2*%
%TO.N,Net-(D8-Pad2)*%
X145810000Y-104230000D03*
D12*
%TO.P,R8,1*%
%TO.N,/5V*%
X145810000Y-94070000D03*
%TD*%
D10*
%TO.P,R7,2*%
%TO.N,Net-(D7-Pad2)*%
X140730000Y-104230000D03*
D12*
%TO.P,R7,1*%
%TO.N,/5V*%
X140730000Y-94070000D03*
%TD*%
D10*
%TO.P,R6,2*%
%TO.N,Net-(D6-Pad2)*%
X124982000Y-95594000D03*
D12*
%TO.P,R6,1*%
%TO.N,/5V*%
X124982000Y-85434000D03*
%TD*%
D10*
%TO.P,R5,2*%
%TO.N,Net-(D5-Pad2)*%
X128284000Y-95594000D03*
D12*
%TO.P,R5,1*%
%TO.N,/5V*%
X128284000Y-85434000D03*
%TD*%
D10*
%TO.P,R4,2*%
%TO.N,Net-(D4-Pad2)*%
X109234000Y-82132000D03*
D12*
%TO.P,R4,1*%
%TO.N,/5V*%
X119394000Y-82132000D03*
%TD*%
%TO.P,R3,2*%
%TO.N,Net-(D3-Pad2)*%
%TA.AperFunction,ComponentPad*%
G36*
G01*
X105917480Y-101958520D02*
X105917480Y-101958520D01*
G75*
G02*
X105917480Y-103089890I-565685J-565685D01*
G01*
X105917480Y-103089890D01*
G75*
G02*
X104786110Y-103089890I-565685J565685D01*
G01*
X104786110Y-103089890D01*
G75*
G02*
X104786110Y-101958520I565685J565685D01*
G01*
X104786110Y-101958520D01*
G75*
G02*
X105917480Y-101958520I565685J-565685D01*
G01*
G37*
%TD.AperFunction*%
%TO.P,R3,1*%
%TO.N,/5V*%
X112536000Y-95340000D03*
%TD*%
D10*
%TO.P,R2,2*%
%TO.N,Net-(D2-Pad2)*%
X109234000Y-88736000D03*
D12*
%TO.P,R2,1*%
%TO.N,/5V*%
X119394000Y-88736000D03*
%TD*%
D10*
%TO.P,R1,2*%
%TO.N,Net-(D1-Pad2)*%
X109234000Y-85434000D03*
D12*
%TO.P,R1,1*%
%TO.N,/5V*%
X119394000Y-85434000D03*
%TD*%
D13*
%TO.P,J1,5*%
%TO.N,/GND*%
X124982000Y-78576000D03*
%TO.P,J1,4*%
%TO.N,/SER*%
X124982000Y-76036000D03*
%TO.P,J1,3*%
%TO.N,/CLK*%
X124982000Y-73496000D03*
%TO.P,J1,2*%
%TO.N,/STROBE*%
X124982000Y-70956000D03*
D14*
%TO.P,J1,1*%
%TO.N,/5V*%
X124982000Y-68416000D03*
%TD*%
D15*
%TO.P,D8,2*%
%TO.N,Net-(D8-Pad2)*%
X170956000Y-95721000D03*
D16*
%TO.P,D8,1*%
%TO.N,/A*%
X173496000Y-95721000D03*
%TD*%
D15*
%TO.P,D7,2*%
%TO.N,Net-(D7-Pad2)*%
X154954000Y-95721000D03*
D16*
%TO.P,D7,1*%
%TO.N,/B*%
X157494000Y-95721000D03*
%TD*%
D15*
%TO.P,D6,2*%
%TO.N,Net-(D6-Pad2)*%
X117362000Y-95721000D03*
D16*
%TO.P,D6,1*%
%TO.N,/SEL*%
X119902000Y-95721000D03*
%TD*%
D15*
%TO.P,D5,2*%
%TO.N,Net-(D5-Pad2)*%
X133491000Y-95721000D03*
D16*
%TO.P,D5,1*%
%TO.N,/STA*%
X136031000Y-95721000D03*
%TD*%
D15*
%TO.P,D4,2*%
%TO.N,Net-(D4-Pad2)*%
X89930000Y-80735000D03*
D16*
%TO.P,D4,1*%
%TO.N,/UP*%
X92470000Y-80735000D03*
%TD*%
D15*
%TO.P,D3,2*%
%TO.N,Net-(D3-Pad2)*%
X89930000Y-99023000D03*
D16*
%TO.P,D3,1*%
%TO.N,/DOWN*%
X92470000Y-99023000D03*
%TD*%
D15*
%TO.P,D2,2*%
%TO.N,Net-(D2-Pad2)*%
X80913000Y-90006000D03*
D16*
%TO.P,D2,1*%
%TO.N,/LEFT*%
X83453000Y-90006000D03*
%TD*%
D15*
%TO.P,D1,2*%
%TO.N,Net-(D1-Pad2)*%
X98947000Y-90006000D03*
D16*
%TO.P,D1,1*%
%TO.N,/RIGHT*%
X101487000Y-90006000D03*
%TD*%
D17*
%TO.N,/RIGHT*%
X101487000Y-90006000D02*
X103900000Y-90006000D01*
X103900000Y-90006000D02*
X104916000Y-91022000D01*
X104916000Y-91022000D02*
X138952000Y-91022000D01*
X138952000Y-91022000D02*
X143524000Y-86450000D01*
X143524000Y-86450000D02*
X146064000Y-86450000D01*
X146064000Y-86450000D02*
X148096000Y-88482000D01*
X154700000Y-88482000D02*
X156478000Y-86704000D01*
X148096000Y-88482000D02*
X154700000Y-88482000D01*
%TO.N,Net-(D2-Pad2)*%
X80913000Y-90006000D02*
X80913000Y-88609000D01*
X80913000Y-88609000D02*
X82564000Y-86958000D01*
X107456000Y-86958000D02*
X109234000Y-88736000D01*
X82564000Y-86958000D02*
X107456000Y-86958000D01*
%TO.N,/LEFT*%
X90438000Y-90006000D02*
X83453000Y-90006000D01*
X93994000Y-93562000D02*
X90438000Y-90006000D01*
X115330000Y-93562000D02*
X93994000Y-93562000D01*
X117108000Y-91784000D02*
X115330000Y-93562000D01*
X150382000Y-89244000D02*
X147842000Y-91784000D01*
X147842000Y-91784000D02*
X117108000Y-91784000D01*
X156478000Y-89244000D02*
X150382000Y-89244000D01*
X159018000Y-86704000D02*
X156478000Y-89244000D01*
%TO.N,Net-(D3-Pad2)*%
X89930000Y-99023000D02*
X89930000Y-100928000D01*
X91526205Y-102524205D02*
X104335795Y-102524205D01*
X89930000Y-100928000D02*
X91526205Y-102524205D01*
X104335795Y-102524205D02*
X105351795Y-102524205D01*
%TO.N,/DOWN*%
X110631000Y-99023000D02*
X92470000Y-99023000D01*
X117870000Y-92292000D02*
X111139000Y-99023000D01*
X148604000Y-92292000D02*
X117870000Y-92292000D01*
X150890000Y-90006000D02*
X148604000Y-92292000D01*
X111139000Y-99023000D02*
X110631000Y-99023000D01*
X158256000Y-90006000D02*
X150890000Y-90006000D01*
X161558000Y-86704000D02*
X158256000Y-90006000D01*
%TO.N,Net-(D4-Pad2)*%
X89930000Y-80735000D02*
X89930000Y-82640000D01*
X89930000Y-82640000D02*
X90692000Y-83402000D01*
X107964000Y-83402000D02*
X109234000Y-82132000D01*
X90692000Y-83402000D02*
X107964000Y-83402000D01*
%TO.N,/UP*%
X100979000Y-80735000D02*
X92470000Y-80735000D01*
X105678000Y-81370000D02*
X101614000Y-81370000D01*
X107456000Y-79592000D02*
X105678000Y-81370000D01*
X122188000Y-79592000D02*
X107456000Y-79592000D01*
X101614000Y-81370000D02*
X100979000Y-80735000D01*
X124220000Y-81624000D02*
X122188000Y-79592000D01*
X159018000Y-81624000D02*
X124220000Y-81624000D01*
X164098000Y-86704000D02*
X159018000Y-81624000D01*
%TO.N,Net-(D5-Pad2)*%
X128411000Y-95721000D02*
X128284000Y-95594000D01*
X133491000Y-95721000D02*
X128411000Y-95721000D01*
%TO.N,/STA*%
X136031000Y-95721000D02*
X146953000Y-95721000D01*
X146953000Y-95721000D02*
X151652000Y-91022000D01*
X162320000Y-91022000D02*
X166638000Y-86704000D01*
X151652000Y-91022000D02*
X162320000Y-91022000D01*
%TO.N,Net-(D6-Pad2)*%
X117362000Y-95721000D02*
X117362000Y-94070000D01*
X117362000Y-94070000D02*
X118124000Y-93308000D01*
X122696000Y-93308000D02*
X124982000Y-95594000D01*
X118124000Y-93308000D02*
X122696000Y-93308000D01*
%TO.N,/SEL*%
X119902000Y-95721000D02*
X119902000Y-97372000D01*
X119902000Y-97372000D02*
X120664000Y-98134000D01*
X120664000Y-98134000D02*
X146572000Y-98134000D01*
X146572000Y-98134000D02*
X152668000Y-92038000D01*
X163844000Y-92038000D02*
X169178000Y-86704000D01*
X152668000Y-92038000D02*
X163844000Y-92038000D01*
%TO.N,Net-(D7-Pad2)*%
X140730000Y-104230000D02*
X142508000Y-104230000D01*
X151017000Y-95721000D02*
X154954000Y-95721000D01*
X142508000Y-104230000D02*
X151017000Y-95721000D01*
%TO.N,/B*%
X162701000Y-95721000D02*
X171718000Y-86704000D01*
X157494000Y-95721000D02*
X162701000Y-95721000D01*
%TO.N,Net-(D8-Pad2)*%
X167019000Y-99658000D02*
X170956000Y-95721000D01*
X150382000Y-99658000D02*
X167019000Y-99658000D01*
X145810000Y-104230000D02*
X150382000Y-99658000D01*
%TO.N,/A*%
X174258000Y-86704000D02*
X174258000Y-91530000D01*
X173496000Y-92292000D02*
X173496000Y-95721000D01*
X174258000Y-91530000D02*
X173496000Y-92292000D01*
D18*
%TO.N,/GND*%
X174512000Y-74766000D02*
X174512000Y-73242000D01*
X174512000Y-73242000D02*
X173496000Y-72226000D01*
X173496000Y-72226000D02*
X166130000Y-72226000D01*
X164352000Y-70448000D02*
X164352000Y-67146000D01*
X166130000Y-72226000D02*
X164352000Y-70448000D01*
X144032000Y-78576000D02*
X124982000Y-78576000D01*
X150382000Y-72226000D02*
X144032000Y-78576000D01*
X162574000Y-72226000D02*
X150382000Y-72226000D01*
X164352000Y-70448000D02*
X162574000Y-72226000D01*
D17*
%TO.N,Net-(U1-Pad15)*%
X156478000Y-79084000D02*
X158256000Y-80862000D01*
X158256000Y-80862000D02*
X177560000Y-80862000D01*
X177560000Y-80862000D02*
X178322000Y-80100000D01*
X178322000Y-80100000D02*
X178322000Y-67146000D01*
X159272000Y-67146000D02*
X162066000Y-64352000D01*
X175528000Y-64352000D02*
X178322000Y-67146000D01*
X162066000Y-64352000D02*
X175528000Y-64352000D01*
%TO.N,Net-(U1-Pad7)*%
X174258000Y-77052000D02*
X171972000Y-74766000D01*
X174258000Y-79084000D02*
X174258000Y-77052000D01*
%TO.N,Net-(U1-Pad6)*%
X171718000Y-77052000D02*
X169432000Y-74766000D01*
X171718000Y-79084000D02*
X171718000Y-77052000D01*
%TO.N,Net-(U1-Pad5)*%
X169178000Y-77052000D02*
X166892000Y-74766000D01*
X169178000Y-79084000D02*
X169178000Y-77052000D01*
%TO.N,Net-(U1-Pad4)*%
X166638000Y-77052000D02*
X164352000Y-74766000D01*
X166638000Y-79084000D02*
X166638000Y-77052000D01*
%TO.N,Net-(U1-Pad3)*%
X164098000Y-77052000D02*
X161812000Y-74766000D01*
X164098000Y-79084000D02*
X164098000Y-77052000D01*
%TO.N,Net-(U1-Pad2)*%
X161558000Y-77052000D02*
X159272000Y-74766000D01*
X161558000Y-79084000D02*
X161558000Y-77052000D01*
%TO.N,Net-(U1-Pad1)*%
X159018000Y-77052000D02*
X156732000Y-74766000D01*
X159018000Y-79084000D02*
X159018000Y-77052000D01*
%TD*%
M02*
