%TF.GenerationSoftware,KiCad,Pcbnew,5.1.10-88a1d61d58~88~ubuntu20.04.1*%
%TF.CreationDate,2021-05-28T03:57:09-05:00*%
%TF.ProjectId,vizboard-nes,76697a62-6f61-4726-942d-6e65732e6b69,rev?*%
%TF.SameCoordinates,Original*%
%TF.FileFunction,Legend,Top*%
%TF.FilePolarity,Positive*%
%FSLAX46Y46*%
G04 Gerber Fmt 4.6, Leading zero omitted, Abs format (unit mm)*
G04 Created by KiCad (PCBNEW 5.1.10-88a1d61d58~88~ubuntu20.04.1) date 2021-05-28 03:57:09*
%MOMM*%
%LPD*%
G01*
G04 APERTURE LIST*
%ADD10C,0.300000*%
%ADD11C,0.120000*%
%ADD12C,0.150000*%
%ADD13C,2.200000*%
%ADD14C,3.200000*%
%ADD15O,1.600000X1.600000*%
%ADD16R,1.600000X1.600000*%
%ADD17C,1.600000*%
%ADD18O,1.700000X1.700000*%
%ADD19R,1.700000X1.700000*%
%ADD20C,1.800000*%
%ADD21R,1.800000X1.800000*%
G04 APERTURE END LIST*
D10*
X156582285Y-82297571D02*
X156582285Y-80797571D01*
X157296571Y-82297571D02*
X157296571Y-80797571D01*
X158153714Y-82297571D01*
X158153714Y-80797571D01*
X158796571Y-82226142D02*
X159010857Y-82297571D01*
X159368000Y-82297571D01*
X159510857Y-82226142D01*
X159582285Y-82154714D01*
X159653714Y-82011857D01*
X159653714Y-81869000D01*
X159582285Y-81726142D01*
X159510857Y-81654714D01*
X159368000Y-81583285D01*
X159082285Y-81511857D01*
X158939428Y-81440428D01*
X158868000Y-81369000D01*
X158796571Y-81226142D01*
X158796571Y-81083285D01*
X158868000Y-80940428D01*
X158939428Y-80869000D01*
X159082285Y-80797571D01*
X159439428Y-80797571D01*
X159653714Y-80869000D01*
X160296571Y-81511857D02*
X160796571Y-81511857D01*
X161010857Y-82297571D02*
X160296571Y-82297571D01*
X160296571Y-80797571D01*
X161010857Y-80797571D01*
X162510857Y-82297571D02*
X162010857Y-81583285D01*
X161653714Y-82297571D02*
X161653714Y-80797571D01*
X162225142Y-80797571D01*
X162368000Y-80869000D01*
X162439428Y-80940428D01*
X162510857Y-81083285D01*
X162510857Y-81297571D01*
X162439428Y-81440428D01*
X162368000Y-81511857D01*
X162225142Y-81583285D01*
X161653714Y-81583285D01*
X162939428Y-80797571D02*
X163796571Y-80797571D01*
X163368000Y-82297571D02*
X163368000Y-80797571D01*
X165439428Y-82297571D02*
X165439428Y-80797571D01*
X167010857Y-82154714D02*
X166939428Y-82226142D01*
X166725142Y-82297571D01*
X166582285Y-82297571D01*
X166368000Y-82226142D01*
X166225142Y-82083285D01*
X166153714Y-81940428D01*
X166082285Y-81654714D01*
X166082285Y-81440428D01*
X166153714Y-81154714D01*
X166225142Y-81011857D01*
X166368000Y-80869000D01*
X166582285Y-80797571D01*
X166725142Y-80797571D01*
X166939428Y-80869000D01*
X167010857Y-80940428D01*
X169296571Y-81511857D02*
X168796571Y-81511857D01*
X168796571Y-82297571D02*
X168796571Y-80797571D01*
X169510857Y-80797571D01*
X170939428Y-82297571D02*
X170439428Y-81583285D01*
X170082285Y-82297571D02*
X170082285Y-80797571D01*
X170653714Y-80797571D01*
X170796571Y-80869000D01*
X170868000Y-80940428D01*
X170939428Y-81083285D01*
X170939428Y-81297571D01*
X170868000Y-81440428D01*
X170796571Y-81511857D01*
X170653714Y-81583285D01*
X170082285Y-81583285D01*
X171868000Y-80797571D02*
X172153714Y-80797571D01*
X172296571Y-80869000D01*
X172439428Y-81011857D01*
X172510857Y-81297571D01*
X172510857Y-81797571D01*
X172439428Y-82083285D01*
X172296571Y-82226142D01*
X172153714Y-82297571D01*
X171868000Y-82297571D01*
X171725142Y-82226142D01*
X171582285Y-82083285D01*
X171510857Y-81797571D01*
X171510857Y-81297571D01*
X171582285Y-81011857D01*
X171725142Y-80869000D01*
X171868000Y-80797571D01*
X173153714Y-82297571D02*
X173153714Y-80797571D01*
X173653714Y-81869000D01*
X174153714Y-80797571D01*
X174153714Y-82297571D01*
X154546571Y-83347571D02*
X154832285Y-83347571D01*
X154975142Y-83419000D01*
X155118000Y-83561857D01*
X155189428Y-83847571D01*
X155189428Y-84347571D01*
X155118000Y-84633285D01*
X154975142Y-84776142D01*
X154832285Y-84847571D01*
X154546571Y-84847571D01*
X154403714Y-84776142D01*
X154260857Y-84633285D01*
X154189428Y-84347571D01*
X154189428Y-83847571D01*
X154260857Y-83561857D01*
X154403714Y-83419000D01*
X154546571Y-83347571D01*
X155618000Y-83347571D02*
X156475142Y-83347571D01*
X156046571Y-84847571D02*
X156046571Y-83347571D01*
X156975142Y-84847571D02*
X156975142Y-83347571D01*
X156975142Y-84061857D02*
X157832285Y-84061857D01*
X157832285Y-84847571D02*
X157832285Y-83347571D01*
X158546571Y-84061857D02*
X159046571Y-84061857D01*
X159260857Y-84847571D02*
X158546571Y-84847571D01*
X158546571Y-83347571D01*
X159260857Y-83347571D01*
X160760857Y-84847571D02*
X160260857Y-84133285D01*
X159903714Y-84847571D02*
X159903714Y-83347571D01*
X160475142Y-83347571D01*
X160618000Y-83419000D01*
X160689428Y-83490428D01*
X160760857Y-83633285D01*
X160760857Y-83847571D01*
X160689428Y-83990428D01*
X160618000Y-84061857D01*
X160475142Y-84133285D01*
X159903714Y-84133285D01*
X162475142Y-84776142D02*
X162689428Y-84847571D01*
X163046571Y-84847571D01*
X163189428Y-84776142D01*
X163260857Y-84704714D01*
X163332285Y-84561857D01*
X163332285Y-84419000D01*
X163260857Y-84276142D01*
X163189428Y-84204714D01*
X163046571Y-84133285D01*
X162760857Y-84061857D01*
X162618000Y-83990428D01*
X162546571Y-83919000D01*
X162475142Y-83776142D01*
X162475142Y-83633285D01*
X162546571Y-83490428D01*
X162618000Y-83419000D01*
X162760857Y-83347571D01*
X163118000Y-83347571D01*
X163332285Y-83419000D01*
X163975142Y-84847571D02*
X163975142Y-83347571D01*
X164689428Y-84847571D02*
X164689428Y-83347571D01*
X165046571Y-83347571D01*
X165260857Y-83419000D01*
X165403714Y-83561857D01*
X165475142Y-83704714D01*
X165546571Y-83990428D01*
X165546571Y-84204714D01*
X165475142Y-84490428D01*
X165403714Y-84633285D01*
X165260857Y-84776142D01*
X165046571Y-84847571D01*
X164689428Y-84847571D01*
X166189428Y-84061857D02*
X166689428Y-84061857D01*
X166903714Y-84847571D02*
X166189428Y-84847571D01*
X166189428Y-83347571D01*
X166903714Y-83347571D01*
X168975142Y-83347571D02*
X169260857Y-83347571D01*
X169403714Y-83419000D01*
X169546571Y-83561857D01*
X169618000Y-83847571D01*
X169618000Y-84347571D01*
X169546571Y-84633285D01*
X169403714Y-84776142D01*
X169260857Y-84847571D01*
X168975142Y-84847571D01*
X168832285Y-84776142D01*
X168689428Y-84633285D01*
X168618000Y-84347571D01*
X168618000Y-83847571D01*
X168689428Y-83561857D01*
X168832285Y-83419000D01*
X168975142Y-83347571D01*
X170760857Y-84061857D02*
X170260857Y-84061857D01*
X170260857Y-84847571D02*
X170260857Y-83347571D01*
X170975142Y-83347571D01*
X172689428Y-84847571D02*
X172689428Y-83347571D01*
X173260857Y-83347571D01*
X173403714Y-83419000D01*
X173475142Y-83490428D01*
X173546571Y-83633285D01*
X173546571Y-83847571D01*
X173475142Y-83990428D01*
X173403714Y-84061857D01*
X173260857Y-84133285D01*
X172689428Y-84133285D01*
X175046571Y-84704714D02*
X174975142Y-84776142D01*
X174760857Y-84847571D01*
X174618000Y-84847571D01*
X174403714Y-84776142D01*
X174260857Y-84633285D01*
X174189428Y-84490428D01*
X174118000Y-84204714D01*
X174118000Y-83990428D01*
X174189428Y-83704714D01*
X174260857Y-83561857D01*
X174403714Y-83419000D01*
X174618000Y-83347571D01*
X174760857Y-83347571D01*
X174975142Y-83419000D01*
X175046571Y-83490428D01*
X176189428Y-84061857D02*
X176403714Y-84133285D01*
X176475142Y-84204714D01*
X176546571Y-84347571D01*
X176546571Y-84561857D01*
X176475142Y-84704714D01*
X176403714Y-84776142D01*
X176260857Y-84847571D01*
X175689428Y-84847571D01*
X175689428Y-83347571D01*
X176189428Y-83347571D01*
X176332285Y-83419000D01*
X176403714Y-83490428D01*
X176475142Y-83633285D01*
X176475142Y-83776142D01*
X176403714Y-83919000D01*
X176332285Y-83990428D01*
X176189428Y-84061857D01*
X175689428Y-84061857D01*
D11*
%TO.C,U1*%
X155402000Y-71956000D02*
X155402000Y-73606000D01*
X155402000Y-73606000D02*
X175842000Y-73606000D01*
X175842000Y-73606000D02*
X175842000Y-68306000D01*
X175842000Y-68306000D02*
X155402000Y-68306000D01*
X155402000Y-68306000D02*
X155402000Y-69956000D01*
X155402000Y-69956000D02*
G75*
G02*
X155402000Y-71956000I0J-1000000D01*
G01*
%TO.C,D8*%
X174726000Y-95721000D02*
G75*
G03*
X174726000Y-95721000I-2500000J0D01*
G01*
X174786000Y-97266000D02*
X174786000Y-94176000D01*
X169236000Y-95721462D02*
G75*
G02*
X174786000Y-94176170I2990000J462D01*
G01*
X169236000Y-95720538D02*
G75*
G03*
X174786000Y-97265830I2990000J-462D01*
G01*
%TO.C,D7*%
X158724000Y-95721000D02*
G75*
G03*
X158724000Y-95721000I-2500000J0D01*
G01*
X158784000Y-97266000D02*
X158784000Y-94176000D01*
X153234000Y-95721462D02*
G75*
G02*
X158784000Y-94176170I2990000J462D01*
G01*
X153234000Y-95720538D02*
G75*
G03*
X158784000Y-97265830I2990000J-462D01*
G01*
%TO.C,D6*%
X121132000Y-95721000D02*
G75*
G03*
X121132000Y-95721000I-2500000J0D01*
G01*
X121192000Y-97266000D02*
X121192000Y-94176000D01*
X115642000Y-95721462D02*
G75*
G02*
X121192000Y-94176170I2990000J462D01*
G01*
X115642000Y-95720538D02*
G75*
G03*
X121192000Y-97265830I2990000J-462D01*
G01*
%TO.C,D5*%
X137261000Y-95721000D02*
G75*
G03*
X137261000Y-95721000I-2500000J0D01*
G01*
X137321000Y-97266000D02*
X137321000Y-94176000D01*
X131771000Y-95721462D02*
G75*
G02*
X137321000Y-94176170I2990000J462D01*
G01*
X131771000Y-95720538D02*
G75*
G03*
X137321000Y-97265830I2990000J-462D01*
G01*
%TO.C,D4*%
X93700000Y-80735000D02*
G75*
G03*
X93700000Y-80735000I-2500000J0D01*
G01*
X93760000Y-82280000D02*
X93760000Y-79190000D01*
X88210000Y-80735462D02*
G75*
G02*
X93760000Y-79190170I2990000J462D01*
G01*
X88210000Y-80734538D02*
G75*
G03*
X93760000Y-82279830I2990000J-462D01*
G01*
%TO.C,D3*%
X93700000Y-99023000D02*
G75*
G03*
X93700000Y-99023000I-2500000J0D01*
G01*
X93760000Y-100568000D02*
X93760000Y-97478000D01*
X88210000Y-99023462D02*
G75*
G02*
X93760000Y-97478170I2990000J462D01*
G01*
X88210000Y-99022538D02*
G75*
G03*
X93760000Y-100567830I2990000J-462D01*
G01*
%TO.C,D2*%
X84683000Y-90006000D02*
G75*
G03*
X84683000Y-90006000I-2500000J0D01*
G01*
X84743000Y-91551000D02*
X84743000Y-88461000D01*
X79193000Y-90006462D02*
G75*
G02*
X84743000Y-88461170I2990000J462D01*
G01*
X79193000Y-90005538D02*
G75*
G03*
X84743000Y-91550830I2990000J-462D01*
G01*
%TO.C,D1*%
X102717000Y-90006000D02*
G75*
G03*
X102717000Y-90006000I-2500000J0D01*
G01*
X102777000Y-91551000D02*
X102777000Y-88461000D01*
X97227000Y-90006462D02*
G75*
G02*
X102777000Y-88461170I2990000J462D01*
G01*
X97227000Y-90005538D02*
G75*
G03*
X102777000Y-91550830I2990000J-462D01*
G01*
%TO.C,U1*%
D12*
X153644380Y-71717904D02*
X154453904Y-71717904D01*
X154549142Y-71670285D01*
X154596761Y-71622666D01*
X154644380Y-71527428D01*
X154644380Y-71336952D01*
X154596761Y-71241714D01*
X154549142Y-71194095D01*
X154453904Y-71146476D01*
X153644380Y-71146476D01*
X154644380Y-70146476D02*
X154644380Y-70717904D01*
X154644380Y-70432190D02*
X153644380Y-70432190D01*
X153787238Y-70527428D01*
X153882476Y-70622666D01*
X153930095Y-70717904D01*
%TO.C,D8*%
X171487904Y-101380380D02*
X171487904Y-100380380D01*
X171726000Y-100380380D01*
X171868857Y-100428000D01*
X171964095Y-100523238D01*
X172011714Y-100618476D01*
X172059333Y-100808952D01*
X172059333Y-100951809D01*
X172011714Y-101142285D01*
X171964095Y-101237523D01*
X171868857Y-101332761D01*
X171726000Y-101380380D01*
X171487904Y-101380380D01*
X172630761Y-100808952D02*
X172535523Y-100761333D01*
X172487904Y-100713714D01*
X172440285Y-100618476D01*
X172440285Y-100570857D01*
X172487904Y-100475619D01*
X172535523Y-100428000D01*
X172630761Y-100380380D01*
X172821238Y-100380380D01*
X172916476Y-100428000D01*
X172964095Y-100475619D01*
X173011714Y-100570857D01*
X173011714Y-100618476D01*
X172964095Y-100713714D01*
X172916476Y-100761333D01*
X172821238Y-100808952D01*
X172630761Y-100808952D01*
X172535523Y-100856571D01*
X172487904Y-100904190D01*
X172440285Y-100999428D01*
X172440285Y-101189904D01*
X172487904Y-101285142D01*
X172535523Y-101332761D01*
X172630761Y-101380380D01*
X172821238Y-101380380D01*
X172916476Y-101332761D01*
X172964095Y-101285142D01*
X173011714Y-101189904D01*
X173011714Y-100999428D01*
X172964095Y-100904190D01*
X172916476Y-100856571D01*
X172821238Y-100808952D01*
%TO.C,D7*%
X155485904Y-101380380D02*
X155485904Y-100380380D01*
X155724000Y-100380380D01*
X155866857Y-100428000D01*
X155962095Y-100523238D01*
X156009714Y-100618476D01*
X156057333Y-100808952D01*
X156057333Y-100951809D01*
X156009714Y-101142285D01*
X155962095Y-101237523D01*
X155866857Y-101332761D01*
X155724000Y-101380380D01*
X155485904Y-101380380D01*
X156390666Y-100380380D02*
X157057333Y-100380380D01*
X156628761Y-101380380D01*
%TO.C,D6*%
X117893904Y-101380380D02*
X117893904Y-100380380D01*
X118132000Y-100380380D01*
X118274857Y-100428000D01*
X118370095Y-100523238D01*
X118417714Y-100618476D01*
X118465333Y-100808952D01*
X118465333Y-100951809D01*
X118417714Y-101142285D01*
X118370095Y-101237523D01*
X118274857Y-101332761D01*
X118132000Y-101380380D01*
X117893904Y-101380380D01*
X119322476Y-100380380D02*
X119132000Y-100380380D01*
X119036761Y-100428000D01*
X118989142Y-100475619D01*
X118893904Y-100618476D01*
X118846285Y-100808952D01*
X118846285Y-101189904D01*
X118893904Y-101285142D01*
X118941523Y-101332761D01*
X119036761Y-101380380D01*
X119227238Y-101380380D01*
X119322476Y-101332761D01*
X119370095Y-101285142D01*
X119417714Y-101189904D01*
X119417714Y-100951809D01*
X119370095Y-100856571D01*
X119322476Y-100808952D01*
X119227238Y-100761333D01*
X119036761Y-100761333D01*
X118941523Y-100808952D01*
X118893904Y-100856571D01*
X118846285Y-100951809D01*
%TO.C,D5*%
X134022904Y-101380380D02*
X134022904Y-100380380D01*
X134261000Y-100380380D01*
X134403857Y-100428000D01*
X134499095Y-100523238D01*
X134546714Y-100618476D01*
X134594333Y-100808952D01*
X134594333Y-100951809D01*
X134546714Y-101142285D01*
X134499095Y-101237523D01*
X134403857Y-101332761D01*
X134261000Y-101380380D01*
X134022904Y-101380380D01*
X135499095Y-100380380D02*
X135022904Y-100380380D01*
X134975285Y-100856571D01*
X135022904Y-100808952D01*
X135118142Y-100761333D01*
X135356238Y-100761333D01*
X135451476Y-100808952D01*
X135499095Y-100856571D01*
X135546714Y-100951809D01*
X135546714Y-101189904D01*
X135499095Y-101285142D01*
X135451476Y-101332761D01*
X135356238Y-101380380D01*
X135118142Y-101380380D01*
X135022904Y-101332761D01*
X134975285Y-101285142D01*
%TO.C,D4*%
X90461904Y-76488380D02*
X90461904Y-75488380D01*
X90700000Y-75488380D01*
X90842857Y-75536000D01*
X90938095Y-75631238D01*
X90985714Y-75726476D01*
X91033333Y-75916952D01*
X91033333Y-76059809D01*
X90985714Y-76250285D01*
X90938095Y-76345523D01*
X90842857Y-76440761D01*
X90700000Y-76488380D01*
X90461904Y-76488380D01*
X91890476Y-75821714D02*
X91890476Y-76488380D01*
X91652380Y-75440761D02*
X91414285Y-76155047D01*
X92033333Y-76155047D01*
%TO.C,D3*%
X90461904Y-104682380D02*
X90461904Y-103682380D01*
X90700000Y-103682380D01*
X90842857Y-103730000D01*
X90938095Y-103825238D01*
X90985714Y-103920476D01*
X91033333Y-104110952D01*
X91033333Y-104253809D01*
X90985714Y-104444285D01*
X90938095Y-104539523D01*
X90842857Y-104634761D01*
X90700000Y-104682380D01*
X90461904Y-104682380D01*
X91366666Y-103682380D02*
X91985714Y-103682380D01*
X91652380Y-104063333D01*
X91795238Y-104063333D01*
X91890476Y-104110952D01*
X91938095Y-104158571D01*
X91985714Y-104253809D01*
X91985714Y-104491904D01*
X91938095Y-104587142D01*
X91890476Y-104634761D01*
X91795238Y-104682380D01*
X91509523Y-104682380D01*
X91414285Y-104634761D01*
X91366666Y-104587142D01*
%TO.C,D2*%
X76237904Y-90458380D02*
X76237904Y-89458380D01*
X76476000Y-89458380D01*
X76618857Y-89506000D01*
X76714095Y-89601238D01*
X76761714Y-89696476D01*
X76809333Y-89886952D01*
X76809333Y-90029809D01*
X76761714Y-90220285D01*
X76714095Y-90315523D01*
X76618857Y-90410761D01*
X76476000Y-90458380D01*
X76237904Y-90458380D01*
X77190285Y-89553619D02*
X77237904Y-89506000D01*
X77333142Y-89458380D01*
X77571238Y-89458380D01*
X77666476Y-89506000D01*
X77714095Y-89553619D01*
X77761714Y-89648857D01*
X77761714Y-89744095D01*
X77714095Y-89886952D01*
X77142666Y-90458380D01*
X77761714Y-90458380D01*
%TO.C,D1*%
X104939904Y-90458380D02*
X104939904Y-89458380D01*
X105178000Y-89458380D01*
X105320857Y-89506000D01*
X105416095Y-89601238D01*
X105463714Y-89696476D01*
X105511333Y-89886952D01*
X105511333Y-90029809D01*
X105463714Y-90220285D01*
X105416095Y-90315523D01*
X105320857Y-90410761D01*
X105178000Y-90458380D01*
X104939904Y-90458380D01*
X106463714Y-90458380D02*
X105892285Y-90458380D01*
X106178000Y-90458380D02*
X106178000Y-89458380D01*
X106082761Y-89601238D01*
X105987523Y-89696476D01*
X105892285Y-89744095D01*
%TD*%
%LPC*%
D13*
%TO.C,REF\u002A\u002A*%
X103709500Y-77242500D03*
%TD*%
%TO.C,REF\u002A\u002A*%
X131205000Y-67273000D03*
%TD*%
%TO.C,REF\u002A\u002A*%
X183719500Y-67273000D03*
%TD*%
%TO.C,REF\u002A\u002A*%
X183719500Y-102261500D03*
%TD*%
%TO.C,REF\u002A\u002A*%
X78690500Y-102261500D03*
%TD*%
%TO.C,REF\u002A\u002A*%
X126696500Y-102261500D03*
%TD*%
D14*
%TO.C,REF\u002A\u002A*%
X144717800Y-89244000D03*
%TD*%
%TO.C,REF\u002A\u002A*%
X138723400Y-86246800D03*
%TD*%
D15*
%TO.C,U2*%
X153938000Y-86704000D03*
X176798000Y-79084000D03*
X156478000Y-86704000D03*
X174258000Y-79084000D03*
X159018000Y-86704000D03*
X171718000Y-79084000D03*
X161558000Y-86704000D03*
X169178000Y-79084000D03*
X164098000Y-86704000D03*
X166638000Y-79084000D03*
X166638000Y-86704000D03*
X164098000Y-79084000D03*
X169178000Y-86704000D03*
X161558000Y-79084000D03*
X171718000Y-86704000D03*
X159018000Y-79084000D03*
X174258000Y-86704000D03*
X156478000Y-79084000D03*
X176798000Y-86704000D03*
D16*
X153938000Y-79084000D03*
%TD*%
D15*
%TO.C,U1*%
X156732000Y-67146000D03*
X174512000Y-74766000D03*
X159272000Y-67146000D03*
X171972000Y-74766000D03*
X161812000Y-67146000D03*
X169432000Y-74766000D03*
X164352000Y-67146000D03*
X166892000Y-74766000D03*
X166892000Y-67146000D03*
X164352000Y-74766000D03*
X169432000Y-67146000D03*
X161812000Y-74766000D03*
X171972000Y-67146000D03*
X159272000Y-74766000D03*
X174512000Y-67146000D03*
D16*
X156732000Y-74766000D03*
%TD*%
D15*
%TO.C,R8*%
X145810000Y-104230000D03*
D17*
X145810000Y-94070000D03*
%TD*%
D15*
%TO.C,R7*%
X140730000Y-104230000D03*
D17*
X140730000Y-94070000D03*
%TD*%
D15*
%TO.C,R6*%
X124982000Y-95594000D03*
D17*
X124982000Y-85434000D03*
%TD*%
D15*
%TO.C,R5*%
X128284000Y-95594000D03*
D17*
X128284000Y-85434000D03*
%TD*%
D15*
%TO.C,R4*%
X109234000Y-82132000D03*
D17*
X119394000Y-82132000D03*
%TD*%
%TO.C,R3*%
G36*
G01*
X105917480Y-101958520D02*
X105917480Y-101958520D01*
G75*
G02*
X105917480Y-103089890I-565685J-565685D01*
G01*
X105917480Y-103089890D01*
G75*
G02*
X104786110Y-103089890I-565685J565685D01*
G01*
X104786110Y-103089890D01*
G75*
G02*
X104786110Y-101958520I565685J565685D01*
G01*
X104786110Y-101958520D01*
G75*
G02*
X105917480Y-101958520I565685J-565685D01*
G01*
G37*
X112536000Y-95340000D03*
%TD*%
D15*
%TO.C,R2*%
X109234000Y-88736000D03*
D17*
X119394000Y-88736000D03*
%TD*%
D15*
%TO.C,R1*%
X109234000Y-85434000D03*
D17*
X119394000Y-85434000D03*
%TD*%
D18*
%TO.C,J1*%
X124982000Y-78576000D03*
X124982000Y-76036000D03*
X124982000Y-73496000D03*
X124982000Y-70956000D03*
D19*
X124982000Y-68416000D03*
%TD*%
D20*
%TO.C,D8*%
X170956000Y-95721000D03*
D21*
X173496000Y-95721000D03*
%TD*%
D20*
%TO.C,D7*%
X154954000Y-95721000D03*
D21*
X157494000Y-95721000D03*
%TD*%
D20*
%TO.C,D6*%
X117362000Y-95721000D03*
D21*
X119902000Y-95721000D03*
%TD*%
D20*
%TO.C,D5*%
X133491000Y-95721000D03*
D21*
X136031000Y-95721000D03*
%TD*%
D20*
%TO.C,D4*%
X89930000Y-80735000D03*
D21*
X92470000Y-80735000D03*
%TD*%
D20*
%TO.C,D3*%
X89930000Y-99023000D03*
D21*
X92470000Y-99023000D03*
%TD*%
D20*
%TO.C,D2*%
X80913000Y-90006000D03*
D21*
X83453000Y-90006000D03*
%TD*%
D20*
%TO.C,D1*%
X98947000Y-90006000D03*
D21*
X101487000Y-90006000D03*
%TD*%
M02*
