%FSLAX45Y45*%
G04 Gerber Fmt 4.5, Leading zero omitted, Abs format (unit mm)*
G04 Created by KiCad (PCBNEW 5.1.10-88a1d61d58~88~ubuntu20.04.1) date 2021-05-28 03:59:18*
%MOMM*%
%LPD*%
G01*
G04 APERTURE LIST*
%TA.AperFunction,Profile*%
%ADD10C,0.200000*%
%TD*%
%ADD11C,0.200000*%
%ADD12C,0.300000*%
G04 APERTURE END LIST*
D10*
X18770400Y-6424532D02*
G75*
G03*
X18670400Y-6324532I-100000J0D01*
G01*
X18670400Y-10624600D02*
G75*
G03*
X18770400Y-10524600I0J100000D01*
G01*
X10970600Y-10624600D02*
X7570600Y-10624600D01*
X15270600Y-10424600D02*
X14970600Y-10424600D01*
X14970600Y-10424600D02*
X14970600Y-10624600D01*
X15270600Y-10624600D02*
X15270600Y-10424600D01*
X18670400Y-10624600D02*
X15270600Y-10624600D01*
X10970600Y-10424600D02*
X10970600Y-10624600D01*
X11270600Y-6524100D02*
X11270600Y-6324600D01*
X7470600Y-10524600D02*
X7470600Y-8924600D01*
X10771000Y-6524100D02*
X11270600Y-6524100D01*
X14970600Y-10624600D02*
X11270600Y-10624600D01*
X11270600Y-10624600D02*
X11270600Y-10424600D01*
X11270600Y-10424600D02*
X10970600Y-10424600D01*
X11270600Y-6324600D02*
X14970600Y-6324600D01*
X15270600Y-6324600D02*
X18670400Y-6324532D01*
X15270600Y-6524600D02*
X15270600Y-6324600D01*
X10770600Y-7324600D02*
X10771000Y-6524100D01*
X14970600Y-6524600D02*
X15270600Y-6524600D01*
X9070600Y-7324600D02*
X10770600Y-7324600D01*
X14970600Y-6324600D02*
X14970600Y-6524600D01*
X7470600Y-10524600D02*
G75*
G03*
X7570600Y-10624600I100000J0D01*
G01*
X9070600Y-7324600D02*
G75*
G03*
X7470600Y-8924600I0J-1600000D01*
G01*
X18770400Y-6424532D02*
X18770400Y-10524600D01*
D11*
X10495180Y-10212421D02*
X10575180Y-10292421D01*
X10575180Y-10212421D02*
X10495180Y-10292421D01*
X10883400Y-8173200D02*
X10963400Y-8253200D01*
X10963400Y-8173200D02*
X10883400Y-8253200D01*
X10883400Y-8503400D02*
X10963400Y-8583400D01*
X10963400Y-8503400D02*
X10883400Y-8583400D01*
X10883400Y-8833600D02*
X10963400Y-8913600D01*
X10963400Y-8833600D02*
X10883400Y-8913600D01*
X11213600Y-9494000D02*
X11293600Y-9574000D01*
X11293600Y-9494000D02*
X11213600Y-9574000D01*
X11899400Y-8173200D02*
X11979400Y-8253200D01*
X11979400Y-8173200D02*
X11899400Y-8253200D01*
X11899400Y-8503400D02*
X11979400Y-8583400D01*
X11979400Y-8503400D02*
X11899400Y-8583400D01*
X11899400Y-8833600D02*
X11979400Y-8913600D01*
X11979400Y-8833600D02*
X11899400Y-8913600D01*
X12458200Y-8503400D02*
X12538200Y-8583400D01*
X12538200Y-8503400D02*
X12458200Y-8583400D01*
X12458200Y-9519400D02*
X12538200Y-9599400D01*
X12538200Y-9519400D02*
X12458200Y-9599400D01*
X12788400Y-8503400D02*
X12868400Y-8583400D01*
X12868400Y-8503400D02*
X12788400Y-8583400D01*
X12788400Y-9519400D02*
X12868400Y-9599400D01*
X12868400Y-9519400D02*
X12788400Y-9599400D01*
X14033000Y-9367000D02*
X14113000Y-9447000D01*
X14113000Y-9367000D02*
X14033000Y-9447000D01*
X14033000Y-10383000D02*
X14113000Y-10463000D01*
X14113000Y-10383000D02*
X14033000Y-10463000D01*
X14541000Y-9367000D02*
X14621000Y-9447000D01*
X14621000Y-9367000D02*
X14541000Y-9447000D01*
X14541000Y-10383000D02*
X14621000Y-10463000D01*
X14621000Y-10383000D02*
X14541000Y-10463000D01*
X15353800Y-7868400D02*
X15433800Y-7948400D01*
X15433800Y-7868400D02*
X15353800Y-7948400D01*
X15353800Y-8630400D02*
X15433800Y-8710400D01*
X15433800Y-8630400D02*
X15353800Y-8710400D01*
X15607800Y-7868400D02*
X15687800Y-7948400D01*
X15687800Y-7868400D02*
X15607800Y-7948400D01*
X15607800Y-8630400D02*
X15687800Y-8710400D01*
X15687800Y-8630400D02*
X15607800Y-8710400D01*
X15633200Y-6674600D02*
X15713200Y-6754600D01*
X15713200Y-6674600D02*
X15633200Y-6754600D01*
X15633200Y-7436600D02*
X15713200Y-7516600D01*
X15713200Y-7436600D02*
X15633200Y-7516600D01*
X15861800Y-7868400D02*
X15941800Y-7948400D01*
X15941800Y-7868400D02*
X15861800Y-7948400D01*
X15861800Y-8630400D02*
X15941800Y-8710400D01*
X15941800Y-8630400D02*
X15861800Y-8710400D01*
X15887200Y-6674600D02*
X15967200Y-6754600D01*
X15967200Y-6674600D02*
X15887200Y-6754600D01*
X15887200Y-7436600D02*
X15967200Y-7516600D01*
X15967200Y-7436600D02*
X15887200Y-7516600D01*
X16115800Y-7868400D02*
X16195800Y-7948400D01*
X16195800Y-7868400D02*
X16115800Y-7948400D01*
X16115800Y-8630400D02*
X16195800Y-8710400D01*
X16195800Y-8630400D02*
X16115800Y-8710400D01*
X16141200Y-6674600D02*
X16221200Y-6754600D01*
X16221200Y-6674600D02*
X16141200Y-6754600D01*
X16141200Y-7436600D02*
X16221200Y-7516600D01*
X16221200Y-7436600D02*
X16141200Y-7516600D01*
X16369800Y-7868400D02*
X16449800Y-7948400D01*
X16449800Y-7868400D02*
X16369800Y-7948400D01*
X16369800Y-8630400D02*
X16449800Y-8710400D01*
X16449800Y-8630400D02*
X16369800Y-8710400D01*
X16395200Y-6674600D02*
X16475200Y-6754600D01*
X16475200Y-6674600D02*
X16395200Y-6754600D01*
X16395200Y-7436600D02*
X16475200Y-7516600D01*
X16475200Y-7436600D02*
X16395200Y-7516600D01*
X16623800Y-7868400D02*
X16703800Y-7948400D01*
X16703800Y-7868400D02*
X16623800Y-7948400D01*
X16623800Y-8630400D02*
X16703800Y-8710400D01*
X16703800Y-8630400D02*
X16623800Y-8710400D01*
X16649200Y-6674600D02*
X16729200Y-6754600D01*
X16729200Y-6674600D02*
X16649200Y-6754600D01*
X16649200Y-7436600D02*
X16729200Y-7516600D01*
X16729200Y-7436600D02*
X16649200Y-7516600D01*
X16877800Y-7868400D02*
X16957800Y-7948400D01*
X16957800Y-7868400D02*
X16877800Y-7948400D01*
X16877800Y-8630400D02*
X16957800Y-8710400D01*
X16957800Y-8630400D02*
X16877800Y-8710400D01*
X16903200Y-6674600D02*
X16983200Y-6754600D01*
X16983200Y-6674600D02*
X16903200Y-6754600D01*
X16903200Y-7436600D02*
X16983200Y-7516600D01*
X16983200Y-7436600D02*
X16903200Y-7516600D01*
X17131800Y-7868400D02*
X17211800Y-7948400D01*
X17211800Y-7868400D02*
X17131800Y-7948400D01*
X17131800Y-8630400D02*
X17211800Y-8710400D01*
X17211800Y-8630400D02*
X17131800Y-8710400D01*
X17157200Y-6674600D02*
X17237200Y-6754600D01*
X17237200Y-6674600D02*
X17157200Y-6754600D01*
X17157200Y-7436600D02*
X17237200Y-7516600D01*
X17237200Y-7436600D02*
X17157200Y-7516600D01*
X17385800Y-7868400D02*
X17465800Y-7948400D01*
X17465800Y-7868400D02*
X17385800Y-7948400D01*
X17385800Y-8630400D02*
X17465800Y-8710400D01*
X17465800Y-8630400D02*
X17385800Y-8710400D01*
X17411200Y-6674600D02*
X17491200Y-6754600D01*
X17491200Y-6674600D02*
X17411200Y-6754600D01*
X17411200Y-7436600D02*
X17491200Y-7516600D01*
X17491200Y-7436600D02*
X17411200Y-7516600D01*
X17639800Y-7868400D02*
X17719800Y-7948400D01*
X17719800Y-7868400D02*
X17639800Y-7948400D01*
X17639800Y-8630400D02*
X17719800Y-8710400D01*
X17719800Y-8630400D02*
X17639800Y-8710400D01*
X8136300Y-9000600D02*
G75*
G03*
X8136300Y-9000600I-45000J0D01*
G01*
X8390300Y-9000600D02*
G75*
G03*
X8390300Y-9000600I-45000J0D01*
G01*
X9038000Y-8073500D02*
G75*
G03*
X9038000Y-8073500I-45000J0D01*
G01*
X9038000Y-9902300D02*
G75*
G03*
X9038000Y-9902300I-45000J0D01*
G01*
X9292000Y-8073500D02*
G75*
G03*
X9292000Y-8073500I-45000J0D01*
G01*
X9292000Y-9902300D02*
G75*
G03*
X9292000Y-9902300I-45000J0D01*
G01*
X9939700Y-9000600D02*
G75*
G03*
X9939700Y-9000600I-45000J0D01*
G01*
X10193700Y-9000600D02*
G75*
G03*
X10193700Y-9000600I-45000J0D01*
G01*
X11781200Y-9572100D02*
G75*
G03*
X11781200Y-9572100I-45000J0D01*
G01*
X12035200Y-9572100D02*
G75*
G03*
X12035200Y-9572100I-45000J0D01*
G01*
X13394100Y-9572100D02*
G75*
G03*
X13394100Y-9572100I-45000J0D01*
G01*
X13648100Y-9572100D02*
G75*
G03*
X13648100Y-9572100I-45000J0D01*
G01*
X15540400Y-9572100D02*
G75*
G03*
X15540400Y-9572100I-45000J0D01*
G01*
X15794400Y-9572100D02*
G75*
G03*
X15794400Y-9572100I-45000J0D01*
G01*
X17140600Y-9572100D02*
G75*
G03*
X17140600Y-9572100I-45000J0D01*
G01*
X17394600Y-9572100D02*
G75*
G03*
X17394600Y-9572100I-45000J0D01*
G01*
X12498200Y-6791600D02*
X12498200Y-6891600D01*
X12448200Y-6841600D02*
X12548200Y-6841600D01*
X12498200Y-7045600D02*
X12498200Y-7145600D01*
X12448200Y-7095600D02*
X12548200Y-7095600D01*
X12498200Y-7299600D02*
X12498200Y-7399600D01*
X12448200Y-7349600D02*
X12548200Y-7349600D01*
X12498200Y-7553600D02*
X12498200Y-7653600D01*
X12448200Y-7603600D02*
X12548200Y-7603600D01*
X12498200Y-7807600D02*
X12498200Y-7907600D01*
X12448200Y-7857600D02*
X12548200Y-7857600D01*
D12*
X7505428Y-11341914D02*
X7505428Y-11041914D01*
X7576857Y-11041914D01*
X7619714Y-11056200D01*
X7648286Y-11084771D01*
X7662571Y-11113343D01*
X7676857Y-11170486D01*
X7676857Y-11213343D01*
X7662571Y-11270486D01*
X7648286Y-11299057D01*
X7619714Y-11327628D01*
X7576857Y-11341914D01*
X7505428Y-11341914D01*
X7805428Y-11341914D02*
X7805428Y-11141914D01*
X7805428Y-11199057D02*
X7819714Y-11170486D01*
X7834000Y-11156200D01*
X7862571Y-11141914D01*
X7891143Y-11141914D01*
X7991143Y-11341914D02*
X7991143Y-11141914D01*
X7991143Y-11041914D02*
X7976857Y-11056200D01*
X7991143Y-11070486D01*
X8005428Y-11056200D01*
X7991143Y-11041914D01*
X7991143Y-11070486D01*
X8176857Y-11341914D02*
X8148286Y-11327628D01*
X8134000Y-11299057D01*
X8134000Y-11041914D01*
X8334000Y-11341914D02*
X8305428Y-11327628D01*
X8291143Y-11299057D01*
X8291143Y-11041914D01*
X8676857Y-11341914D02*
X8676857Y-11041914D01*
X8776857Y-11256200D01*
X8876857Y-11041914D01*
X8876857Y-11341914D01*
X9148286Y-11341914D02*
X9148286Y-11184771D01*
X9134000Y-11156200D01*
X9105429Y-11141914D01*
X9048286Y-11141914D01*
X9019714Y-11156200D01*
X9148286Y-11327628D02*
X9119714Y-11341914D01*
X9048286Y-11341914D01*
X9019714Y-11327628D01*
X9005429Y-11299057D01*
X9005429Y-11270486D01*
X9019714Y-11241914D01*
X9048286Y-11227628D01*
X9119714Y-11227628D01*
X9148286Y-11213343D01*
X9291143Y-11141914D02*
X9291143Y-11441914D01*
X9291143Y-11156200D02*
X9319714Y-11141914D01*
X9376857Y-11141914D01*
X9405429Y-11156200D01*
X9419714Y-11170486D01*
X9434000Y-11199057D01*
X9434000Y-11284771D01*
X9419714Y-11313343D01*
X9405429Y-11327628D01*
X9376857Y-11341914D01*
X9319714Y-11341914D01*
X9291143Y-11327628D01*
X9562571Y-11313343D02*
X9576857Y-11327628D01*
X9562571Y-11341914D01*
X9548286Y-11327628D01*
X9562571Y-11313343D01*
X9562571Y-11341914D01*
X9562571Y-11156200D02*
X9576857Y-11170486D01*
X9562571Y-11184771D01*
X9548286Y-11170486D01*
X9562571Y-11156200D01*
X9562571Y-11184771D01*
X7139000Y-11796200D02*
X7219000Y-11876200D01*
X7219000Y-11796200D02*
X7139000Y-11876200D01*
X7562571Y-11671914D02*
X7591143Y-11671914D01*
X7619714Y-11686200D01*
X7634000Y-11700486D01*
X7648286Y-11729057D01*
X7662571Y-11786200D01*
X7662571Y-11857628D01*
X7648286Y-11914771D01*
X7634000Y-11943343D01*
X7619714Y-11957628D01*
X7591143Y-11971914D01*
X7562571Y-11971914D01*
X7534000Y-11957628D01*
X7519714Y-11943343D01*
X7505428Y-11914771D01*
X7491143Y-11857628D01*
X7491143Y-11786200D01*
X7505428Y-11729057D01*
X7519714Y-11700486D01*
X7534000Y-11686200D01*
X7562571Y-11671914D01*
X7791143Y-11943343D02*
X7805428Y-11957628D01*
X7791143Y-11971914D01*
X7776857Y-11957628D01*
X7791143Y-11943343D01*
X7791143Y-11971914D01*
X7976857Y-11800486D02*
X7948286Y-11786200D01*
X7934000Y-11771914D01*
X7919714Y-11743343D01*
X7919714Y-11729057D01*
X7934000Y-11700486D01*
X7948286Y-11686200D01*
X7976857Y-11671914D01*
X8034000Y-11671914D01*
X8062571Y-11686200D01*
X8076857Y-11700486D01*
X8091143Y-11729057D01*
X8091143Y-11743343D01*
X8076857Y-11771914D01*
X8062571Y-11786200D01*
X8034000Y-11800486D01*
X7976857Y-11800486D01*
X7948286Y-11814771D01*
X7934000Y-11829057D01*
X7919714Y-11857628D01*
X7919714Y-11914771D01*
X7934000Y-11943343D01*
X7948286Y-11957628D01*
X7976857Y-11971914D01*
X8034000Y-11971914D01*
X8062571Y-11957628D01*
X8076857Y-11943343D01*
X8091143Y-11914771D01*
X8091143Y-11857628D01*
X8076857Y-11829057D01*
X8062571Y-11814771D01*
X8034000Y-11800486D01*
X8276857Y-11671914D02*
X8305428Y-11671914D01*
X8334000Y-11686200D01*
X8348286Y-11700486D01*
X8362571Y-11729057D01*
X8376857Y-11786200D01*
X8376857Y-11857628D01*
X8362571Y-11914771D01*
X8348286Y-11943343D01*
X8334000Y-11957628D01*
X8305428Y-11971914D01*
X8276857Y-11971914D01*
X8248286Y-11957628D01*
X8234000Y-11943343D01*
X8219714Y-11914771D01*
X8205428Y-11857628D01*
X8205428Y-11786200D01*
X8219714Y-11729057D01*
X8234000Y-11700486D01*
X8248286Y-11686200D01*
X8276857Y-11671914D01*
X8562571Y-11671914D02*
X8591143Y-11671914D01*
X8619714Y-11686200D01*
X8634000Y-11700486D01*
X8648286Y-11729057D01*
X8662571Y-11786200D01*
X8662571Y-11857628D01*
X8648286Y-11914771D01*
X8634000Y-11943343D01*
X8619714Y-11957628D01*
X8591143Y-11971914D01*
X8562571Y-11971914D01*
X8534000Y-11957628D01*
X8519714Y-11943343D01*
X8505429Y-11914771D01*
X8491143Y-11857628D01*
X8491143Y-11786200D01*
X8505429Y-11729057D01*
X8519714Y-11700486D01*
X8534000Y-11686200D01*
X8562571Y-11671914D01*
X8791143Y-11971914D02*
X8791143Y-11771914D01*
X8791143Y-11800486D02*
X8805429Y-11786200D01*
X8834000Y-11771914D01*
X8876857Y-11771914D01*
X8905429Y-11786200D01*
X8919714Y-11814771D01*
X8919714Y-11971914D01*
X8919714Y-11814771D02*
X8934000Y-11786200D01*
X8962571Y-11771914D01*
X9005429Y-11771914D01*
X9034000Y-11786200D01*
X9048286Y-11814771D01*
X9048286Y-11971914D01*
X9191143Y-11971914D02*
X9191143Y-11771914D01*
X9191143Y-11800486D02*
X9205429Y-11786200D01*
X9234000Y-11771914D01*
X9276857Y-11771914D01*
X9305429Y-11786200D01*
X9319714Y-11814771D01*
X9319714Y-11971914D01*
X9319714Y-11814771D02*
X9334000Y-11786200D01*
X9362571Y-11771914D01*
X9405429Y-11771914D01*
X9434000Y-11786200D01*
X9448286Y-11814771D01*
X9448286Y-11971914D01*
X10034000Y-11657628D02*
X9776857Y-12043343D01*
X10419714Y-11671914D02*
X10448286Y-11671914D01*
X10476857Y-11686200D01*
X10491143Y-11700486D01*
X10505429Y-11729057D01*
X10519714Y-11786200D01*
X10519714Y-11857628D01*
X10505429Y-11914771D01*
X10491143Y-11943343D01*
X10476857Y-11957628D01*
X10448286Y-11971914D01*
X10419714Y-11971914D01*
X10391143Y-11957628D01*
X10376857Y-11943343D01*
X10362571Y-11914771D01*
X10348286Y-11857628D01*
X10348286Y-11786200D01*
X10362571Y-11729057D01*
X10376857Y-11700486D01*
X10391143Y-11686200D01*
X10419714Y-11671914D01*
X10648286Y-11943343D02*
X10662571Y-11957628D01*
X10648286Y-11971914D01*
X10634000Y-11957628D01*
X10648286Y-11943343D01*
X10648286Y-11971914D01*
X10848286Y-11671914D02*
X10876857Y-11671914D01*
X10905429Y-11686200D01*
X10919714Y-11700486D01*
X10934000Y-11729057D01*
X10948286Y-11786200D01*
X10948286Y-11857628D01*
X10934000Y-11914771D01*
X10919714Y-11943343D01*
X10905429Y-11957628D01*
X10876857Y-11971914D01*
X10848286Y-11971914D01*
X10819714Y-11957628D01*
X10805429Y-11943343D01*
X10791143Y-11914771D01*
X10776857Y-11857628D01*
X10776857Y-11786200D01*
X10791143Y-11729057D01*
X10805429Y-11700486D01*
X10819714Y-11686200D01*
X10848286Y-11671914D01*
X11048286Y-11671914D02*
X11234000Y-11671914D01*
X11134000Y-11786200D01*
X11176857Y-11786200D01*
X11205428Y-11800486D01*
X11219714Y-11814771D01*
X11234000Y-11843343D01*
X11234000Y-11914771D01*
X11219714Y-11943343D01*
X11205428Y-11957628D01*
X11176857Y-11971914D01*
X11091143Y-11971914D01*
X11062571Y-11957628D01*
X11048286Y-11943343D01*
X11519714Y-11971914D02*
X11348286Y-11971914D01*
X11434000Y-11971914D02*
X11434000Y-11671914D01*
X11405428Y-11714771D01*
X11376857Y-11743343D01*
X11348286Y-11757628D01*
X11791143Y-11671914D02*
X11648286Y-11671914D01*
X11634000Y-11814771D01*
X11648286Y-11800486D01*
X11676857Y-11786200D01*
X11748286Y-11786200D01*
X11776857Y-11800486D01*
X11791143Y-11814771D01*
X11805428Y-11843343D01*
X11805428Y-11914771D01*
X11791143Y-11943343D01*
X11776857Y-11957628D01*
X11748286Y-11971914D01*
X11676857Y-11971914D01*
X11648286Y-11957628D01*
X11634000Y-11943343D01*
X11919714Y-11671914D02*
X11919714Y-11729057D01*
X12034000Y-11671914D02*
X12034000Y-11729057D01*
X12476857Y-12086200D02*
X12462571Y-12071914D01*
X12434000Y-12029057D01*
X12419714Y-12000486D01*
X12405428Y-11957628D01*
X12391143Y-11886200D01*
X12391143Y-11829057D01*
X12405428Y-11757628D01*
X12419714Y-11714771D01*
X12434000Y-11686200D01*
X12462571Y-11643343D01*
X12476857Y-11629057D01*
X12734000Y-11671914D02*
X12591143Y-11671914D01*
X12576857Y-11814771D01*
X12591143Y-11800486D01*
X12619714Y-11786200D01*
X12691143Y-11786200D01*
X12719714Y-11800486D01*
X12734000Y-11814771D01*
X12748286Y-11843343D01*
X12748286Y-11914771D01*
X12734000Y-11943343D01*
X12719714Y-11957628D01*
X12691143Y-11971914D01*
X12619714Y-11971914D01*
X12591143Y-11957628D01*
X12576857Y-11943343D01*
X12862571Y-11700486D02*
X12876857Y-11686200D01*
X12905428Y-11671914D01*
X12976857Y-11671914D01*
X13005428Y-11686200D01*
X13019714Y-11700486D01*
X13034000Y-11729057D01*
X13034000Y-11757628D01*
X13019714Y-11800486D01*
X12848286Y-11971914D01*
X13034000Y-11971914D01*
X13391143Y-11971914D02*
X13391143Y-11671914D01*
X13519714Y-11971914D02*
X13519714Y-11814771D01*
X13505428Y-11786200D01*
X13476857Y-11771914D01*
X13434000Y-11771914D01*
X13405428Y-11786200D01*
X13391143Y-11800486D01*
X13705428Y-11971914D02*
X13676857Y-11957628D01*
X13662571Y-11943343D01*
X13648286Y-11914771D01*
X13648286Y-11829057D01*
X13662571Y-11800486D01*
X13676857Y-11786200D01*
X13705428Y-11771914D01*
X13748286Y-11771914D01*
X13776857Y-11786200D01*
X13791143Y-11800486D01*
X13805428Y-11829057D01*
X13805428Y-11914771D01*
X13791143Y-11943343D01*
X13776857Y-11957628D01*
X13748286Y-11971914D01*
X13705428Y-11971914D01*
X13976857Y-11971914D02*
X13948286Y-11957628D01*
X13934000Y-11929057D01*
X13934000Y-11671914D01*
X14205428Y-11957628D02*
X14176857Y-11971914D01*
X14119714Y-11971914D01*
X14091143Y-11957628D01*
X14076857Y-11929057D01*
X14076857Y-11814771D01*
X14091143Y-11786200D01*
X14119714Y-11771914D01*
X14176857Y-11771914D01*
X14205428Y-11786200D01*
X14219714Y-11814771D01*
X14219714Y-11843343D01*
X14076857Y-11871914D01*
X14334000Y-11957628D02*
X14362571Y-11971914D01*
X14419714Y-11971914D01*
X14448286Y-11957628D01*
X14462571Y-11929057D01*
X14462571Y-11914771D01*
X14448286Y-11886200D01*
X14419714Y-11871914D01*
X14376857Y-11871914D01*
X14348286Y-11857628D01*
X14334000Y-11829057D01*
X14334000Y-11814771D01*
X14348286Y-11786200D01*
X14376857Y-11771914D01*
X14419714Y-11771914D01*
X14448286Y-11786200D01*
X14562571Y-12086200D02*
X14576857Y-12071914D01*
X14605428Y-12029057D01*
X14619714Y-12000486D01*
X14634000Y-11957628D01*
X14648286Y-11886200D01*
X14648286Y-11829057D01*
X14634000Y-11757628D01*
X14619714Y-11714771D01*
X14605428Y-11686200D01*
X14576857Y-11643343D01*
X14562571Y-11629057D01*
X7219000Y-12232200D02*
G75*
G03*
X7219000Y-12232200I-45000J0D01*
G01*
X7562571Y-12067914D02*
X7591143Y-12067914D01*
X7619714Y-12082200D01*
X7634000Y-12096486D01*
X7648286Y-12125057D01*
X7662571Y-12182200D01*
X7662571Y-12253628D01*
X7648286Y-12310771D01*
X7634000Y-12339343D01*
X7619714Y-12353628D01*
X7591143Y-12367914D01*
X7562571Y-12367914D01*
X7534000Y-12353628D01*
X7519714Y-12339343D01*
X7505428Y-12310771D01*
X7491143Y-12253628D01*
X7491143Y-12182200D01*
X7505428Y-12125057D01*
X7519714Y-12096486D01*
X7534000Y-12082200D01*
X7562571Y-12067914D01*
X7791143Y-12339343D02*
X7805428Y-12353628D01*
X7791143Y-12367914D01*
X7776857Y-12353628D01*
X7791143Y-12339343D01*
X7791143Y-12367914D01*
X7948286Y-12367914D02*
X8005428Y-12367914D01*
X8034000Y-12353628D01*
X8048286Y-12339343D01*
X8076857Y-12296486D01*
X8091143Y-12239343D01*
X8091143Y-12125057D01*
X8076857Y-12096486D01*
X8062571Y-12082200D01*
X8034000Y-12067914D01*
X7976857Y-12067914D01*
X7948286Y-12082200D01*
X7934000Y-12096486D01*
X7919714Y-12125057D01*
X7919714Y-12196486D01*
X7934000Y-12225057D01*
X7948286Y-12239343D01*
X7976857Y-12253628D01*
X8034000Y-12253628D01*
X8062571Y-12239343D01*
X8076857Y-12225057D01*
X8091143Y-12196486D01*
X8276857Y-12067914D02*
X8305428Y-12067914D01*
X8334000Y-12082200D01*
X8348286Y-12096486D01*
X8362571Y-12125057D01*
X8376857Y-12182200D01*
X8376857Y-12253628D01*
X8362571Y-12310771D01*
X8348286Y-12339343D01*
X8334000Y-12353628D01*
X8305428Y-12367914D01*
X8276857Y-12367914D01*
X8248286Y-12353628D01*
X8234000Y-12339343D01*
X8219714Y-12310771D01*
X8205428Y-12253628D01*
X8205428Y-12182200D01*
X8219714Y-12125057D01*
X8234000Y-12096486D01*
X8248286Y-12082200D01*
X8276857Y-12067914D01*
X8562571Y-12067914D02*
X8591143Y-12067914D01*
X8619714Y-12082200D01*
X8634000Y-12096486D01*
X8648286Y-12125057D01*
X8662571Y-12182200D01*
X8662571Y-12253628D01*
X8648286Y-12310771D01*
X8634000Y-12339343D01*
X8619714Y-12353628D01*
X8591143Y-12367914D01*
X8562571Y-12367914D01*
X8534000Y-12353628D01*
X8519714Y-12339343D01*
X8505429Y-12310771D01*
X8491143Y-12253628D01*
X8491143Y-12182200D01*
X8505429Y-12125057D01*
X8519714Y-12096486D01*
X8534000Y-12082200D01*
X8562571Y-12067914D01*
X8791143Y-12367914D02*
X8791143Y-12167914D01*
X8791143Y-12196486D02*
X8805429Y-12182200D01*
X8834000Y-12167914D01*
X8876857Y-12167914D01*
X8905429Y-12182200D01*
X8919714Y-12210771D01*
X8919714Y-12367914D01*
X8919714Y-12210771D02*
X8934000Y-12182200D01*
X8962571Y-12167914D01*
X9005429Y-12167914D01*
X9034000Y-12182200D01*
X9048286Y-12210771D01*
X9048286Y-12367914D01*
X9191143Y-12367914D02*
X9191143Y-12167914D01*
X9191143Y-12196486D02*
X9205429Y-12182200D01*
X9234000Y-12167914D01*
X9276857Y-12167914D01*
X9305429Y-12182200D01*
X9319714Y-12210771D01*
X9319714Y-12367914D01*
X9319714Y-12210771D02*
X9334000Y-12182200D01*
X9362571Y-12167914D01*
X9405429Y-12167914D01*
X9434000Y-12182200D01*
X9448286Y-12210771D01*
X9448286Y-12367914D01*
X10034000Y-12053628D02*
X9776857Y-12439343D01*
X10419714Y-12067914D02*
X10448286Y-12067914D01*
X10476857Y-12082200D01*
X10491143Y-12096486D01*
X10505429Y-12125057D01*
X10519714Y-12182200D01*
X10519714Y-12253628D01*
X10505429Y-12310771D01*
X10491143Y-12339343D01*
X10476857Y-12353628D01*
X10448286Y-12367914D01*
X10419714Y-12367914D01*
X10391143Y-12353628D01*
X10376857Y-12339343D01*
X10362571Y-12310771D01*
X10348286Y-12253628D01*
X10348286Y-12182200D01*
X10362571Y-12125057D01*
X10376857Y-12096486D01*
X10391143Y-12082200D01*
X10419714Y-12067914D01*
X10648286Y-12339343D02*
X10662571Y-12353628D01*
X10648286Y-12367914D01*
X10634000Y-12353628D01*
X10648286Y-12339343D01*
X10648286Y-12367914D01*
X10848286Y-12067914D02*
X10876857Y-12067914D01*
X10905429Y-12082200D01*
X10919714Y-12096486D01*
X10934000Y-12125057D01*
X10948286Y-12182200D01*
X10948286Y-12253628D01*
X10934000Y-12310771D01*
X10919714Y-12339343D01*
X10905429Y-12353628D01*
X10876857Y-12367914D01*
X10848286Y-12367914D01*
X10819714Y-12353628D01*
X10805429Y-12339343D01*
X10791143Y-12310771D01*
X10776857Y-12253628D01*
X10776857Y-12182200D01*
X10791143Y-12125057D01*
X10805429Y-12096486D01*
X10819714Y-12082200D01*
X10848286Y-12067914D01*
X11048286Y-12067914D02*
X11234000Y-12067914D01*
X11134000Y-12182200D01*
X11176857Y-12182200D01*
X11205428Y-12196486D01*
X11219714Y-12210771D01*
X11234000Y-12239343D01*
X11234000Y-12310771D01*
X11219714Y-12339343D01*
X11205428Y-12353628D01*
X11176857Y-12367914D01*
X11091143Y-12367914D01*
X11062571Y-12353628D01*
X11048286Y-12339343D01*
X11505428Y-12067914D02*
X11362571Y-12067914D01*
X11348286Y-12210771D01*
X11362571Y-12196486D01*
X11391143Y-12182200D01*
X11462571Y-12182200D01*
X11491143Y-12196486D01*
X11505428Y-12210771D01*
X11519714Y-12239343D01*
X11519714Y-12310771D01*
X11505428Y-12339343D01*
X11491143Y-12353628D01*
X11462571Y-12367914D01*
X11391143Y-12367914D01*
X11362571Y-12353628D01*
X11348286Y-12339343D01*
X11776857Y-12167914D02*
X11776857Y-12367914D01*
X11705428Y-12053628D02*
X11634000Y-12267914D01*
X11819714Y-12267914D01*
X11919714Y-12067914D02*
X11919714Y-12125057D01*
X12034000Y-12067914D02*
X12034000Y-12125057D01*
X12476857Y-12482200D02*
X12462571Y-12467914D01*
X12434000Y-12425057D01*
X12419714Y-12396486D01*
X12405428Y-12353628D01*
X12391143Y-12282200D01*
X12391143Y-12225057D01*
X12405428Y-12153628D01*
X12419714Y-12110771D01*
X12434000Y-12082200D01*
X12462571Y-12039343D01*
X12476857Y-12025057D01*
X12748286Y-12367914D02*
X12576857Y-12367914D01*
X12662571Y-12367914D02*
X12662571Y-12067914D01*
X12634000Y-12110771D01*
X12605428Y-12139343D01*
X12576857Y-12153628D01*
X13005428Y-12067914D02*
X12948286Y-12067914D01*
X12919714Y-12082200D01*
X12905428Y-12096486D01*
X12876857Y-12139343D01*
X12862571Y-12196486D01*
X12862571Y-12310771D01*
X12876857Y-12339343D01*
X12891143Y-12353628D01*
X12919714Y-12367914D01*
X12976857Y-12367914D01*
X13005428Y-12353628D01*
X13019714Y-12339343D01*
X13034000Y-12310771D01*
X13034000Y-12239343D01*
X13019714Y-12210771D01*
X13005428Y-12196486D01*
X12976857Y-12182200D01*
X12919714Y-12182200D01*
X12891143Y-12196486D01*
X12876857Y-12210771D01*
X12862571Y-12239343D01*
X13391143Y-12367914D02*
X13391143Y-12067914D01*
X13519714Y-12367914D02*
X13519714Y-12210771D01*
X13505428Y-12182200D01*
X13476857Y-12167914D01*
X13434000Y-12167914D01*
X13405428Y-12182200D01*
X13391143Y-12196486D01*
X13705428Y-12367914D02*
X13676857Y-12353628D01*
X13662571Y-12339343D01*
X13648286Y-12310771D01*
X13648286Y-12225057D01*
X13662571Y-12196486D01*
X13676857Y-12182200D01*
X13705428Y-12167914D01*
X13748286Y-12167914D01*
X13776857Y-12182200D01*
X13791143Y-12196486D01*
X13805428Y-12225057D01*
X13805428Y-12310771D01*
X13791143Y-12339343D01*
X13776857Y-12353628D01*
X13748286Y-12367914D01*
X13705428Y-12367914D01*
X13976857Y-12367914D02*
X13948286Y-12353628D01*
X13934000Y-12325057D01*
X13934000Y-12067914D01*
X14205428Y-12353628D02*
X14176857Y-12367914D01*
X14119714Y-12367914D01*
X14091143Y-12353628D01*
X14076857Y-12325057D01*
X14076857Y-12210771D01*
X14091143Y-12182200D01*
X14119714Y-12167914D01*
X14176857Y-12167914D01*
X14205428Y-12182200D01*
X14219714Y-12210771D01*
X14219714Y-12239343D01*
X14076857Y-12267914D01*
X14334000Y-12353628D02*
X14362571Y-12367914D01*
X14419714Y-12367914D01*
X14448286Y-12353628D01*
X14462571Y-12325057D01*
X14462571Y-12310771D01*
X14448286Y-12282200D01*
X14419714Y-12267914D01*
X14376857Y-12267914D01*
X14348286Y-12253628D01*
X14334000Y-12225057D01*
X14334000Y-12210771D01*
X14348286Y-12182200D01*
X14376857Y-12167914D01*
X14419714Y-12167914D01*
X14448286Y-12182200D01*
X14562571Y-12482200D02*
X14576857Y-12467914D01*
X14605428Y-12425057D01*
X14619714Y-12396486D01*
X14634000Y-12353628D01*
X14648286Y-12282200D01*
X14648286Y-12225057D01*
X14634000Y-12153628D01*
X14619714Y-12110771D01*
X14605428Y-12082200D01*
X14576857Y-12039343D01*
X14562571Y-12025057D01*
X7169000Y-12578200D02*
X7169000Y-12678200D01*
X7119000Y-12628200D02*
X7219000Y-12628200D01*
X7662571Y-12763914D02*
X7491143Y-12763914D01*
X7576857Y-12763914D02*
X7576857Y-12463914D01*
X7548286Y-12506771D01*
X7519714Y-12535343D01*
X7491143Y-12549628D01*
X7791143Y-12735343D02*
X7805428Y-12749628D01*
X7791143Y-12763914D01*
X7776857Y-12749628D01*
X7791143Y-12735343D01*
X7791143Y-12763914D01*
X7991143Y-12463914D02*
X8019714Y-12463914D01*
X8048286Y-12478200D01*
X8062571Y-12492486D01*
X8076857Y-12521057D01*
X8091143Y-12578200D01*
X8091143Y-12649628D01*
X8076857Y-12706771D01*
X8062571Y-12735343D01*
X8048286Y-12749628D01*
X8019714Y-12763914D01*
X7991143Y-12763914D01*
X7962571Y-12749628D01*
X7948286Y-12735343D01*
X7934000Y-12706771D01*
X7919714Y-12649628D01*
X7919714Y-12578200D01*
X7934000Y-12521057D01*
X7948286Y-12492486D01*
X7962571Y-12478200D01*
X7991143Y-12463914D01*
X8276857Y-12463914D02*
X8305428Y-12463914D01*
X8334000Y-12478200D01*
X8348286Y-12492486D01*
X8362571Y-12521057D01*
X8376857Y-12578200D01*
X8376857Y-12649628D01*
X8362571Y-12706771D01*
X8348286Y-12735343D01*
X8334000Y-12749628D01*
X8305428Y-12763914D01*
X8276857Y-12763914D01*
X8248286Y-12749628D01*
X8234000Y-12735343D01*
X8219714Y-12706771D01*
X8205428Y-12649628D01*
X8205428Y-12578200D01*
X8219714Y-12521057D01*
X8234000Y-12492486D01*
X8248286Y-12478200D01*
X8276857Y-12463914D01*
X8562571Y-12463914D02*
X8591143Y-12463914D01*
X8619714Y-12478200D01*
X8634000Y-12492486D01*
X8648286Y-12521057D01*
X8662571Y-12578200D01*
X8662571Y-12649628D01*
X8648286Y-12706771D01*
X8634000Y-12735343D01*
X8619714Y-12749628D01*
X8591143Y-12763914D01*
X8562571Y-12763914D01*
X8534000Y-12749628D01*
X8519714Y-12735343D01*
X8505429Y-12706771D01*
X8491143Y-12649628D01*
X8491143Y-12578200D01*
X8505429Y-12521057D01*
X8519714Y-12492486D01*
X8534000Y-12478200D01*
X8562571Y-12463914D01*
X8791143Y-12763914D02*
X8791143Y-12563914D01*
X8791143Y-12592486D02*
X8805429Y-12578200D01*
X8834000Y-12563914D01*
X8876857Y-12563914D01*
X8905429Y-12578200D01*
X8919714Y-12606771D01*
X8919714Y-12763914D01*
X8919714Y-12606771D02*
X8934000Y-12578200D01*
X8962571Y-12563914D01*
X9005429Y-12563914D01*
X9034000Y-12578200D01*
X9048286Y-12606771D01*
X9048286Y-12763914D01*
X9191143Y-12763914D02*
X9191143Y-12563914D01*
X9191143Y-12592486D02*
X9205429Y-12578200D01*
X9234000Y-12563914D01*
X9276857Y-12563914D01*
X9305429Y-12578200D01*
X9319714Y-12606771D01*
X9319714Y-12763914D01*
X9319714Y-12606771D02*
X9334000Y-12578200D01*
X9362571Y-12563914D01*
X9405429Y-12563914D01*
X9434000Y-12578200D01*
X9448286Y-12606771D01*
X9448286Y-12763914D01*
X10034000Y-12449628D02*
X9776857Y-12835343D01*
X10419714Y-12463914D02*
X10448286Y-12463914D01*
X10476857Y-12478200D01*
X10491143Y-12492486D01*
X10505429Y-12521057D01*
X10519714Y-12578200D01*
X10519714Y-12649628D01*
X10505429Y-12706771D01*
X10491143Y-12735343D01*
X10476857Y-12749628D01*
X10448286Y-12763914D01*
X10419714Y-12763914D01*
X10391143Y-12749628D01*
X10376857Y-12735343D01*
X10362571Y-12706771D01*
X10348286Y-12649628D01*
X10348286Y-12578200D01*
X10362571Y-12521057D01*
X10376857Y-12492486D01*
X10391143Y-12478200D01*
X10419714Y-12463914D01*
X10648286Y-12735343D02*
X10662571Y-12749628D01*
X10648286Y-12763914D01*
X10634000Y-12749628D01*
X10648286Y-12735343D01*
X10648286Y-12763914D01*
X10848286Y-12463914D02*
X10876857Y-12463914D01*
X10905429Y-12478200D01*
X10919714Y-12492486D01*
X10934000Y-12521057D01*
X10948286Y-12578200D01*
X10948286Y-12649628D01*
X10934000Y-12706771D01*
X10919714Y-12735343D01*
X10905429Y-12749628D01*
X10876857Y-12763914D01*
X10848286Y-12763914D01*
X10819714Y-12749628D01*
X10805429Y-12735343D01*
X10791143Y-12706771D01*
X10776857Y-12649628D01*
X10776857Y-12578200D01*
X10791143Y-12521057D01*
X10805429Y-12492486D01*
X10819714Y-12478200D01*
X10848286Y-12463914D01*
X11048286Y-12463914D02*
X11234000Y-12463914D01*
X11134000Y-12578200D01*
X11176857Y-12578200D01*
X11205428Y-12592486D01*
X11219714Y-12606771D01*
X11234000Y-12635343D01*
X11234000Y-12706771D01*
X11219714Y-12735343D01*
X11205428Y-12749628D01*
X11176857Y-12763914D01*
X11091143Y-12763914D01*
X11062571Y-12749628D01*
X11048286Y-12735343D01*
X11376857Y-12763914D02*
X11434000Y-12763914D01*
X11462571Y-12749628D01*
X11476857Y-12735343D01*
X11505428Y-12692486D01*
X11519714Y-12635343D01*
X11519714Y-12521057D01*
X11505428Y-12492486D01*
X11491143Y-12478200D01*
X11462571Y-12463914D01*
X11405428Y-12463914D01*
X11376857Y-12478200D01*
X11362571Y-12492486D01*
X11348286Y-12521057D01*
X11348286Y-12592486D01*
X11362571Y-12621057D01*
X11376857Y-12635343D01*
X11405428Y-12649628D01*
X11462571Y-12649628D01*
X11491143Y-12635343D01*
X11505428Y-12621057D01*
X11519714Y-12592486D01*
X11776857Y-12563914D02*
X11776857Y-12763914D01*
X11705428Y-12449628D02*
X11634000Y-12663914D01*
X11819714Y-12663914D01*
X11919714Y-12463914D02*
X11919714Y-12521057D01*
X12034000Y-12463914D02*
X12034000Y-12521057D01*
X12476857Y-12878200D02*
X12462571Y-12863914D01*
X12434000Y-12821057D01*
X12419714Y-12792486D01*
X12405428Y-12749628D01*
X12391143Y-12678200D01*
X12391143Y-12621057D01*
X12405428Y-12549628D01*
X12419714Y-12506771D01*
X12434000Y-12478200D01*
X12462571Y-12435343D01*
X12476857Y-12421057D01*
X12734000Y-12463914D02*
X12591143Y-12463914D01*
X12576857Y-12606771D01*
X12591143Y-12592486D01*
X12619714Y-12578200D01*
X12691143Y-12578200D01*
X12719714Y-12592486D01*
X12734000Y-12606771D01*
X12748286Y-12635343D01*
X12748286Y-12706771D01*
X12734000Y-12735343D01*
X12719714Y-12749628D01*
X12691143Y-12763914D01*
X12619714Y-12763914D01*
X12591143Y-12749628D01*
X12576857Y-12735343D01*
X13105428Y-12763914D02*
X13105428Y-12463914D01*
X13234000Y-12763914D02*
X13234000Y-12606771D01*
X13219714Y-12578200D01*
X13191143Y-12563914D01*
X13148286Y-12563914D01*
X13119714Y-12578200D01*
X13105428Y-12592486D01*
X13419714Y-12763914D02*
X13391143Y-12749628D01*
X13376857Y-12735343D01*
X13362571Y-12706771D01*
X13362571Y-12621057D01*
X13376857Y-12592486D01*
X13391143Y-12578200D01*
X13419714Y-12563914D01*
X13462571Y-12563914D01*
X13491143Y-12578200D01*
X13505428Y-12592486D01*
X13519714Y-12621057D01*
X13519714Y-12706771D01*
X13505428Y-12735343D01*
X13491143Y-12749628D01*
X13462571Y-12763914D01*
X13419714Y-12763914D01*
X13691143Y-12763914D02*
X13662571Y-12749628D01*
X13648286Y-12721057D01*
X13648286Y-12463914D01*
X13919714Y-12749628D02*
X13891143Y-12763914D01*
X13834000Y-12763914D01*
X13805428Y-12749628D01*
X13791143Y-12721057D01*
X13791143Y-12606771D01*
X13805428Y-12578200D01*
X13834000Y-12563914D01*
X13891143Y-12563914D01*
X13919714Y-12578200D01*
X13934000Y-12606771D01*
X13934000Y-12635343D01*
X13791143Y-12663914D01*
X14048286Y-12749628D02*
X14076857Y-12763914D01*
X14134000Y-12763914D01*
X14162571Y-12749628D01*
X14176857Y-12721057D01*
X14176857Y-12706771D01*
X14162571Y-12678200D01*
X14134000Y-12663914D01*
X14091143Y-12663914D01*
X14062571Y-12649628D01*
X14048286Y-12621057D01*
X14048286Y-12606771D01*
X14062571Y-12578200D01*
X14091143Y-12563914D01*
X14134000Y-12563914D01*
X14162571Y-12578200D01*
X14276857Y-12878200D02*
X14291143Y-12863914D01*
X14319714Y-12821057D01*
X14334000Y-12792486D01*
X14348286Y-12749628D01*
X14362571Y-12678200D01*
X14362571Y-12621057D01*
X14348286Y-12549628D01*
X14334000Y-12506771D01*
X14319714Y-12478200D01*
X14291143Y-12435343D01*
X14276857Y-12421057D01*
M02*
