%TF.GenerationSoftware,KiCad,Pcbnew,5.1.10-88a1d61d58~88~ubuntu20.04.1*%
%TF.CreationDate,2021-05-28T03:57:09-05:00*%
%TF.ProjectId,vizboard-nes,76697a62-6f61-4726-942d-6e65732e6b69,rev?*%
%TF.SameCoordinates,Original*%
%TF.FileFunction,Soldermask,Top*%
%TF.FilePolarity,Negative*%
%FSLAX46Y46*%
G04 Gerber Fmt 4.6, Leading zero omitted, Abs format (unit mm)*
G04 Created by KiCad (PCBNEW 5.1.10-88a1d61d58~88~ubuntu20.04.1) date 2021-05-28 03:57:09*
%MOMM*%
%LPD*%
G01*
G04 APERTURE LIST*
%ADD10C,2.200000*%
%ADD11C,3.200000*%
%ADD12O,1.600000X1.600000*%
%ADD13R,1.600000X1.600000*%
%ADD14C,1.600000*%
%ADD15O,1.700000X1.700000*%
%ADD16R,1.700000X1.700000*%
%ADD17C,1.800000*%
%ADD18R,1.800000X1.800000*%
G04 APERTURE END LIST*
D10*
%TO.C,REF\u002A\u002A*%
X103709500Y-77242500D03*
%TD*%
%TO.C,REF\u002A\u002A*%
X131205000Y-67273000D03*
%TD*%
%TO.C,REF\u002A\u002A*%
X183719500Y-67273000D03*
%TD*%
%TO.C,REF\u002A\u002A*%
X183719500Y-102261500D03*
%TD*%
%TO.C,REF\u002A\u002A*%
X78690500Y-102261500D03*
%TD*%
%TO.C,REF\u002A\u002A*%
X126696500Y-102261500D03*
%TD*%
D11*
%TO.C,REF\u002A\u002A*%
X144717800Y-89244000D03*
%TD*%
%TO.C,REF\u002A\u002A*%
X138723400Y-86246800D03*
%TD*%
D12*
%TO.C,U2*%
X153938000Y-86704000D03*
X176798000Y-79084000D03*
X156478000Y-86704000D03*
X174258000Y-79084000D03*
X159018000Y-86704000D03*
X171718000Y-79084000D03*
X161558000Y-86704000D03*
X169178000Y-79084000D03*
X164098000Y-86704000D03*
X166638000Y-79084000D03*
X166638000Y-86704000D03*
X164098000Y-79084000D03*
X169178000Y-86704000D03*
X161558000Y-79084000D03*
X171718000Y-86704000D03*
X159018000Y-79084000D03*
X174258000Y-86704000D03*
X156478000Y-79084000D03*
X176798000Y-86704000D03*
D13*
X153938000Y-79084000D03*
%TD*%
D12*
%TO.C,U1*%
X156732000Y-67146000D03*
X174512000Y-74766000D03*
X159272000Y-67146000D03*
X171972000Y-74766000D03*
X161812000Y-67146000D03*
X169432000Y-74766000D03*
X164352000Y-67146000D03*
X166892000Y-74766000D03*
X166892000Y-67146000D03*
X164352000Y-74766000D03*
X169432000Y-67146000D03*
X161812000Y-74766000D03*
X171972000Y-67146000D03*
X159272000Y-74766000D03*
X174512000Y-67146000D03*
D13*
X156732000Y-74766000D03*
%TD*%
D12*
%TO.C,R8*%
X145810000Y-104230000D03*
D14*
X145810000Y-94070000D03*
%TD*%
D12*
%TO.C,R7*%
X140730000Y-104230000D03*
D14*
X140730000Y-94070000D03*
%TD*%
D12*
%TO.C,R6*%
X124982000Y-95594000D03*
D14*
X124982000Y-85434000D03*
%TD*%
D12*
%TO.C,R5*%
X128284000Y-95594000D03*
D14*
X128284000Y-85434000D03*
%TD*%
D12*
%TO.C,R4*%
X109234000Y-82132000D03*
D14*
X119394000Y-82132000D03*
%TD*%
%TO.C,R3*%
G36*
G01*
X105917480Y-101958520D02*
X105917480Y-101958520D01*
G75*
G02*
X105917480Y-103089890I-565685J-565685D01*
G01*
X105917480Y-103089890D01*
G75*
G02*
X104786110Y-103089890I-565685J565685D01*
G01*
X104786110Y-103089890D01*
G75*
G02*
X104786110Y-101958520I565685J565685D01*
G01*
X104786110Y-101958520D01*
G75*
G02*
X105917480Y-101958520I565685J-565685D01*
G01*
G37*
X112536000Y-95340000D03*
%TD*%
D12*
%TO.C,R2*%
X109234000Y-88736000D03*
D14*
X119394000Y-88736000D03*
%TD*%
D12*
%TO.C,R1*%
X109234000Y-85434000D03*
D14*
X119394000Y-85434000D03*
%TD*%
D15*
%TO.C,J1*%
X124982000Y-78576000D03*
X124982000Y-76036000D03*
X124982000Y-73496000D03*
X124982000Y-70956000D03*
D16*
X124982000Y-68416000D03*
%TD*%
D17*
%TO.C,D8*%
X170956000Y-95721000D03*
D18*
X173496000Y-95721000D03*
%TD*%
D17*
%TO.C,D7*%
X154954000Y-95721000D03*
D18*
X157494000Y-95721000D03*
%TD*%
D17*
%TO.C,D6*%
X117362000Y-95721000D03*
D18*
X119902000Y-95721000D03*
%TD*%
D17*
%TO.C,D5*%
X133491000Y-95721000D03*
D18*
X136031000Y-95721000D03*
%TD*%
D17*
%TO.C,D4*%
X89930000Y-80735000D03*
D18*
X92470000Y-80735000D03*
%TD*%
D17*
%TO.C,D3*%
X89930000Y-99023000D03*
D18*
X92470000Y-99023000D03*
%TD*%
D17*
%TO.C,D2*%
X80913000Y-90006000D03*
D18*
X83453000Y-90006000D03*
%TD*%
D17*
%TO.C,D1*%
X98947000Y-90006000D03*
D18*
X101487000Y-90006000D03*
%TD*%
M02*
