M48
; DRILL file {KiCad 5.1.10-88a1d61d58~88~ubuntu20.04.1} date Fri May 28 03:58:42 2021
; FORMAT={-:-/ absolute / metric / decimal}
; #@! TF.CreationDate,2021-05-28T03:58:42-05:00
; #@! TF.GenerationSoftware,Kicad,Pcbnew,5.1.10-88a1d61d58~88~ubuntu20.04.1
; #@! TF.FileFunction,Plated,1,2,PTH
FMAT,2
METRIC
T1C0.800
T2C0.900
T3C1.000
%
G90
G05
T1
X105.352Y-102.524
X109.234Y-82.132
X109.234Y-85.434
X109.234Y-88.736
X112.536Y-95.34
X119.394Y-82.132
X119.394Y-85.434
X119.394Y-88.736
X124.982Y-85.434
X124.982Y-95.594
X128.284Y-85.434
X128.284Y-95.594
X140.73Y-94.07
X140.73Y-104.23
X145.81Y-94.07
X145.81Y-104.23
X153.938Y-79.084
X153.938Y-86.704
X156.478Y-79.084
X156.478Y-86.704
X156.732Y-67.146
X156.732Y-74.766
X159.018Y-79.084
X159.018Y-86.704
X159.272Y-67.146
X159.272Y-74.766
X161.558Y-79.084
X161.558Y-86.704
X161.812Y-67.146
X161.812Y-74.766
X164.098Y-79.084
X164.098Y-86.704
X164.352Y-67.146
X164.352Y-74.766
X166.638Y-79.084
X166.638Y-86.704
X166.892Y-67.146
X166.892Y-74.766
X169.178Y-79.084
X169.178Y-86.704
X169.432Y-67.146
X169.432Y-74.766
X171.718Y-79.084
X171.718Y-86.704
X171.972Y-67.146
X171.972Y-74.766
X174.258Y-79.084
X174.258Y-86.704
X174.512Y-67.146
X174.512Y-74.766
X176.798Y-79.084
X176.798Y-86.704
T2
X80.913Y-90.006
X83.453Y-90.006
X89.93Y-80.735
X89.93Y-99.023
X92.47Y-80.735
X92.47Y-99.023
X98.947Y-90.006
X101.487Y-90.006
X117.362Y-95.721
X119.902Y-95.721
X133.491Y-95.721
X136.031Y-95.721
X154.954Y-95.721
X157.494Y-95.721
X170.956Y-95.721
X173.496Y-95.721
T3
X124.982Y-68.416
X124.982Y-70.956
X124.982Y-73.496
X124.982Y-76.036
X124.982Y-78.576
T0
M30
