M48
; DRILL file {KiCad 5.99.0-unknown-3b7f5a3db7~131~ubuntu20.04.1} date Tue Sep 21 00:43:22 2021
; FORMAT={-:-/ absolute / metric / decimal}
; #@! TF.CreationDate,2021-09-21T00:43:22-05:00
; #@! TF.GenerationSoftware,Kicad,Pcbnew,5.99.0-unknown-3b7f5a3db7~131~ubuntu20.04.1
; #@! TF.FileFunction,Plated,1,2,PTH
FMAT,2
METRIC
; #@! TA.AperFunction,Plated,PTH,ViaDrill
T1C0.400
; #@! TA.AperFunction,Plated,PTH,ComponentDrill
T2C0.800
; #@! TA.AperFunction,Plated,PTH,ComponentDrill
T3C0.900
; #@! TA.AperFunction,Plated,PTH,ComponentDrill
T4C0.920
; #@! TA.AperFunction,Plated,PTH,ComponentDrill
T5C1.000
; #@! TA.AperFunction,Plated,PTH,ComponentDrill
T6C1.100
; #@! TA.AperFunction,Plated,PTH,ComponentDrill
T7C1.300
; #@! TA.AperFunction,Plated,PTH,ComponentDrill
T8C2.330
%
G90
G05
T1
X99.822Y-74.549
X101.981Y-124.333
X106.807Y-115.57
X107.823Y-114.935
X108.585Y-96.012
X110.363Y-72.39
X110.49Y-68.453
X111.125Y-124.511
X111.633Y-72.263
X111.763Y-74.168
X113.538Y-126.492
X115.443Y-78.867
X115.443Y-80.137
X116.624Y-125.146
X118.364Y-106.172
X118.745Y-125.146
X120.269Y-125.349
X121.539Y-125.349
X121.92Y-116.84
X121.92Y-132.842
X123.952Y-110.49
X123.952Y-113.03
X126.873Y-129.921
X133.731Y-68.58
X134.239Y-111.76
X134.239Y-114.3
X134.239Y-116.84
T2
X85.852Y-107.188
X85.852Y-114.808
X88.392Y-107.188
X88.392Y-114.808
X89.662Y-69.85
X89.662Y-72.39
X89.662Y-74.93
X89.662Y-77.47
X89.662Y-80.01
X89.662Y-82.55
X89.662Y-85.09
X89.662Y-87.63
X89.662Y-90.17
X89.662Y-92.71
X89.662Y-95.25
X89.662Y-97.79
X89.662Y-100.33
X89.662Y-102.87
X89.702Y-117.602
X90.932Y-107.188
X90.932Y-114.808
X92.202Y-117.602
X93.472Y-107.188
X93.472Y-114.808
X96.012Y-107.188
X96.012Y-114.808
X97.282Y-69.85
X97.282Y-72.39
X97.282Y-74.93
X97.282Y-77.47
X97.282Y-80.01
X97.282Y-82.55
X97.282Y-85.09
X97.282Y-87.63
X97.282Y-90.17
X97.282Y-92.71
X97.282Y-95.25
X97.282Y-97.79
X97.282Y-100.33
X97.282Y-102.87
X98.044Y-117.602
X98.552Y-107.188
X98.552Y-114.808
X99.695Y-90.21
X99.695Y-92.71
X101.092Y-107.188
X101.092Y-114.808
X102.362Y-62.23
X102.362Y-72.39
X102.616Y-97.83
X102.616Y-100.33
X104.902Y-72.39
X104.902Y-74.93
X104.902Y-77.47
X104.902Y-80.01
X104.902Y-82.55
X104.902Y-85.09
X104.902Y-87.63
X104.902Y-90.17
X104.902Y-92.71
X104.902Y-95.25
X104.902Y-97.79
X104.902Y-100.33
X104.902Y-102.87
X104.902Y-105.41
X104.902Y-107.95
X104.902Y-110.49
X104.902Y-113.03
X104.902Y-115.57
X104.902Y-118.11
X104.902Y-120.65
X105.228Y-124.786
X106.426Y-63.54
X106.426Y-66.04
X120.142Y-72.39
X120.142Y-74.93
X120.142Y-77.47
X120.142Y-80.01
X120.142Y-82.55
X120.142Y-85.09
X120.142Y-87.63
X120.142Y-90.17
X120.142Y-92.71
X120.142Y-95.25
X120.142Y-97.79
X120.142Y-100.33
X120.142Y-102.87
X120.142Y-105.41
X120.142Y-107.95
X120.142Y-110.49
X120.142Y-113.03
X120.142Y-115.57
X120.142Y-118.11
X120.142Y-120.65
X123.357Y-134.62
X125.222Y-88.646
X125.222Y-98.806
X125.857Y-134.62
X128.143Y-78.74
X128.143Y-88.9
X128.143Y-99.06
X128.905Y-134.62
X132.08Y-128.651
X132.08Y-131.191
X134.58Y-128.651
X134.58Y-131.191
X138.303Y-78.74
X138.303Y-88.9
X138.303Y-99.06
X139.065Y-134.62
T3
X77.47Y-130.69
X77.47Y-133.29
X77.47Y-135.89
T4
X91.988Y-123.19
X91.988Y-125.19
X94.488Y-123.19
X94.488Y-125.19
T5
X77.851Y-69.977
X77.851Y-72.517
X77.851Y-75.057
X77.851Y-77.597
X77.851Y-80.137
X77.851Y-84.455
X77.851Y-86.995
X77.851Y-89.535
X77.851Y-92.075
X77.851Y-94.615
X77.851Y-98.933
X77.851Y-101.473
X77.851Y-104.013
X77.851Y-106.553
X77.851Y-109.093
X77.851Y-113.411
X77.851Y-115.951
X77.851Y-118.491
X77.851Y-121.031
X77.851Y-123.571
X81.28Y-130.683
X83.82Y-130.683
X88.392Y-60.96
X90.932Y-60.96
X93.472Y-60.96
X96.012Y-60.96
X98.552Y-60.96
X107.315Y-60.96
X109.855Y-60.96
X112.395Y-60.96
X114.808Y-130.683
X114.935Y-60.96
X117.348Y-130.683
X117.475Y-60.96
X119.888Y-130.683
X122.682Y-82.55
X122.682Y-85.09
X122.682Y-87.63
X122.682Y-90.17
X125.476Y-101.6
X125.476Y-104.14
X125.476Y-106.68
X125.476Y-109.22
X125.476Y-111.76
X125.476Y-114.3
X125.476Y-116.84
X125.476Y-119.38
X125.476Y-121.92
X125.476Y-124.46
X128.143Y-60.96
X128.143Y-63.5
X128.143Y-66.04
X128.143Y-68.58
X128.143Y-71.12
X128.143Y-73.66
X128.143Y-76.2
X128.143Y-81.28
X128.143Y-83.82
X128.143Y-86.36
X128.143Y-91.44
X128.143Y-93.98
X128.143Y-96.52
X128.143Y-101.6
X128.143Y-104.14
X128.143Y-106.68
X128.143Y-109.22
X128.143Y-111.76
X128.143Y-114.3
X128.143Y-116.84
X128.143Y-119.38
X128.143Y-121.92
X130.683Y-60.96
X130.683Y-63.5
X130.683Y-66.04
X130.683Y-68.58
X130.683Y-71.12
X130.683Y-73.66
X130.683Y-76.2
X130.683Y-81.28
X130.683Y-83.82
X130.683Y-86.36
X130.683Y-91.44
X130.683Y-93.98
X130.683Y-96.52
X130.683Y-101.6
X130.683Y-104.14
X130.683Y-106.68
X130.683Y-109.22
X130.683Y-111.76
X130.683Y-114.3
X130.683Y-116.84
X130.683Y-119.38
X130.683Y-121.92
X133.223Y-53.975
X133.223Y-56.515
X135.763Y-53.975
X135.763Y-56.515
T6
X120.595Y-54.483
X120.595Y-60.983
X125.095Y-54.483
X125.095Y-60.983
T8
X87.218Y-127.9
X99.258Y-127.9
T5
X70.484Y-60.643G85X70.484Y-62.643
G05
X76.184Y-58.643G85X74.184Y-58.643
G05
X76.184Y-64.643G85X74.184Y-64.643
G05
X103.692Y-129.916G85X103.692Y-131.416
G05
X111.192Y-129.916G85X111.192Y-131.416
G05
T7
X106.967Y-134.366G85X107.917Y-134.366
G05
T0
M30
