%TF.GenerationSoftware,KiCad,Pcbnew,5.1.10-88a1d61d58~88~ubuntu20.04.1*%
%TF.CreationDate,2021-07-15T21:57:41-05:00*%
%TF.ProjectId,pictas,70696374-6173-42e6-9b69-6361645f7063,rev?*%
%TF.SameCoordinates,Original*%
%TF.FileFunction,Paste,Bot*%
%TF.FilePolarity,Positive*%
%FSLAX46Y46*%
G04 Gerber Fmt 4.6, Leading zero omitted, Abs format (unit mm)*
G04 Created by KiCad (PCBNEW 5.1.10-88a1d61d58~88~ubuntu20.04.1) date 2021-07-15 21:57:41*
%MOMM*%
%LPD*%
G01*
G04 APERTURE LIST*
%ADD10C,0.150000*%
G04 APERTURE END LIST*
D10*
X97375142Y-132572857D02*
X97375142Y-131930000D01*
X97418000Y-131801428D01*
X97503714Y-131715714D01*
X97632285Y-131672857D01*
X97718000Y-131672857D01*
X96518000Y-131672857D02*
X96946571Y-131672857D01*
X96946571Y-132572857D01*
X95703714Y-131758571D02*
X95746571Y-131715714D01*
X95875142Y-131672857D01*
X95960857Y-131672857D01*
X96089428Y-131715714D01*
X96175142Y-131801428D01*
X96218000Y-131887142D01*
X96260857Y-132058571D01*
X96260857Y-132187142D01*
X96218000Y-132358571D01*
X96175142Y-132444285D01*
X96089428Y-132530000D01*
X95960857Y-132572857D01*
X95875142Y-132572857D01*
X95746571Y-132530000D01*
X95703714Y-132487142D01*
X95060857Y-132572857D02*
X95060857Y-131930000D01*
X95103714Y-131801428D01*
X95189428Y-131715714D01*
X95318000Y-131672857D01*
X95403714Y-131672857D01*
X94203714Y-131672857D02*
X94632285Y-131672857D01*
X94632285Y-132572857D01*
X93389428Y-131758571D02*
X93432285Y-131715714D01*
X93560857Y-131672857D01*
X93646571Y-131672857D01*
X93775142Y-131715714D01*
X93860857Y-131801428D01*
X93903714Y-131887142D01*
X93946571Y-132058571D01*
X93946571Y-132187142D01*
X93903714Y-132358571D01*
X93860857Y-132444285D01*
X93775142Y-132530000D01*
X93646571Y-132572857D01*
X93560857Y-132572857D01*
X93432285Y-132530000D01*
X93389428Y-132487142D01*
X92746571Y-132572857D02*
X92746571Y-131930000D01*
X92789428Y-131801428D01*
X92875142Y-131715714D01*
X93003714Y-131672857D01*
X93089428Y-131672857D01*
X91889428Y-131672857D02*
X92318000Y-131672857D01*
X92318000Y-132572857D01*
X91075142Y-131758571D02*
X91118000Y-131715714D01*
X91246571Y-131672857D01*
X91332285Y-131672857D01*
X91460857Y-131715714D01*
X91546571Y-131801428D01*
X91589428Y-131887142D01*
X91632285Y-132058571D01*
X91632285Y-132187142D01*
X91589428Y-132358571D01*
X91546571Y-132444285D01*
X91460857Y-132530000D01*
X91332285Y-132572857D01*
X91246571Y-132572857D01*
X91118000Y-132530000D01*
X91075142Y-132487142D01*
X90432285Y-132572857D02*
X90432285Y-131930000D01*
X90475142Y-131801428D01*
X90560857Y-131715714D01*
X90689428Y-131672857D01*
X90775142Y-131672857D01*
X89575142Y-131672857D02*
X90003714Y-131672857D01*
X90003714Y-132572857D01*
X88760857Y-131758571D02*
X88803714Y-131715714D01*
X88932285Y-131672857D01*
X89018000Y-131672857D01*
X89146571Y-131715714D01*
X89232285Y-131801428D01*
X89275142Y-131887142D01*
X89318000Y-132058571D01*
X89318000Y-132187142D01*
X89275142Y-132358571D01*
X89232285Y-132444285D01*
X89146571Y-132530000D01*
X89018000Y-132572857D01*
X88932285Y-132572857D01*
X88803714Y-132530000D01*
X88760857Y-132487142D01*
M02*
