%TF.GenerationSoftware,KiCad,Pcbnew,5.1.10-88a1d61d58~88~ubuntu20.04.1*%
%TF.CreationDate,2021-07-15T21:57:41-05:00*%
%TF.ProjectId,pictas,70696374-6173-42e6-9b69-6361645f7063,rev?*%
%TF.SameCoordinates,Original*%
%TF.FileFunction,Legend,Top*%
%TF.FilePolarity,Positive*%
%FSLAX46Y46*%
G04 Gerber Fmt 4.6, Leading zero omitted, Abs format (unit mm)*
G04 Created by KiCad (PCBNEW 5.1.10-88a1d61d58~88~ubuntu20.04.1) date 2021-07-15 21:57:41*
%MOMM*%
%LPD*%
G01*
G04 APERTURE LIST*
%ADD10C,0.150000*%
%ADD11C,0.225000*%
%ADD12C,0.125000*%
%ADD13C,0.190000*%
%ADD14C,0.120000*%
%ADD15C,0.100000*%
%ADD16C,0.127000*%
%ADD17C,0.160000*%
%ADD18O,1.700000X1.700000*%
%ADD19R,1.700000X1.700000*%
%ADD20C,2.000000*%
%ADD21R,1.500000X1.500000*%
%ADD22C,1.500000*%
%ADD23O,1.400000X1.400000*%
%ADD24C,1.400000*%
%ADD25O,1.800000X3.600000*%
%ADD26O,4.200000X2.100000*%
%ADD27C,1.600000*%
%ADD28R,1.600000X1.600000*%
%ADD29O,1.600000X1.600000*%
%ADD30R,3.500000X3.500000*%
%ADD31C,3.500000*%
%ADD32C,1.700000*%
G04 APERTURE END LIST*
D10*
X113958642Y-56150880D02*
X114006261Y-56188976D01*
X114053880Y-56303261D01*
X114053880Y-56379452D01*
X114006261Y-56493738D01*
X113911023Y-56569928D01*
X113815785Y-56608023D01*
X113625309Y-56646119D01*
X113482452Y-56646119D01*
X113291976Y-56608023D01*
X113196738Y-56569928D01*
X113101500Y-56493738D01*
X113053880Y-56379452D01*
X113053880Y-56303261D01*
X113101500Y-56188976D01*
X113149119Y-56150880D01*
X114053880Y-55427071D02*
X114053880Y-55808023D01*
X113053880Y-55808023D01*
X114053880Y-55160404D02*
X113053880Y-55160404D01*
X114053880Y-54703261D02*
X113482452Y-55046119D01*
X113053880Y-54703261D02*
X113625309Y-55160404D01*
X110450380Y-56595309D02*
X111450380Y-56328642D01*
X110450380Y-56061976D01*
X111450380Y-55795309D02*
X110450380Y-55795309D01*
X110450380Y-55604833D01*
X110498000Y-55490547D01*
X110593238Y-55414357D01*
X110688476Y-55376261D01*
X110878952Y-55338166D01*
X111021809Y-55338166D01*
X111212285Y-55376261D01*
X111307523Y-55414357D01*
X111402761Y-55490547D01*
X111450380Y-55604833D01*
X111450380Y-55795309D01*
X111450380Y-54995309D02*
X110450380Y-54995309D01*
X110450380Y-54804833D01*
X110498000Y-54690547D01*
X110593238Y-54614357D01*
X110688476Y-54576261D01*
X110878952Y-54538166D01*
X111021809Y-54538166D01*
X111212285Y-54576261D01*
X111307523Y-54614357D01*
X111402761Y-54690547D01*
X111450380Y-54804833D01*
X111450380Y-54995309D01*
X117974000Y-56671500D02*
X117974000Y-55757214D01*
X119106904Y-56481023D02*
X118306904Y-56481023D01*
X118878333Y-56214357D01*
X118306904Y-55947690D01*
X119106904Y-55947690D01*
X117974000Y-55757214D02*
X117974000Y-54957214D01*
X119030714Y-55109595D02*
X119068809Y-55147690D01*
X119106904Y-55261976D01*
X119106904Y-55338166D01*
X119068809Y-55452452D01*
X118992619Y-55528642D01*
X118916428Y-55566738D01*
X118764047Y-55604833D01*
X118649761Y-55604833D01*
X118497380Y-55566738D01*
X118421190Y-55528642D01*
X118345000Y-55452452D01*
X118306904Y-55338166D01*
X118306904Y-55261976D01*
X118345000Y-55147690D01*
X118383095Y-55109595D01*
X117974000Y-54957214D02*
X117974000Y-54309595D01*
X119106904Y-54385785D02*
X119106904Y-54766738D01*
X118306904Y-54766738D01*
X117974000Y-54309595D02*
X117974000Y-53509595D01*
X119106904Y-53661976D02*
X118725952Y-53928642D01*
X119106904Y-54119119D02*
X118306904Y-54119119D01*
X118306904Y-53814357D01*
X118345000Y-53738166D01*
X118383095Y-53700071D01*
X118459285Y-53661976D01*
X118573571Y-53661976D01*
X118649761Y-53700071D01*
X118687857Y-53738166D01*
X118725952Y-53814357D01*
X118725952Y-54119119D01*
X116530380Y-56608023D02*
X115530380Y-56608023D01*
X115530380Y-56417547D01*
X115578000Y-56303261D01*
X115673238Y-56227071D01*
X115768476Y-56188976D01*
X115958952Y-56150880D01*
X116101809Y-56150880D01*
X116292285Y-56188976D01*
X116387523Y-56227071D01*
X116482761Y-56303261D01*
X116530380Y-56417547D01*
X116530380Y-56608023D01*
X116244666Y-55846119D02*
X116244666Y-55465166D01*
X116530380Y-55922309D02*
X115530380Y-55655642D01*
X116530380Y-55388976D01*
X115530380Y-55236595D02*
X115530380Y-54779452D01*
X116530380Y-55008023D02*
X115530380Y-55008023D01*
X107958000Y-56125476D02*
X107910380Y-56201666D01*
X107910380Y-56315952D01*
X107958000Y-56430238D01*
X108053238Y-56506428D01*
X108148476Y-56544523D01*
X108338952Y-56582619D01*
X108481809Y-56582619D01*
X108672285Y-56544523D01*
X108767523Y-56506428D01*
X108862761Y-56430238D01*
X108910380Y-56315952D01*
X108910380Y-56239761D01*
X108862761Y-56125476D01*
X108815142Y-56087380D01*
X108481809Y-56087380D01*
X108481809Y-56239761D01*
X108910380Y-55744523D02*
X107910380Y-55744523D01*
X108910380Y-55287380D01*
X107910380Y-55287380D01*
X108910380Y-54906428D02*
X107910380Y-54906428D01*
X107910380Y-54715952D01*
X107958000Y-54601666D01*
X108053238Y-54525476D01*
X108148476Y-54487380D01*
X108338952Y-54449285D01*
X108481809Y-54449285D01*
X108672285Y-54487380D01*
X108767523Y-54525476D01*
X108862761Y-54601666D01*
X108910380Y-54715952D01*
X108910380Y-54906428D01*
X89035000Y-56125476D02*
X88987380Y-56201666D01*
X88987380Y-56315952D01*
X89035000Y-56430238D01*
X89130238Y-56506428D01*
X89225476Y-56544523D01*
X89415952Y-56582619D01*
X89558809Y-56582619D01*
X89749285Y-56544523D01*
X89844523Y-56506428D01*
X89939761Y-56430238D01*
X89987380Y-56315952D01*
X89987380Y-56239761D01*
X89939761Y-56125476D01*
X89892142Y-56087380D01*
X89558809Y-56087380D01*
X89558809Y-56239761D01*
X89987380Y-55744523D02*
X88987380Y-55744523D01*
X89987380Y-55287380D01*
X88987380Y-55287380D01*
X89987380Y-54906428D02*
X88987380Y-54906428D01*
X88987380Y-54715952D01*
X89035000Y-54601666D01*
X89130238Y-54525476D01*
X89225476Y-54487380D01*
X89415952Y-54449285D01*
X89558809Y-54449285D01*
X89749285Y-54487380D01*
X89844523Y-54525476D01*
X89939761Y-54601666D01*
X89987380Y-54715952D01*
X89987380Y-54906428D01*
X91527380Y-56595309D02*
X92527380Y-56328642D01*
X91527380Y-56061976D01*
X92527380Y-55795309D02*
X91527380Y-55795309D01*
X91527380Y-55604833D01*
X91575000Y-55490547D01*
X91670238Y-55414357D01*
X91765476Y-55376261D01*
X91955952Y-55338166D01*
X92098809Y-55338166D01*
X92289285Y-55376261D01*
X92384523Y-55414357D01*
X92479761Y-55490547D01*
X92527380Y-55604833D01*
X92527380Y-55795309D01*
X92527380Y-54995309D02*
X91527380Y-54995309D01*
X91527380Y-54804833D01*
X91575000Y-54690547D01*
X91670238Y-54614357D01*
X91765476Y-54576261D01*
X91955952Y-54538166D01*
X92098809Y-54538166D01*
X92289285Y-54576261D01*
X92384523Y-54614357D01*
X92479761Y-54690547D01*
X92527380Y-54804833D01*
X92527380Y-54995309D01*
X95035642Y-56150880D02*
X95083261Y-56188976D01*
X95130880Y-56303261D01*
X95130880Y-56379452D01*
X95083261Y-56493738D01*
X94988023Y-56569928D01*
X94892785Y-56608023D01*
X94702309Y-56646119D01*
X94559452Y-56646119D01*
X94368976Y-56608023D01*
X94273738Y-56569928D01*
X94178500Y-56493738D01*
X94130880Y-56379452D01*
X94130880Y-56303261D01*
X94178500Y-56188976D01*
X94226119Y-56150880D01*
X95130880Y-55427071D02*
X95130880Y-55808023D01*
X94130880Y-55808023D01*
X95130880Y-55160404D02*
X94130880Y-55160404D01*
X95130880Y-54703261D02*
X94559452Y-55046119D01*
X94130880Y-54703261D02*
X94702309Y-55160404D01*
X97607380Y-56608023D02*
X96607380Y-56608023D01*
X96607380Y-56417547D01*
X96655000Y-56303261D01*
X96750238Y-56227071D01*
X96845476Y-56188976D01*
X97035952Y-56150880D01*
X97178809Y-56150880D01*
X97369285Y-56188976D01*
X97464523Y-56227071D01*
X97559761Y-56303261D01*
X97607380Y-56417547D01*
X97607380Y-56608023D01*
X97321666Y-55846119D02*
X97321666Y-55465166D01*
X97607380Y-55922309D02*
X96607380Y-55655642D01*
X97607380Y-55388976D01*
X96607380Y-55236595D02*
X96607380Y-54779452D01*
X97607380Y-55008023D02*
X96607380Y-55008023D01*
X99097500Y-56671500D02*
X99097500Y-55757214D01*
X100464880Y-56481023D02*
X99464880Y-56481023D01*
X100179166Y-56214357D01*
X99464880Y-55947690D01*
X100464880Y-55947690D01*
X99097500Y-55757214D02*
X99097500Y-54957214D01*
X100369642Y-55109595D02*
X100417261Y-55147690D01*
X100464880Y-55261976D01*
X100464880Y-55338166D01*
X100417261Y-55452452D01*
X100322023Y-55528642D01*
X100226785Y-55566738D01*
X100036309Y-55604833D01*
X99893452Y-55604833D01*
X99702976Y-55566738D01*
X99607738Y-55528642D01*
X99512500Y-55452452D01*
X99464880Y-55338166D01*
X99464880Y-55261976D01*
X99512500Y-55147690D01*
X99560119Y-55109595D01*
X99097500Y-54957214D02*
X99097500Y-54309595D01*
X100464880Y-54385785D02*
X100464880Y-54766738D01*
X99464880Y-54766738D01*
X99097500Y-54309595D02*
X99097500Y-53509595D01*
X100464880Y-53661976D02*
X99988690Y-53928642D01*
X100464880Y-54119119D02*
X99464880Y-54119119D01*
X99464880Y-53814357D01*
X99512500Y-53738166D01*
X99560119Y-53700071D01*
X99655357Y-53661976D01*
X99798214Y-53661976D01*
X99893452Y-53700071D01*
X99941071Y-53738166D01*
X99988690Y-53814357D01*
X99988690Y-54119119D01*
D11*
X127851857Y-54991642D02*
X127551857Y-54563071D01*
X127337571Y-54991642D02*
X127337571Y-54091642D01*
X127680428Y-54091642D01*
X127766142Y-54134500D01*
X127809000Y-54177357D01*
X127851857Y-54263071D01*
X127851857Y-54391642D01*
X127809000Y-54477357D01*
X127766142Y-54520214D01*
X127680428Y-54563071D01*
X127337571Y-54563071D01*
X128237571Y-54520214D02*
X128537571Y-54520214D01*
X128666142Y-54991642D02*
X128237571Y-54991642D01*
X128237571Y-54091642D01*
X128666142Y-54091642D01*
X129009000Y-54948785D02*
X129137571Y-54991642D01*
X129351857Y-54991642D01*
X129437571Y-54948785D01*
X129480428Y-54905928D01*
X129523285Y-54820214D01*
X129523285Y-54734500D01*
X129480428Y-54648785D01*
X129437571Y-54605928D01*
X129351857Y-54563071D01*
X129180428Y-54520214D01*
X129094714Y-54477357D01*
X129051857Y-54434500D01*
X129009000Y-54348785D01*
X129009000Y-54263071D01*
X129051857Y-54177357D01*
X129094714Y-54134500D01*
X129180428Y-54091642D01*
X129394714Y-54091642D01*
X129523285Y-54134500D01*
X129909000Y-54520214D02*
X130209000Y-54520214D01*
X130337571Y-54991642D02*
X129909000Y-54991642D01*
X129909000Y-54091642D01*
X130337571Y-54091642D01*
X130594714Y-54091642D02*
X131109000Y-54091642D01*
X130851857Y-54991642D02*
X130851857Y-54091642D01*
X127059000Y-56566642D02*
X127059000Y-55666642D01*
X127273285Y-55666642D01*
X127401857Y-55709500D01*
X127487571Y-55795214D01*
X127530428Y-55880928D01*
X127573285Y-56052357D01*
X127573285Y-56180928D01*
X127530428Y-56352357D01*
X127487571Y-56438071D01*
X127401857Y-56523785D01*
X127273285Y-56566642D01*
X127059000Y-56566642D01*
X127959000Y-56095214D02*
X128259000Y-56095214D01*
X128387571Y-56566642D02*
X127959000Y-56566642D01*
X127959000Y-55666642D01*
X128387571Y-55666642D01*
X128644714Y-55666642D02*
X128944714Y-56566642D01*
X129244714Y-55666642D01*
X129544714Y-56566642D02*
X129544714Y-55666642D01*
X130487571Y-56480928D02*
X130444714Y-56523785D01*
X130316142Y-56566642D01*
X130230428Y-56566642D01*
X130101857Y-56523785D01*
X130016142Y-56438071D01*
X129973285Y-56352357D01*
X129930428Y-56180928D01*
X129930428Y-56052357D01*
X129973285Y-55880928D01*
X130016142Y-55795214D01*
X130101857Y-55709500D01*
X130230428Y-55666642D01*
X130316142Y-55666642D01*
X130444714Y-55709500D01*
X130487571Y-55752357D01*
X130873285Y-56095214D02*
X131173285Y-56095214D01*
X131301857Y-56566642D02*
X130873285Y-56566642D01*
X130873285Y-55666642D01*
X131301857Y-55666642D01*
D12*
X82354000Y-136550333D02*
X82311142Y-136617000D01*
X82311142Y-136717000D01*
X82354000Y-136817000D01*
X82439714Y-136883666D01*
X82525428Y-136917000D01*
X82696857Y-136950333D01*
X82825428Y-136950333D01*
X82996857Y-136917000D01*
X83082571Y-136883666D01*
X83168285Y-136817000D01*
X83211142Y-136717000D01*
X83211142Y-136650333D01*
X83168285Y-136550333D01*
X83125428Y-136517000D01*
X82825428Y-136517000D01*
X82825428Y-136650333D01*
X83211142Y-136217000D02*
X82311142Y-136217000D01*
X83211142Y-135817000D01*
X82311142Y-135817000D01*
X83211142Y-135483666D02*
X82311142Y-135483666D01*
X82311142Y-135317000D01*
X82354000Y-135217000D01*
X82439714Y-135150333D01*
X82525428Y-135117000D01*
X82696857Y-135083666D01*
X82825428Y-135083666D01*
X82996857Y-135117000D01*
X83082571Y-135150333D01*
X83168285Y-135217000D01*
X83211142Y-135317000D01*
X83211142Y-135483666D01*
X80494142Y-138723476D02*
X80541761Y-138747285D01*
X80589380Y-138818714D01*
X80589380Y-138866333D01*
X80541761Y-138937761D01*
X80446523Y-138985380D01*
X80351285Y-139009190D01*
X80160809Y-139033000D01*
X80017952Y-139033000D01*
X79827476Y-139009190D01*
X79732238Y-138985380D01*
X79637000Y-138937761D01*
X79589380Y-138866333D01*
X79589380Y-138818714D01*
X79637000Y-138747285D01*
X79684619Y-138723476D01*
X79589380Y-138413952D02*
X79589380Y-138318714D01*
X79637000Y-138271095D01*
X79732238Y-138223476D01*
X79922714Y-138199666D01*
X80256047Y-138199666D01*
X80446523Y-138223476D01*
X80541761Y-138271095D01*
X80589380Y-138318714D01*
X80589380Y-138413952D01*
X80541761Y-138461571D01*
X80446523Y-138509190D01*
X80256047Y-138533000D01*
X79922714Y-138533000D01*
X79732238Y-138509190D01*
X79637000Y-138461571D01*
X79589380Y-138413952D01*
X80589380Y-137985380D02*
X79589380Y-137985380D01*
X80589380Y-137699666D01*
X79589380Y-137699666D01*
X80589380Y-136794904D02*
X80113190Y-136961571D01*
X80589380Y-137080619D02*
X79589380Y-137080619D01*
X79589380Y-136890142D01*
X79637000Y-136842523D01*
X79684619Y-136818714D01*
X79779857Y-136794904D01*
X79922714Y-136794904D01*
X80017952Y-136818714D01*
X80065571Y-136842523D01*
X80113190Y-136890142D01*
X80113190Y-137080619D01*
X80065571Y-136580619D02*
X80065571Y-136413952D01*
X80589380Y-136342523D02*
X80589380Y-136580619D01*
X79589380Y-136580619D01*
X79589380Y-136342523D01*
X80541761Y-136152047D02*
X80589380Y-136080619D01*
X80589380Y-135961571D01*
X80541761Y-135913952D01*
X80494142Y-135890142D01*
X80398904Y-135866333D01*
X80303666Y-135866333D01*
X80208428Y-135890142D01*
X80160809Y-135913952D01*
X80113190Y-135961571D01*
X80065571Y-136056809D01*
X80017952Y-136104428D01*
X79970333Y-136128238D01*
X79875095Y-136152047D01*
X79779857Y-136152047D01*
X79684619Y-136128238D01*
X79637000Y-136104428D01*
X79589380Y-136056809D01*
X79589380Y-135937761D01*
X79637000Y-135866333D01*
X80065571Y-135652047D02*
X80065571Y-135485380D01*
X80589380Y-135413952D02*
X80589380Y-135652047D01*
X79589380Y-135652047D01*
X79589380Y-135413952D01*
X79589380Y-135271095D02*
X79589380Y-134985380D01*
X80589380Y-135128238D02*
X79589380Y-135128238D01*
D10*
X108195000Y-63054666D02*
X108195000Y-62354666D01*
X108595000Y-62854666D01*
X108995000Y-62354666D01*
X108995000Y-63054666D01*
X110252142Y-62988000D02*
X110195000Y-63021333D01*
X110023571Y-63054666D01*
X109909285Y-63054666D01*
X109737857Y-63021333D01*
X109623571Y-62954666D01*
X109566428Y-62888000D01*
X109509285Y-62754666D01*
X109509285Y-62654666D01*
X109566428Y-62521333D01*
X109623571Y-62454666D01*
X109737857Y-62388000D01*
X109909285Y-62354666D01*
X110023571Y-62354666D01*
X110195000Y-62388000D01*
X110252142Y-62421333D01*
X110766428Y-62354666D02*
X110766428Y-62921333D01*
X110823571Y-62988000D01*
X110880714Y-63021333D01*
X110995000Y-63054666D01*
X111223571Y-63054666D01*
X111337857Y-63021333D01*
X111395000Y-62988000D01*
X111452142Y-62921333D01*
X111452142Y-62354666D01*
X111737857Y-63121333D02*
X112652142Y-63121333D01*
X112937857Y-63054666D02*
X112937857Y-62354666D01*
X113395000Y-62354666D01*
X113509285Y-62388000D01*
X113566428Y-62421333D01*
X113623571Y-62488000D01*
X113623571Y-62588000D01*
X113566428Y-62654666D01*
X113509285Y-62688000D01*
X113395000Y-62721333D01*
X112937857Y-62721333D01*
X114709285Y-63054666D02*
X114137857Y-63054666D01*
X114137857Y-62354666D01*
X115052142Y-62854666D02*
X115623571Y-62854666D01*
X114937857Y-63054666D02*
X115337857Y-62354666D01*
X115737857Y-63054666D01*
X116366428Y-62721333D02*
X116366428Y-63054666D01*
X115966428Y-62354666D02*
X116366428Y-62721333D01*
X116766428Y-62354666D01*
X90014857Y-68007666D02*
X90014857Y-67307666D01*
X90414857Y-67807666D01*
X90814857Y-67307666D01*
X90814857Y-68007666D01*
X92072000Y-67941000D02*
X92014857Y-67974333D01*
X91843428Y-68007666D01*
X91729142Y-68007666D01*
X91557714Y-67974333D01*
X91443428Y-67907666D01*
X91386285Y-67841000D01*
X91329142Y-67707666D01*
X91329142Y-67607666D01*
X91386285Y-67474333D01*
X91443428Y-67407666D01*
X91557714Y-67341000D01*
X91729142Y-67307666D01*
X91843428Y-67307666D01*
X92014857Y-67341000D01*
X92072000Y-67374333D01*
X92586285Y-67307666D02*
X92586285Y-67874333D01*
X92643428Y-67941000D01*
X92700571Y-67974333D01*
X92814857Y-68007666D01*
X93043428Y-68007666D01*
X93157714Y-67974333D01*
X93214857Y-67941000D01*
X93272000Y-67874333D01*
X93272000Y-67307666D01*
X93557714Y-68074333D02*
X94472000Y-68074333D01*
X94586285Y-67307666D02*
X94986285Y-68007666D01*
X95386285Y-67307666D01*
X95786285Y-68007666D02*
X95786285Y-67307666D01*
X96243428Y-67307666D02*
X97043428Y-67307666D01*
X96243428Y-68007666D01*
X97043428Y-68007666D01*
X118324380Y-138486952D02*
X118324380Y-138334571D01*
X118372000Y-138258380D01*
X118467238Y-138182190D01*
X118657714Y-138144095D01*
X118991047Y-138144095D01*
X119181523Y-138182190D01*
X119276761Y-138258380D01*
X119324380Y-138334571D01*
X119324380Y-138486952D01*
X119276761Y-138563142D01*
X119181523Y-138639333D01*
X118991047Y-138677428D01*
X118657714Y-138677428D01*
X118467238Y-138639333D01*
X118372000Y-138563142D01*
X118324380Y-138486952D01*
X118800571Y-137801238D02*
X118800571Y-137534571D01*
X119324380Y-137420285D02*
X119324380Y-137801238D01*
X118324380Y-137801238D01*
X118324380Y-137420285D01*
X118324380Y-136925047D02*
X118324380Y-136772666D01*
X118372000Y-136696476D01*
X118467238Y-136620285D01*
X118657714Y-136582190D01*
X118991047Y-136582190D01*
X119181523Y-136620285D01*
X119276761Y-136696476D01*
X119324380Y-136772666D01*
X119324380Y-136925047D01*
X119276761Y-137001238D01*
X119181523Y-137077428D01*
X118991047Y-137115523D01*
X118657714Y-137115523D01*
X118467238Y-137077428D01*
X118372000Y-137001238D01*
X118324380Y-136925047D01*
X118324380Y-136239333D02*
X119133904Y-136239333D01*
X119229142Y-136201238D01*
X119276761Y-136163142D01*
X119324380Y-136086952D01*
X119324380Y-135934571D01*
X119276761Y-135858380D01*
X119229142Y-135820285D01*
X119133904Y-135782190D01*
X118324380Y-135782190D01*
X118324380Y-135515523D02*
X118324380Y-135058380D01*
X119324380Y-135286952D02*
X118324380Y-135286952D01*
X116498666Y-138975857D02*
X116498666Y-138594904D01*
X116784380Y-139052047D02*
X115784380Y-138785380D01*
X116784380Y-138518714D01*
X116784380Y-137871095D02*
X116784380Y-138252047D01*
X115784380Y-138252047D01*
X115784380Y-137718714D02*
X115784380Y-137261571D01*
X116784380Y-137490142D02*
X115784380Y-137490142D01*
X116689142Y-136537761D02*
X116736761Y-136575857D01*
X116784380Y-136690142D01*
X116784380Y-136766333D01*
X116736761Y-136880619D01*
X116641523Y-136956809D01*
X116546285Y-136994904D01*
X116355809Y-137033000D01*
X116212952Y-137033000D01*
X116022476Y-136994904D01*
X115927238Y-136956809D01*
X115832000Y-136880619D01*
X115784380Y-136766333D01*
X115784380Y-136690142D01*
X115832000Y-136575857D01*
X115879619Y-136537761D01*
X116784380Y-135813952D02*
X116784380Y-136194904D01*
X115784380Y-136194904D01*
X116784380Y-135547285D02*
X115784380Y-135547285D01*
X116784380Y-135090142D02*
X116212952Y-135433000D01*
X115784380Y-135090142D02*
X116355809Y-135547285D01*
X114149142Y-136975761D02*
X114196761Y-137013857D01*
X114244380Y-137128142D01*
X114244380Y-137204333D01*
X114196761Y-137318619D01*
X114101523Y-137394809D01*
X114006285Y-137432904D01*
X113815809Y-137471000D01*
X113672952Y-137471000D01*
X113482476Y-137432904D01*
X113387238Y-137394809D01*
X113292000Y-137318619D01*
X113244380Y-137204333D01*
X113244380Y-137128142D01*
X113292000Y-137013857D01*
X113339619Y-136975761D01*
X113244380Y-136747190D02*
X114244380Y-136480523D01*
X113244380Y-136213857D01*
X114244380Y-135947190D02*
X113244380Y-135947190D01*
X114244380Y-135566238D02*
X113244380Y-135566238D01*
X114244380Y-135109095D01*
X113244380Y-135109095D01*
D13*
X83007857Y-93576714D02*
X81807857Y-93576714D01*
X81807857Y-93157666D01*
X81865000Y-93052904D01*
X81922142Y-93000523D01*
X82036428Y-92948142D01*
X82207857Y-92948142D01*
X82322142Y-93000523D01*
X82379285Y-93052904D01*
X82436428Y-93157666D01*
X82436428Y-93576714D01*
X83007857Y-92476714D02*
X81807857Y-92476714D01*
X82893571Y-91324333D02*
X82950714Y-91376714D01*
X83007857Y-91533857D01*
X83007857Y-91638619D01*
X82950714Y-91795761D01*
X82836428Y-91900523D01*
X82722142Y-91952904D01*
X82493571Y-92005285D01*
X82322142Y-92005285D01*
X82093571Y-91952904D01*
X81979285Y-91900523D01*
X81865000Y-91795761D01*
X81807857Y-91638619D01*
X81807857Y-91533857D01*
X81865000Y-91376714D01*
X81922142Y-91324333D01*
X81807857Y-91010047D02*
X81807857Y-90381476D01*
X83007857Y-90695761D02*
X81807857Y-90695761D01*
X82665000Y-90067190D02*
X82665000Y-89543380D01*
X83007857Y-90171952D02*
X81807857Y-89805285D01*
X83007857Y-89438619D01*
X82950714Y-89124333D02*
X83007857Y-88967190D01*
X83007857Y-88705285D01*
X82950714Y-88600523D01*
X82893571Y-88548142D01*
X82779285Y-88495761D01*
X82665000Y-88495761D01*
X82550714Y-88548142D01*
X82493571Y-88600523D01*
X82436428Y-88705285D01*
X82379285Y-88914809D01*
X82322142Y-89019571D01*
X82265000Y-89071952D01*
X82150714Y-89124333D01*
X82036428Y-89124333D01*
X81922142Y-89071952D01*
X81865000Y-89019571D01*
X81807857Y-88914809D01*
X81807857Y-88652904D01*
X81865000Y-88495761D01*
X83007857Y-87186238D02*
X81807857Y-87186238D01*
X81807857Y-86767190D01*
X81865000Y-86662428D01*
X81922142Y-86610047D01*
X82036428Y-86557666D01*
X82207857Y-86557666D01*
X82322142Y-86610047D01*
X82379285Y-86662428D01*
X82436428Y-86767190D01*
X82436428Y-87186238D01*
X83007857Y-86086238D02*
X82207857Y-86086238D01*
X82436428Y-86086238D02*
X82322142Y-86033857D01*
X82265000Y-85981476D01*
X82207857Y-85876714D01*
X82207857Y-85771952D01*
X83007857Y-85248142D02*
X82950714Y-85352904D01*
X82893571Y-85405285D01*
X82779285Y-85457666D01*
X82436428Y-85457666D01*
X82322142Y-85405285D01*
X82265000Y-85352904D01*
X82207857Y-85248142D01*
X82207857Y-85091000D01*
X82265000Y-84986238D01*
X82322142Y-84933857D01*
X82436428Y-84881476D01*
X82779285Y-84881476D01*
X82893571Y-84933857D01*
X82950714Y-84986238D01*
X83007857Y-85091000D01*
X83007857Y-85248142D01*
X82207857Y-84567190D02*
X82207857Y-84148142D01*
X81807857Y-84410047D02*
X82836428Y-84410047D01*
X82950714Y-84357666D01*
X83007857Y-84252904D01*
X83007857Y-84148142D01*
X83007857Y-83624333D02*
X82950714Y-83729095D01*
X82893571Y-83781476D01*
X82779285Y-83833857D01*
X82436428Y-83833857D01*
X82322142Y-83781476D01*
X82265000Y-83729095D01*
X82207857Y-83624333D01*
X82207857Y-83467190D01*
X82265000Y-83362428D01*
X82322142Y-83310047D01*
X82436428Y-83257666D01*
X82779285Y-83257666D01*
X82893571Y-83310047D01*
X82950714Y-83362428D01*
X83007857Y-83467190D01*
X83007857Y-83624333D01*
X82207857Y-82943380D02*
X82207857Y-82524333D01*
X81807857Y-82786238D02*
X82836428Y-82786238D01*
X82950714Y-82733857D01*
X83007857Y-82629095D01*
X83007857Y-82524333D01*
X82207857Y-82262428D02*
X83007857Y-82000523D01*
X82207857Y-81738619D02*
X83007857Y-82000523D01*
X83293571Y-82105285D01*
X83350714Y-82157666D01*
X83407857Y-82262428D01*
X82207857Y-81319571D02*
X83407857Y-81319571D01*
X82265000Y-81319571D02*
X82207857Y-81214809D01*
X82207857Y-81005285D01*
X82265000Y-80900523D01*
X82322142Y-80848142D01*
X82436428Y-80795761D01*
X82779285Y-80795761D01*
X82893571Y-80848142D01*
X82950714Y-80900523D01*
X83007857Y-81005285D01*
X83007857Y-81214809D01*
X82950714Y-81319571D01*
X82950714Y-79905285D02*
X83007857Y-80010047D01*
X83007857Y-80219571D01*
X82950714Y-80324333D01*
X82836428Y-80376714D01*
X82379285Y-80376714D01*
X82265000Y-80324333D01*
X82207857Y-80219571D01*
X82207857Y-80010047D01*
X82265000Y-79905285D01*
X82379285Y-79852904D01*
X82493571Y-79852904D01*
X82607857Y-80376714D01*
X83912142Y-92083857D02*
X83855000Y-92031476D01*
X83797857Y-91926714D01*
X83797857Y-91664809D01*
X83855000Y-91560047D01*
X83912142Y-91507666D01*
X84026428Y-91455285D01*
X84140714Y-91455285D01*
X84312142Y-91507666D01*
X84997857Y-92136238D01*
X84997857Y-91455285D01*
X83797857Y-90774333D02*
X83797857Y-90669571D01*
X83855000Y-90564809D01*
X83912142Y-90512428D01*
X84026428Y-90460047D01*
X84255000Y-90407666D01*
X84540714Y-90407666D01*
X84769285Y-90460047D01*
X84883571Y-90512428D01*
X84940714Y-90564809D01*
X84997857Y-90669571D01*
X84997857Y-90774333D01*
X84940714Y-90879095D01*
X84883571Y-90931476D01*
X84769285Y-90983857D01*
X84540714Y-91036238D01*
X84255000Y-91036238D01*
X84026428Y-90983857D01*
X83912142Y-90931476D01*
X83855000Y-90879095D01*
X83797857Y-90774333D01*
X83912142Y-89988619D02*
X83855000Y-89936238D01*
X83797857Y-89831476D01*
X83797857Y-89569571D01*
X83855000Y-89464809D01*
X83912142Y-89412428D01*
X84026428Y-89360047D01*
X84140714Y-89360047D01*
X84312142Y-89412428D01*
X84997857Y-90041000D01*
X84997857Y-89360047D01*
X84997857Y-88312428D02*
X84997857Y-88941000D01*
X84997857Y-88626714D02*
X83797857Y-88626714D01*
X83969285Y-88731476D01*
X84083571Y-88836238D01*
X84140714Y-88941000D01*
X84540714Y-87841000D02*
X84540714Y-87002904D01*
X83797857Y-86269571D02*
X83797857Y-86164809D01*
X83855000Y-86060047D01*
X83912142Y-86007666D01*
X84026428Y-85955285D01*
X84255000Y-85902904D01*
X84540714Y-85902904D01*
X84769285Y-85955285D01*
X84883571Y-86007666D01*
X84940714Y-86060047D01*
X84997857Y-86164809D01*
X84997857Y-86269571D01*
X84940714Y-86374333D01*
X84883571Y-86426714D01*
X84769285Y-86479095D01*
X84540714Y-86531476D01*
X84255000Y-86531476D01*
X84026428Y-86479095D01*
X83912142Y-86426714D01*
X83855000Y-86374333D01*
X83797857Y-86269571D01*
X83797857Y-85536238D02*
X83797857Y-84802904D01*
X84997857Y-85274333D01*
X84540714Y-84383857D02*
X84540714Y-83545761D01*
X84997857Y-82445761D02*
X84997857Y-83074333D01*
X84997857Y-82760047D02*
X83797857Y-82760047D01*
X83969285Y-82864809D01*
X84083571Y-82969571D01*
X84140714Y-83074333D01*
X83797857Y-81502904D02*
X83797857Y-81712428D01*
X83855000Y-81817190D01*
X83912142Y-81869571D01*
X84083571Y-81974333D01*
X84312142Y-82026714D01*
X84769285Y-82026714D01*
X84883571Y-81974333D01*
X84940714Y-81921952D01*
X84997857Y-81817190D01*
X84997857Y-81607666D01*
X84940714Y-81502904D01*
X84883571Y-81450523D01*
X84769285Y-81398142D01*
X84483571Y-81398142D01*
X84369285Y-81450523D01*
X84312142Y-81502904D01*
X84255000Y-81607666D01*
X84255000Y-81817190D01*
X84312142Y-81921952D01*
X84369285Y-81974333D01*
X84483571Y-82026714D01*
X86987857Y-95121952D02*
X85787857Y-95121952D01*
X85787857Y-94860047D01*
X85845000Y-94702904D01*
X85959285Y-94598142D01*
X86073571Y-94545761D01*
X86302142Y-94493380D01*
X86473571Y-94493380D01*
X86702142Y-94545761D01*
X86816428Y-94598142D01*
X86930714Y-94702904D01*
X86987857Y-94860047D01*
X86987857Y-95121952D01*
X86930714Y-93602904D02*
X86987857Y-93707666D01*
X86987857Y-93917190D01*
X86930714Y-94021952D01*
X86816428Y-94074333D01*
X86359285Y-94074333D01*
X86245000Y-94021952D01*
X86187857Y-93917190D01*
X86187857Y-93707666D01*
X86245000Y-93602904D01*
X86359285Y-93550523D01*
X86473571Y-93550523D01*
X86587857Y-94074333D01*
X86930714Y-93131476D02*
X86987857Y-93026714D01*
X86987857Y-92817190D01*
X86930714Y-92712428D01*
X86816428Y-92660047D01*
X86759285Y-92660047D01*
X86645000Y-92712428D01*
X86587857Y-92817190D01*
X86587857Y-92974333D01*
X86530714Y-93079095D01*
X86416428Y-93131476D01*
X86359285Y-93131476D01*
X86245000Y-93079095D01*
X86187857Y-92974333D01*
X86187857Y-92817190D01*
X86245000Y-92712428D01*
X86987857Y-92188619D02*
X86187857Y-92188619D01*
X85787857Y-92188619D02*
X85845000Y-92241000D01*
X85902142Y-92188619D01*
X85845000Y-92136238D01*
X85787857Y-92188619D01*
X85902142Y-92188619D01*
X86187857Y-91193380D02*
X87159285Y-91193380D01*
X87273571Y-91245761D01*
X87330714Y-91298142D01*
X87387857Y-91402904D01*
X87387857Y-91560047D01*
X87330714Y-91664809D01*
X86930714Y-91193380D02*
X86987857Y-91298142D01*
X86987857Y-91507666D01*
X86930714Y-91612428D01*
X86873571Y-91664809D01*
X86759285Y-91717190D01*
X86416428Y-91717190D01*
X86302142Y-91664809D01*
X86245000Y-91612428D01*
X86187857Y-91507666D01*
X86187857Y-91298142D01*
X86245000Y-91193380D01*
X86187857Y-90669571D02*
X86987857Y-90669571D01*
X86302142Y-90669571D02*
X86245000Y-90617190D01*
X86187857Y-90512428D01*
X86187857Y-90355285D01*
X86245000Y-90250523D01*
X86359285Y-90198142D01*
X86987857Y-90198142D01*
X86930714Y-89255285D02*
X86987857Y-89360047D01*
X86987857Y-89569571D01*
X86930714Y-89674333D01*
X86816428Y-89726714D01*
X86359285Y-89726714D01*
X86245000Y-89674333D01*
X86187857Y-89569571D01*
X86187857Y-89360047D01*
X86245000Y-89255285D01*
X86359285Y-89202904D01*
X86473571Y-89202904D01*
X86587857Y-89726714D01*
X86987857Y-88260047D02*
X85787857Y-88260047D01*
X86930714Y-88260047D02*
X86987857Y-88364809D01*
X86987857Y-88574333D01*
X86930714Y-88679095D01*
X86873571Y-88731476D01*
X86759285Y-88783857D01*
X86416428Y-88783857D01*
X86302142Y-88731476D01*
X86245000Y-88679095D01*
X86187857Y-88574333D01*
X86187857Y-88364809D01*
X86245000Y-88260047D01*
X86987857Y-86898142D02*
X85787857Y-86898142D01*
X86245000Y-86898142D02*
X86187857Y-86793380D01*
X86187857Y-86583857D01*
X86245000Y-86479095D01*
X86302142Y-86426714D01*
X86416428Y-86374333D01*
X86759285Y-86374333D01*
X86873571Y-86426714D01*
X86930714Y-86479095D01*
X86987857Y-86583857D01*
X86987857Y-86793380D01*
X86930714Y-86898142D01*
X86187857Y-86007666D02*
X86987857Y-85745761D01*
X86187857Y-85483857D02*
X86987857Y-85745761D01*
X87273571Y-85850523D01*
X87330714Y-85902904D01*
X87387857Y-86007666D01*
X86359285Y-83860047D02*
X86416428Y-83702904D01*
X86473571Y-83650523D01*
X86587857Y-83598142D01*
X86759285Y-83598142D01*
X86873571Y-83650523D01*
X86930714Y-83702904D01*
X86987857Y-83807666D01*
X86987857Y-84226714D01*
X85787857Y-84226714D01*
X85787857Y-83860047D01*
X85845000Y-83755285D01*
X85902142Y-83702904D01*
X86016428Y-83650523D01*
X86130714Y-83650523D01*
X86245000Y-83702904D01*
X86302142Y-83755285D01*
X86359285Y-83860047D01*
X86359285Y-84226714D01*
X86987857Y-83126714D02*
X86187857Y-83126714D01*
X85787857Y-83126714D02*
X85845000Y-83179095D01*
X85902142Y-83126714D01*
X85845000Y-83074333D01*
X85787857Y-83126714D01*
X85902142Y-83126714D01*
X86187857Y-82131476D02*
X87159285Y-82131476D01*
X87273571Y-82183857D01*
X87330714Y-82236238D01*
X87387857Y-82341000D01*
X87387857Y-82498142D01*
X87330714Y-82602904D01*
X86930714Y-82131476D02*
X86987857Y-82236238D01*
X86987857Y-82445761D01*
X86930714Y-82550523D01*
X86873571Y-82602904D01*
X86759285Y-82655285D01*
X86416428Y-82655285D01*
X86302142Y-82602904D01*
X86245000Y-82550523D01*
X86187857Y-82445761D01*
X86187857Y-82236238D01*
X86245000Y-82131476D01*
X86987857Y-81607666D02*
X85787857Y-81607666D01*
X86245000Y-81607666D02*
X86187857Y-81502904D01*
X86187857Y-81293380D01*
X86245000Y-81188619D01*
X86302142Y-81136238D01*
X86416428Y-81083857D01*
X86759285Y-81083857D01*
X86873571Y-81136238D01*
X86930714Y-81188619D01*
X86987857Y-81293380D01*
X86987857Y-81502904D01*
X86930714Y-81607666D01*
X86987857Y-80141000D02*
X86359285Y-80141000D01*
X86245000Y-80193380D01*
X86187857Y-80298142D01*
X86187857Y-80507666D01*
X86245000Y-80612428D01*
X86930714Y-80141000D02*
X86987857Y-80245761D01*
X86987857Y-80507666D01*
X86930714Y-80612428D01*
X86816428Y-80664809D01*
X86702142Y-80664809D01*
X86587857Y-80612428D01*
X86530714Y-80507666D01*
X86530714Y-80245761D01*
X86473571Y-80141000D01*
X86930714Y-79669571D02*
X86987857Y-79564809D01*
X86987857Y-79355285D01*
X86930714Y-79250523D01*
X86816428Y-79198142D01*
X86759285Y-79198142D01*
X86645000Y-79250523D01*
X86587857Y-79355285D01*
X86587857Y-79512428D01*
X86530714Y-79617190D01*
X86416428Y-79669571D01*
X86359285Y-79669571D01*
X86245000Y-79617190D01*
X86187857Y-79512428D01*
X86187857Y-79355285D01*
X86245000Y-79250523D01*
X86930714Y-78779095D02*
X86987857Y-78674333D01*
X86987857Y-78464809D01*
X86930714Y-78360047D01*
X86816428Y-78307666D01*
X86759285Y-78307666D01*
X86645000Y-78360047D01*
X86587857Y-78464809D01*
X86587857Y-78621952D01*
X86530714Y-78726714D01*
X86416428Y-78779095D01*
X86359285Y-78779095D01*
X86245000Y-78726714D01*
X86187857Y-78621952D01*
X86187857Y-78464809D01*
X86245000Y-78360047D01*
D14*
%TO.C,J6*%
X106045000Y-62230000D02*
X106045000Y-60960000D01*
X107315000Y-62230000D02*
X106045000Y-62230000D01*
X117855000Y-59917071D02*
X117855000Y-59520000D01*
X117095000Y-59917071D02*
X117095000Y-59520000D01*
X117855000Y-50860000D02*
X117855000Y-56860000D01*
X117095000Y-50860000D02*
X117855000Y-50860000D01*
X117095000Y-56860000D02*
X117095000Y-50860000D01*
X116205000Y-59520000D02*
X116205000Y-56860000D01*
X115315000Y-59917071D02*
X115315000Y-59520000D01*
X114555000Y-59917071D02*
X114555000Y-59520000D01*
X115315000Y-50860000D02*
X115315000Y-56860000D01*
X114555000Y-50860000D02*
X115315000Y-50860000D01*
X114555000Y-56860000D02*
X114555000Y-50860000D01*
X113665000Y-59520000D02*
X113665000Y-56860000D01*
X112775000Y-59917071D02*
X112775000Y-59520000D01*
X112015000Y-59917071D02*
X112015000Y-59520000D01*
X112775000Y-50860000D02*
X112775000Y-56860000D01*
X112015000Y-50860000D02*
X112775000Y-50860000D01*
X112015000Y-56860000D02*
X112015000Y-50860000D01*
X111125000Y-59520000D02*
X111125000Y-56860000D01*
X110235000Y-59917071D02*
X110235000Y-59520000D01*
X109475000Y-59917071D02*
X109475000Y-59520000D01*
X110235000Y-50860000D02*
X110235000Y-56860000D01*
X109475000Y-50860000D02*
X110235000Y-50860000D01*
X109475000Y-56860000D02*
X109475000Y-50860000D01*
X108585000Y-59520000D02*
X108585000Y-56860000D01*
X107695000Y-59850000D02*
X107695000Y-59520000D01*
X106935000Y-59850000D02*
X106935000Y-59520000D01*
X107595000Y-56860000D02*
X107595000Y-50860000D01*
X107475000Y-56860000D02*
X107475000Y-50860000D01*
X107355000Y-56860000D02*
X107355000Y-50860000D01*
X107235000Y-56860000D02*
X107235000Y-50860000D01*
X107115000Y-56860000D02*
X107115000Y-50860000D01*
X106995000Y-56860000D02*
X106995000Y-50860000D01*
X107695000Y-50860000D02*
X107695000Y-56860000D01*
X106935000Y-50860000D02*
X107695000Y-50860000D01*
X106935000Y-56860000D02*
X106935000Y-50860000D01*
X105985000Y-56860000D02*
X105985000Y-59520000D01*
X118805000Y-56860000D02*
X105985000Y-56860000D01*
X118805000Y-59520000D02*
X118805000Y-56860000D01*
X105985000Y-59520000D02*
X118805000Y-59520000D01*
%TO.C,J5*%
X87122000Y-62230000D02*
X87122000Y-60960000D01*
X88392000Y-62230000D02*
X87122000Y-62230000D01*
X98932000Y-59917071D02*
X98932000Y-59520000D01*
X98172000Y-59917071D02*
X98172000Y-59520000D01*
X98932000Y-50860000D02*
X98932000Y-56860000D01*
X98172000Y-50860000D02*
X98932000Y-50860000D01*
X98172000Y-56860000D02*
X98172000Y-50860000D01*
X97282000Y-59520000D02*
X97282000Y-56860000D01*
X96392000Y-59917071D02*
X96392000Y-59520000D01*
X95632000Y-59917071D02*
X95632000Y-59520000D01*
X96392000Y-50860000D02*
X96392000Y-56860000D01*
X95632000Y-50860000D02*
X96392000Y-50860000D01*
X95632000Y-56860000D02*
X95632000Y-50860000D01*
X94742000Y-59520000D02*
X94742000Y-56860000D01*
X93852000Y-59917071D02*
X93852000Y-59520000D01*
X93092000Y-59917071D02*
X93092000Y-59520000D01*
X93852000Y-50860000D02*
X93852000Y-56860000D01*
X93092000Y-50860000D02*
X93852000Y-50860000D01*
X93092000Y-56860000D02*
X93092000Y-50860000D01*
X92202000Y-59520000D02*
X92202000Y-56860000D01*
X91312000Y-59917071D02*
X91312000Y-59520000D01*
X90552000Y-59917071D02*
X90552000Y-59520000D01*
X91312000Y-50860000D02*
X91312000Y-56860000D01*
X90552000Y-50860000D02*
X91312000Y-50860000D01*
X90552000Y-56860000D02*
X90552000Y-50860000D01*
X89662000Y-59520000D02*
X89662000Y-56860000D01*
X88772000Y-59850000D02*
X88772000Y-59520000D01*
X88012000Y-59850000D02*
X88012000Y-59520000D01*
X88672000Y-56860000D02*
X88672000Y-50860000D01*
X88552000Y-56860000D02*
X88552000Y-50860000D01*
X88432000Y-56860000D02*
X88432000Y-50860000D01*
X88312000Y-56860000D02*
X88312000Y-50860000D01*
X88192000Y-56860000D02*
X88192000Y-50860000D01*
X88072000Y-56860000D02*
X88072000Y-50860000D01*
X88772000Y-50860000D02*
X88772000Y-56860000D01*
X88012000Y-50860000D02*
X88772000Y-50860000D01*
X88012000Y-56860000D02*
X88012000Y-50860000D01*
X87062000Y-56860000D02*
X87062000Y-59520000D01*
X99882000Y-56860000D02*
X87062000Y-56860000D01*
X99882000Y-59520000D02*
X99882000Y-56860000D01*
X87062000Y-59520000D02*
X99882000Y-59520000D01*
%TO.C,SW1*%
X122095000Y-61233000D02*
X123595000Y-61233000D01*
X126095000Y-59983000D02*
X126095000Y-55483000D01*
X123595000Y-54233000D02*
X122095000Y-54233000D01*
X119595000Y-55483000D02*
X119595000Y-59983000D01*
D15*
%TO.C,Q1*%
X79070000Y-135640000D02*
X78770000Y-135790000D01*
X79070000Y-135340000D02*
X79070000Y-135640000D01*
X79070000Y-130940000D02*
X79070000Y-131240000D01*
X79070000Y-130940000D02*
X78770000Y-130790000D01*
D10*
X75920000Y-131340000D02*
G75*
G03*
X75870000Y-135190000I1900000J-1950000D01*
G01*
D14*
%TO.C,J15*%
X85150000Y-132123000D02*
X79950000Y-132123000D01*
X79950000Y-132123000D02*
X79950000Y-134783000D01*
X79950000Y-134783000D02*
X85150000Y-134783000D01*
X85150000Y-134783000D02*
X85150000Y-132123000D01*
X84200000Y-134783000D02*
X84200000Y-140783000D01*
X84200000Y-140783000D02*
X83440000Y-140783000D01*
X83440000Y-140783000D02*
X83440000Y-134783000D01*
X84140000Y-134783000D02*
X84140000Y-140783000D01*
X84020000Y-134783000D02*
X84020000Y-140783000D01*
X83900000Y-134783000D02*
X83900000Y-140783000D01*
X83780000Y-134783000D02*
X83780000Y-140783000D01*
X83660000Y-134783000D02*
X83660000Y-140783000D01*
X83540000Y-134783000D02*
X83540000Y-140783000D01*
X84200000Y-131793000D02*
X84200000Y-132123000D01*
X83440000Y-131793000D02*
X83440000Y-132123000D01*
X82550000Y-132123000D02*
X82550000Y-134783000D01*
X81660000Y-134783000D02*
X81660000Y-140783000D01*
X81660000Y-140783000D02*
X80900000Y-140783000D01*
X80900000Y-140783000D02*
X80900000Y-134783000D01*
X81660000Y-131725929D02*
X81660000Y-132123000D01*
X80900000Y-131725929D02*
X80900000Y-132123000D01*
X83820000Y-129413000D02*
X85090000Y-129413000D01*
X85090000Y-129413000D02*
X85090000Y-130683000D01*
%TO.C,U6*%
X126238000Y-127996000D02*
X122788000Y-127996000D01*
X126238000Y-127996000D02*
X128188000Y-127996000D01*
X126238000Y-133116000D02*
X124288000Y-133116000D01*
X126238000Y-133116000D02*
X128188000Y-133116000D01*
%TO.C,R7*%
X132984000Y-133700000D02*
X129144000Y-133700000D01*
X132984000Y-135540000D02*
X129144000Y-135540000D01*
%TO.C,J14*%
X121158000Y-129413000D02*
X121158000Y-130683000D01*
X119888000Y-129413000D02*
X121158000Y-129413000D01*
X114428000Y-131725929D02*
X114428000Y-132123000D01*
X115188000Y-131725929D02*
X115188000Y-132123000D01*
X114428000Y-140783000D02*
X114428000Y-134783000D01*
X115188000Y-140783000D02*
X114428000Y-140783000D01*
X115188000Y-134783000D02*
X115188000Y-140783000D01*
X116078000Y-132123000D02*
X116078000Y-134783000D01*
X116968000Y-131725929D02*
X116968000Y-132123000D01*
X117728000Y-131725929D02*
X117728000Y-132123000D01*
X116968000Y-140783000D02*
X116968000Y-134783000D01*
X117728000Y-140783000D02*
X116968000Y-140783000D01*
X117728000Y-134783000D02*
X117728000Y-140783000D01*
X118618000Y-132123000D02*
X118618000Y-134783000D01*
X119508000Y-131793000D02*
X119508000Y-132123000D01*
X120268000Y-131793000D02*
X120268000Y-132123000D01*
X119608000Y-134783000D02*
X119608000Y-140783000D01*
X119728000Y-134783000D02*
X119728000Y-140783000D01*
X119848000Y-134783000D02*
X119848000Y-140783000D01*
X119968000Y-134783000D02*
X119968000Y-140783000D01*
X120088000Y-134783000D02*
X120088000Y-140783000D01*
X120208000Y-134783000D02*
X120208000Y-140783000D01*
X119508000Y-140783000D02*
X119508000Y-134783000D01*
X120268000Y-140783000D02*
X119508000Y-140783000D01*
X120268000Y-134783000D02*
X120268000Y-140783000D01*
X121218000Y-134783000D02*
X121218000Y-132123000D01*
X113478000Y-134783000D02*
X121218000Y-134783000D01*
X113478000Y-132123000D02*
X113478000Y-134783000D01*
X121218000Y-132123000D02*
X113478000Y-132123000D01*
D16*
%TO.C,J13*%
X102442000Y-138366000D02*
X112442000Y-138366000D01*
X112442000Y-138366000D02*
X112442000Y-128366000D01*
X102442000Y-128366000D02*
X102442000Y-138366000D01*
X112442000Y-128366000D02*
X102442000Y-128366000D01*
D14*
%TO.C,C5*%
X133005000Y-128589000D02*
X133250000Y-128589000D01*
X130910000Y-128589000D02*
X131155000Y-128589000D01*
X133005000Y-132229000D02*
X133250000Y-132229000D01*
X130910000Y-132229000D02*
X131155000Y-132229000D01*
X133250000Y-132229000D02*
X133250000Y-128589000D01*
X130910000Y-132229000D02*
X130910000Y-128589000D01*
%TO.C,C4*%
X122787000Y-133695000D02*
X122787000Y-133450000D01*
X122787000Y-135790000D02*
X122787000Y-135545000D01*
X126427000Y-133695000D02*
X126427000Y-133450000D01*
X126427000Y-135790000D02*
X126427000Y-135545000D01*
X126427000Y-133450000D02*
X122787000Y-133450000D01*
X126427000Y-135790000D02*
X122787000Y-135790000D01*
%TO.C,R5*%
X101442000Y-64150000D02*
X101442000Y-60310000D01*
X103282000Y-64150000D02*
X103282000Y-60310000D01*
%TO.C,U1*%
X111395000Y-63440000D02*
X105935000Y-63440000D01*
X105935000Y-63440000D02*
X105935000Y-114360000D01*
X105935000Y-114360000D02*
X118855000Y-114360000D01*
X118855000Y-114360000D02*
X118855000Y-63440000D01*
X118855000Y-63440000D02*
X113395000Y-63440000D01*
X113395000Y-63440000D02*
G75*
G02*
X111395000Y-63440000I-1000000J0D01*
G01*
%TO.C,R2*%
X128763000Y-77820000D02*
X132603000Y-77820000D01*
X128763000Y-79660000D02*
X132603000Y-79660000D01*
%TO.C,J3*%
X132123000Y-90110000D02*
X132123000Y-97850000D01*
X132123000Y-97850000D02*
X134783000Y-97850000D01*
X134783000Y-97850000D02*
X134783000Y-90110000D01*
X134783000Y-90110000D02*
X132123000Y-90110000D01*
X134783000Y-91060000D02*
X140783000Y-91060000D01*
X140783000Y-91060000D02*
X140783000Y-91820000D01*
X140783000Y-91820000D02*
X134783000Y-91820000D01*
X134783000Y-91120000D02*
X140783000Y-91120000D01*
X134783000Y-91240000D02*
X140783000Y-91240000D01*
X134783000Y-91360000D02*
X140783000Y-91360000D01*
X134783000Y-91480000D02*
X140783000Y-91480000D01*
X134783000Y-91600000D02*
X140783000Y-91600000D01*
X134783000Y-91720000D02*
X140783000Y-91720000D01*
X131725929Y-91060000D02*
X132123000Y-91060000D01*
X131725929Y-91820000D02*
X132123000Y-91820000D01*
X129253000Y-91060000D02*
X129640071Y-91060000D01*
X129253000Y-91820000D02*
X129640071Y-91820000D01*
X132123000Y-92710000D02*
X134783000Y-92710000D01*
X134783000Y-93600000D02*
X140783000Y-93600000D01*
X140783000Y-93600000D02*
X140783000Y-94360000D01*
X140783000Y-94360000D02*
X134783000Y-94360000D01*
X131725929Y-93600000D02*
X132123000Y-93600000D01*
X131725929Y-94360000D02*
X132123000Y-94360000D01*
X129185929Y-93600000D02*
X129640071Y-93600000D01*
X129185929Y-94360000D02*
X129640071Y-94360000D01*
X132123000Y-95250000D02*
X134783000Y-95250000D01*
X134783000Y-96140000D02*
X140783000Y-96140000D01*
X140783000Y-96140000D02*
X140783000Y-96900000D01*
X140783000Y-96900000D02*
X134783000Y-96900000D01*
X131725929Y-96140000D02*
X132123000Y-96140000D01*
X131725929Y-96900000D02*
X132123000Y-96900000D01*
X129185929Y-96140000D02*
X129640071Y-96140000D01*
X129185929Y-96900000D02*
X129640071Y-96900000D01*
X126873000Y-91440000D02*
X126873000Y-90170000D01*
X126873000Y-90170000D02*
X128143000Y-90170000D01*
%TO.C,C2*%
X101192000Y-93280000D02*
X101192000Y-89640000D01*
X103532000Y-93280000D02*
X103532000Y-89640000D01*
X101192000Y-93280000D02*
X101437000Y-93280000D01*
X103287000Y-93280000D02*
X103532000Y-93280000D01*
X101192000Y-89640000D02*
X101437000Y-89640000D01*
X103287000Y-89640000D02*
X103532000Y-89640000D01*
%TO.C,J1*%
X126873000Y-59690000D02*
X128143000Y-59690000D01*
X126873000Y-60960000D02*
X126873000Y-59690000D01*
X129185929Y-76580000D02*
X129640071Y-76580000D01*
X129185929Y-75820000D02*
X129640071Y-75820000D01*
X131725929Y-76580000D02*
X132123000Y-76580000D01*
X131725929Y-75820000D02*
X132123000Y-75820000D01*
X140783000Y-76580000D02*
X134783000Y-76580000D01*
X140783000Y-75820000D02*
X140783000Y-76580000D01*
X134783000Y-75820000D02*
X140783000Y-75820000D01*
X132123000Y-74930000D02*
X134783000Y-74930000D01*
X129185929Y-74040000D02*
X129640071Y-74040000D01*
X129185929Y-73280000D02*
X129640071Y-73280000D01*
X131725929Y-74040000D02*
X132123000Y-74040000D01*
X131725929Y-73280000D02*
X132123000Y-73280000D01*
X140783000Y-74040000D02*
X134783000Y-74040000D01*
X140783000Y-73280000D02*
X140783000Y-74040000D01*
X134783000Y-73280000D02*
X140783000Y-73280000D01*
X132123000Y-72390000D02*
X134783000Y-72390000D01*
X129185929Y-71500000D02*
X129640071Y-71500000D01*
X129185929Y-70740000D02*
X129640071Y-70740000D01*
X131725929Y-71500000D02*
X132123000Y-71500000D01*
X131725929Y-70740000D02*
X132123000Y-70740000D01*
X140783000Y-71500000D02*
X134783000Y-71500000D01*
X140783000Y-70740000D02*
X140783000Y-71500000D01*
X134783000Y-70740000D02*
X140783000Y-70740000D01*
X132123000Y-69850000D02*
X134783000Y-69850000D01*
X129185929Y-68960000D02*
X129640071Y-68960000D01*
X129185929Y-68200000D02*
X129640071Y-68200000D01*
X131725929Y-68960000D02*
X132123000Y-68960000D01*
X131725929Y-68200000D02*
X132123000Y-68200000D01*
X140783000Y-68960000D02*
X134783000Y-68960000D01*
X140783000Y-68200000D02*
X140783000Y-68960000D01*
X134783000Y-68200000D02*
X140783000Y-68200000D01*
X132123000Y-67310000D02*
X134783000Y-67310000D01*
X129185929Y-66420000D02*
X129640071Y-66420000D01*
X129185929Y-65660000D02*
X129640071Y-65660000D01*
X131725929Y-66420000D02*
X132123000Y-66420000D01*
X131725929Y-65660000D02*
X132123000Y-65660000D01*
X140783000Y-66420000D02*
X134783000Y-66420000D01*
X140783000Y-65660000D02*
X140783000Y-66420000D01*
X134783000Y-65660000D02*
X140783000Y-65660000D01*
X132123000Y-64770000D02*
X134783000Y-64770000D01*
X129185929Y-63880000D02*
X129640071Y-63880000D01*
X129185929Y-63120000D02*
X129640071Y-63120000D01*
X131725929Y-63880000D02*
X132123000Y-63880000D01*
X131725929Y-63120000D02*
X132123000Y-63120000D01*
X140783000Y-63880000D02*
X134783000Y-63880000D01*
X140783000Y-63120000D02*
X140783000Y-63880000D01*
X134783000Y-63120000D02*
X140783000Y-63120000D01*
X132123000Y-62230000D02*
X134783000Y-62230000D01*
X129253000Y-61340000D02*
X129640071Y-61340000D01*
X129253000Y-60580000D02*
X129640071Y-60580000D01*
X131725929Y-61340000D02*
X132123000Y-61340000D01*
X131725929Y-60580000D02*
X132123000Y-60580000D01*
X134783000Y-61240000D02*
X140783000Y-61240000D01*
X134783000Y-61120000D02*
X140783000Y-61120000D01*
X134783000Y-61000000D02*
X140783000Y-61000000D01*
X134783000Y-60880000D02*
X140783000Y-60880000D01*
X134783000Y-60760000D02*
X140783000Y-60760000D01*
X134783000Y-60640000D02*
X140783000Y-60640000D01*
X140783000Y-61340000D02*
X134783000Y-61340000D01*
X140783000Y-60580000D02*
X140783000Y-61340000D01*
X134783000Y-60580000D02*
X140783000Y-60580000D01*
X134783000Y-59630000D02*
X132123000Y-59630000D01*
X134783000Y-77530000D02*
X134783000Y-59630000D01*
X132123000Y-77530000D02*
X134783000Y-77530000D01*
X132123000Y-59630000D02*
X132123000Y-77530000D01*
%TO.C,R3*%
X126523000Y-89520000D02*
X126523000Y-93360000D01*
X124683000Y-89520000D02*
X124683000Y-93360000D01*
%TO.C,J2*%
X132123000Y-79950000D02*
X132123000Y-87690000D01*
X132123000Y-87690000D02*
X134783000Y-87690000D01*
X134783000Y-87690000D02*
X134783000Y-79950000D01*
X134783000Y-79950000D02*
X132123000Y-79950000D01*
X134783000Y-80900000D02*
X140783000Y-80900000D01*
X140783000Y-80900000D02*
X140783000Y-81660000D01*
X140783000Y-81660000D02*
X134783000Y-81660000D01*
X134783000Y-80960000D02*
X140783000Y-80960000D01*
X134783000Y-81080000D02*
X140783000Y-81080000D01*
X134783000Y-81200000D02*
X140783000Y-81200000D01*
X134783000Y-81320000D02*
X140783000Y-81320000D01*
X134783000Y-81440000D02*
X140783000Y-81440000D01*
X134783000Y-81560000D02*
X140783000Y-81560000D01*
X131725929Y-80900000D02*
X132123000Y-80900000D01*
X131725929Y-81660000D02*
X132123000Y-81660000D01*
X129253000Y-80900000D02*
X129640071Y-80900000D01*
X129253000Y-81660000D02*
X129640071Y-81660000D01*
X132123000Y-82550000D02*
X134783000Y-82550000D01*
X134783000Y-83440000D02*
X140783000Y-83440000D01*
X140783000Y-83440000D02*
X140783000Y-84200000D01*
X140783000Y-84200000D02*
X134783000Y-84200000D01*
X131725929Y-83440000D02*
X132123000Y-83440000D01*
X131725929Y-84200000D02*
X132123000Y-84200000D01*
X129185929Y-83440000D02*
X129640071Y-83440000D01*
X129185929Y-84200000D02*
X129640071Y-84200000D01*
X132123000Y-85090000D02*
X134783000Y-85090000D01*
X134783000Y-85980000D02*
X140783000Y-85980000D01*
X140783000Y-85980000D02*
X140783000Y-86740000D01*
X140783000Y-86740000D02*
X134783000Y-86740000D01*
X131725929Y-85980000D02*
X132123000Y-85980000D01*
X131725929Y-86740000D02*
X132123000Y-86740000D01*
X129185929Y-85980000D02*
X129640071Y-85980000D01*
X129185929Y-86740000D02*
X129640071Y-86740000D01*
X126873000Y-81280000D02*
X126873000Y-80010000D01*
X126873000Y-80010000D02*
X128143000Y-80010000D01*
%TO.C,R1*%
X126523000Y-79360000D02*
X126523000Y-83200000D01*
X124683000Y-79360000D02*
X124683000Y-83200000D01*
%TO.C,R4*%
X128763000Y-87980000D02*
X132603000Y-87980000D01*
X128763000Y-89820000D02*
X132603000Y-89820000D01*
%TO.C,C3*%
X98525000Y-93280000D02*
X98525000Y-89640000D01*
X100865000Y-93280000D02*
X100865000Y-89640000D01*
X98525000Y-93280000D02*
X98770000Y-93280000D01*
X100620000Y-93280000D02*
X100865000Y-93280000D01*
X98525000Y-89640000D02*
X98770000Y-89640000D01*
X100620000Y-89640000D02*
X100865000Y-89640000D01*
%TO.C,J4*%
X132123000Y-100270000D02*
X132123000Y-123250000D01*
X132123000Y-123250000D02*
X134783000Y-123250000D01*
X134783000Y-123250000D02*
X134783000Y-100270000D01*
X134783000Y-100270000D02*
X132123000Y-100270000D01*
X134783000Y-101220000D02*
X140783000Y-101220000D01*
X140783000Y-101220000D02*
X140783000Y-101980000D01*
X140783000Y-101980000D02*
X134783000Y-101980000D01*
X134783000Y-101280000D02*
X140783000Y-101280000D01*
X134783000Y-101400000D02*
X140783000Y-101400000D01*
X134783000Y-101520000D02*
X140783000Y-101520000D01*
X134783000Y-101640000D02*
X140783000Y-101640000D01*
X134783000Y-101760000D02*
X140783000Y-101760000D01*
X134783000Y-101880000D02*
X140783000Y-101880000D01*
X131725929Y-101220000D02*
X132123000Y-101220000D01*
X131725929Y-101980000D02*
X132123000Y-101980000D01*
X129253000Y-101220000D02*
X129640071Y-101220000D01*
X129253000Y-101980000D02*
X129640071Y-101980000D01*
X132123000Y-102870000D02*
X134783000Y-102870000D01*
X134783000Y-103760000D02*
X140783000Y-103760000D01*
X140783000Y-103760000D02*
X140783000Y-104520000D01*
X140783000Y-104520000D02*
X134783000Y-104520000D01*
X131725929Y-103760000D02*
X132123000Y-103760000D01*
X131725929Y-104520000D02*
X132123000Y-104520000D01*
X129185929Y-103760000D02*
X129640071Y-103760000D01*
X129185929Y-104520000D02*
X129640071Y-104520000D01*
X132123000Y-105410000D02*
X134783000Y-105410000D01*
X134783000Y-106300000D02*
X140783000Y-106300000D01*
X140783000Y-106300000D02*
X140783000Y-107060000D01*
X140783000Y-107060000D02*
X134783000Y-107060000D01*
X131725929Y-106300000D02*
X132123000Y-106300000D01*
X131725929Y-107060000D02*
X132123000Y-107060000D01*
X129185929Y-106300000D02*
X129640071Y-106300000D01*
X129185929Y-107060000D02*
X129640071Y-107060000D01*
X132123000Y-107950000D02*
X134783000Y-107950000D01*
X134783000Y-108840000D02*
X140783000Y-108840000D01*
X140783000Y-108840000D02*
X140783000Y-109600000D01*
X140783000Y-109600000D02*
X134783000Y-109600000D01*
X131725929Y-108840000D02*
X132123000Y-108840000D01*
X131725929Y-109600000D02*
X132123000Y-109600000D01*
X129185929Y-108840000D02*
X129640071Y-108840000D01*
X129185929Y-109600000D02*
X129640071Y-109600000D01*
X132123000Y-110490000D02*
X134783000Y-110490000D01*
X134783000Y-111380000D02*
X140783000Y-111380000D01*
X140783000Y-111380000D02*
X140783000Y-112140000D01*
X140783000Y-112140000D02*
X134783000Y-112140000D01*
X131725929Y-111380000D02*
X132123000Y-111380000D01*
X131725929Y-112140000D02*
X132123000Y-112140000D01*
X129185929Y-111380000D02*
X129640071Y-111380000D01*
X129185929Y-112140000D02*
X129640071Y-112140000D01*
X132123000Y-113030000D02*
X134783000Y-113030000D01*
X134783000Y-113920000D02*
X140783000Y-113920000D01*
X140783000Y-113920000D02*
X140783000Y-114680000D01*
X140783000Y-114680000D02*
X134783000Y-114680000D01*
X131725929Y-113920000D02*
X132123000Y-113920000D01*
X131725929Y-114680000D02*
X132123000Y-114680000D01*
X129185929Y-113920000D02*
X129640071Y-113920000D01*
X129185929Y-114680000D02*
X129640071Y-114680000D01*
X132123000Y-115570000D02*
X134783000Y-115570000D01*
X134783000Y-116460000D02*
X140783000Y-116460000D01*
X140783000Y-116460000D02*
X140783000Y-117220000D01*
X140783000Y-117220000D02*
X134783000Y-117220000D01*
X131725929Y-116460000D02*
X132123000Y-116460000D01*
X131725929Y-117220000D02*
X132123000Y-117220000D01*
X129185929Y-116460000D02*
X129640071Y-116460000D01*
X129185929Y-117220000D02*
X129640071Y-117220000D01*
X132123000Y-118110000D02*
X134783000Y-118110000D01*
X134783000Y-119000000D02*
X140783000Y-119000000D01*
X140783000Y-119000000D02*
X140783000Y-119760000D01*
X140783000Y-119760000D02*
X134783000Y-119760000D01*
X131725929Y-119000000D02*
X132123000Y-119000000D01*
X131725929Y-119760000D02*
X132123000Y-119760000D01*
X129185929Y-119000000D02*
X129640071Y-119000000D01*
X129185929Y-119760000D02*
X129640071Y-119760000D01*
X132123000Y-120650000D02*
X134783000Y-120650000D01*
X134783000Y-121540000D02*
X140783000Y-121540000D01*
X140783000Y-121540000D02*
X140783000Y-122300000D01*
X140783000Y-122300000D02*
X134783000Y-122300000D01*
X131725929Y-121540000D02*
X132123000Y-121540000D01*
X131725929Y-122300000D02*
X132123000Y-122300000D01*
X129185929Y-121540000D02*
X129640071Y-121540000D01*
X129185929Y-122300000D02*
X129640071Y-122300000D01*
X126873000Y-101600000D02*
X126873000Y-100330000D01*
X126873000Y-100330000D02*
X128143000Y-100330000D01*
%TO.C,C1*%
X106335000Y-116056000D02*
X106580000Y-116056000D01*
X104240000Y-116056000D02*
X104485000Y-116056000D01*
X106335000Y-119696000D02*
X106580000Y-119696000D01*
X104240000Y-119696000D02*
X104485000Y-119696000D01*
X106580000Y-119696000D02*
X106580000Y-116056000D01*
X104240000Y-119696000D02*
X104240000Y-116056000D01*
%TO.C,U3*%
X92472000Y-68520000D02*
X90822000Y-68520000D01*
X90822000Y-68520000D02*
X90822000Y-104200000D01*
X90822000Y-104200000D02*
X96122000Y-104200000D01*
X96122000Y-104200000D02*
X96122000Y-68520000D01*
X96122000Y-68520000D02*
X94472000Y-68520000D01*
X94472000Y-68520000D02*
G75*
G02*
X92472000Y-68520000I-1000000J0D01*
G01*
%TO.C,U5*%
X102422000Y-113648000D02*
X102422000Y-111998000D01*
X84522000Y-113648000D02*
X102422000Y-113648000D01*
X84522000Y-108348000D02*
X84522000Y-113648000D01*
X102422000Y-108348000D02*
X84522000Y-108348000D01*
X102422000Y-109998000D02*
X102422000Y-108348000D01*
X102422000Y-111998000D02*
G75*
G02*
X102422000Y-109998000I0J1000000D01*
G01*
%TO.C,J11*%
X79121000Y-124841000D02*
X77851000Y-124841000D01*
X79121000Y-123571000D02*
X79121000Y-124841000D01*
X76808071Y-113031000D02*
X76411000Y-113031000D01*
X76808071Y-113791000D02*
X76411000Y-113791000D01*
X67751000Y-113031000D02*
X73751000Y-113031000D01*
X67751000Y-113791000D02*
X67751000Y-113031000D01*
X73751000Y-113791000D02*
X67751000Y-113791000D01*
X76411000Y-114681000D02*
X73751000Y-114681000D01*
X76808071Y-115571000D02*
X76411000Y-115571000D01*
X76808071Y-116331000D02*
X76411000Y-116331000D01*
X67751000Y-115571000D02*
X73751000Y-115571000D01*
X67751000Y-116331000D02*
X67751000Y-115571000D01*
X73751000Y-116331000D02*
X67751000Y-116331000D01*
X76411000Y-117221000D02*
X73751000Y-117221000D01*
X76808071Y-118111000D02*
X76411000Y-118111000D01*
X76808071Y-118871000D02*
X76411000Y-118871000D01*
X67751000Y-118111000D02*
X73751000Y-118111000D01*
X67751000Y-118871000D02*
X67751000Y-118111000D01*
X73751000Y-118871000D02*
X67751000Y-118871000D01*
X76411000Y-119761000D02*
X73751000Y-119761000D01*
X76808071Y-120651000D02*
X76411000Y-120651000D01*
X76808071Y-121411000D02*
X76411000Y-121411000D01*
X67751000Y-120651000D02*
X73751000Y-120651000D01*
X67751000Y-121411000D02*
X67751000Y-120651000D01*
X73751000Y-121411000D02*
X67751000Y-121411000D01*
X76411000Y-122301000D02*
X73751000Y-122301000D01*
X76741000Y-123191000D02*
X76411000Y-123191000D01*
X76741000Y-123951000D02*
X76411000Y-123951000D01*
X73751000Y-123291000D02*
X67751000Y-123291000D01*
X73751000Y-123411000D02*
X67751000Y-123411000D01*
X73751000Y-123531000D02*
X67751000Y-123531000D01*
X73751000Y-123651000D02*
X67751000Y-123651000D01*
X73751000Y-123771000D02*
X67751000Y-123771000D01*
X73751000Y-123891000D02*
X67751000Y-123891000D01*
X67751000Y-123191000D02*
X73751000Y-123191000D01*
X67751000Y-123951000D02*
X67751000Y-123191000D01*
X73751000Y-123951000D02*
X67751000Y-123951000D01*
X73751000Y-124901000D02*
X76411000Y-124901000D01*
X73751000Y-112081000D02*
X73751000Y-124901000D01*
X76411000Y-112081000D02*
X73751000Y-112081000D01*
X76411000Y-124901000D02*
X76411000Y-112081000D01*
%TO.C,J10*%
X79121000Y-110363000D02*
X77851000Y-110363000D01*
X79121000Y-109093000D02*
X79121000Y-110363000D01*
X76808071Y-98553000D02*
X76411000Y-98553000D01*
X76808071Y-99313000D02*
X76411000Y-99313000D01*
X67751000Y-98553000D02*
X73751000Y-98553000D01*
X67751000Y-99313000D02*
X67751000Y-98553000D01*
X73751000Y-99313000D02*
X67751000Y-99313000D01*
X76411000Y-100203000D02*
X73751000Y-100203000D01*
X76808071Y-101093000D02*
X76411000Y-101093000D01*
X76808071Y-101853000D02*
X76411000Y-101853000D01*
X67751000Y-101093000D02*
X73751000Y-101093000D01*
X67751000Y-101853000D02*
X67751000Y-101093000D01*
X73751000Y-101853000D02*
X67751000Y-101853000D01*
X76411000Y-102743000D02*
X73751000Y-102743000D01*
X76808071Y-103633000D02*
X76411000Y-103633000D01*
X76808071Y-104393000D02*
X76411000Y-104393000D01*
X67751000Y-103633000D02*
X73751000Y-103633000D01*
X67751000Y-104393000D02*
X67751000Y-103633000D01*
X73751000Y-104393000D02*
X67751000Y-104393000D01*
X76411000Y-105283000D02*
X73751000Y-105283000D01*
X76808071Y-106173000D02*
X76411000Y-106173000D01*
X76808071Y-106933000D02*
X76411000Y-106933000D01*
X67751000Y-106173000D02*
X73751000Y-106173000D01*
X67751000Y-106933000D02*
X67751000Y-106173000D01*
X73751000Y-106933000D02*
X67751000Y-106933000D01*
X76411000Y-107823000D02*
X73751000Y-107823000D01*
X76741000Y-108713000D02*
X76411000Y-108713000D01*
X76741000Y-109473000D02*
X76411000Y-109473000D01*
X73751000Y-108813000D02*
X67751000Y-108813000D01*
X73751000Y-108933000D02*
X67751000Y-108933000D01*
X73751000Y-109053000D02*
X67751000Y-109053000D01*
X73751000Y-109173000D02*
X67751000Y-109173000D01*
X73751000Y-109293000D02*
X67751000Y-109293000D01*
X73751000Y-109413000D02*
X67751000Y-109413000D01*
X67751000Y-108713000D02*
X73751000Y-108713000D01*
X67751000Y-109473000D02*
X67751000Y-108713000D01*
X73751000Y-109473000D02*
X67751000Y-109473000D01*
X73751000Y-110423000D02*
X76411000Y-110423000D01*
X73751000Y-97603000D02*
X73751000Y-110423000D01*
X76411000Y-97603000D02*
X73751000Y-97603000D01*
X76411000Y-110423000D02*
X76411000Y-97603000D01*
%TO.C,J9*%
X79121000Y-95885000D02*
X77851000Y-95885000D01*
X79121000Y-94615000D02*
X79121000Y-95885000D01*
X76808071Y-84075000D02*
X76411000Y-84075000D01*
X76808071Y-84835000D02*
X76411000Y-84835000D01*
X67751000Y-84075000D02*
X73751000Y-84075000D01*
X67751000Y-84835000D02*
X67751000Y-84075000D01*
X73751000Y-84835000D02*
X67751000Y-84835000D01*
X76411000Y-85725000D02*
X73751000Y-85725000D01*
X76808071Y-86615000D02*
X76411000Y-86615000D01*
X76808071Y-87375000D02*
X76411000Y-87375000D01*
X67751000Y-86615000D02*
X73751000Y-86615000D01*
X67751000Y-87375000D02*
X67751000Y-86615000D01*
X73751000Y-87375000D02*
X67751000Y-87375000D01*
X76411000Y-88265000D02*
X73751000Y-88265000D01*
X76808071Y-89155000D02*
X76411000Y-89155000D01*
X76808071Y-89915000D02*
X76411000Y-89915000D01*
X67751000Y-89155000D02*
X73751000Y-89155000D01*
X67751000Y-89915000D02*
X67751000Y-89155000D01*
X73751000Y-89915000D02*
X67751000Y-89915000D01*
X76411000Y-90805000D02*
X73751000Y-90805000D01*
X76808071Y-91695000D02*
X76411000Y-91695000D01*
X76808071Y-92455000D02*
X76411000Y-92455000D01*
X67751000Y-91695000D02*
X73751000Y-91695000D01*
X67751000Y-92455000D02*
X67751000Y-91695000D01*
X73751000Y-92455000D02*
X67751000Y-92455000D01*
X76411000Y-93345000D02*
X73751000Y-93345000D01*
X76741000Y-94235000D02*
X76411000Y-94235000D01*
X76741000Y-94995000D02*
X76411000Y-94995000D01*
X73751000Y-94335000D02*
X67751000Y-94335000D01*
X73751000Y-94455000D02*
X67751000Y-94455000D01*
X73751000Y-94575000D02*
X67751000Y-94575000D01*
X73751000Y-94695000D02*
X67751000Y-94695000D01*
X73751000Y-94815000D02*
X67751000Y-94815000D01*
X73751000Y-94935000D02*
X67751000Y-94935000D01*
X67751000Y-94235000D02*
X73751000Y-94235000D01*
X67751000Y-94995000D02*
X67751000Y-94235000D01*
X73751000Y-94995000D02*
X67751000Y-94995000D01*
X73751000Y-95945000D02*
X76411000Y-95945000D01*
X73751000Y-83125000D02*
X73751000Y-95945000D01*
X76411000Y-83125000D02*
X73751000Y-83125000D01*
X76411000Y-95945000D02*
X76411000Y-83125000D01*
%TO.C,J8*%
X79121000Y-81407000D02*
X77851000Y-81407000D01*
X79121000Y-80137000D02*
X79121000Y-81407000D01*
X76808071Y-69597000D02*
X76411000Y-69597000D01*
X76808071Y-70357000D02*
X76411000Y-70357000D01*
X67751000Y-69597000D02*
X73751000Y-69597000D01*
X67751000Y-70357000D02*
X67751000Y-69597000D01*
X73751000Y-70357000D02*
X67751000Y-70357000D01*
X76411000Y-71247000D02*
X73751000Y-71247000D01*
X76808071Y-72137000D02*
X76411000Y-72137000D01*
X76808071Y-72897000D02*
X76411000Y-72897000D01*
X67751000Y-72137000D02*
X73751000Y-72137000D01*
X67751000Y-72897000D02*
X67751000Y-72137000D01*
X73751000Y-72897000D02*
X67751000Y-72897000D01*
X76411000Y-73787000D02*
X73751000Y-73787000D01*
X76808071Y-74677000D02*
X76411000Y-74677000D01*
X76808071Y-75437000D02*
X76411000Y-75437000D01*
X67751000Y-74677000D02*
X73751000Y-74677000D01*
X67751000Y-75437000D02*
X67751000Y-74677000D01*
X73751000Y-75437000D02*
X67751000Y-75437000D01*
X76411000Y-76327000D02*
X73751000Y-76327000D01*
X76808071Y-77217000D02*
X76411000Y-77217000D01*
X76808071Y-77977000D02*
X76411000Y-77977000D01*
X67751000Y-77217000D02*
X73751000Y-77217000D01*
X67751000Y-77977000D02*
X67751000Y-77217000D01*
X73751000Y-77977000D02*
X67751000Y-77977000D01*
X76411000Y-78867000D02*
X73751000Y-78867000D01*
X76741000Y-79757000D02*
X76411000Y-79757000D01*
X76741000Y-80517000D02*
X76411000Y-80517000D01*
X73751000Y-79857000D02*
X67751000Y-79857000D01*
X73751000Y-79977000D02*
X67751000Y-79977000D01*
X73751000Y-80097000D02*
X67751000Y-80097000D01*
X73751000Y-80217000D02*
X67751000Y-80217000D01*
X73751000Y-80337000D02*
X67751000Y-80337000D01*
X73751000Y-80457000D02*
X67751000Y-80457000D01*
X67751000Y-79757000D02*
X73751000Y-79757000D01*
X67751000Y-80517000D02*
X67751000Y-79757000D01*
X73751000Y-80517000D02*
X67751000Y-80517000D01*
X73751000Y-81467000D02*
X76411000Y-81467000D01*
X73751000Y-68647000D02*
X73751000Y-81467000D01*
X76411000Y-68647000D02*
X73751000Y-68647000D01*
X76411000Y-81467000D02*
X76411000Y-68647000D01*
%TO.C,U4*%
X112395000Y-127086000D02*
X115995000Y-127086000D01*
X112395000Y-127086000D02*
X110195000Y-127086000D01*
X112395000Y-123866000D02*
X114595000Y-123866000D01*
X112395000Y-123866000D02*
X110195000Y-123866000D01*
%TO.C,U2*%
X109647500Y-116915000D02*
X107995000Y-116915000D01*
X109647500Y-116632500D02*
X109647500Y-116915000D01*
X112395000Y-116632500D02*
X109647500Y-116632500D01*
X115142500Y-116632500D02*
X115142500Y-116915000D01*
X112395000Y-116632500D02*
X115142500Y-116632500D01*
X109647500Y-122127500D02*
X109647500Y-121845000D01*
X112395000Y-122127500D02*
X109647500Y-122127500D01*
X115142500Y-122127500D02*
X115142500Y-121845000D01*
X112395000Y-122127500D02*
X115142500Y-122127500D01*
%TO.C,J16*%
X79784000Y-65543000D02*
X77184000Y-65543000D01*
X79784000Y-50843000D02*
X79784000Y-65543000D01*
X70584000Y-65543000D02*
X70584000Y-63643000D01*
X73284000Y-65543000D02*
X70584000Y-65543000D01*
X70584000Y-50843000D02*
X79784000Y-50843000D01*
X70584000Y-59643000D02*
X70584000Y-50843000D01*
X79984000Y-64693000D02*
X79984000Y-65743000D01*
X78934000Y-65743000D02*
X79984000Y-65743000D01*
%TO.C,J7*%
X93988000Y-120870000D02*
X94488000Y-121370000D01*
X94988000Y-120870000D02*
X93988000Y-120870000D01*
X94488000Y-121370000D02*
X94988000Y-120870000D01*
X87078000Y-138310000D02*
X87078000Y-129950000D01*
X99398000Y-138310000D02*
X87078000Y-138310000D01*
X99398000Y-129950000D02*
X99398000Y-138310000D01*
X87078000Y-121590000D02*
X87078000Y-125850000D01*
X99398000Y-121590000D02*
X87078000Y-121590000D01*
X99398000Y-125850000D02*
X99398000Y-121590000D01*
%TO.C,R6*%
X101442000Y-71770000D02*
X101442000Y-67930000D01*
X103282000Y-71770000D02*
X103282000Y-67930000D01*
%TO.C,J12*%
X124146000Y-100270000D02*
X125476000Y-100270000D01*
X124146000Y-101600000D02*
X124146000Y-100270000D01*
X124146000Y-102870000D02*
X126806000Y-102870000D01*
X126806000Y-102870000D02*
X126806000Y-125790000D01*
X124146000Y-102870000D02*
X124146000Y-125790000D01*
X124146000Y-125790000D02*
X126806000Y-125790000D01*
%TO.C,J6*%
D10*
X104735380Y-61928333D02*
X105449666Y-61928333D01*
X105592523Y-61975952D01*
X105687761Y-62071190D01*
X105735380Y-62214047D01*
X105735380Y-62309285D01*
X104735380Y-61023571D02*
X104735380Y-61214047D01*
X104783000Y-61309285D01*
X104830619Y-61356904D01*
X104973476Y-61452142D01*
X105163952Y-61499761D01*
X105544904Y-61499761D01*
X105640142Y-61452142D01*
X105687761Y-61404523D01*
X105735380Y-61309285D01*
X105735380Y-61118809D01*
X105687761Y-61023571D01*
X105640142Y-60975952D01*
X105544904Y-60928333D01*
X105306809Y-60928333D01*
X105211571Y-60975952D01*
X105163952Y-61023571D01*
X105116333Y-61118809D01*
X105116333Y-61309285D01*
X105163952Y-61404523D01*
X105211571Y-61452142D01*
X105306809Y-61499761D01*
X105608380Y-59029238D02*
X104608380Y-59029238D01*
X105513142Y-58191142D02*
X105560761Y-58229238D01*
X105608380Y-58343523D01*
X105608380Y-58419714D01*
X105560761Y-58534000D01*
X105465523Y-58610190D01*
X105370285Y-58648285D01*
X105179809Y-58686380D01*
X105036952Y-58686380D01*
X104846476Y-58648285D01*
X104751238Y-58610190D01*
X104656000Y-58534000D01*
X104608380Y-58419714D01*
X104608380Y-58343523D01*
X104656000Y-58229238D01*
X104703619Y-58191142D01*
X105560761Y-57886380D02*
X105608380Y-57772095D01*
X105608380Y-57581619D01*
X105560761Y-57505428D01*
X105513142Y-57467333D01*
X105417904Y-57429238D01*
X105322666Y-57429238D01*
X105227428Y-57467333D01*
X105179809Y-57505428D01*
X105132190Y-57581619D01*
X105084571Y-57734000D01*
X105036952Y-57810190D01*
X104989333Y-57848285D01*
X104894095Y-57886380D01*
X104798857Y-57886380D01*
X104703619Y-57848285D01*
X104656000Y-57810190D01*
X104608380Y-57734000D01*
X104608380Y-57543523D01*
X104656000Y-57429238D01*
X105608380Y-57086380D02*
X104608380Y-57086380D01*
X104608380Y-56781619D01*
X104656000Y-56705428D01*
X104703619Y-56667333D01*
X104798857Y-56629238D01*
X104941714Y-56629238D01*
X105036952Y-56667333D01*
X105084571Y-56705428D01*
X105132190Y-56781619D01*
X105132190Y-57086380D01*
X105703619Y-56476857D02*
X105703619Y-55867333D01*
X105608380Y-55676857D02*
X104608380Y-55676857D01*
X104608380Y-55372095D01*
X104656000Y-55295904D01*
X104703619Y-55257809D01*
X104798857Y-55219714D01*
X104941714Y-55219714D01*
X105036952Y-55257809D01*
X105084571Y-55295904D01*
X105132190Y-55372095D01*
X105132190Y-55676857D01*
X105608380Y-54495904D02*
X105608380Y-54876857D01*
X104608380Y-54876857D01*
X105322666Y-54267333D02*
X105322666Y-53886380D01*
X105608380Y-54343523D02*
X104608380Y-54076857D01*
X105608380Y-53810190D01*
X105132190Y-53391142D02*
X105608380Y-53391142D01*
X104608380Y-53657809D02*
X105132190Y-53391142D01*
X104608380Y-53124476D01*
%TO.C,J5*%
X85812380Y-61801333D02*
X86526666Y-61801333D01*
X86669523Y-61848952D01*
X86764761Y-61944190D01*
X86812380Y-62087047D01*
X86812380Y-62182285D01*
X85812380Y-60848952D02*
X85812380Y-61325142D01*
X86288571Y-61372761D01*
X86240952Y-61325142D01*
X86193333Y-61229904D01*
X86193333Y-60991809D01*
X86240952Y-60896571D01*
X86288571Y-60848952D01*
X86383809Y-60801333D01*
X86621904Y-60801333D01*
X86717142Y-60848952D01*
X86764761Y-60896571D01*
X86812380Y-60991809D01*
X86812380Y-61229904D01*
X86764761Y-61325142D01*
X86717142Y-61372761D01*
X86685380Y-58153000D02*
X85685380Y-58153000D01*
X86590142Y-57314904D02*
X86637761Y-57353000D01*
X86685380Y-57467285D01*
X86685380Y-57543476D01*
X86637761Y-57657761D01*
X86542523Y-57733952D01*
X86447285Y-57772047D01*
X86256809Y-57810142D01*
X86113952Y-57810142D01*
X85923476Y-57772047D01*
X85828238Y-57733952D01*
X85733000Y-57657761D01*
X85685380Y-57543476D01*
X85685380Y-57467285D01*
X85733000Y-57353000D01*
X85780619Y-57314904D01*
X86637761Y-57010142D02*
X86685380Y-56895857D01*
X86685380Y-56705380D01*
X86637761Y-56629190D01*
X86590142Y-56591095D01*
X86494904Y-56553000D01*
X86399666Y-56553000D01*
X86304428Y-56591095D01*
X86256809Y-56629190D01*
X86209190Y-56705380D01*
X86161571Y-56857761D01*
X86113952Y-56933952D01*
X86066333Y-56972047D01*
X85971095Y-57010142D01*
X85875857Y-57010142D01*
X85780619Y-56972047D01*
X85733000Y-56933952D01*
X85685380Y-56857761D01*
X85685380Y-56667285D01*
X85733000Y-56553000D01*
X86685380Y-56210142D02*
X85685380Y-56210142D01*
X85685380Y-55905380D01*
X85733000Y-55829190D01*
X85780619Y-55791095D01*
X85875857Y-55753000D01*
X86018714Y-55753000D01*
X86113952Y-55791095D01*
X86161571Y-55829190D01*
X86209190Y-55905380D01*
X86209190Y-56210142D01*
X86780619Y-55600619D02*
X86780619Y-54991095D01*
X85685380Y-54914904D02*
X86685380Y-54648238D01*
X85685380Y-54381571D01*
X86685380Y-54114904D02*
X85685380Y-54114904D01*
X85685380Y-53810142D02*
X85685380Y-53276809D01*
X86685380Y-53810142D01*
X86685380Y-53276809D01*
%TO.C,SW1*%
X121475666Y-56665761D02*
X121618523Y-56713380D01*
X121856619Y-56713380D01*
X121951857Y-56665761D01*
X121999476Y-56618142D01*
X122047095Y-56522904D01*
X122047095Y-56427666D01*
X121999476Y-56332428D01*
X121951857Y-56284809D01*
X121856619Y-56237190D01*
X121666142Y-56189571D01*
X121570904Y-56141952D01*
X121523285Y-56094333D01*
X121475666Y-55999095D01*
X121475666Y-55903857D01*
X121523285Y-55808619D01*
X121570904Y-55761000D01*
X121666142Y-55713380D01*
X121904238Y-55713380D01*
X122047095Y-55761000D01*
X122380428Y-55713380D02*
X122618523Y-56713380D01*
X122809000Y-55999095D01*
X122999476Y-56713380D01*
X123237571Y-55713380D01*
X124142333Y-56713380D02*
X123570904Y-56713380D01*
X123856619Y-56713380D02*
X123856619Y-55713380D01*
X123761380Y-55856238D01*
X123666142Y-55951476D01*
X123570904Y-55999095D01*
%TO.C,Q1*%
X74667619Y-133385238D02*
X74620000Y-133480476D01*
X74524761Y-133575714D01*
X74381904Y-133718571D01*
X74334285Y-133813809D01*
X74334285Y-133909047D01*
X74572380Y-133861428D02*
X74524761Y-133956666D01*
X74429523Y-134051904D01*
X74239047Y-134099523D01*
X73905714Y-134099523D01*
X73715238Y-134051904D01*
X73620000Y-133956666D01*
X73572380Y-133861428D01*
X73572380Y-133670952D01*
X73620000Y-133575714D01*
X73715238Y-133480476D01*
X73905714Y-133432857D01*
X74239047Y-133432857D01*
X74429523Y-133480476D01*
X74524761Y-133575714D01*
X74572380Y-133670952D01*
X74572380Y-133861428D01*
X74572380Y-132480476D02*
X74572380Y-133051904D01*
X74572380Y-132766190D02*
X73572380Y-132766190D01*
X73715238Y-132861428D01*
X73810476Y-132956666D01*
X73858095Y-133051904D01*
%TO.C,J15*%
X82756476Y-128103380D02*
X82756476Y-128817666D01*
X82708857Y-128960523D01*
X82613619Y-129055761D01*
X82470761Y-129103380D01*
X82375523Y-129103380D01*
X83756476Y-129103380D02*
X83185047Y-129103380D01*
X83470761Y-129103380D02*
X83470761Y-128103380D01*
X83375523Y-128246238D01*
X83280285Y-128341476D01*
X83185047Y-128389095D01*
X84661238Y-128103380D02*
X84185047Y-128103380D01*
X84137428Y-128579571D01*
X84185047Y-128531952D01*
X84280285Y-128484333D01*
X84518380Y-128484333D01*
X84613619Y-128531952D01*
X84661238Y-128579571D01*
X84708857Y-128674809D01*
X84708857Y-128912904D01*
X84661238Y-129008142D01*
X84613619Y-129055761D01*
X84518380Y-129103380D01*
X84280285Y-129103380D01*
X84185047Y-129055761D01*
X84137428Y-129008142D01*
%TO.C,U6*%
X121499380Y-129539904D02*
X122308904Y-129539904D01*
X122404142Y-129492285D01*
X122451761Y-129444666D01*
X122499380Y-129349428D01*
X122499380Y-129158952D01*
X122451761Y-129063714D01*
X122404142Y-129016095D01*
X122308904Y-128968476D01*
X121499380Y-128968476D01*
X121499380Y-128063714D02*
X121499380Y-128254190D01*
X121547000Y-128349428D01*
X121594619Y-128397047D01*
X121737476Y-128492285D01*
X121927952Y-128539904D01*
X122308904Y-128539904D01*
X122404142Y-128492285D01*
X122451761Y-128444666D01*
X122499380Y-128349428D01*
X122499380Y-128158952D01*
X122451761Y-128063714D01*
X122404142Y-128016095D01*
X122308904Y-127968476D01*
X122070809Y-127968476D01*
X121975571Y-128016095D01*
X121927952Y-128063714D01*
X121880333Y-128158952D01*
X121880333Y-128349428D01*
X121927952Y-128444666D01*
X121975571Y-128492285D01*
X122070809Y-128539904D01*
X124071333Y-127706380D02*
X123595142Y-127706380D01*
X123595142Y-126706380D01*
X124404666Y-127706380D02*
X124404666Y-126706380D01*
X124738000Y-127420666D01*
X125071333Y-126706380D01*
X125071333Y-127706380D01*
X126071333Y-127706380D02*
X125499904Y-127706380D01*
X125785619Y-127706380D02*
X125785619Y-126706380D01*
X125690380Y-126849238D01*
X125595142Y-126944476D01*
X125499904Y-126992095D01*
X126642761Y-127134952D02*
X126547523Y-127087333D01*
X126499904Y-127039714D01*
X126452285Y-126944476D01*
X126452285Y-126896857D01*
X126499904Y-126801619D01*
X126547523Y-126754000D01*
X126642761Y-126706380D01*
X126833238Y-126706380D01*
X126928476Y-126754000D01*
X126976095Y-126801619D01*
X127023714Y-126896857D01*
X127023714Y-126944476D01*
X126976095Y-127039714D01*
X126928476Y-127087333D01*
X126833238Y-127134952D01*
X126642761Y-127134952D01*
X126547523Y-127182571D01*
X126499904Y-127230190D01*
X126452285Y-127325428D01*
X126452285Y-127515904D01*
X126499904Y-127611142D01*
X126547523Y-127658761D01*
X126642761Y-127706380D01*
X126833238Y-127706380D01*
X126928476Y-127658761D01*
X126976095Y-127611142D01*
X127023714Y-127515904D01*
X127023714Y-127325428D01*
X126976095Y-127230190D01*
X126928476Y-127182571D01*
X126833238Y-127134952D01*
X127595142Y-127134952D02*
X127499904Y-127087333D01*
X127452285Y-127039714D01*
X127404666Y-126944476D01*
X127404666Y-126896857D01*
X127452285Y-126801619D01*
X127499904Y-126754000D01*
X127595142Y-126706380D01*
X127785619Y-126706380D01*
X127880857Y-126754000D01*
X127928476Y-126801619D01*
X127976095Y-126896857D01*
X127976095Y-126944476D01*
X127928476Y-127039714D01*
X127880857Y-127087333D01*
X127785619Y-127134952D01*
X127595142Y-127134952D01*
X127499904Y-127182571D01*
X127452285Y-127230190D01*
X127404666Y-127325428D01*
X127404666Y-127515904D01*
X127452285Y-127611142D01*
X127499904Y-127658761D01*
X127595142Y-127706380D01*
X127785619Y-127706380D01*
X127880857Y-127658761D01*
X127928476Y-127611142D01*
X127976095Y-127515904D01*
X127976095Y-127325428D01*
X127928476Y-127230190D01*
X127880857Y-127182571D01*
X127785619Y-127134952D01*
X128928476Y-127706380D02*
X128357047Y-127706380D01*
X128642761Y-127706380D02*
X128642761Y-126706380D01*
X128547523Y-126849238D01*
X128452285Y-126944476D01*
X128357047Y-126992095D01*
%TO.C,R7*%
X130897333Y-136992380D02*
X130564000Y-136516190D01*
X130325904Y-136992380D02*
X130325904Y-135992380D01*
X130706857Y-135992380D01*
X130802095Y-136040000D01*
X130849714Y-136087619D01*
X130897333Y-136182857D01*
X130897333Y-136325714D01*
X130849714Y-136420952D01*
X130802095Y-136468571D01*
X130706857Y-136516190D01*
X130325904Y-136516190D01*
X131230666Y-135992380D02*
X131897333Y-135992380D01*
X131468761Y-136992380D01*
%TO.C,J14*%
X118443476Y-128103380D02*
X118443476Y-128817666D01*
X118395857Y-128960523D01*
X118300619Y-129055761D01*
X118157761Y-129103380D01*
X118062523Y-129103380D01*
X119443476Y-129103380D02*
X118872047Y-129103380D01*
X119157761Y-129103380D02*
X119157761Y-128103380D01*
X119062523Y-128246238D01*
X118967285Y-128341476D01*
X118872047Y-128389095D01*
X120300619Y-128436714D02*
X120300619Y-129103380D01*
X120062523Y-128055761D02*
X119824428Y-128770047D01*
X120443476Y-128770047D01*
%TO.C,J13*%
X102060476Y-127087380D02*
X102060476Y-127801666D01*
X102012857Y-127944523D01*
X101917619Y-128039761D01*
X101774761Y-128087380D01*
X101679523Y-128087380D01*
X103060476Y-128087380D02*
X102489047Y-128087380D01*
X102774761Y-128087380D02*
X102774761Y-127087380D01*
X102679523Y-127230238D01*
X102584285Y-127325476D01*
X102489047Y-127373095D01*
X103393809Y-127087380D02*
X104012857Y-127087380D01*
X103679523Y-127468333D01*
X103822380Y-127468333D01*
X103917619Y-127515952D01*
X103965238Y-127563571D01*
X104012857Y-127658809D01*
X104012857Y-127896904D01*
X103965238Y-127992142D01*
X103917619Y-128039761D01*
X103822380Y-128087380D01*
X103536666Y-128087380D01*
X103441428Y-128039761D01*
X103393809Y-127992142D01*
%TO.C,C5*%
X134596142Y-130575666D02*
X134643761Y-130623285D01*
X134691380Y-130766142D01*
X134691380Y-130861380D01*
X134643761Y-131004238D01*
X134548523Y-131099476D01*
X134453285Y-131147095D01*
X134262809Y-131194714D01*
X134119952Y-131194714D01*
X133929476Y-131147095D01*
X133834238Y-131099476D01*
X133739000Y-131004238D01*
X133691380Y-130861380D01*
X133691380Y-130766142D01*
X133739000Y-130623285D01*
X133786619Y-130575666D01*
X133691380Y-129670904D02*
X133691380Y-130147095D01*
X134167571Y-130194714D01*
X134119952Y-130147095D01*
X134072333Y-130051857D01*
X134072333Y-129813761D01*
X134119952Y-129718523D01*
X134167571Y-129670904D01*
X134262809Y-129623285D01*
X134500904Y-129623285D01*
X134596142Y-129670904D01*
X134643761Y-129718523D01*
X134691380Y-129813761D01*
X134691380Y-130051857D01*
X134643761Y-130147095D01*
X134596142Y-130194714D01*
%TO.C,C4*%
X124440333Y-137136142D02*
X124392714Y-137183761D01*
X124249857Y-137231380D01*
X124154619Y-137231380D01*
X124011761Y-137183761D01*
X123916523Y-137088523D01*
X123868904Y-136993285D01*
X123821285Y-136802809D01*
X123821285Y-136659952D01*
X123868904Y-136469476D01*
X123916523Y-136374238D01*
X124011761Y-136279000D01*
X124154619Y-136231380D01*
X124249857Y-136231380D01*
X124392714Y-136279000D01*
X124440333Y-136326619D01*
X125297476Y-136564714D02*
X125297476Y-137231380D01*
X125059380Y-136183761D02*
X124821285Y-136898047D01*
X125440333Y-136898047D01*
%TO.C,R5*%
X101163380Y-64936666D02*
X100687190Y-65270000D01*
X101163380Y-65508095D02*
X100163380Y-65508095D01*
X100163380Y-65127142D01*
X100211000Y-65031904D01*
X100258619Y-64984285D01*
X100353857Y-64936666D01*
X100496714Y-64936666D01*
X100591952Y-64984285D01*
X100639571Y-65031904D01*
X100687190Y-65127142D01*
X100687190Y-65508095D01*
X100163380Y-64031904D02*
X100163380Y-64508095D01*
X100639571Y-64555714D01*
X100591952Y-64508095D01*
X100544333Y-64412857D01*
X100544333Y-64174761D01*
X100591952Y-64079523D01*
X100639571Y-64031904D01*
X100734809Y-63984285D01*
X100972904Y-63984285D01*
X101068142Y-64031904D01*
X101115761Y-64079523D01*
X101163380Y-64174761D01*
X101163380Y-64412857D01*
X101115761Y-64508095D01*
X101068142Y-64555714D01*
%TO.C,U1*%
X121245380Y-65531904D02*
X122054904Y-65531904D01*
X122150142Y-65484285D01*
X122197761Y-65436666D01*
X122245380Y-65341428D01*
X122245380Y-65150952D01*
X122197761Y-65055714D01*
X122150142Y-65008095D01*
X122054904Y-64960476D01*
X121245380Y-64960476D01*
X122245380Y-63960476D02*
X122245380Y-64531904D01*
X122245380Y-64246190D02*
X121245380Y-64246190D01*
X121388238Y-64341428D01*
X121483476Y-64436666D01*
X121531095Y-64531904D01*
X107204523Y-115723142D02*
X107204523Y-114823142D01*
X107585476Y-114823142D01*
X107680714Y-114866000D01*
X107728333Y-114908857D01*
X107775952Y-114994571D01*
X107775952Y-115123142D01*
X107728333Y-115208857D01*
X107680714Y-115251714D01*
X107585476Y-115294571D01*
X107204523Y-115294571D01*
X108204523Y-115723142D02*
X108204523Y-114823142D01*
X109252142Y-115637428D02*
X109204523Y-115680285D01*
X109061666Y-115723142D01*
X108966428Y-115723142D01*
X108823571Y-115680285D01*
X108728333Y-115594571D01*
X108680714Y-115508857D01*
X108633095Y-115337428D01*
X108633095Y-115208857D01*
X108680714Y-115037428D01*
X108728333Y-114951714D01*
X108823571Y-114866000D01*
X108966428Y-114823142D01*
X109061666Y-114823142D01*
X109204523Y-114866000D01*
X109252142Y-114908857D01*
X110204523Y-115723142D02*
X109633095Y-115723142D01*
X109918809Y-115723142D02*
X109918809Y-114823142D01*
X109823571Y-114951714D01*
X109728333Y-115037428D01*
X109633095Y-115080285D01*
X110775952Y-115208857D02*
X110680714Y-115166000D01*
X110633095Y-115123142D01*
X110585476Y-115037428D01*
X110585476Y-114994571D01*
X110633095Y-114908857D01*
X110680714Y-114866000D01*
X110775952Y-114823142D01*
X110966428Y-114823142D01*
X111061666Y-114866000D01*
X111109285Y-114908857D01*
X111156904Y-114994571D01*
X111156904Y-115037428D01*
X111109285Y-115123142D01*
X111061666Y-115166000D01*
X110966428Y-115208857D01*
X110775952Y-115208857D01*
X110680714Y-115251714D01*
X110633095Y-115294571D01*
X110585476Y-115380285D01*
X110585476Y-115551714D01*
X110633095Y-115637428D01*
X110680714Y-115680285D01*
X110775952Y-115723142D01*
X110966428Y-115723142D01*
X111061666Y-115680285D01*
X111109285Y-115637428D01*
X111156904Y-115551714D01*
X111156904Y-115380285D01*
X111109285Y-115294571D01*
X111061666Y-115251714D01*
X110966428Y-115208857D01*
X112061666Y-115723142D02*
X111585476Y-115723142D01*
X111585476Y-114823142D01*
X112728333Y-115251714D02*
X112395000Y-115251714D01*
X112395000Y-115723142D02*
X112395000Y-114823142D01*
X112871190Y-114823142D01*
X113680714Y-115123142D02*
X113680714Y-115723142D01*
X113442619Y-114780285D02*
X113204523Y-115423142D01*
X113823571Y-115423142D01*
X114109285Y-114823142D02*
X114775952Y-114823142D01*
X114347380Y-115723142D01*
X115156904Y-115723142D02*
X115156904Y-114823142D01*
X115728333Y-115723142D02*
X115299761Y-115208857D01*
X115728333Y-114823142D02*
X115156904Y-115337428D01*
X116585476Y-115123142D02*
X116585476Y-115723142D01*
X116347380Y-114780285D02*
X116109285Y-115423142D01*
X116728333Y-115423142D01*
X117061666Y-114908857D02*
X117109285Y-114866000D01*
X117204523Y-114823142D01*
X117442619Y-114823142D01*
X117537857Y-114866000D01*
X117585476Y-114908857D01*
X117633095Y-114994571D01*
X117633095Y-115080285D01*
X117585476Y-115208857D01*
X117014047Y-115723142D01*
X117633095Y-115723142D01*
%TO.C,R2*%
X130516333Y-79192380D02*
X130183000Y-78716190D01*
X129944904Y-79192380D02*
X129944904Y-78192380D01*
X130325857Y-78192380D01*
X130421095Y-78240000D01*
X130468714Y-78287619D01*
X130516333Y-78382857D01*
X130516333Y-78525714D01*
X130468714Y-78620952D01*
X130421095Y-78668571D01*
X130325857Y-78716190D01*
X129944904Y-78716190D01*
X130897285Y-78287619D02*
X130944904Y-78240000D01*
X131040142Y-78192380D01*
X131278238Y-78192380D01*
X131373476Y-78240000D01*
X131421095Y-78287619D01*
X131468714Y-78382857D01*
X131468714Y-78478095D01*
X131421095Y-78620952D01*
X130849666Y-79192380D01*
X131468714Y-79192380D01*
%TO.C,J3*%
X125817380Y-96853333D02*
X126531666Y-96853333D01*
X126674523Y-96900952D01*
X126769761Y-96996190D01*
X126817380Y-97139047D01*
X126817380Y-97234285D01*
X125817380Y-96472380D02*
X125817380Y-95853333D01*
X126198333Y-96186666D01*
X126198333Y-96043809D01*
X126245952Y-95948571D01*
X126293571Y-95900952D01*
X126388809Y-95853333D01*
X126626904Y-95853333D01*
X126722142Y-95900952D01*
X126769761Y-95948571D01*
X126817380Y-96043809D01*
X126817380Y-96329523D01*
X126769761Y-96424761D01*
X126722142Y-96472380D01*
%TO.C,C2*%
X102719142Y-88304666D02*
X102766761Y-88352285D01*
X102814380Y-88495142D01*
X102814380Y-88590380D01*
X102766761Y-88733238D01*
X102671523Y-88828476D01*
X102576285Y-88876095D01*
X102385809Y-88923714D01*
X102242952Y-88923714D01*
X102052476Y-88876095D01*
X101957238Y-88828476D01*
X101862000Y-88733238D01*
X101814380Y-88590380D01*
X101814380Y-88495142D01*
X101862000Y-88352285D01*
X101909619Y-88304666D01*
X101909619Y-87923714D02*
X101862000Y-87876095D01*
X101814380Y-87780857D01*
X101814380Y-87542761D01*
X101862000Y-87447523D01*
X101909619Y-87399904D01*
X102004857Y-87352285D01*
X102100095Y-87352285D01*
X102242952Y-87399904D01*
X102814380Y-87971333D01*
X102814380Y-87352285D01*
%TO.C,J1*%
X125817380Y-75136333D02*
X126531666Y-75136333D01*
X126674523Y-75183952D01*
X126769761Y-75279190D01*
X126817380Y-75422047D01*
X126817380Y-75517285D01*
X126817380Y-74136333D02*
X126817380Y-74707761D01*
X126817380Y-74422047D02*
X125817380Y-74422047D01*
X125960238Y-74517285D01*
X126055476Y-74612523D01*
X126103095Y-74707761D01*
X127356047Y-59208142D02*
X127356047Y-58308142D01*
X127813190Y-59208142D01*
X127813190Y-58308142D01*
X128194142Y-58736714D02*
X128460809Y-58736714D01*
X128575095Y-59208142D02*
X128194142Y-59208142D01*
X128194142Y-58308142D01*
X128575095Y-58308142D01*
X128879857Y-59165285D02*
X128994142Y-59208142D01*
X129184619Y-59208142D01*
X129260809Y-59165285D01*
X129298904Y-59122428D01*
X129337000Y-59036714D01*
X129337000Y-58951000D01*
X129298904Y-58865285D01*
X129260809Y-58822428D01*
X129184619Y-58779571D01*
X129032238Y-58736714D01*
X128956047Y-58693857D01*
X128917952Y-58651000D01*
X128879857Y-58565285D01*
X128879857Y-58479571D01*
X128917952Y-58393857D01*
X128956047Y-58351000D01*
X129032238Y-58308142D01*
X129222714Y-58308142D01*
X129337000Y-58351000D01*
X129489380Y-59293857D02*
X130098904Y-59293857D01*
X130746523Y-59122428D02*
X130708428Y-59165285D01*
X130594142Y-59208142D01*
X130517952Y-59208142D01*
X130403666Y-59165285D01*
X130327476Y-59079571D01*
X130289380Y-58993857D01*
X130251285Y-58822428D01*
X130251285Y-58693857D01*
X130289380Y-58522428D01*
X130327476Y-58436714D01*
X130403666Y-58351000D01*
X130517952Y-58308142D01*
X130594142Y-58308142D01*
X130708428Y-58351000D01*
X130746523Y-58393857D01*
X131089380Y-59208142D02*
X131089380Y-58308142D01*
X131546523Y-59208142D01*
X131546523Y-58308142D01*
X131813190Y-58308142D02*
X132270333Y-58308142D01*
X132041761Y-59208142D02*
X132041761Y-58308142D01*
X132956047Y-59208142D02*
X132498904Y-59208142D01*
X132727476Y-59208142D02*
X132727476Y-58308142D01*
X132651285Y-58436714D01*
X132575095Y-58522428D01*
X132498904Y-58565285D01*
X133870333Y-58265285D02*
X133184619Y-59422428D01*
X134098904Y-58393857D02*
X134137000Y-58351000D01*
X134213190Y-58308142D01*
X134403666Y-58308142D01*
X134479857Y-58351000D01*
X134517952Y-58393857D01*
X134556047Y-58479571D01*
X134556047Y-58565285D01*
X134517952Y-58693857D01*
X134060809Y-59208142D01*
X134556047Y-59208142D01*
%TO.C,R3*%
X124404380Y-91606666D02*
X123928190Y-91940000D01*
X124404380Y-92178095D02*
X123404380Y-92178095D01*
X123404380Y-91797142D01*
X123452000Y-91701904D01*
X123499619Y-91654285D01*
X123594857Y-91606666D01*
X123737714Y-91606666D01*
X123832952Y-91654285D01*
X123880571Y-91701904D01*
X123928190Y-91797142D01*
X123928190Y-92178095D01*
X123404380Y-91273333D02*
X123404380Y-90654285D01*
X123785333Y-90987619D01*
X123785333Y-90844761D01*
X123832952Y-90749523D01*
X123880571Y-90701904D01*
X123975809Y-90654285D01*
X124213904Y-90654285D01*
X124309142Y-90701904D01*
X124356761Y-90749523D01*
X124404380Y-90844761D01*
X124404380Y-91130476D01*
X124356761Y-91225714D01*
X124309142Y-91273333D01*
%TO.C,J2*%
X125817380Y-86693333D02*
X126531666Y-86693333D01*
X126674523Y-86740952D01*
X126769761Y-86836190D01*
X126817380Y-86979047D01*
X126817380Y-87074285D01*
X125912619Y-86264761D02*
X125865000Y-86217142D01*
X125817380Y-86121904D01*
X125817380Y-85883809D01*
X125865000Y-85788571D01*
X125912619Y-85740952D01*
X126007857Y-85693333D01*
X126103095Y-85693333D01*
X126245952Y-85740952D01*
X126817380Y-86312380D01*
X126817380Y-85693333D01*
%TO.C,R1*%
X124404380Y-81446666D02*
X123928190Y-81780000D01*
X124404380Y-82018095D02*
X123404380Y-82018095D01*
X123404380Y-81637142D01*
X123452000Y-81541904D01*
X123499619Y-81494285D01*
X123594857Y-81446666D01*
X123737714Y-81446666D01*
X123832952Y-81494285D01*
X123880571Y-81541904D01*
X123928190Y-81637142D01*
X123928190Y-82018095D01*
X124404380Y-80494285D02*
X124404380Y-81065714D01*
X124404380Y-80780000D02*
X123404380Y-80780000D01*
X123547238Y-80875238D01*
X123642476Y-80970476D01*
X123690095Y-81065714D01*
%TO.C,R4*%
X130516333Y-89352380D02*
X130183000Y-88876190D01*
X129944904Y-89352380D02*
X129944904Y-88352380D01*
X130325857Y-88352380D01*
X130421095Y-88400000D01*
X130468714Y-88447619D01*
X130516333Y-88542857D01*
X130516333Y-88685714D01*
X130468714Y-88780952D01*
X130421095Y-88828571D01*
X130325857Y-88876190D01*
X129944904Y-88876190D01*
X131373476Y-88685714D02*
X131373476Y-89352380D01*
X131135380Y-88304761D02*
X130897285Y-89019047D01*
X131516333Y-89019047D01*
%TO.C,C3*%
X100052142Y-88304666D02*
X100099761Y-88352285D01*
X100147380Y-88495142D01*
X100147380Y-88590380D01*
X100099761Y-88733238D01*
X100004523Y-88828476D01*
X99909285Y-88876095D01*
X99718809Y-88923714D01*
X99575952Y-88923714D01*
X99385476Y-88876095D01*
X99290238Y-88828476D01*
X99195000Y-88733238D01*
X99147380Y-88590380D01*
X99147380Y-88495142D01*
X99195000Y-88352285D01*
X99242619Y-88304666D01*
X99147380Y-87971333D02*
X99147380Y-87352285D01*
X99528333Y-87685619D01*
X99528333Y-87542761D01*
X99575952Y-87447523D01*
X99623571Y-87399904D01*
X99718809Y-87352285D01*
X99956904Y-87352285D01*
X100052142Y-87399904D01*
X100099761Y-87447523D01*
X100147380Y-87542761D01*
X100147380Y-87828476D01*
X100099761Y-87923714D01*
X100052142Y-87971333D01*
%TO.C,J4*%
X133016666Y-123658380D02*
X133016666Y-124372666D01*
X132969047Y-124515523D01*
X132873809Y-124610761D01*
X132730952Y-124658380D01*
X132635714Y-124658380D01*
X133921428Y-123991714D02*
X133921428Y-124658380D01*
X133683333Y-123610761D02*
X133445238Y-124325047D01*
X134064285Y-124325047D01*
X127444904Y-99893380D02*
X127444904Y-98893380D01*
X127683000Y-98893380D01*
X127825857Y-98941000D01*
X127921095Y-99036238D01*
X127968714Y-99131476D01*
X128016333Y-99321952D01*
X128016333Y-99464809D01*
X127968714Y-99655285D01*
X127921095Y-99750523D01*
X127825857Y-99845761D01*
X127683000Y-99893380D01*
X127444904Y-99893380D01*
X128397285Y-99845761D02*
X128540142Y-99893380D01*
X128778238Y-99893380D01*
X128873476Y-99845761D01*
X128921095Y-99798142D01*
X128968714Y-99702904D01*
X128968714Y-99607666D01*
X128921095Y-99512428D01*
X128873476Y-99464809D01*
X128778238Y-99417190D01*
X128587761Y-99369571D01*
X128492523Y-99321952D01*
X128444904Y-99274333D01*
X128397285Y-99179095D01*
X128397285Y-99083857D01*
X128444904Y-98988619D01*
X128492523Y-98941000D01*
X128587761Y-98893380D01*
X128825857Y-98893380D01*
X128968714Y-98941000D01*
X129397285Y-98893380D02*
X129397285Y-99702904D01*
X129444904Y-99798142D01*
X129492523Y-99845761D01*
X129587761Y-99893380D01*
X129778238Y-99893380D01*
X129873476Y-99845761D01*
X129921095Y-99798142D01*
X129968714Y-99702904D01*
X129968714Y-98893380D01*
X130778238Y-99369571D02*
X130921095Y-99417190D01*
X130968714Y-99464809D01*
X131016333Y-99560047D01*
X131016333Y-99702904D01*
X130968714Y-99798142D01*
X130921095Y-99845761D01*
X130825857Y-99893380D01*
X130444904Y-99893380D01*
X130444904Y-98893380D01*
X130778238Y-98893380D01*
X130873476Y-98941000D01*
X130921095Y-98988619D01*
X130968714Y-99083857D01*
X130968714Y-99179095D01*
X130921095Y-99274333D01*
X130873476Y-99321952D01*
X130778238Y-99369571D01*
X130444904Y-99369571D01*
X131968714Y-99893380D02*
X131397285Y-99893380D01*
X131683000Y-99893380D02*
X131683000Y-98893380D01*
X131587761Y-99036238D01*
X131492523Y-99131476D01*
X131397285Y-99179095D01*
X133111571Y-98845761D02*
X132254428Y-100131476D01*
X133397285Y-98988619D02*
X133444904Y-98941000D01*
X133540142Y-98893380D01*
X133778238Y-98893380D01*
X133873476Y-98941000D01*
X133921095Y-98988619D01*
X133968714Y-99083857D01*
X133968714Y-99179095D01*
X133921095Y-99321952D01*
X133349666Y-99893380D01*
X133968714Y-99893380D01*
%TO.C,C1*%
X105243333Y-121007142D02*
X105195714Y-121054761D01*
X105052857Y-121102380D01*
X104957619Y-121102380D01*
X104814761Y-121054761D01*
X104719523Y-120959523D01*
X104671904Y-120864285D01*
X104624285Y-120673809D01*
X104624285Y-120530952D01*
X104671904Y-120340476D01*
X104719523Y-120245238D01*
X104814761Y-120150000D01*
X104957619Y-120102380D01*
X105052857Y-120102380D01*
X105195714Y-120150000D01*
X105243333Y-120197619D01*
X106195714Y-121102380D02*
X105624285Y-121102380D01*
X105910000Y-121102380D02*
X105910000Y-120102380D01*
X105814761Y-120245238D01*
X105719523Y-120340476D01*
X105624285Y-120388095D01*
%TO.C,U3*%
X87336380Y-70357904D02*
X88145904Y-70357904D01*
X88241142Y-70310285D01*
X88288761Y-70262666D01*
X88336380Y-70167428D01*
X88336380Y-69976952D01*
X88288761Y-69881714D01*
X88241142Y-69834095D01*
X88145904Y-69786476D01*
X87336380Y-69786476D01*
X87336380Y-69405523D02*
X87336380Y-68786476D01*
X87717333Y-69119809D01*
X87717333Y-68976952D01*
X87764952Y-68881714D01*
X87812571Y-68834095D01*
X87907809Y-68786476D01*
X88145904Y-68786476D01*
X88241142Y-68834095D01*
X88288761Y-68881714D01*
X88336380Y-68976952D01*
X88336380Y-69262666D01*
X88288761Y-69357904D01*
X88241142Y-69405523D01*
X88686285Y-105652380D02*
X88686285Y-104652380D01*
X89067238Y-104652380D01*
X89162476Y-104700000D01*
X89210095Y-104747619D01*
X89257714Y-104842857D01*
X89257714Y-104985714D01*
X89210095Y-105080952D01*
X89162476Y-105128571D01*
X89067238Y-105176190D01*
X88686285Y-105176190D01*
X89686285Y-105652380D02*
X89686285Y-104652380D01*
X90733904Y-105557142D02*
X90686285Y-105604761D01*
X90543428Y-105652380D01*
X90448190Y-105652380D01*
X90305333Y-105604761D01*
X90210095Y-105509523D01*
X90162476Y-105414285D01*
X90114857Y-105223809D01*
X90114857Y-105080952D01*
X90162476Y-104890476D01*
X90210095Y-104795238D01*
X90305333Y-104700000D01*
X90448190Y-104652380D01*
X90543428Y-104652380D01*
X90686285Y-104700000D01*
X90733904Y-104747619D01*
X91686285Y-105652380D02*
X91114857Y-105652380D01*
X91400571Y-105652380D02*
X91400571Y-104652380D01*
X91305333Y-104795238D01*
X91210095Y-104890476D01*
X91114857Y-104938095D01*
X92257714Y-105080952D02*
X92162476Y-105033333D01*
X92114857Y-104985714D01*
X92067238Y-104890476D01*
X92067238Y-104842857D01*
X92114857Y-104747619D01*
X92162476Y-104700000D01*
X92257714Y-104652380D01*
X92448190Y-104652380D01*
X92543428Y-104700000D01*
X92591047Y-104747619D01*
X92638666Y-104842857D01*
X92638666Y-104890476D01*
X92591047Y-104985714D01*
X92543428Y-105033333D01*
X92448190Y-105080952D01*
X92257714Y-105080952D01*
X92162476Y-105128571D01*
X92114857Y-105176190D01*
X92067238Y-105271428D01*
X92067238Y-105461904D01*
X92114857Y-105557142D01*
X92162476Y-105604761D01*
X92257714Y-105652380D01*
X92448190Y-105652380D01*
X92543428Y-105604761D01*
X92591047Y-105557142D01*
X92638666Y-105461904D01*
X92638666Y-105271428D01*
X92591047Y-105176190D01*
X92543428Y-105128571D01*
X92448190Y-105080952D01*
X93400571Y-105128571D02*
X93067238Y-105128571D01*
X93067238Y-105652380D02*
X93067238Y-104652380D01*
X93543428Y-104652380D01*
X93876761Y-104747619D02*
X93924380Y-104700000D01*
X94019619Y-104652380D01*
X94257714Y-104652380D01*
X94352952Y-104700000D01*
X94400571Y-104747619D01*
X94448190Y-104842857D01*
X94448190Y-104938095D01*
X94400571Y-105080952D01*
X93829142Y-105652380D01*
X94448190Y-105652380D01*
X94781523Y-104652380D02*
X95448190Y-104652380D01*
X95019619Y-105652380D01*
X95829142Y-105652380D02*
X95829142Y-104652380D01*
X96400571Y-105652380D02*
X95972000Y-105080952D01*
X96400571Y-104652380D02*
X95829142Y-105223809D01*
X97257714Y-104985714D02*
X97257714Y-105652380D01*
X97019619Y-104604761D02*
X96781523Y-105319047D01*
X97400571Y-105319047D01*
X97733904Y-104747619D02*
X97781523Y-104700000D01*
X97876761Y-104652380D01*
X98114857Y-104652380D01*
X98210095Y-104700000D01*
X98257714Y-104747619D01*
X98305333Y-104842857D01*
X98305333Y-104938095D01*
X98257714Y-105080952D01*
X97686285Y-105652380D01*
X98305333Y-105652380D01*
%TO.C,U5*%
X102576380Y-111759904D02*
X103385904Y-111759904D01*
X103481142Y-111712285D01*
X103528761Y-111664666D01*
X103576380Y-111569428D01*
X103576380Y-111378952D01*
X103528761Y-111283714D01*
X103481142Y-111236095D01*
X103385904Y-111188476D01*
X102576380Y-111188476D01*
X102576380Y-110236095D02*
X102576380Y-110712285D01*
X103052571Y-110759904D01*
X103004952Y-110712285D01*
X102957333Y-110617047D01*
X102957333Y-110378952D01*
X103004952Y-110283714D01*
X103052571Y-110236095D01*
X103147809Y-110188476D01*
X103385904Y-110188476D01*
X103481142Y-110236095D01*
X103528761Y-110283714D01*
X103576380Y-110378952D01*
X103576380Y-110617047D01*
X103528761Y-110712285D01*
X103481142Y-110759904D01*
X83764380Y-114664666D02*
X82764380Y-114664666D01*
X83478666Y-114331333D01*
X82764380Y-113998000D01*
X83764380Y-113998000D01*
X83669142Y-112950380D02*
X83716761Y-112998000D01*
X83764380Y-113140857D01*
X83764380Y-113236095D01*
X83716761Y-113378952D01*
X83621523Y-113474190D01*
X83526285Y-113521809D01*
X83335809Y-113569428D01*
X83192952Y-113569428D01*
X83002476Y-113521809D01*
X82907238Y-113474190D01*
X82812000Y-113378952D01*
X82764380Y-113236095D01*
X82764380Y-113140857D01*
X82812000Y-112998000D01*
X82859619Y-112950380D01*
X83764380Y-112521809D02*
X82764380Y-112521809D01*
X82764380Y-112140857D01*
X82812000Y-112045619D01*
X82859619Y-111998000D01*
X82954857Y-111950380D01*
X83097714Y-111950380D01*
X83192952Y-111998000D01*
X83240571Y-112045619D01*
X83288190Y-112140857D01*
X83288190Y-112521809D01*
X82859619Y-111569428D02*
X82812000Y-111521809D01*
X82764380Y-111426571D01*
X82764380Y-111188476D01*
X82812000Y-111093238D01*
X82859619Y-111045619D01*
X82954857Y-110998000D01*
X83050095Y-110998000D01*
X83192952Y-111045619D01*
X83764380Y-111617047D01*
X83764380Y-110998000D01*
X82859619Y-110617047D02*
X82812000Y-110569428D01*
X82764380Y-110474190D01*
X82764380Y-110236095D01*
X82812000Y-110140857D01*
X82859619Y-110093238D01*
X82954857Y-110045619D01*
X83050095Y-110045619D01*
X83192952Y-110093238D01*
X83764380Y-110664666D01*
X83764380Y-110045619D01*
X82859619Y-109664666D02*
X82812000Y-109617047D01*
X82764380Y-109521809D01*
X82764380Y-109283714D01*
X82812000Y-109188476D01*
X82859619Y-109140857D01*
X82954857Y-109093238D01*
X83050095Y-109093238D01*
X83192952Y-109140857D01*
X83764380Y-109712285D01*
X83764380Y-109093238D01*
X83764380Y-108140857D02*
X83764380Y-108712285D01*
X83764380Y-108426571D02*
X82764380Y-108426571D01*
X82907238Y-108521809D01*
X83002476Y-108617047D01*
X83050095Y-108712285D01*
X83478666Y-107759904D02*
X83478666Y-107283714D01*
X83764380Y-107855142D02*
X82764380Y-107521809D01*
X83764380Y-107188476D01*
%TO.C,J11*%
X79335380Y-124380523D02*
X80049666Y-124380523D01*
X80192523Y-124428142D01*
X80287761Y-124523380D01*
X80335380Y-124666238D01*
X80335380Y-124761476D01*
X80335380Y-123380523D02*
X80335380Y-123951952D01*
X80335380Y-123666238D02*
X79335380Y-123666238D01*
X79478238Y-123761476D01*
X79573476Y-123856714D01*
X79621095Y-123951952D01*
X80335380Y-122428142D02*
X80335380Y-122999571D01*
X80335380Y-122713857D02*
X79335380Y-122713857D01*
X79478238Y-122809095D01*
X79573476Y-122904333D01*
X79621095Y-122999571D01*
X67871714Y-110886142D02*
X68171714Y-111786142D01*
X68471714Y-110886142D01*
X68771714Y-111786142D02*
X68771714Y-110886142D01*
X69114571Y-110886142D02*
X69714571Y-110886142D01*
X69114571Y-111786142D01*
X69714571Y-111786142D01*
X69843142Y-111871857D02*
X70528857Y-111871857D01*
X71043142Y-111314714D02*
X71171714Y-111357571D01*
X71214571Y-111400428D01*
X71257428Y-111486142D01*
X71257428Y-111614714D01*
X71214571Y-111700428D01*
X71171714Y-111743285D01*
X71086000Y-111786142D01*
X70743142Y-111786142D01*
X70743142Y-110886142D01*
X71043142Y-110886142D01*
X71128857Y-110929000D01*
X71171714Y-110971857D01*
X71214571Y-111057571D01*
X71214571Y-111143285D01*
X71171714Y-111229000D01*
X71128857Y-111271857D01*
X71043142Y-111314714D01*
X70743142Y-111314714D01*
X71814571Y-110886142D02*
X71986000Y-110886142D01*
X72071714Y-110929000D01*
X72157428Y-111014714D01*
X72200285Y-111186142D01*
X72200285Y-111486142D01*
X72157428Y-111657571D01*
X72071714Y-111743285D01*
X71986000Y-111786142D01*
X71814571Y-111786142D01*
X71728857Y-111743285D01*
X71643142Y-111657571D01*
X71600285Y-111486142D01*
X71600285Y-111186142D01*
X71643142Y-111014714D01*
X71728857Y-110929000D01*
X71814571Y-110886142D01*
X72543142Y-111529000D02*
X72971714Y-111529000D01*
X72457428Y-111786142D02*
X72757428Y-110886142D01*
X73057428Y-111786142D01*
X73871714Y-111786142D02*
X73571714Y-111357571D01*
X73357428Y-111786142D02*
X73357428Y-110886142D01*
X73700285Y-110886142D01*
X73786000Y-110929000D01*
X73828857Y-110971857D01*
X73871714Y-111057571D01*
X73871714Y-111186142D01*
X73828857Y-111271857D01*
X73786000Y-111314714D01*
X73700285Y-111357571D01*
X73357428Y-111357571D01*
X74257428Y-111786142D02*
X74257428Y-110886142D01*
X74471714Y-110886142D01*
X74600285Y-110929000D01*
X74686000Y-111014714D01*
X74728857Y-111100428D01*
X74771714Y-111271857D01*
X74771714Y-111400428D01*
X74728857Y-111571857D01*
X74686000Y-111657571D01*
X74600285Y-111743285D01*
X74471714Y-111786142D01*
X74257428Y-111786142D01*
X74943142Y-111871857D02*
X75628857Y-111871857D01*
X76228857Y-111186142D02*
X76228857Y-111786142D01*
X76014571Y-110843285D02*
X75800285Y-111486142D01*
X76357428Y-111486142D01*
%TO.C,J10*%
X79335380Y-109902523D02*
X80049666Y-109902523D01*
X80192523Y-109950142D01*
X80287761Y-110045380D01*
X80335380Y-110188238D01*
X80335380Y-110283476D01*
X80335380Y-108902523D02*
X80335380Y-109473952D01*
X80335380Y-109188238D02*
X79335380Y-109188238D01*
X79478238Y-109283476D01*
X79573476Y-109378714D01*
X79621095Y-109473952D01*
X79335380Y-108283476D02*
X79335380Y-108188238D01*
X79383000Y-108093000D01*
X79430619Y-108045380D01*
X79525857Y-107997761D01*
X79716333Y-107950142D01*
X79954428Y-107950142D01*
X80144904Y-107997761D01*
X80240142Y-108045380D01*
X80287761Y-108093000D01*
X80335380Y-108188238D01*
X80335380Y-108283476D01*
X80287761Y-108378714D01*
X80240142Y-108426333D01*
X80144904Y-108473952D01*
X79954428Y-108521571D01*
X79716333Y-108521571D01*
X79525857Y-108473952D01*
X79430619Y-108426333D01*
X79383000Y-108378714D01*
X79335380Y-108283476D01*
X67871714Y-96408142D02*
X68171714Y-97308142D01*
X68471714Y-96408142D01*
X68771714Y-97308142D02*
X68771714Y-96408142D01*
X69114571Y-96408142D02*
X69714571Y-96408142D01*
X69114571Y-97308142D01*
X69714571Y-97308142D01*
X69843142Y-97393857D02*
X70528857Y-97393857D01*
X71043142Y-96836714D02*
X71171714Y-96879571D01*
X71214571Y-96922428D01*
X71257428Y-97008142D01*
X71257428Y-97136714D01*
X71214571Y-97222428D01*
X71171714Y-97265285D01*
X71086000Y-97308142D01*
X70743142Y-97308142D01*
X70743142Y-96408142D01*
X71043142Y-96408142D01*
X71128857Y-96451000D01*
X71171714Y-96493857D01*
X71214571Y-96579571D01*
X71214571Y-96665285D01*
X71171714Y-96751000D01*
X71128857Y-96793857D01*
X71043142Y-96836714D01*
X70743142Y-96836714D01*
X71814571Y-96408142D02*
X71986000Y-96408142D01*
X72071714Y-96451000D01*
X72157428Y-96536714D01*
X72200285Y-96708142D01*
X72200285Y-97008142D01*
X72157428Y-97179571D01*
X72071714Y-97265285D01*
X71986000Y-97308142D01*
X71814571Y-97308142D01*
X71728857Y-97265285D01*
X71643142Y-97179571D01*
X71600285Y-97008142D01*
X71600285Y-96708142D01*
X71643142Y-96536714D01*
X71728857Y-96451000D01*
X71814571Y-96408142D01*
X72543142Y-97051000D02*
X72971714Y-97051000D01*
X72457428Y-97308142D02*
X72757428Y-96408142D01*
X73057428Y-97308142D01*
X73871714Y-97308142D02*
X73571714Y-96879571D01*
X73357428Y-97308142D02*
X73357428Y-96408142D01*
X73700285Y-96408142D01*
X73786000Y-96451000D01*
X73828857Y-96493857D01*
X73871714Y-96579571D01*
X73871714Y-96708142D01*
X73828857Y-96793857D01*
X73786000Y-96836714D01*
X73700285Y-96879571D01*
X73357428Y-96879571D01*
X74257428Y-97308142D02*
X74257428Y-96408142D01*
X74471714Y-96408142D01*
X74600285Y-96451000D01*
X74686000Y-96536714D01*
X74728857Y-96622428D01*
X74771714Y-96793857D01*
X74771714Y-96922428D01*
X74728857Y-97093857D01*
X74686000Y-97179571D01*
X74600285Y-97265285D01*
X74471714Y-97308142D01*
X74257428Y-97308142D01*
X74943142Y-97393857D02*
X75628857Y-97393857D01*
X75757428Y-96408142D02*
X76314571Y-96408142D01*
X76014571Y-96751000D01*
X76143142Y-96751000D01*
X76228857Y-96793857D01*
X76271714Y-96836714D01*
X76314571Y-96922428D01*
X76314571Y-97136714D01*
X76271714Y-97222428D01*
X76228857Y-97265285D01*
X76143142Y-97308142D01*
X75886000Y-97308142D01*
X75800285Y-97265285D01*
X75757428Y-97222428D01*
%TO.C,J9*%
X79335380Y-94948333D02*
X80049666Y-94948333D01*
X80192523Y-94995952D01*
X80287761Y-95091190D01*
X80335380Y-95234047D01*
X80335380Y-95329285D01*
X80335380Y-94424523D02*
X80335380Y-94234047D01*
X80287761Y-94138809D01*
X80240142Y-94091190D01*
X80097285Y-93995952D01*
X79906809Y-93948333D01*
X79525857Y-93948333D01*
X79430619Y-93995952D01*
X79383000Y-94043571D01*
X79335380Y-94138809D01*
X79335380Y-94329285D01*
X79383000Y-94424523D01*
X79430619Y-94472142D01*
X79525857Y-94519761D01*
X79763952Y-94519761D01*
X79859190Y-94472142D01*
X79906809Y-94424523D01*
X79954428Y-94329285D01*
X79954428Y-94138809D01*
X79906809Y-94043571D01*
X79859190Y-93995952D01*
X79763952Y-93948333D01*
X67744714Y-81930142D02*
X68044714Y-82830142D01*
X68344714Y-81930142D01*
X68644714Y-82830142D02*
X68644714Y-81930142D01*
X68987571Y-81930142D02*
X69587571Y-81930142D01*
X68987571Y-82830142D01*
X69587571Y-82830142D01*
X69716142Y-82915857D02*
X70401857Y-82915857D01*
X70916142Y-82358714D02*
X71044714Y-82401571D01*
X71087571Y-82444428D01*
X71130428Y-82530142D01*
X71130428Y-82658714D01*
X71087571Y-82744428D01*
X71044714Y-82787285D01*
X70959000Y-82830142D01*
X70616142Y-82830142D01*
X70616142Y-81930142D01*
X70916142Y-81930142D01*
X71001857Y-81973000D01*
X71044714Y-82015857D01*
X71087571Y-82101571D01*
X71087571Y-82187285D01*
X71044714Y-82273000D01*
X71001857Y-82315857D01*
X70916142Y-82358714D01*
X70616142Y-82358714D01*
X71687571Y-81930142D02*
X71859000Y-81930142D01*
X71944714Y-81973000D01*
X72030428Y-82058714D01*
X72073285Y-82230142D01*
X72073285Y-82530142D01*
X72030428Y-82701571D01*
X71944714Y-82787285D01*
X71859000Y-82830142D01*
X71687571Y-82830142D01*
X71601857Y-82787285D01*
X71516142Y-82701571D01*
X71473285Y-82530142D01*
X71473285Y-82230142D01*
X71516142Y-82058714D01*
X71601857Y-81973000D01*
X71687571Y-81930142D01*
X72416142Y-82573000D02*
X72844714Y-82573000D01*
X72330428Y-82830142D02*
X72630428Y-81930142D01*
X72930428Y-82830142D01*
X73744714Y-82830142D02*
X73444714Y-82401571D01*
X73230428Y-82830142D02*
X73230428Y-81930142D01*
X73573285Y-81930142D01*
X73659000Y-81973000D01*
X73701857Y-82015857D01*
X73744714Y-82101571D01*
X73744714Y-82230142D01*
X73701857Y-82315857D01*
X73659000Y-82358714D01*
X73573285Y-82401571D01*
X73230428Y-82401571D01*
X74130428Y-82830142D02*
X74130428Y-81930142D01*
X74344714Y-81930142D01*
X74473285Y-81973000D01*
X74559000Y-82058714D01*
X74601857Y-82144428D01*
X74644714Y-82315857D01*
X74644714Y-82444428D01*
X74601857Y-82615857D01*
X74559000Y-82701571D01*
X74473285Y-82787285D01*
X74344714Y-82830142D01*
X74130428Y-82830142D01*
X74816142Y-82915857D02*
X75501857Y-82915857D01*
X75673285Y-82015857D02*
X75716142Y-81973000D01*
X75801857Y-81930142D01*
X76016142Y-81930142D01*
X76101857Y-81973000D01*
X76144714Y-82015857D01*
X76187571Y-82101571D01*
X76187571Y-82187285D01*
X76144714Y-82315857D01*
X75630428Y-82830142D01*
X76187571Y-82830142D01*
%TO.C,J8*%
X79335380Y-80470333D02*
X80049666Y-80470333D01*
X80192523Y-80517952D01*
X80287761Y-80613190D01*
X80335380Y-80756047D01*
X80335380Y-80851285D01*
X79763952Y-79851285D02*
X79716333Y-79946523D01*
X79668714Y-79994142D01*
X79573476Y-80041761D01*
X79525857Y-80041761D01*
X79430619Y-79994142D01*
X79383000Y-79946523D01*
X79335380Y-79851285D01*
X79335380Y-79660809D01*
X79383000Y-79565571D01*
X79430619Y-79517952D01*
X79525857Y-79470333D01*
X79573476Y-79470333D01*
X79668714Y-79517952D01*
X79716333Y-79565571D01*
X79763952Y-79660809D01*
X79763952Y-79851285D01*
X79811571Y-79946523D01*
X79859190Y-79994142D01*
X79954428Y-80041761D01*
X80144904Y-80041761D01*
X80240142Y-79994142D01*
X80287761Y-79946523D01*
X80335380Y-79851285D01*
X80335380Y-79660809D01*
X80287761Y-79565571D01*
X80240142Y-79517952D01*
X80144904Y-79470333D01*
X79954428Y-79470333D01*
X79859190Y-79517952D01*
X79811571Y-79565571D01*
X79763952Y-79660809D01*
X67871714Y-67452142D02*
X68171714Y-68352142D01*
X68471714Y-67452142D01*
X68771714Y-68352142D02*
X68771714Y-67452142D01*
X69114571Y-67452142D02*
X69714571Y-67452142D01*
X69114571Y-68352142D01*
X69714571Y-68352142D01*
X69843142Y-68437857D02*
X70528857Y-68437857D01*
X71043142Y-67880714D02*
X71171714Y-67923571D01*
X71214571Y-67966428D01*
X71257428Y-68052142D01*
X71257428Y-68180714D01*
X71214571Y-68266428D01*
X71171714Y-68309285D01*
X71086000Y-68352142D01*
X70743142Y-68352142D01*
X70743142Y-67452142D01*
X71043142Y-67452142D01*
X71128857Y-67495000D01*
X71171714Y-67537857D01*
X71214571Y-67623571D01*
X71214571Y-67709285D01*
X71171714Y-67795000D01*
X71128857Y-67837857D01*
X71043142Y-67880714D01*
X70743142Y-67880714D01*
X71814571Y-67452142D02*
X71986000Y-67452142D01*
X72071714Y-67495000D01*
X72157428Y-67580714D01*
X72200285Y-67752142D01*
X72200285Y-68052142D01*
X72157428Y-68223571D01*
X72071714Y-68309285D01*
X71986000Y-68352142D01*
X71814571Y-68352142D01*
X71728857Y-68309285D01*
X71643142Y-68223571D01*
X71600285Y-68052142D01*
X71600285Y-67752142D01*
X71643142Y-67580714D01*
X71728857Y-67495000D01*
X71814571Y-67452142D01*
X72543142Y-68095000D02*
X72971714Y-68095000D01*
X72457428Y-68352142D02*
X72757428Y-67452142D01*
X73057428Y-68352142D01*
X73871714Y-68352142D02*
X73571714Y-67923571D01*
X73357428Y-68352142D02*
X73357428Y-67452142D01*
X73700285Y-67452142D01*
X73786000Y-67495000D01*
X73828857Y-67537857D01*
X73871714Y-67623571D01*
X73871714Y-67752142D01*
X73828857Y-67837857D01*
X73786000Y-67880714D01*
X73700285Y-67923571D01*
X73357428Y-67923571D01*
X74257428Y-68352142D02*
X74257428Y-67452142D01*
X74471714Y-67452142D01*
X74600285Y-67495000D01*
X74686000Y-67580714D01*
X74728857Y-67666428D01*
X74771714Y-67837857D01*
X74771714Y-67966428D01*
X74728857Y-68137857D01*
X74686000Y-68223571D01*
X74600285Y-68309285D01*
X74471714Y-68352142D01*
X74257428Y-68352142D01*
X74943142Y-68437857D02*
X75628857Y-68437857D01*
X76314571Y-68352142D02*
X75800285Y-68352142D01*
X76057428Y-68352142D02*
X76057428Y-67452142D01*
X75971714Y-67580714D01*
X75886000Y-67666428D01*
X75800285Y-67709285D01*
%TO.C,U4*%
X116419380Y-126237904D02*
X117228904Y-126237904D01*
X117324142Y-126190285D01*
X117371761Y-126142666D01*
X117419380Y-126047428D01*
X117419380Y-125856952D01*
X117371761Y-125761714D01*
X117324142Y-125714095D01*
X117228904Y-125666476D01*
X116419380Y-125666476D01*
X116752714Y-124761714D02*
X117419380Y-124761714D01*
X116371761Y-124999809D02*
X117086047Y-125237904D01*
X117086047Y-124618857D01*
D17*
X107745000Y-127323904D02*
X108259285Y-127323904D01*
X108002142Y-128123904D02*
X108002142Y-127323904D01*
X108559285Y-128123904D02*
X108559285Y-127323904D01*
X108902142Y-127323904D01*
X108987857Y-127362000D01*
X109030714Y-127400095D01*
X109073571Y-127476285D01*
X109073571Y-127590571D01*
X109030714Y-127666761D01*
X108987857Y-127704857D01*
X108902142Y-127742952D01*
X108559285Y-127742952D01*
X109416428Y-128085809D02*
X109545000Y-128123904D01*
X109759285Y-128123904D01*
X109845000Y-128085809D01*
X109887857Y-128047714D01*
X109930714Y-127971523D01*
X109930714Y-127895333D01*
X109887857Y-127819142D01*
X109845000Y-127781047D01*
X109759285Y-127742952D01*
X109587857Y-127704857D01*
X109502142Y-127666761D01*
X109459285Y-127628666D01*
X109416428Y-127552476D01*
X109416428Y-127476285D01*
X109459285Y-127400095D01*
X109502142Y-127362000D01*
X109587857Y-127323904D01*
X109802142Y-127323904D01*
X109930714Y-127362000D01*
X110273571Y-127400095D02*
X110316428Y-127362000D01*
X110402142Y-127323904D01*
X110616428Y-127323904D01*
X110702142Y-127362000D01*
X110745000Y-127400095D01*
X110787857Y-127476285D01*
X110787857Y-127552476D01*
X110745000Y-127666761D01*
X110230714Y-128123904D01*
X110787857Y-128123904D01*
X111645000Y-128123904D02*
X111130714Y-128123904D01*
X111387857Y-128123904D02*
X111387857Y-127323904D01*
X111302142Y-127438190D01*
X111216428Y-127514380D01*
X111130714Y-127552476D01*
X112502142Y-128123904D02*
X111987857Y-128123904D01*
X112245000Y-128123904D02*
X112245000Y-127323904D01*
X112159285Y-127438190D01*
X112073571Y-127514380D01*
X111987857Y-127552476D01*
X113316428Y-127323904D02*
X112887857Y-127323904D01*
X112845000Y-127704857D01*
X112887857Y-127666761D01*
X112973571Y-127628666D01*
X113187857Y-127628666D01*
X113273571Y-127666761D01*
X113316428Y-127704857D01*
X113359285Y-127781047D01*
X113359285Y-127971523D01*
X113316428Y-128047714D01*
X113273571Y-128085809D01*
X113187857Y-128123904D01*
X112973571Y-128123904D01*
X112887857Y-128085809D01*
X112845000Y-128047714D01*
X113702142Y-127895333D02*
X114130714Y-127895333D01*
X113616428Y-128123904D02*
X113916428Y-127323904D01*
X114216428Y-128123904D01*
X114516428Y-128123904D02*
X114516428Y-127323904D01*
X114859285Y-127323904D01*
X114945000Y-127362000D01*
X114987857Y-127400095D01*
X115030714Y-127476285D01*
X115030714Y-127590571D01*
X114987857Y-127666761D01*
X114945000Y-127704857D01*
X114859285Y-127742952D01*
X114516428Y-127742952D01*
X115330714Y-127323904D02*
X115545000Y-128123904D01*
X115716428Y-127552476D01*
X115887857Y-128123904D01*
X116102142Y-127323904D01*
X116959285Y-128123904D02*
X116659285Y-127742952D01*
X116445000Y-128123904D02*
X116445000Y-127323904D01*
X116787857Y-127323904D01*
X116873571Y-127362000D01*
X116916428Y-127400095D01*
X116959285Y-127476285D01*
X116959285Y-127590571D01*
X116916428Y-127666761D01*
X116873571Y-127704857D01*
X116787857Y-127742952D01*
X116445000Y-127742952D01*
%TO.C,U2*%
D10*
X117181380Y-120141904D02*
X117990904Y-120141904D01*
X118086142Y-120094285D01*
X118133761Y-120046666D01*
X118181380Y-119951428D01*
X118181380Y-119760952D01*
X118133761Y-119665714D01*
X118086142Y-119618095D01*
X117990904Y-119570476D01*
X117181380Y-119570476D01*
X117276619Y-119141904D02*
X117229000Y-119094285D01*
X117181380Y-118999047D01*
X117181380Y-118760952D01*
X117229000Y-118665714D01*
X117276619Y-118618095D01*
X117371857Y-118570476D01*
X117467095Y-118570476D01*
X117609952Y-118618095D01*
X118181380Y-119189523D01*
X118181380Y-118570476D01*
X107775952Y-122477142D02*
X108014047Y-123377142D01*
X108204523Y-122734285D01*
X108395000Y-123377142D01*
X108633095Y-122477142D01*
X108966428Y-122562857D02*
X109014047Y-122520000D01*
X109109285Y-122477142D01*
X109347380Y-122477142D01*
X109442619Y-122520000D01*
X109490238Y-122562857D01*
X109537857Y-122648571D01*
X109537857Y-122734285D01*
X109490238Y-122862857D01*
X108918809Y-123377142D01*
X109537857Y-123377142D01*
X110442619Y-122477142D02*
X109966428Y-122477142D01*
X109918809Y-122905714D01*
X109966428Y-122862857D01*
X110061666Y-122820000D01*
X110299761Y-122820000D01*
X110395000Y-122862857D01*
X110442619Y-122905714D01*
X110490238Y-122991428D01*
X110490238Y-123205714D01*
X110442619Y-123291428D01*
X110395000Y-123334285D01*
X110299761Y-123377142D01*
X110061666Y-123377142D01*
X109966428Y-123334285D01*
X109918809Y-123291428D01*
X111585476Y-123462857D02*
X111490238Y-123420000D01*
X111395000Y-123334285D01*
X111252142Y-123205714D01*
X111156904Y-123162857D01*
X111061666Y-123162857D01*
X111109285Y-123377142D02*
X111014047Y-123334285D01*
X110918809Y-123248571D01*
X110871190Y-123077142D01*
X110871190Y-122777142D01*
X110918809Y-122605714D01*
X111014047Y-122520000D01*
X111109285Y-122477142D01*
X111299761Y-122477142D01*
X111395000Y-122520000D01*
X111490238Y-122605714D01*
X111537857Y-122777142D01*
X111537857Y-123077142D01*
X111490238Y-123248571D01*
X111395000Y-123334285D01*
X111299761Y-123377142D01*
X111109285Y-123377142D01*
X112490238Y-123377142D02*
X111918809Y-123377142D01*
X112204523Y-123377142D02*
X112204523Y-122477142D01*
X112109285Y-122605714D01*
X112014047Y-122691428D01*
X111918809Y-122734285D01*
X112871190Y-122562857D02*
X112918809Y-122520000D01*
X113014047Y-122477142D01*
X113252142Y-122477142D01*
X113347380Y-122520000D01*
X113395000Y-122562857D01*
X113442619Y-122648571D01*
X113442619Y-122734285D01*
X113395000Y-122862857D01*
X112823571Y-123377142D01*
X113442619Y-123377142D01*
X114014047Y-122862857D02*
X113918809Y-122820000D01*
X113871190Y-122777142D01*
X113823571Y-122691428D01*
X113823571Y-122648571D01*
X113871190Y-122562857D01*
X113918809Y-122520000D01*
X114014047Y-122477142D01*
X114204523Y-122477142D01*
X114299761Y-122520000D01*
X114347380Y-122562857D01*
X114395000Y-122648571D01*
X114395000Y-122691428D01*
X114347380Y-122777142D01*
X114299761Y-122820000D01*
X114204523Y-122862857D01*
X114014047Y-122862857D01*
X113918809Y-122905714D01*
X113871190Y-122948571D01*
X113823571Y-123034285D01*
X113823571Y-123205714D01*
X113871190Y-123291428D01*
X113918809Y-123334285D01*
X114014047Y-123377142D01*
X114204523Y-123377142D01*
X114299761Y-123334285D01*
X114347380Y-123291428D01*
X114395000Y-123205714D01*
X114395000Y-123034285D01*
X114347380Y-122948571D01*
X114299761Y-122905714D01*
X114204523Y-122862857D01*
X115109285Y-122477142D02*
X115109285Y-123120000D01*
X115061666Y-123248571D01*
X114966428Y-123334285D01*
X114823571Y-123377142D01*
X114728333Y-123377142D01*
X115442619Y-122477142D02*
X115775952Y-123377142D01*
X116109285Y-122477142D01*
X116395000Y-123334285D02*
X116537857Y-123377142D01*
X116775952Y-123377142D01*
X116871190Y-123334285D01*
X116918809Y-123291428D01*
X116966428Y-123205714D01*
X116966428Y-123120000D01*
X116918809Y-123034285D01*
X116871190Y-122991428D01*
X116775952Y-122948571D01*
X116585476Y-122905714D01*
X116490238Y-122862857D01*
X116442619Y-122820000D01*
X116395000Y-122734285D01*
X116395000Y-122648571D01*
X116442619Y-122562857D01*
X116490238Y-122520000D01*
X116585476Y-122477142D01*
X116823571Y-122477142D01*
X116966428Y-122520000D01*
%TO.C,J16*%
X69048380Y-58594523D02*
X69762666Y-58594523D01*
X69905523Y-58642142D01*
X70000761Y-58737380D01*
X70048380Y-58880238D01*
X70048380Y-58975476D01*
X70048380Y-57594523D02*
X70048380Y-58165952D01*
X70048380Y-57880238D02*
X69048380Y-57880238D01*
X69191238Y-57975476D01*
X69286476Y-58070714D01*
X69334095Y-58165952D01*
X69048380Y-56737380D02*
X69048380Y-56927857D01*
X69096000Y-57023095D01*
X69143619Y-57070714D01*
X69286476Y-57165952D01*
X69476952Y-57213571D01*
X69857904Y-57213571D01*
X69953142Y-57165952D01*
X70000761Y-57118333D01*
X70048380Y-57023095D01*
X70048380Y-56832619D01*
X70000761Y-56737380D01*
X69953142Y-56689761D01*
X69857904Y-56642142D01*
X69619809Y-56642142D01*
X69524571Y-56689761D01*
X69476952Y-56737380D01*
X69429333Y-56832619D01*
X69429333Y-57023095D01*
X69476952Y-57118333D01*
X69524571Y-57165952D01*
X69619809Y-57213571D01*
X81351380Y-62245428D02*
X81351380Y-62721619D01*
X80351380Y-62721619D01*
X80827571Y-61912095D02*
X80827571Y-61578761D01*
X81351380Y-61435904D02*
X81351380Y-61912095D01*
X80351380Y-61912095D01*
X80351380Y-61435904D01*
X81351380Y-61007333D02*
X80351380Y-61007333D01*
X80351380Y-60769238D01*
X80399000Y-60626380D01*
X80494238Y-60531142D01*
X80589476Y-60483523D01*
X80779952Y-60435904D01*
X80922809Y-60435904D01*
X81113285Y-60483523D01*
X81208523Y-60531142D01*
X81303761Y-60626380D01*
X81351380Y-60769238D01*
X81351380Y-61007333D01*
X81351380Y-59245428D02*
X80351380Y-59245428D01*
X80351380Y-58864476D01*
X80399000Y-58769238D01*
X80446619Y-58721619D01*
X80541857Y-58674000D01*
X80684714Y-58674000D01*
X80779952Y-58721619D01*
X80827571Y-58769238D01*
X80875190Y-58864476D01*
X80875190Y-59245428D01*
X80351380Y-58054952D02*
X80351380Y-57864476D01*
X80399000Y-57769238D01*
X80494238Y-57674000D01*
X80684714Y-57626380D01*
X81018047Y-57626380D01*
X81208523Y-57674000D01*
X81303761Y-57769238D01*
X81351380Y-57864476D01*
X81351380Y-58054952D01*
X81303761Y-58150190D01*
X81208523Y-58245428D01*
X81018047Y-58293047D01*
X80684714Y-58293047D01*
X80494238Y-58245428D01*
X80399000Y-58150190D01*
X80351380Y-58054952D01*
X80351380Y-57293047D02*
X81351380Y-57054952D01*
X80637095Y-56864476D01*
X81351380Y-56674000D01*
X80351380Y-56435904D01*
X80827571Y-56054952D02*
X80827571Y-55721619D01*
X81351380Y-55578761D02*
X81351380Y-56054952D01*
X80351380Y-56054952D01*
X80351380Y-55578761D01*
X81351380Y-54578761D02*
X80875190Y-54912095D01*
X81351380Y-55150190D02*
X80351380Y-55150190D01*
X80351380Y-54769238D01*
X80399000Y-54674000D01*
X80446619Y-54626380D01*
X80541857Y-54578761D01*
X80684714Y-54578761D01*
X80779952Y-54626380D01*
X80827571Y-54674000D01*
X80875190Y-54769238D01*
X80875190Y-55150190D01*
%TO.C,J7*%
X97583666Y-120229380D02*
X97583666Y-120943666D01*
X97536047Y-121086523D01*
X97440809Y-121181761D01*
X97297952Y-121229380D01*
X97202714Y-121229380D01*
X97964619Y-120229380D02*
X98631285Y-120229380D01*
X98202714Y-121229380D01*
X99909380Y-138191476D02*
X100718904Y-138191476D01*
X100814142Y-138143857D01*
X100861761Y-138096238D01*
X100909380Y-138001000D01*
X100909380Y-137810523D01*
X100861761Y-137715285D01*
X100814142Y-137667666D01*
X100718904Y-137620047D01*
X99909380Y-137620047D01*
X100861761Y-137191476D02*
X100909380Y-137048619D01*
X100909380Y-136810523D01*
X100861761Y-136715285D01*
X100814142Y-136667666D01*
X100718904Y-136620047D01*
X100623666Y-136620047D01*
X100528428Y-136667666D01*
X100480809Y-136715285D01*
X100433190Y-136810523D01*
X100385571Y-137001000D01*
X100337952Y-137096238D01*
X100290333Y-137143857D01*
X100195095Y-137191476D01*
X100099857Y-137191476D01*
X100004619Y-137143857D01*
X99957000Y-137096238D01*
X99909380Y-137001000D01*
X99909380Y-136762904D01*
X99957000Y-136620047D01*
X100385571Y-135858142D02*
X100433190Y-135715285D01*
X100480809Y-135667666D01*
X100576047Y-135620047D01*
X100718904Y-135620047D01*
X100814142Y-135667666D01*
X100861761Y-135715285D01*
X100909380Y-135810523D01*
X100909380Y-136191476D01*
X99909380Y-136191476D01*
X99909380Y-135858142D01*
X99957000Y-135762904D01*
X100004619Y-135715285D01*
X100099857Y-135667666D01*
X100195095Y-135667666D01*
X100290333Y-135715285D01*
X100337952Y-135762904D01*
X100385571Y-135858142D01*
X100385571Y-136191476D01*
X100909380Y-134429571D02*
X99909380Y-134429571D01*
X99909380Y-134048619D01*
X99957000Y-133953380D01*
X100004619Y-133905761D01*
X100099857Y-133858142D01*
X100242714Y-133858142D01*
X100337952Y-133905761D01*
X100385571Y-133953380D01*
X100433190Y-134048619D01*
X100433190Y-134429571D01*
X100909380Y-133286714D02*
X100861761Y-133381952D01*
X100814142Y-133429571D01*
X100718904Y-133477190D01*
X100433190Y-133477190D01*
X100337952Y-133429571D01*
X100290333Y-133381952D01*
X100242714Y-133286714D01*
X100242714Y-133143857D01*
X100290333Y-133048619D01*
X100337952Y-133001000D01*
X100433190Y-132953380D01*
X100718904Y-132953380D01*
X100814142Y-133001000D01*
X100861761Y-133048619D01*
X100909380Y-133143857D01*
X100909380Y-133286714D01*
X100909380Y-132524809D02*
X100242714Y-132524809D01*
X100433190Y-132524809D02*
X100337952Y-132477190D01*
X100290333Y-132429571D01*
X100242714Y-132334333D01*
X100242714Y-132239095D01*
X100242714Y-132048619D02*
X100242714Y-131667666D01*
X99909380Y-131905761D02*
X100766523Y-131905761D01*
X100861761Y-131858142D01*
X100909380Y-131762904D01*
X100909380Y-131667666D01*
%TO.C,R6*%
X101163380Y-72556666D02*
X100687190Y-72890000D01*
X101163380Y-73128095D02*
X100163380Y-73128095D01*
X100163380Y-72747142D01*
X100211000Y-72651904D01*
X100258619Y-72604285D01*
X100353857Y-72556666D01*
X100496714Y-72556666D01*
X100591952Y-72604285D01*
X100639571Y-72651904D01*
X100687190Y-72747142D01*
X100687190Y-73128095D01*
X100163380Y-71699523D02*
X100163380Y-71890000D01*
X100211000Y-71985238D01*
X100258619Y-72032857D01*
X100401476Y-72128095D01*
X100591952Y-72175714D01*
X100972904Y-72175714D01*
X101068142Y-72128095D01*
X101115761Y-72080476D01*
X101163380Y-71985238D01*
X101163380Y-71794761D01*
X101115761Y-71699523D01*
X101068142Y-71651904D01*
X100972904Y-71604285D01*
X100734809Y-71604285D01*
X100639571Y-71651904D01*
X100591952Y-71699523D01*
X100544333Y-71794761D01*
X100544333Y-71985238D01*
X100591952Y-72080476D01*
X100639571Y-72128095D01*
X100734809Y-72175714D01*
%TO.C,J12*%
X122769380Y-125269523D02*
X123483666Y-125269523D01*
X123626523Y-125317142D01*
X123721761Y-125412380D01*
X123769380Y-125555238D01*
X123769380Y-125650476D01*
X123769380Y-124269523D02*
X123769380Y-124840952D01*
X123769380Y-124555238D02*
X122769380Y-124555238D01*
X122912238Y-124650476D01*
X123007476Y-124745714D01*
X123055095Y-124840952D01*
X122864619Y-123888571D02*
X122817000Y-123840952D01*
X122769380Y-123745714D01*
X122769380Y-123507619D01*
X122817000Y-123412380D01*
X122864619Y-123364761D01*
X122959857Y-123317142D01*
X123055095Y-123317142D01*
X123197952Y-123364761D01*
X123769380Y-123936190D01*
X123769380Y-123317142D01*
X125237904Y-98941000D02*
X125142666Y-98893380D01*
X124999809Y-98893380D01*
X124856952Y-98941000D01*
X124761714Y-99036238D01*
X124714095Y-99131476D01*
X124666476Y-99321952D01*
X124666476Y-99464809D01*
X124714095Y-99655285D01*
X124761714Y-99750523D01*
X124856952Y-99845761D01*
X124999809Y-99893380D01*
X125095047Y-99893380D01*
X125237904Y-99845761D01*
X125285523Y-99798142D01*
X125285523Y-99464809D01*
X125095047Y-99464809D01*
X126047428Y-99369571D02*
X126190285Y-99417190D01*
X126237904Y-99464809D01*
X126285523Y-99560047D01*
X126285523Y-99702904D01*
X126237904Y-99798142D01*
X126190285Y-99845761D01*
X126095047Y-99893380D01*
X125714095Y-99893380D01*
X125714095Y-98893380D01*
X126047428Y-98893380D01*
X126142666Y-98941000D01*
X126190285Y-98988619D01*
X126237904Y-99083857D01*
X126237904Y-99179095D01*
X126190285Y-99274333D01*
X126142666Y-99321952D01*
X126047428Y-99369571D01*
X125714095Y-99369571D01*
%TD*%
%LPC*%
D18*
%TO.C,J6*%
X117475000Y-60960000D03*
X114935000Y-60960000D03*
X112395000Y-60960000D03*
X109855000Y-60960000D03*
D19*
X107315000Y-60960000D03*
%TD*%
D18*
%TO.C,J5*%
X98552000Y-60960000D03*
X96012000Y-60960000D03*
X93472000Y-60960000D03*
X90932000Y-60960000D03*
D19*
X88392000Y-60960000D03*
%TD*%
D20*
%TO.C,SW1*%
X125095000Y-60983000D03*
X120595000Y-60983000D03*
X125095000Y-54483000D03*
X120595000Y-54483000D03*
%TD*%
D21*
%TO.C,Q1*%
X77470000Y-135890000D03*
D22*
X77470000Y-130690000D03*
X77470000Y-133290000D03*
%TD*%
D19*
%TO.C,J15*%
X83820000Y-130683000D03*
D18*
X81280000Y-130683000D03*
%TD*%
%TO.C,U6*%
G36*
G01*
X127738000Y-128801000D02*
X127738000Y-128501000D01*
G75*
G02*
X127888000Y-128351000I150000J0D01*
G01*
X129538000Y-128351000D01*
G75*
G02*
X129688000Y-128501000I0J-150000D01*
G01*
X129688000Y-128801000D01*
G75*
G02*
X129538000Y-128951000I-150000J0D01*
G01*
X127888000Y-128951000D01*
G75*
G02*
X127738000Y-128801000I0J150000D01*
G01*
G37*
G36*
G01*
X127738000Y-130071000D02*
X127738000Y-129771000D01*
G75*
G02*
X127888000Y-129621000I150000J0D01*
G01*
X129538000Y-129621000D01*
G75*
G02*
X129688000Y-129771000I0J-150000D01*
G01*
X129688000Y-130071000D01*
G75*
G02*
X129538000Y-130221000I-150000J0D01*
G01*
X127888000Y-130221000D01*
G75*
G02*
X127738000Y-130071000I0J150000D01*
G01*
G37*
G36*
G01*
X127738000Y-131341000D02*
X127738000Y-131041000D01*
G75*
G02*
X127888000Y-130891000I150000J0D01*
G01*
X129538000Y-130891000D01*
G75*
G02*
X129688000Y-131041000I0J-150000D01*
G01*
X129688000Y-131341000D01*
G75*
G02*
X129538000Y-131491000I-150000J0D01*
G01*
X127888000Y-131491000D01*
G75*
G02*
X127738000Y-131341000I0J150000D01*
G01*
G37*
G36*
G01*
X127738000Y-132611000D02*
X127738000Y-132311000D01*
G75*
G02*
X127888000Y-132161000I150000J0D01*
G01*
X129538000Y-132161000D01*
G75*
G02*
X129688000Y-132311000I0J-150000D01*
G01*
X129688000Y-132611000D01*
G75*
G02*
X129538000Y-132761000I-150000J0D01*
G01*
X127888000Y-132761000D01*
G75*
G02*
X127738000Y-132611000I0J150000D01*
G01*
G37*
G36*
G01*
X122788000Y-132611000D02*
X122788000Y-132311000D01*
G75*
G02*
X122938000Y-132161000I150000J0D01*
G01*
X124588000Y-132161000D01*
G75*
G02*
X124738000Y-132311000I0J-150000D01*
G01*
X124738000Y-132611000D01*
G75*
G02*
X124588000Y-132761000I-150000J0D01*
G01*
X122938000Y-132761000D01*
G75*
G02*
X122788000Y-132611000I0J150000D01*
G01*
G37*
G36*
G01*
X122788000Y-131341000D02*
X122788000Y-131041000D01*
G75*
G02*
X122938000Y-130891000I150000J0D01*
G01*
X124588000Y-130891000D01*
G75*
G02*
X124738000Y-131041000I0J-150000D01*
G01*
X124738000Y-131341000D01*
G75*
G02*
X124588000Y-131491000I-150000J0D01*
G01*
X122938000Y-131491000D01*
G75*
G02*
X122788000Y-131341000I0J150000D01*
G01*
G37*
G36*
G01*
X122788000Y-130071000D02*
X122788000Y-129771000D01*
G75*
G02*
X122938000Y-129621000I150000J0D01*
G01*
X124588000Y-129621000D01*
G75*
G02*
X124738000Y-129771000I0J-150000D01*
G01*
X124738000Y-130071000D01*
G75*
G02*
X124588000Y-130221000I-150000J0D01*
G01*
X122938000Y-130221000D01*
G75*
G02*
X122788000Y-130071000I0J150000D01*
G01*
G37*
G36*
G01*
X122788000Y-128801000D02*
X122788000Y-128501000D01*
G75*
G02*
X122938000Y-128351000I150000J0D01*
G01*
X124588000Y-128351000D01*
G75*
G02*
X124738000Y-128501000I0J-150000D01*
G01*
X124738000Y-128801000D01*
G75*
G02*
X124588000Y-128951000I-150000J0D01*
G01*
X122938000Y-128951000D01*
G75*
G02*
X122788000Y-128801000I0J150000D01*
G01*
G37*
%TD*%
D23*
%TO.C,R7*%
X128524000Y-134620000D03*
D24*
X133604000Y-134620000D03*
%TD*%
D18*
%TO.C,J14*%
X114808000Y-130683000D03*
X117348000Y-130683000D03*
D19*
X119888000Y-130683000D03*
%TD*%
D25*
%TO.C,J13*%
X111192000Y-130666000D03*
D26*
X107442000Y-134366000D03*
D25*
X103692000Y-130666000D03*
%TD*%
D27*
%TO.C,C5*%
X132080000Y-129159000D03*
X132080000Y-131659000D03*
%TD*%
%TO.C,C4*%
X123357000Y-134620000D03*
X125857000Y-134620000D03*
%TD*%
D23*
%TO.C,R5*%
X102362000Y-59690000D03*
D24*
X102362000Y-64770000D03*
%TD*%
D28*
%TO.C,U1*%
X104775000Y-64770000D03*
D29*
X120015000Y-113030000D03*
X104775000Y-67310000D03*
X120015000Y-110490000D03*
X104775000Y-69850000D03*
X120015000Y-107950000D03*
X104775000Y-72390000D03*
X120015000Y-105410000D03*
X104775000Y-74930000D03*
X120015000Y-102870000D03*
X104775000Y-77470000D03*
X120015000Y-100330000D03*
X104775000Y-80010000D03*
X120015000Y-97790000D03*
X104775000Y-82550000D03*
X120015000Y-95250000D03*
X104775000Y-85090000D03*
X120015000Y-92710000D03*
X104775000Y-87630000D03*
X120015000Y-90170000D03*
X104775000Y-90170000D03*
X120015000Y-87630000D03*
X104775000Y-92710000D03*
X120015000Y-85090000D03*
X104775000Y-95250000D03*
X120015000Y-82550000D03*
X104775000Y-97790000D03*
X120015000Y-80010000D03*
X104775000Y-100330000D03*
X120015000Y-77470000D03*
X104775000Y-102870000D03*
X120015000Y-74930000D03*
X104775000Y-105410000D03*
X120015000Y-72390000D03*
X104775000Y-107950000D03*
X120015000Y-69850000D03*
X104775000Y-110490000D03*
X120015000Y-67310000D03*
X104775000Y-113030000D03*
X120015000Y-64770000D03*
%TD*%
D23*
%TO.C,R2*%
X133223000Y-78740000D03*
D24*
X128143000Y-78740000D03*
%TD*%
D18*
%TO.C,J3*%
X130683000Y-96520000D03*
X128143000Y-96520000D03*
X130683000Y-93980000D03*
X128143000Y-93980000D03*
X130683000Y-91440000D03*
D19*
X128143000Y-91440000D03*
%TD*%
D27*
%TO.C,C2*%
X102362000Y-90210000D03*
X102362000Y-92710000D03*
%TD*%
D19*
%TO.C,J1*%
X128143000Y-60960000D03*
D18*
X130683000Y-60960000D03*
X128143000Y-63500000D03*
X130683000Y-63500000D03*
X128143000Y-66040000D03*
X130683000Y-66040000D03*
X128143000Y-68580000D03*
X130683000Y-68580000D03*
X128143000Y-71120000D03*
X130683000Y-71120000D03*
X128143000Y-73660000D03*
X130683000Y-73660000D03*
X128143000Y-76200000D03*
X130683000Y-76200000D03*
%TD*%
D23*
%TO.C,R3*%
X125603000Y-93980000D03*
D24*
X125603000Y-88900000D03*
%TD*%
D18*
%TO.C,J2*%
X130683000Y-86360000D03*
X128143000Y-86360000D03*
X130683000Y-83820000D03*
X128143000Y-83820000D03*
X130683000Y-81280000D03*
D19*
X128143000Y-81280000D03*
%TD*%
D23*
%TO.C,R1*%
X125603000Y-83820000D03*
D24*
X125603000Y-78740000D03*
%TD*%
D23*
%TO.C,R4*%
X133223000Y-88900000D03*
D24*
X128143000Y-88900000D03*
%TD*%
D27*
%TO.C,C3*%
X99695000Y-90210000D03*
X99695000Y-92710000D03*
%TD*%
D18*
%TO.C,J4*%
X130683000Y-121920000D03*
X128143000Y-121920000D03*
X130683000Y-119380000D03*
X128143000Y-119380000D03*
X130683000Y-116840000D03*
X128143000Y-116840000D03*
X130683000Y-114300000D03*
X128143000Y-114300000D03*
X130683000Y-111760000D03*
X128143000Y-111760000D03*
X130683000Y-109220000D03*
X128143000Y-109220000D03*
X130683000Y-106680000D03*
X128143000Y-106680000D03*
X130683000Y-104140000D03*
X128143000Y-104140000D03*
X130683000Y-101600000D03*
D19*
X128143000Y-101600000D03*
%TD*%
D27*
%TO.C,C1*%
X105410000Y-116626000D03*
X105410000Y-119126000D03*
%TD*%
D28*
%TO.C,U3*%
X89662000Y-69850000D03*
D29*
X97282000Y-102870000D03*
X89662000Y-72390000D03*
X97282000Y-100330000D03*
X89662000Y-74930000D03*
X97282000Y-97790000D03*
X89662000Y-77470000D03*
X97282000Y-95250000D03*
X89662000Y-80010000D03*
X97282000Y-92710000D03*
X89662000Y-82550000D03*
X97282000Y-90170000D03*
X89662000Y-85090000D03*
X97282000Y-87630000D03*
X89662000Y-87630000D03*
X97282000Y-85090000D03*
X89662000Y-90170000D03*
X97282000Y-82550000D03*
X89662000Y-92710000D03*
X97282000Y-80010000D03*
X89662000Y-95250000D03*
X97282000Y-77470000D03*
X89662000Y-97790000D03*
X97282000Y-74930000D03*
X89662000Y-100330000D03*
X97282000Y-72390000D03*
X89662000Y-102870000D03*
X97282000Y-69850000D03*
%TD*%
%TO.C,U5*%
X101092000Y-114808000D03*
X85852000Y-107188000D03*
X98552000Y-114808000D03*
X88392000Y-107188000D03*
X96012000Y-114808000D03*
X90932000Y-107188000D03*
X93472000Y-114808000D03*
X93472000Y-107188000D03*
X90932000Y-114808000D03*
X96012000Y-107188000D03*
X88392000Y-114808000D03*
X98552000Y-107188000D03*
X85852000Y-114808000D03*
D28*
X101092000Y-107188000D03*
%TD*%
D18*
%TO.C,J11*%
X77851000Y-113411000D03*
X77851000Y-115951000D03*
X77851000Y-118491000D03*
X77851000Y-121031000D03*
D19*
X77851000Y-123571000D03*
%TD*%
D18*
%TO.C,J10*%
X77851000Y-98933000D03*
X77851000Y-101473000D03*
X77851000Y-104013000D03*
X77851000Y-106553000D03*
D19*
X77851000Y-109093000D03*
%TD*%
D18*
%TO.C,J9*%
X77851000Y-84455000D03*
X77851000Y-86995000D03*
X77851000Y-89535000D03*
X77851000Y-92075000D03*
D19*
X77851000Y-94615000D03*
%TD*%
D18*
%TO.C,J8*%
X77851000Y-69977000D03*
X77851000Y-72517000D03*
X77851000Y-75057000D03*
X77851000Y-77597000D03*
D19*
X77851000Y-80137000D03*
%TD*%
%TO.C,U4*%
G36*
G01*
X110270000Y-126351000D02*
X110270000Y-126551000D01*
G75*
G02*
X110170000Y-126651000I-100000J0D01*
G01*
X108895000Y-126651000D01*
G75*
G02*
X108795000Y-126551000I0J100000D01*
G01*
X108795000Y-126351000D01*
G75*
G02*
X108895000Y-126251000I100000J0D01*
G01*
X110170000Y-126251000D01*
G75*
G02*
X110270000Y-126351000I0J-100000D01*
G01*
G37*
G36*
G01*
X110270000Y-125701000D02*
X110270000Y-125901000D01*
G75*
G02*
X110170000Y-126001000I-100000J0D01*
G01*
X108895000Y-126001000D01*
G75*
G02*
X108795000Y-125901000I0J100000D01*
G01*
X108795000Y-125701000D01*
G75*
G02*
X108895000Y-125601000I100000J0D01*
G01*
X110170000Y-125601000D01*
G75*
G02*
X110270000Y-125701000I0J-100000D01*
G01*
G37*
G36*
G01*
X110270000Y-125051000D02*
X110270000Y-125251000D01*
G75*
G02*
X110170000Y-125351000I-100000J0D01*
G01*
X108895000Y-125351000D01*
G75*
G02*
X108795000Y-125251000I0J100000D01*
G01*
X108795000Y-125051000D01*
G75*
G02*
X108895000Y-124951000I100000J0D01*
G01*
X110170000Y-124951000D01*
G75*
G02*
X110270000Y-125051000I0J-100000D01*
G01*
G37*
G36*
G01*
X110270000Y-124401000D02*
X110270000Y-124601000D01*
G75*
G02*
X110170000Y-124701000I-100000J0D01*
G01*
X108895000Y-124701000D01*
G75*
G02*
X108795000Y-124601000I0J100000D01*
G01*
X108795000Y-124401000D01*
G75*
G02*
X108895000Y-124301000I100000J0D01*
G01*
X110170000Y-124301000D01*
G75*
G02*
X110270000Y-124401000I0J-100000D01*
G01*
G37*
G36*
G01*
X115995000Y-124401000D02*
X115995000Y-124601000D01*
G75*
G02*
X115895000Y-124701000I-100000J0D01*
G01*
X114620000Y-124701000D01*
G75*
G02*
X114520000Y-124601000I0J100000D01*
G01*
X114520000Y-124401000D01*
G75*
G02*
X114620000Y-124301000I100000J0D01*
G01*
X115895000Y-124301000D01*
G75*
G02*
X115995000Y-124401000I0J-100000D01*
G01*
G37*
G36*
G01*
X115995000Y-125051000D02*
X115995000Y-125251000D01*
G75*
G02*
X115895000Y-125351000I-100000J0D01*
G01*
X114620000Y-125351000D01*
G75*
G02*
X114520000Y-125251000I0J100000D01*
G01*
X114520000Y-125051000D01*
G75*
G02*
X114620000Y-124951000I100000J0D01*
G01*
X115895000Y-124951000D01*
G75*
G02*
X115995000Y-125051000I0J-100000D01*
G01*
G37*
G36*
G01*
X115995000Y-125701000D02*
X115995000Y-125901000D01*
G75*
G02*
X115895000Y-126001000I-100000J0D01*
G01*
X114620000Y-126001000D01*
G75*
G02*
X114520000Y-125901000I0J100000D01*
G01*
X114520000Y-125701000D01*
G75*
G02*
X114620000Y-125601000I100000J0D01*
G01*
X115895000Y-125601000D01*
G75*
G02*
X115995000Y-125701000I0J-100000D01*
G01*
G37*
G36*
G01*
X115995000Y-126351000D02*
X115995000Y-126551000D01*
G75*
G02*
X115895000Y-126651000I-100000J0D01*
G01*
X114620000Y-126651000D01*
G75*
G02*
X114520000Y-126551000I0J100000D01*
G01*
X114520000Y-126351000D01*
G75*
G02*
X114620000Y-126251000I100000J0D01*
G01*
X115895000Y-126251000D01*
G75*
G02*
X115995000Y-126351000I0J-100000D01*
G01*
G37*
%TD*%
%TO.C,U2*%
G36*
G01*
X115195000Y-117625000D02*
X115195000Y-117325000D01*
G75*
G02*
X115345000Y-117175000I150000J0D01*
G01*
X116645000Y-117175000D01*
G75*
G02*
X116795000Y-117325000I0J-150000D01*
G01*
X116795000Y-117625000D01*
G75*
G02*
X116645000Y-117775000I-150000J0D01*
G01*
X115345000Y-117775000D01*
G75*
G02*
X115195000Y-117625000I0J150000D01*
G01*
G37*
G36*
G01*
X115195000Y-118895000D02*
X115195000Y-118595000D01*
G75*
G02*
X115345000Y-118445000I150000J0D01*
G01*
X116645000Y-118445000D01*
G75*
G02*
X116795000Y-118595000I0J-150000D01*
G01*
X116795000Y-118895000D01*
G75*
G02*
X116645000Y-119045000I-150000J0D01*
G01*
X115345000Y-119045000D01*
G75*
G02*
X115195000Y-118895000I0J150000D01*
G01*
G37*
G36*
G01*
X115195000Y-120165000D02*
X115195000Y-119865000D01*
G75*
G02*
X115345000Y-119715000I150000J0D01*
G01*
X116645000Y-119715000D01*
G75*
G02*
X116795000Y-119865000I0J-150000D01*
G01*
X116795000Y-120165000D01*
G75*
G02*
X116645000Y-120315000I-150000J0D01*
G01*
X115345000Y-120315000D01*
G75*
G02*
X115195000Y-120165000I0J150000D01*
G01*
G37*
G36*
G01*
X115195000Y-121435000D02*
X115195000Y-121135000D01*
G75*
G02*
X115345000Y-120985000I150000J0D01*
G01*
X116645000Y-120985000D01*
G75*
G02*
X116795000Y-121135000I0J-150000D01*
G01*
X116795000Y-121435000D01*
G75*
G02*
X116645000Y-121585000I-150000J0D01*
G01*
X115345000Y-121585000D01*
G75*
G02*
X115195000Y-121435000I0J150000D01*
G01*
G37*
G36*
G01*
X107995000Y-121435000D02*
X107995000Y-121135000D01*
G75*
G02*
X108145000Y-120985000I150000J0D01*
G01*
X109445000Y-120985000D01*
G75*
G02*
X109595000Y-121135000I0J-150000D01*
G01*
X109595000Y-121435000D01*
G75*
G02*
X109445000Y-121585000I-150000J0D01*
G01*
X108145000Y-121585000D01*
G75*
G02*
X107995000Y-121435000I0J150000D01*
G01*
G37*
G36*
G01*
X107995000Y-120165000D02*
X107995000Y-119865000D01*
G75*
G02*
X108145000Y-119715000I150000J0D01*
G01*
X109445000Y-119715000D01*
G75*
G02*
X109595000Y-119865000I0J-150000D01*
G01*
X109595000Y-120165000D01*
G75*
G02*
X109445000Y-120315000I-150000J0D01*
G01*
X108145000Y-120315000D01*
G75*
G02*
X107995000Y-120165000I0J150000D01*
G01*
G37*
G36*
G01*
X107995000Y-118895000D02*
X107995000Y-118595000D01*
G75*
G02*
X108145000Y-118445000I150000J0D01*
G01*
X109445000Y-118445000D01*
G75*
G02*
X109595000Y-118595000I0J-150000D01*
G01*
X109595000Y-118895000D01*
G75*
G02*
X109445000Y-119045000I-150000J0D01*
G01*
X108145000Y-119045000D01*
G75*
G02*
X107995000Y-118895000I0J150000D01*
G01*
G37*
G36*
G01*
X107995000Y-117625000D02*
X107995000Y-117325000D01*
G75*
G02*
X108145000Y-117175000I150000J0D01*
G01*
X109445000Y-117175000D01*
G75*
G02*
X109595000Y-117325000I0J-150000D01*
G01*
X109595000Y-117625000D01*
G75*
G02*
X109445000Y-117775000I-150000J0D01*
G01*
X108145000Y-117775000D01*
G75*
G02*
X107995000Y-117625000I0J150000D01*
G01*
G37*
%TD*%
%TO.C,J16*%
G36*
G01*
X69609000Y-59893000D02*
X71359000Y-59893000D01*
G75*
G02*
X72234000Y-60768000I0J-875000D01*
G01*
X72234000Y-62518000D01*
G75*
G02*
X71359000Y-63393000I-875000J0D01*
G01*
X69609000Y-63393000D01*
G75*
G02*
X68734000Y-62518000I0J875000D01*
G01*
X68734000Y-60768000D01*
G75*
G02*
X69609000Y-59893000I875000J0D01*
G01*
G37*
G36*
G01*
X74184000Y-57143000D02*
X76184000Y-57143000D01*
G75*
G02*
X76934000Y-57893000I0J-750000D01*
G01*
X76934000Y-59393000D01*
G75*
G02*
X76184000Y-60143000I-750000J0D01*
G01*
X74184000Y-60143000D01*
G75*
G02*
X73434000Y-59393000I0J750000D01*
G01*
X73434000Y-57893000D01*
G75*
G02*
X74184000Y-57143000I750000J0D01*
G01*
G37*
D30*
X75184000Y-64643000D03*
%TD*%
D31*
%TO.C,J7*%
X87218000Y-127900000D03*
X99258000Y-127900000D03*
D32*
X94488000Y-125190000D03*
X91988000Y-125190000D03*
X91988000Y-123190000D03*
D19*
X94488000Y-123190000D03*
%TD*%
D23*
%TO.C,R6*%
X102362000Y-67310000D03*
D24*
X102362000Y-72390000D03*
%TD*%
D19*
%TO.C,J12*%
X125476000Y-101600000D03*
D18*
X125476000Y-104140000D03*
X125476000Y-106680000D03*
X125476000Y-109220000D03*
X125476000Y-111760000D03*
X125476000Y-114300000D03*
X125476000Y-116840000D03*
X125476000Y-119380000D03*
X125476000Y-121920000D03*
X125476000Y-124460000D03*
%TD*%
M02*
