%FSLAX45Y45*%
G04 Gerber Fmt 4.5, Leading zero omitted, Abs format (unit mm)*
G04 Created by KiCad (PCBNEW 5.1.10-88a1d61d58~88~ubuntu20.04.1) date 2021-07-15 22:03:34*
%MOMM*%
%LPD*%
G01*
G04 APERTURE LIST*
%TA.AperFunction,Profile*%
%ADD10C,0.050000*%
%TD*%
%ADD11C,0.200000*%
%ADD12C,0.300000*%
G04 APERTURE END LIST*
D10*
X6654800Y-13690600D02*
X6908800Y-13944600D01*
X6908800Y-5194300D02*
X6654800Y-5448300D01*
X13639800Y-5448300D02*
X13385800Y-5194300D01*
X13385800Y-13944600D02*
X13639800Y-13690600D01*
X6654800Y-13690600D02*
X6654800Y-5448300D01*
X13385800Y-13944600D02*
X6908800Y-13944600D01*
X13639800Y-5448300D02*
X13639800Y-13690600D01*
X6908800Y-5194300D02*
X13385800Y-5194300D01*
D11*
D12*
X6691228Y-14412814D02*
X6691228Y-14112814D01*
X6762657Y-14112814D01*
X6805514Y-14127100D01*
X6834086Y-14155671D01*
X6848371Y-14184243D01*
X6862657Y-14241386D01*
X6862657Y-14284243D01*
X6848371Y-14341386D01*
X6834086Y-14369957D01*
X6805514Y-14398529D01*
X6762657Y-14412814D01*
X6691228Y-14412814D01*
X6991228Y-14412814D02*
X6991228Y-14212814D01*
X6991228Y-14269957D02*
X7005514Y-14241386D01*
X7019800Y-14227100D01*
X7048371Y-14212814D01*
X7076943Y-14212814D01*
X7176943Y-14412814D02*
X7176943Y-14212814D01*
X7176943Y-14112814D02*
X7162657Y-14127100D01*
X7176943Y-14141386D01*
X7191228Y-14127100D01*
X7176943Y-14112814D01*
X7176943Y-14141386D01*
X7362657Y-14412814D02*
X7334086Y-14398529D01*
X7319800Y-14369957D01*
X7319800Y-14112814D01*
X7519800Y-14412814D02*
X7491228Y-14398529D01*
X7476943Y-14369957D01*
X7476943Y-14112814D01*
X7862657Y-14412814D02*
X7862657Y-14112814D01*
X7962657Y-14327100D01*
X8062657Y-14112814D01*
X8062657Y-14412814D01*
X8334086Y-14412814D02*
X8334086Y-14255671D01*
X8319800Y-14227100D01*
X8291228Y-14212814D01*
X8234086Y-14212814D01*
X8205514Y-14227100D01*
X8334086Y-14398529D02*
X8305514Y-14412814D01*
X8234086Y-14412814D01*
X8205514Y-14398529D01*
X8191228Y-14369957D01*
X8191228Y-14341386D01*
X8205514Y-14312814D01*
X8234086Y-14298529D01*
X8305514Y-14298529D01*
X8334086Y-14284243D01*
X8476943Y-14212814D02*
X8476943Y-14512814D01*
X8476943Y-14227100D02*
X8505514Y-14212814D01*
X8562657Y-14212814D01*
X8591229Y-14227100D01*
X8605514Y-14241386D01*
X8619800Y-14269957D01*
X8619800Y-14355671D01*
X8605514Y-14384243D01*
X8591229Y-14398529D01*
X8562657Y-14412814D01*
X8505514Y-14412814D01*
X8476943Y-14398529D01*
X8748371Y-14384243D02*
X8762657Y-14398529D01*
X8748371Y-14412814D01*
X8734086Y-14398529D01*
X8748371Y-14384243D01*
X8748371Y-14412814D01*
X8748371Y-14227100D02*
X8762657Y-14241386D01*
X8748371Y-14255671D01*
X8734086Y-14241386D01*
X8748371Y-14227100D01*
X8748371Y-14255671D01*
M02*
