%TF.GenerationSoftware,KiCad,Pcbnew,5.1.10-88a1d61d58~88~ubuntu20.04.1*%
%TF.CreationDate,2021-07-15T21:57:41-05:00*%
%TF.ProjectId,pictas,70696374-6173-42e6-9b69-6361645f7063,rev?*%
%TF.SameCoordinates,Original*%
%TF.FileFunction,Paste,Top*%
%TF.FilePolarity,Positive*%
%FSLAX46Y46*%
G04 Gerber Fmt 4.6, Leading zero omitted, Abs format (unit mm)*
G04 Created by KiCad (PCBNEW 5.1.10-88a1d61d58~88~ubuntu20.04.1) date 2021-07-15 21:57:41*
%MOMM*%
%LPD*%
G01*
G04 APERTURE LIST*
G04 APERTURE END LIST*
%TO.C,U6*%
G36*
G01*
X127738000Y-128801000D02*
X127738000Y-128501000D01*
G75*
G02*
X127888000Y-128351000I150000J0D01*
G01*
X129538000Y-128351000D01*
G75*
G02*
X129688000Y-128501000I0J-150000D01*
G01*
X129688000Y-128801000D01*
G75*
G02*
X129538000Y-128951000I-150000J0D01*
G01*
X127888000Y-128951000D01*
G75*
G02*
X127738000Y-128801000I0J150000D01*
G01*
G37*
G36*
G01*
X127738000Y-130071000D02*
X127738000Y-129771000D01*
G75*
G02*
X127888000Y-129621000I150000J0D01*
G01*
X129538000Y-129621000D01*
G75*
G02*
X129688000Y-129771000I0J-150000D01*
G01*
X129688000Y-130071000D01*
G75*
G02*
X129538000Y-130221000I-150000J0D01*
G01*
X127888000Y-130221000D01*
G75*
G02*
X127738000Y-130071000I0J150000D01*
G01*
G37*
G36*
G01*
X127738000Y-131341000D02*
X127738000Y-131041000D01*
G75*
G02*
X127888000Y-130891000I150000J0D01*
G01*
X129538000Y-130891000D01*
G75*
G02*
X129688000Y-131041000I0J-150000D01*
G01*
X129688000Y-131341000D01*
G75*
G02*
X129538000Y-131491000I-150000J0D01*
G01*
X127888000Y-131491000D01*
G75*
G02*
X127738000Y-131341000I0J150000D01*
G01*
G37*
G36*
G01*
X127738000Y-132611000D02*
X127738000Y-132311000D01*
G75*
G02*
X127888000Y-132161000I150000J0D01*
G01*
X129538000Y-132161000D01*
G75*
G02*
X129688000Y-132311000I0J-150000D01*
G01*
X129688000Y-132611000D01*
G75*
G02*
X129538000Y-132761000I-150000J0D01*
G01*
X127888000Y-132761000D01*
G75*
G02*
X127738000Y-132611000I0J150000D01*
G01*
G37*
G36*
G01*
X122788000Y-132611000D02*
X122788000Y-132311000D01*
G75*
G02*
X122938000Y-132161000I150000J0D01*
G01*
X124588000Y-132161000D01*
G75*
G02*
X124738000Y-132311000I0J-150000D01*
G01*
X124738000Y-132611000D01*
G75*
G02*
X124588000Y-132761000I-150000J0D01*
G01*
X122938000Y-132761000D01*
G75*
G02*
X122788000Y-132611000I0J150000D01*
G01*
G37*
G36*
G01*
X122788000Y-131341000D02*
X122788000Y-131041000D01*
G75*
G02*
X122938000Y-130891000I150000J0D01*
G01*
X124588000Y-130891000D01*
G75*
G02*
X124738000Y-131041000I0J-150000D01*
G01*
X124738000Y-131341000D01*
G75*
G02*
X124588000Y-131491000I-150000J0D01*
G01*
X122938000Y-131491000D01*
G75*
G02*
X122788000Y-131341000I0J150000D01*
G01*
G37*
G36*
G01*
X122788000Y-130071000D02*
X122788000Y-129771000D01*
G75*
G02*
X122938000Y-129621000I150000J0D01*
G01*
X124588000Y-129621000D01*
G75*
G02*
X124738000Y-129771000I0J-150000D01*
G01*
X124738000Y-130071000D01*
G75*
G02*
X124588000Y-130221000I-150000J0D01*
G01*
X122938000Y-130221000D01*
G75*
G02*
X122788000Y-130071000I0J150000D01*
G01*
G37*
G36*
G01*
X122788000Y-128801000D02*
X122788000Y-128501000D01*
G75*
G02*
X122938000Y-128351000I150000J0D01*
G01*
X124588000Y-128351000D01*
G75*
G02*
X124738000Y-128501000I0J-150000D01*
G01*
X124738000Y-128801000D01*
G75*
G02*
X124588000Y-128951000I-150000J0D01*
G01*
X122938000Y-128951000D01*
G75*
G02*
X122788000Y-128801000I0J150000D01*
G01*
G37*
%TD*%
%TO.C,U4*%
G36*
G01*
X110270000Y-126351000D02*
X110270000Y-126551000D01*
G75*
G02*
X110170000Y-126651000I-100000J0D01*
G01*
X108895000Y-126651000D01*
G75*
G02*
X108795000Y-126551000I0J100000D01*
G01*
X108795000Y-126351000D01*
G75*
G02*
X108895000Y-126251000I100000J0D01*
G01*
X110170000Y-126251000D01*
G75*
G02*
X110270000Y-126351000I0J-100000D01*
G01*
G37*
G36*
G01*
X110270000Y-125701000D02*
X110270000Y-125901000D01*
G75*
G02*
X110170000Y-126001000I-100000J0D01*
G01*
X108895000Y-126001000D01*
G75*
G02*
X108795000Y-125901000I0J100000D01*
G01*
X108795000Y-125701000D01*
G75*
G02*
X108895000Y-125601000I100000J0D01*
G01*
X110170000Y-125601000D01*
G75*
G02*
X110270000Y-125701000I0J-100000D01*
G01*
G37*
G36*
G01*
X110270000Y-125051000D02*
X110270000Y-125251000D01*
G75*
G02*
X110170000Y-125351000I-100000J0D01*
G01*
X108895000Y-125351000D01*
G75*
G02*
X108795000Y-125251000I0J100000D01*
G01*
X108795000Y-125051000D01*
G75*
G02*
X108895000Y-124951000I100000J0D01*
G01*
X110170000Y-124951000D01*
G75*
G02*
X110270000Y-125051000I0J-100000D01*
G01*
G37*
G36*
G01*
X110270000Y-124401000D02*
X110270000Y-124601000D01*
G75*
G02*
X110170000Y-124701000I-100000J0D01*
G01*
X108895000Y-124701000D01*
G75*
G02*
X108795000Y-124601000I0J100000D01*
G01*
X108795000Y-124401000D01*
G75*
G02*
X108895000Y-124301000I100000J0D01*
G01*
X110170000Y-124301000D01*
G75*
G02*
X110270000Y-124401000I0J-100000D01*
G01*
G37*
G36*
G01*
X115995000Y-124401000D02*
X115995000Y-124601000D01*
G75*
G02*
X115895000Y-124701000I-100000J0D01*
G01*
X114620000Y-124701000D01*
G75*
G02*
X114520000Y-124601000I0J100000D01*
G01*
X114520000Y-124401000D01*
G75*
G02*
X114620000Y-124301000I100000J0D01*
G01*
X115895000Y-124301000D01*
G75*
G02*
X115995000Y-124401000I0J-100000D01*
G01*
G37*
G36*
G01*
X115995000Y-125051000D02*
X115995000Y-125251000D01*
G75*
G02*
X115895000Y-125351000I-100000J0D01*
G01*
X114620000Y-125351000D01*
G75*
G02*
X114520000Y-125251000I0J100000D01*
G01*
X114520000Y-125051000D01*
G75*
G02*
X114620000Y-124951000I100000J0D01*
G01*
X115895000Y-124951000D01*
G75*
G02*
X115995000Y-125051000I0J-100000D01*
G01*
G37*
G36*
G01*
X115995000Y-125701000D02*
X115995000Y-125901000D01*
G75*
G02*
X115895000Y-126001000I-100000J0D01*
G01*
X114620000Y-126001000D01*
G75*
G02*
X114520000Y-125901000I0J100000D01*
G01*
X114520000Y-125701000D01*
G75*
G02*
X114620000Y-125601000I100000J0D01*
G01*
X115895000Y-125601000D01*
G75*
G02*
X115995000Y-125701000I0J-100000D01*
G01*
G37*
G36*
G01*
X115995000Y-126351000D02*
X115995000Y-126551000D01*
G75*
G02*
X115895000Y-126651000I-100000J0D01*
G01*
X114620000Y-126651000D01*
G75*
G02*
X114520000Y-126551000I0J100000D01*
G01*
X114520000Y-126351000D01*
G75*
G02*
X114620000Y-126251000I100000J0D01*
G01*
X115895000Y-126251000D01*
G75*
G02*
X115995000Y-126351000I0J-100000D01*
G01*
G37*
%TD*%
%TO.C,U2*%
G36*
G01*
X115195000Y-117625000D02*
X115195000Y-117325000D01*
G75*
G02*
X115345000Y-117175000I150000J0D01*
G01*
X116645000Y-117175000D01*
G75*
G02*
X116795000Y-117325000I0J-150000D01*
G01*
X116795000Y-117625000D01*
G75*
G02*
X116645000Y-117775000I-150000J0D01*
G01*
X115345000Y-117775000D01*
G75*
G02*
X115195000Y-117625000I0J150000D01*
G01*
G37*
G36*
G01*
X115195000Y-118895000D02*
X115195000Y-118595000D01*
G75*
G02*
X115345000Y-118445000I150000J0D01*
G01*
X116645000Y-118445000D01*
G75*
G02*
X116795000Y-118595000I0J-150000D01*
G01*
X116795000Y-118895000D01*
G75*
G02*
X116645000Y-119045000I-150000J0D01*
G01*
X115345000Y-119045000D01*
G75*
G02*
X115195000Y-118895000I0J150000D01*
G01*
G37*
G36*
G01*
X115195000Y-120165000D02*
X115195000Y-119865000D01*
G75*
G02*
X115345000Y-119715000I150000J0D01*
G01*
X116645000Y-119715000D01*
G75*
G02*
X116795000Y-119865000I0J-150000D01*
G01*
X116795000Y-120165000D01*
G75*
G02*
X116645000Y-120315000I-150000J0D01*
G01*
X115345000Y-120315000D01*
G75*
G02*
X115195000Y-120165000I0J150000D01*
G01*
G37*
G36*
G01*
X115195000Y-121435000D02*
X115195000Y-121135000D01*
G75*
G02*
X115345000Y-120985000I150000J0D01*
G01*
X116645000Y-120985000D01*
G75*
G02*
X116795000Y-121135000I0J-150000D01*
G01*
X116795000Y-121435000D01*
G75*
G02*
X116645000Y-121585000I-150000J0D01*
G01*
X115345000Y-121585000D01*
G75*
G02*
X115195000Y-121435000I0J150000D01*
G01*
G37*
G36*
G01*
X107995000Y-121435000D02*
X107995000Y-121135000D01*
G75*
G02*
X108145000Y-120985000I150000J0D01*
G01*
X109445000Y-120985000D01*
G75*
G02*
X109595000Y-121135000I0J-150000D01*
G01*
X109595000Y-121435000D01*
G75*
G02*
X109445000Y-121585000I-150000J0D01*
G01*
X108145000Y-121585000D01*
G75*
G02*
X107995000Y-121435000I0J150000D01*
G01*
G37*
G36*
G01*
X107995000Y-120165000D02*
X107995000Y-119865000D01*
G75*
G02*
X108145000Y-119715000I150000J0D01*
G01*
X109445000Y-119715000D01*
G75*
G02*
X109595000Y-119865000I0J-150000D01*
G01*
X109595000Y-120165000D01*
G75*
G02*
X109445000Y-120315000I-150000J0D01*
G01*
X108145000Y-120315000D01*
G75*
G02*
X107995000Y-120165000I0J150000D01*
G01*
G37*
G36*
G01*
X107995000Y-118895000D02*
X107995000Y-118595000D01*
G75*
G02*
X108145000Y-118445000I150000J0D01*
G01*
X109445000Y-118445000D01*
G75*
G02*
X109595000Y-118595000I0J-150000D01*
G01*
X109595000Y-118895000D01*
G75*
G02*
X109445000Y-119045000I-150000J0D01*
G01*
X108145000Y-119045000D01*
G75*
G02*
X107995000Y-118895000I0J150000D01*
G01*
G37*
G36*
G01*
X107995000Y-117625000D02*
X107995000Y-117325000D01*
G75*
G02*
X108145000Y-117175000I150000J0D01*
G01*
X109445000Y-117175000D01*
G75*
G02*
X109595000Y-117325000I0J-150000D01*
G01*
X109595000Y-117625000D01*
G75*
G02*
X109445000Y-117775000I-150000J0D01*
G01*
X108145000Y-117775000D01*
G75*
G02*
X107995000Y-117625000I0J150000D01*
G01*
G37*
%TD*%
M02*
