%FSLAX45Y45*%
G04 Gerber Fmt 4.5, Leading zero omitted, Abs format (unit mm)*
G04 Created by KiCad (PCBNEW 5.99.0-unknown-3b7f5a3db7~131~ubuntu20.04.1) date 2021-09-21 00:43:22*
%MOMM*%
%LPD*%
G01*
G04 APERTURE LIST*
%TA.AperFunction,Profile*%
%ADD10C,0.050000*%
%TD*%
%ADD11C,0.200000*%
G04 APERTURE END LIST*
D10*
X6654800Y-13690600D02*
X6654800Y-5283200D01*
X6654800Y-13690600D02*
X6908800Y-13944600D01*
X14147800Y-5283200D02*
X14147800Y-13690600D01*
X6908800Y-5029200D02*
X6654800Y-5283200D01*
X13893800Y-13944600D02*
X14147800Y-13690600D01*
X6908800Y-5029200D02*
X13893800Y-5029200D01*
X14147800Y-5283200D02*
X13893800Y-5029200D01*
X13893800Y-13944600D02*
X6908800Y-13944600D01*
D11*
X6909919Y-14257576D02*
X6909919Y-14057576D01*
X6957538Y-14057576D01*
X6986109Y-14067100D01*
X7005157Y-14086148D01*
X7014681Y-14105195D01*
X7024205Y-14143290D01*
X7024205Y-14171862D01*
X7014681Y-14209957D01*
X7005157Y-14229005D01*
X6986109Y-14248052D01*
X6957538Y-14257576D01*
X6909919Y-14257576D01*
X7109919Y-14257576D02*
X7109919Y-14124243D01*
X7109919Y-14162338D02*
X7119443Y-14143290D01*
X7128967Y-14133767D01*
X7148014Y-14124243D01*
X7167062Y-14124243D01*
X7233728Y-14257576D02*
X7233728Y-14124243D01*
X7233728Y-14057576D02*
X7224205Y-14067100D01*
X7233728Y-14076624D01*
X7243252Y-14067100D01*
X7233728Y-14057576D01*
X7233728Y-14076624D01*
X7357538Y-14257576D02*
X7338490Y-14248052D01*
X7328967Y-14229005D01*
X7328967Y-14057576D01*
X7462300Y-14257576D02*
X7443252Y-14248052D01*
X7433728Y-14229005D01*
X7433728Y-14057576D01*
X7690871Y-14257576D02*
X7690871Y-14057576D01*
X7757538Y-14200433D01*
X7824205Y-14057576D01*
X7824205Y-14257576D01*
X8005157Y-14257576D02*
X8005157Y-14152814D01*
X7995633Y-14133767D01*
X7976586Y-14124243D01*
X7938490Y-14124243D01*
X7919443Y-14133767D01*
X8005157Y-14248052D02*
X7986109Y-14257576D01*
X7938490Y-14257576D01*
X7919443Y-14248052D01*
X7909919Y-14229005D01*
X7909919Y-14209957D01*
X7919443Y-14190909D01*
X7938490Y-14181386D01*
X7986109Y-14181386D01*
X8005157Y-14171862D01*
X8100395Y-14124243D02*
X8100395Y-14324243D01*
X8100395Y-14133767D02*
X8119443Y-14124243D01*
X8157538Y-14124243D01*
X8176586Y-14133767D01*
X8186109Y-14143290D01*
X8195633Y-14162338D01*
X8195633Y-14219481D01*
X8186109Y-14238528D01*
X8176586Y-14248052D01*
X8157538Y-14257576D01*
X8119443Y-14257576D01*
X8100395Y-14248052D01*
X8281348Y-14238528D02*
X8290871Y-14248052D01*
X8281348Y-14257576D01*
X8271824Y-14248052D01*
X8281348Y-14238528D01*
X8281348Y-14257576D01*
X8281348Y-14133767D02*
X8290871Y-14143290D01*
X8281348Y-14152814D01*
X8271824Y-14143290D01*
X8281348Y-14133767D01*
X8281348Y-14152814D01*
M02*
