%FSLAX45Y45*%
G04 Gerber Fmt 4.5, Leading zero omitted, Abs format (unit mm)*
G04 Created by KiCad (PCBNEW 5.99.0-unknown-3b7f5a3db7~131~ubuntu20.04.1) date 2021-09-21 13:08:26*
%MOMM*%
%LPD*%
G01*
G04 APERTURE LIST*
%TA.AperFunction,Profile*%
%ADD10C,0.100000*%
%TD*%
%ADD11C,0.200000*%
%ADD12C,0.080000*%
%ADD13C,0.090000*%
%ADD14C,0.100000*%
G04 APERTURE END LIST*
D10*
X18935700Y-13970000D02*
X15595600Y-10629900D01*
X15595600Y-6311900D02*
X15595600Y-10629900D01*
X16002000Y-5905500D02*
X15595600Y-6311900D01*
X22898100Y-5905500D02*
X16002000Y-5905500D01*
X23101300Y-6108700D02*
X22898100Y-5905500D01*
X23101300Y-10553700D02*
X23101300Y-6108700D01*
X19685000Y-13970000D02*
X23101300Y-10553700D01*
X18935700Y-13970000D02*
X19685000Y-13970000D01*
D11*
D12*
X17992268Y-9523100D02*
X18072268Y-9603100D01*
X18072268Y-9523100D02*
X17992268Y-9603100D01*
X17992268Y-9827900D02*
X18072268Y-9907900D01*
X18072268Y-9827900D02*
X17992268Y-9907900D01*
X17992268Y-10132700D02*
X18072268Y-10212700D01*
X18072268Y-10132700D02*
X17992268Y-10212700D01*
X17992268Y-10437500D02*
X18072268Y-10517500D01*
X18072268Y-10437500D02*
X17992268Y-10517500D01*
X17992268Y-10742300D02*
X18072268Y-10822300D01*
X18072268Y-10742300D02*
X17992268Y-10822300D01*
X19008268Y-9523100D02*
X19088268Y-9603100D01*
X19088268Y-9523100D02*
X19008268Y-9603100D01*
X19008268Y-9827900D02*
X19088268Y-9907900D01*
X19088268Y-9827900D02*
X19008268Y-9907900D01*
X19008268Y-10132700D02*
X19088268Y-10212700D01*
X19088268Y-10132700D02*
X19008268Y-10212700D01*
X19008268Y-10437500D02*
X19088268Y-10517500D01*
X19088268Y-10437500D02*
X19008268Y-10517500D01*
X19008268Y-10742300D02*
X19088268Y-10822300D01*
X19088268Y-10742300D02*
X19008268Y-10822300D01*
X19516680Y-8989700D02*
X19596680Y-9069700D01*
X19596680Y-8989700D02*
X19516680Y-9069700D01*
X19516680Y-9243700D02*
X19596680Y-9323700D01*
X19596680Y-9243700D02*
X19516680Y-9323700D01*
X19516680Y-9497700D02*
X19596680Y-9577700D01*
X19596680Y-9497700D02*
X19516680Y-9577700D01*
X19516680Y-9751700D02*
X19596680Y-9831700D01*
X19596680Y-9751700D02*
X19516680Y-9831700D01*
X19516680Y-10005700D02*
X19596680Y-10085700D01*
X19596680Y-10005700D02*
X19516680Y-10085700D01*
X19516680Y-10259700D02*
X19596680Y-10339700D01*
X19596680Y-10259700D02*
X19516680Y-10339700D01*
X19516680Y-10513700D02*
X19596680Y-10593700D01*
X19596680Y-10513700D02*
X19516680Y-10593700D01*
X19516680Y-10767700D02*
X19596680Y-10847700D01*
X19596680Y-10767700D02*
X19516680Y-10847700D01*
X19516680Y-11021700D02*
X19596680Y-11101700D01*
X19596680Y-11021700D02*
X19516680Y-11101700D01*
X19516680Y-11275700D02*
X19596680Y-11355700D01*
X19596680Y-11275700D02*
X19516680Y-11355700D01*
X20278680Y-8989700D02*
X20358680Y-9069700D01*
X20358680Y-8989700D02*
X20278680Y-9069700D01*
X20278680Y-9243700D02*
X20358680Y-9323700D01*
X20358680Y-9243700D02*
X20278680Y-9323700D01*
X20278680Y-9497700D02*
X20358680Y-9577700D01*
X20358680Y-9497700D02*
X20278680Y-9577700D01*
X20278680Y-9751700D02*
X20358680Y-9831700D01*
X20358680Y-9751700D02*
X20278680Y-9831700D01*
X20278680Y-10005700D02*
X20358680Y-10085700D01*
X20358680Y-10005700D02*
X20278680Y-10085700D01*
X20278680Y-10259700D02*
X20358680Y-10339700D01*
X20358680Y-10259700D02*
X20278680Y-10339700D01*
X20278680Y-10513700D02*
X20358680Y-10593700D01*
X20358680Y-10513700D02*
X20278680Y-10593700D01*
X20278680Y-10767700D02*
X20358680Y-10847700D01*
X20358680Y-10767700D02*
X20278680Y-10847700D01*
X20278680Y-11021700D02*
X20358680Y-11101700D01*
X20358680Y-11021700D02*
X20278680Y-11101700D01*
X20278680Y-11275700D02*
X20358680Y-11355700D01*
X20358680Y-11275700D02*
X20278680Y-11355700D01*
X20838800Y-7427600D02*
X20918800Y-7507600D01*
X20918800Y-7427600D02*
X20838800Y-7507600D01*
X20838800Y-8189600D02*
X20918800Y-8269600D01*
X20918800Y-8189600D02*
X20838800Y-8269600D01*
X21092800Y-7427600D02*
X21172800Y-7507600D01*
X21172800Y-7427600D02*
X21092800Y-7507600D01*
X21092800Y-8189600D02*
X21172800Y-8269600D01*
X21172800Y-8189600D02*
X21092800Y-8269600D01*
X21346800Y-7427600D02*
X21426800Y-7507600D01*
X21426800Y-7427600D02*
X21346800Y-7507600D01*
X21346800Y-8189600D02*
X21426800Y-8269600D01*
X21426800Y-8189600D02*
X21346800Y-8269600D01*
X21600800Y-7427600D02*
X21680800Y-7507600D01*
X21680800Y-7427600D02*
X21600800Y-7507600D01*
X21600800Y-8189600D02*
X21680800Y-8269600D01*
X21680800Y-8189600D02*
X21600800Y-8269600D01*
X21854800Y-7427600D02*
X21934800Y-7507600D01*
X21934800Y-7427600D02*
X21854800Y-7507600D01*
X21854800Y-8189600D02*
X21934800Y-8269600D01*
X21934800Y-8189600D02*
X21854800Y-8269600D01*
X22108800Y-7427600D02*
X22188800Y-7507600D01*
X22188800Y-7427600D02*
X22108800Y-7507600D01*
X22108800Y-8189600D02*
X22188800Y-8269600D01*
X22188800Y-8189600D02*
X22108800Y-8269600D01*
X22362800Y-7427600D02*
X22442800Y-7507600D01*
X22442800Y-7427600D02*
X22362800Y-7507600D01*
X22362800Y-8189600D02*
X22442800Y-8269600D01*
X22442800Y-8189600D02*
X22362800Y-8269600D01*
X22616800Y-7427600D02*
X22696800Y-7507600D01*
X22696800Y-7427600D02*
X22616800Y-7507600D01*
X22616800Y-8189600D02*
X22696800Y-8269600D01*
X22696800Y-8189600D02*
X22616800Y-8269600D01*
D13*
X16021100Y-10172700D02*
G75*
G03*
X16021100Y-10172700I-45000J0D01*
G01*
X16275100Y-10172700D02*
G75*
G03*
X16275100Y-10172700I-45000J0D01*
G01*
X16428500Y-6667500D02*
G75*
G03*
X16428500Y-6667500I-45000J0D01*
G01*
X16682500Y-6667500D02*
G75*
G03*
X16682500Y-6667500I-45000J0D01*
G01*
X19222500Y-6972300D02*
G75*
G03*
X19222500Y-6972300I-45000J0D01*
G01*
X19222500Y-13373100D02*
G75*
G03*
X19222500Y-13373100I-45000J0D01*
G01*
X19476500Y-6972300D02*
G75*
G03*
X19476500Y-6972300I-45000J0D01*
G01*
X19476500Y-13373100D02*
G75*
G03*
X19476500Y-13373100I-45000J0D01*
G01*
X22421900Y-10172700D02*
G75*
G03*
X22421900Y-10172700I-45000J0D01*
G01*
X22675900Y-10172700D02*
G75*
G03*
X22675900Y-10172700I-45000J0D01*
G01*
D14*
X21640800Y-6922300D02*
X21640800Y-7022300D01*
X21590800Y-6972300D02*
X21690800Y-6972300D01*
X21894800Y-6922300D02*
X21894800Y-7022300D01*
X21844800Y-6972300D02*
X21944800Y-6972300D01*
X22148800Y-6922300D02*
X22148800Y-7022300D01*
X22098800Y-6972300D02*
X22198800Y-6972300D01*
X22402800Y-6922300D02*
X22402800Y-7022300D01*
X22352800Y-6972300D02*
X22452800Y-6972300D01*
X22656800Y-6922300D02*
X22656800Y-7022300D01*
X22606800Y-6972300D02*
X22706800Y-6972300D01*
D11*
X15848219Y-14285476D02*
X15848219Y-14085476D01*
X15895838Y-14085476D01*
X15924409Y-14095000D01*
X15943457Y-14114048D01*
X15952981Y-14133095D01*
X15962505Y-14171190D01*
X15962505Y-14199762D01*
X15952981Y-14237857D01*
X15943457Y-14256905D01*
X15924409Y-14275952D01*
X15895838Y-14285476D01*
X15848219Y-14285476D01*
X16048219Y-14285476D02*
X16048219Y-14152143D01*
X16048219Y-14190238D02*
X16057743Y-14171190D01*
X16067267Y-14161667D01*
X16086314Y-14152143D01*
X16105362Y-14152143D01*
X16172028Y-14285476D02*
X16172028Y-14152143D01*
X16172028Y-14085476D02*
X16162505Y-14095000D01*
X16172028Y-14104524D01*
X16181552Y-14095000D01*
X16172028Y-14085476D01*
X16172028Y-14104524D01*
X16295838Y-14285476D02*
X16276790Y-14275952D01*
X16267267Y-14256905D01*
X16267267Y-14085476D01*
X16400600Y-14285476D02*
X16381552Y-14275952D01*
X16372028Y-14256905D01*
X16372028Y-14085476D01*
X16629171Y-14285476D02*
X16629171Y-14085476D01*
X16695838Y-14228333D01*
X16762505Y-14085476D01*
X16762505Y-14285476D01*
X16943457Y-14285476D02*
X16943457Y-14180714D01*
X16933933Y-14161667D01*
X16914886Y-14152143D01*
X16876790Y-14152143D01*
X16857743Y-14161667D01*
X16943457Y-14275952D02*
X16924410Y-14285476D01*
X16876790Y-14285476D01*
X16857743Y-14275952D01*
X16848219Y-14256905D01*
X16848219Y-14237857D01*
X16857743Y-14218809D01*
X16876790Y-14209286D01*
X16924410Y-14209286D01*
X16943457Y-14199762D01*
X17038695Y-14152143D02*
X17038695Y-14352143D01*
X17038695Y-14161667D02*
X17057743Y-14152143D01*
X17095838Y-14152143D01*
X17114886Y-14161667D01*
X17124410Y-14171190D01*
X17133933Y-14190238D01*
X17133933Y-14247381D01*
X17124410Y-14266428D01*
X17114886Y-14275952D01*
X17095838Y-14285476D01*
X17057743Y-14285476D01*
X17038695Y-14275952D01*
X17219648Y-14266428D02*
X17229171Y-14275952D01*
X17219648Y-14285476D01*
X17210124Y-14275952D01*
X17219648Y-14266428D01*
X17219648Y-14285476D01*
X17219648Y-14161667D02*
X17229171Y-14171190D01*
X17219648Y-14180714D01*
X17210124Y-14171190D01*
X17219648Y-14161667D01*
X17219648Y-14180714D01*
D12*
X15510600Y-14575000D02*
X15590600Y-14655000D01*
X15590600Y-14575000D02*
X15510600Y-14655000D01*
D11*
X15886314Y-14505476D02*
X15905362Y-14505476D01*
X15924409Y-14515000D01*
X15933933Y-14524524D01*
X15943457Y-14543571D01*
X15952981Y-14581667D01*
X15952981Y-14629286D01*
X15943457Y-14667381D01*
X15933933Y-14686428D01*
X15924409Y-14695952D01*
X15905362Y-14705476D01*
X15886314Y-14705476D01*
X15867267Y-14695952D01*
X15857743Y-14686428D01*
X15848219Y-14667381D01*
X15838695Y-14629286D01*
X15838695Y-14581667D01*
X15848219Y-14543571D01*
X15857743Y-14524524D01*
X15867267Y-14515000D01*
X15886314Y-14505476D01*
X16038695Y-14686428D02*
X16048219Y-14695952D01*
X16038695Y-14705476D01*
X16029171Y-14695952D01*
X16038695Y-14686428D01*
X16038695Y-14705476D01*
X16162505Y-14591190D02*
X16143457Y-14581667D01*
X16133933Y-14572143D01*
X16124409Y-14553095D01*
X16124409Y-14543571D01*
X16133933Y-14524524D01*
X16143457Y-14515000D01*
X16162505Y-14505476D01*
X16200600Y-14505476D01*
X16219648Y-14515000D01*
X16229171Y-14524524D01*
X16238695Y-14543571D01*
X16238695Y-14553095D01*
X16229171Y-14572143D01*
X16219648Y-14581667D01*
X16200600Y-14591190D01*
X16162505Y-14591190D01*
X16143457Y-14600714D01*
X16133933Y-14610238D01*
X16124409Y-14629286D01*
X16124409Y-14667381D01*
X16133933Y-14686428D01*
X16143457Y-14695952D01*
X16162505Y-14705476D01*
X16200600Y-14705476D01*
X16219648Y-14695952D01*
X16229171Y-14686428D01*
X16238695Y-14667381D01*
X16238695Y-14629286D01*
X16229171Y-14610238D01*
X16219648Y-14600714D01*
X16200600Y-14591190D01*
X16362505Y-14505476D02*
X16381552Y-14505476D01*
X16400600Y-14515000D01*
X16410124Y-14524524D01*
X16419648Y-14543571D01*
X16429171Y-14581667D01*
X16429171Y-14629286D01*
X16419648Y-14667381D01*
X16410124Y-14686428D01*
X16400600Y-14695952D01*
X16381552Y-14705476D01*
X16362505Y-14705476D01*
X16343457Y-14695952D01*
X16333933Y-14686428D01*
X16324409Y-14667381D01*
X16314886Y-14629286D01*
X16314886Y-14581667D01*
X16324409Y-14543571D01*
X16333933Y-14524524D01*
X16343457Y-14515000D01*
X16362505Y-14505476D01*
X16552981Y-14505476D02*
X16572028Y-14505476D01*
X16591076Y-14515000D01*
X16600600Y-14524524D01*
X16610124Y-14543571D01*
X16619648Y-14581667D01*
X16619648Y-14629286D01*
X16610124Y-14667381D01*
X16600600Y-14686428D01*
X16591076Y-14695952D01*
X16572028Y-14705476D01*
X16552981Y-14705476D01*
X16533933Y-14695952D01*
X16524409Y-14686428D01*
X16514886Y-14667381D01*
X16505362Y-14629286D01*
X16505362Y-14581667D01*
X16514886Y-14543571D01*
X16524409Y-14524524D01*
X16533933Y-14515000D01*
X16552981Y-14505476D01*
X16705362Y-14705476D02*
X16705362Y-14572143D01*
X16705362Y-14591190D02*
X16714886Y-14581667D01*
X16733933Y-14572143D01*
X16762505Y-14572143D01*
X16781552Y-14581667D01*
X16791076Y-14600714D01*
X16791076Y-14705476D01*
X16791076Y-14600714D02*
X16800600Y-14581667D01*
X16819648Y-14572143D01*
X16848219Y-14572143D01*
X16867267Y-14581667D01*
X16876790Y-14600714D01*
X16876790Y-14705476D01*
X16972029Y-14705476D02*
X16972029Y-14572143D01*
X16972029Y-14591190D02*
X16981552Y-14581667D01*
X17000600Y-14572143D01*
X17029171Y-14572143D01*
X17048219Y-14581667D01*
X17057743Y-14600714D01*
X17057743Y-14705476D01*
X17057743Y-14600714D02*
X17067267Y-14581667D01*
X17086314Y-14572143D01*
X17114886Y-14572143D01*
X17133933Y-14581667D01*
X17143457Y-14600714D01*
X17143457Y-14705476D01*
X17533933Y-14495952D02*
X17362505Y-14753095D01*
X17791076Y-14505476D02*
X17810124Y-14505476D01*
X17829171Y-14515000D01*
X17838695Y-14524524D01*
X17848219Y-14543571D01*
X17857743Y-14581667D01*
X17857743Y-14629286D01*
X17848219Y-14667381D01*
X17838695Y-14686428D01*
X17829171Y-14695952D01*
X17810124Y-14705476D01*
X17791076Y-14705476D01*
X17772029Y-14695952D01*
X17762505Y-14686428D01*
X17752981Y-14667381D01*
X17743457Y-14629286D01*
X17743457Y-14581667D01*
X17752981Y-14543571D01*
X17762505Y-14524524D01*
X17772029Y-14515000D01*
X17791076Y-14505476D01*
X17943457Y-14686428D02*
X17952981Y-14695952D01*
X17943457Y-14705476D01*
X17933933Y-14695952D01*
X17943457Y-14686428D01*
X17943457Y-14705476D01*
X18076790Y-14505476D02*
X18095838Y-14505476D01*
X18114886Y-14515000D01*
X18124410Y-14524524D01*
X18133933Y-14543571D01*
X18143457Y-14581667D01*
X18143457Y-14629286D01*
X18133933Y-14667381D01*
X18124410Y-14686428D01*
X18114886Y-14695952D01*
X18095838Y-14705476D01*
X18076790Y-14705476D01*
X18057743Y-14695952D01*
X18048219Y-14686428D01*
X18038695Y-14667381D01*
X18029171Y-14629286D01*
X18029171Y-14581667D01*
X18038695Y-14543571D01*
X18048219Y-14524524D01*
X18057743Y-14515000D01*
X18076790Y-14505476D01*
X18210124Y-14505476D02*
X18333933Y-14505476D01*
X18267267Y-14581667D01*
X18295838Y-14581667D01*
X18314886Y-14591190D01*
X18324410Y-14600714D01*
X18333933Y-14619762D01*
X18333933Y-14667381D01*
X18324410Y-14686428D01*
X18314886Y-14695952D01*
X18295838Y-14705476D01*
X18238695Y-14705476D01*
X18219648Y-14695952D01*
X18210124Y-14686428D01*
X18524410Y-14705476D02*
X18410124Y-14705476D01*
X18467267Y-14705476D02*
X18467267Y-14505476D01*
X18448219Y-14534048D01*
X18429171Y-14553095D01*
X18410124Y-14562619D01*
X18705362Y-14505476D02*
X18610124Y-14505476D01*
X18600600Y-14600714D01*
X18610124Y-14591190D01*
X18629171Y-14581667D01*
X18676790Y-14581667D01*
X18695838Y-14591190D01*
X18705362Y-14600714D01*
X18714886Y-14619762D01*
X18714886Y-14667381D01*
X18705362Y-14686428D01*
X18695838Y-14695952D01*
X18676790Y-14705476D01*
X18629171Y-14705476D01*
X18610124Y-14695952D01*
X18600600Y-14686428D01*
X18791076Y-14505476D02*
X18791076Y-14543571D01*
X18867267Y-14505476D02*
X18867267Y-14543571D01*
X19162505Y-14781667D02*
X19152981Y-14772143D01*
X19133933Y-14743571D01*
X19124410Y-14724524D01*
X19114886Y-14695952D01*
X19105362Y-14648333D01*
X19105362Y-14610238D01*
X19114886Y-14562619D01*
X19124410Y-14534048D01*
X19133933Y-14515000D01*
X19152981Y-14486428D01*
X19162505Y-14476905D01*
X19324410Y-14572143D02*
X19324410Y-14705476D01*
X19276790Y-14495952D02*
X19229171Y-14638809D01*
X19352981Y-14638809D01*
X19514886Y-14505476D02*
X19476790Y-14505476D01*
X19457743Y-14515000D01*
X19448219Y-14524524D01*
X19429171Y-14553095D01*
X19419648Y-14591190D01*
X19419648Y-14667381D01*
X19429171Y-14686428D01*
X19438695Y-14695952D01*
X19457743Y-14705476D01*
X19495838Y-14705476D01*
X19514886Y-14695952D01*
X19524410Y-14686428D01*
X19533933Y-14667381D01*
X19533933Y-14619762D01*
X19524410Y-14600714D01*
X19514886Y-14591190D01*
X19495838Y-14581667D01*
X19457743Y-14581667D01*
X19438695Y-14591190D01*
X19429171Y-14600714D01*
X19419648Y-14619762D01*
X19772029Y-14705476D02*
X19772029Y-14505476D01*
X19857743Y-14705476D02*
X19857743Y-14600714D01*
X19848219Y-14581667D01*
X19829171Y-14572143D01*
X19800600Y-14572143D01*
X19781552Y-14581667D01*
X19772029Y-14591190D01*
X19981552Y-14705476D02*
X19962505Y-14695952D01*
X19952981Y-14686428D01*
X19943457Y-14667381D01*
X19943457Y-14610238D01*
X19952981Y-14591190D01*
X19962505Y-14581667D01*
X19981552Y-14572143D01*
X20010124Y-14572143D01*
X20029171Y-14581667D01*
X20038695Y-14591190D01*
X20048219Y-14610238D01*
X20048219Y-14667381D01*
X20038695Y-14686428D01*
X20029171Y-14695952D01*
X20010124Y-14705476D01*
X19981552Y-14705476D01*
X20162505Y-14705476D02*
X20143457Y-14695952D01*
X20133933Y-14676905D01*
X20133933Y-14505476D01*
X20314886Y-14695952D02*
X20295838Y-14705476D01*
X20257743Y-14705476D01*
X20238695Y-14695952D01*
X20229171Y-14676905D01*
X20229171Y-14600714D01*
X20238695Y-14581667D01*
X20257743Y-14572143D01*
X20295838Y-14572143D01*
X20314886Y-14581667D01*
X20324410Y-14600714D01*
X20324410Y-14619762D01*
X20229171Y-14638809D01*
X20400600Y-14695952D02*
X20419648Y-14705476D01*
X20457743Y-14705476D01*
X20476790Y-14695952D01*
X20486314Y-14676905D01*
X20486314Y-14667381D01*
X20476790Y-14648333D01*
X20457743Y-14638809D01*
X20429171Y-14638809D01*
X20410124Y-14629286D01*
X20400600Y-14610238D01*
X20400600Y-14600714D01*
X20410124Y-14581667D01*
X20429171Y-14572143D01*
X20457743Y-14572143D01*
X20476790Y-14581667D01*
X20552981Y-14781667D02*
X20562505Y-14772143D01*
X20581552Y-14743571D01*
X20591076Y-14724524D01*
X20600600Y-14695952D01*
X20610124Y-14648333D01*
X20610124Y-14610238D01*
X20600600Y-14562619D01*
X20591076Y-14534048D01*
X20581552Y-14515000D01*
X20562505Y-14486428D01*
X20552981Y-14476905D01*
D13*
X15590600Y-14879000D02*
G75*
G03*
X15590600Y-14879000I-45000J0D01*
G01*
D11*
X15886314Y-14769476D02*
X15905362Y-14769476D01*
X15924409Y-14779000D01*
X15933933Y-14788524D01*
X15943457Y-14807571D01*
X15952981Y-14845667D01*
X15952981Y-14893286D01*
X15943457Y-14931381D01*
X15933933Y-14950428D01*
X15924409Y-14959952D01*
X15905362Y-14969476D01*
X15886314Y-14969476D01*
X15867267Y-14959952D01*
X15857743Y-14950428D01*
X15848219Y-14931381D01*
X15838695Y-14893286D01*
X15838695Y-14845667D01*
X15848219Y-14807571D01*
X15857743Y-14788524D01*
X15867267Y-14779000D01*
X15886314Y-14769476D01*
X16038695Y-14950428D02*
X16048219Y-14959952D01*
X16038695Y-14969476D01*
X16029171Y-14959952D01*
X16038695Y-14950428D01*
X16038695Y-14969476D01*
X16143457Y-14969476D02*
X16181552Y-14969476D01*
X16200600Y-14959952D01*
X16210124Y-14950428D01*
X16229171Y-14921857D01*
X16238695Y-14883762D01*
X16238695Y-14807571D01*
X16229171Y-14788524D01*
X16219648Y-14779000D01*
X16200600Y-14769476D01*
X16162505Y-14769476D01*
X16143457Y-14779000D01*
X16133933Y-14788524D01*
X16124409Y-14807571D01*
X16124409Y-14855190D01*
X16133933Y-14874238D01*
X16143457Y-14883762D01*
X16162505Y-14893286D01*
X16200600Y-14893286D01*
X16219648Y-14883762D01*
X16229171Y-14874238D01*
X16238695Y-14855190D01*
X16362505Y-14769476D02*
X16381552Y-14769476D01*
X16400600Y-14779000D01*
X16410124Y-14788524D01*
X16419648Y-14807571D01*
X16429171Y-14845667D01*
X16429171Y-14893286D01*
X16419648Y-14931381D01*
X16410124Y-14950428D01*
X16400600Y-14959952D01*
X16381552Y-14969476D01*
X16362505Y-14969476D01*
X16343457Y-14959952D01*
X16333933Y-14950428D01*
X16324409Y-14931381D01*
X16314886Y-14893286D01*
X16314886Y-14845667D01*
X16324409Y-14807571D01*
X16333933Y-14788524D01*
X16343457Y-14779000D01*
X16362505Y-14769476D01*
X16552981Y-14769476D02*
X16572028Y-14769476D01*
X16591076Y-14779000D01*
X16600600Y-14788524D01*
X16610124Y-14807571D01*
X16619648Y-14845667D01*
X16619648Y-14893286D01*
X16610124Y-14931381D01*
X16600600Y-14950428D01*
X16591076Y-14959952D01*
X16572028Y-14969476D01*
X16552981Y-14969476D01*
X16533933Y-14959952D01*
X16524409Y-14950428D01*
X16514886Y-14931381D01*
X16505362Y-14893286D01*
X16505362Y-14845667D01*
X16514886Y-14807571D01*
X16524409Y-14788524D01*
X16533933Y-14779000D01*
X16552981Y-14769476D01*
X16705362Y-14969476D02*
X16705362Y-14836143D01*
X16705362Y-14855190D02*
X16714886Y-14845667D01*
X16733933Y-14836143D01*
X16762505Y-14836143D01*
X16781552Y-14845667D01*
X16791076Y-14864714D01*
X16791076Y-14969476D01*
X16791076Y-14864714D02*
X16800600Y-14845667D01*
X16819648Y-14836143D01*
X16848219Y-14836143D01*
X16867267Y-14845667D01*
X16876790Y-14864714D01*
X16876790Y-14969476D01*
X16972029Y-14969476D02*
X16972029Y-14836143D01*
X16972029Y-14855190D02*
X16981552Y-14845667D01*
X17000600Y-14836143D01*
X17029171Y-14836143D01*
X17048219Y-14845667D01*
X17057743Y-14864714D01*
X17057743Y-14969476D01*
X17057743Y-14864714D02*
X17067267Y-14845667D01*
X17086314Y-14836143D01*
X17114886Y-14836143D01*
X17133933Y-14845667D01*
X17143457Y-14864714D01*
X17143457Y-14969476D01*
X17533933Y-14759952D02*
X17362505Y-15017095D01*
X17791076Y-14769476D02*
X17810124Y-14769476D01*
X17829171Y-14779000D01*
X17838695Y-14788524D01*
X17848219Y-14807571D01*
X17857743Y-14845667D01*
X17857743Y-14893286D01*
X17848219Y-14931381D01*
X17838695Y-14950428D01*
X17829171Y-14959952D01*
X17810124Y-14969476D01*
X17791076Y-14969476D01*
X17772029Y-14959952D01*
X17762505Y-14950428D01*
X17752981Y-14931381D01*
X17743457Y-14893286D01*
X17743457Y-14845667D01*
X17752981Y-14807571D01*
X17762505Y-14788524D01*
X17772029Y-14779000D01*
X17791076Y-14769476D01*
X17943457Y-14950428D02*
X17952981Y-14959952D01*
X17943457Y-14969476D01*
X17933933Y-14959952D01*
X17943457Y-14950428D01*
X17943457Y-14969476D01*
X18076790Y-14769476D02*
X18095838Y-14769476D01*
X18114886Y-14779000D01*
X18124410Y-14788524D01*
X18133933Y-14807571D01*
X18143457Y-14845667D01*
X18143457Y-14893286D01*
X18133933Y-14931381D01*
X18124410Y-14950428D01*
X18114886Y-14959952D01*
X18095838Y-14969476D01*
X18076790Y-14969476D01*
X18057743Y-14959952D01*
X18048219Y-14950428D01*
X18038695Y-14931381D01*
X18029171Y-14893286D01*
X18029171Y-14845667D01*
X18038695Y-14807571D01*
X18048219Y-14788524D01*
X18057743Y-14779000D01*
X18076790Y-14769476D01*
X18210124Y-14769476D02*
X18333933Y-14769476D01*
X18267267Y-14845667D01*
X18295838Y-14845667D01*
X18314886Y-14855190D01*
X18324410Y-14864714D01*
X18333933Y-14883762D01*
X18333933Y-14931381D01*
X18324410Y-14950428D01*
X18314886Y-14959952D01*
X18295838Y-14969476D01*
X18238695Y-14969476D01*
X18219648Y-14959952D01*
X18210124Y-14950428D01*
X18514886Y-14769476D02*
X18419648Y-14769476D01*
X18410124Y-14864714D01*
X18419648Y-14855190D01*
X18438695Y-14845667D01*
X18486314Y-14845667D01*
X18505362Y-14855190D01*
X18514886Y-14864714D01*
X18524410Y-14883762D01*
X18524410Y-14931381D01*
X18514886Y-14950428D01*
X18505362Y-14959952D01*
X18486314Y-14969476D01*
X18438695Y-14969476D01*
X18419648Y-14959952D01*
X18410124Y-14950428D01*
X18695838Y-14836143D02*
X18695838Y-14969476D01*
X18648219Y-14759952D02*
X18600600Y-14902809D01*
X18724410Y-14902809D01*
X18791076Y-14769476D02*
X18791076Y-14807571D01*
X18867267Y-14769476D02*
X18867267Y-14807571D01*
X19162505Y-15045667D02*
X19152981Y-15036143D01*
X19133933Y-15007571D01*
X19124410Y-14988524D01*
X19114886Y-14959952D01*
X19105362Y-14912333D01*
X19105362Y-14874238D01*
X19114886Y-14826619D01*
X19124410Y-14798048D01*
X19133933Y-14779000D01*
X19152981Y-14750428D01*
X19162505Y-14740905D01*
X19343457Y-14969476D02*
X19229171Y-14969476D01*
X19286314Y-14969476D02*
X19286314Y-14769476D01*
X19267267Y-14798048D01*
X19248219Y-14817095D01*
X19229171Y-14826619D01*
X19467267Y-14769476D02*
X19486314Y-14769476D01*
X19505362Y-14779000D01*
X19514886Y-14788524D01*
X19524410Y-14807571D01*
X19533933Y-14845667D01*
X19533933Y-14893286D01*
X19524410Y-14931381D01*
X19514886Y-14950428D01*
X19505362Y-14959952D01*
X19486314Y-14969476D01*
X19467267Y-14969476D01*
X19448219Y-14959952D01*
X19438695Y-14950428D01*
X19429171Y-14931381D01*
X19419648Y-14893286D01*
X19419648Y-14845667D01*
X19429171Y-14807571D01*
X19438695Y-14788524D01*
X19448219Y-14779000D01*
X19467267Y-14769476D01*
X19772029Y-14969476D02*
X19772029Y-14769476D01*
X19857743Y-14969476D02*
X19857743Y-14864714D01*
X19848219Y-14845667D01*
X19829171Y-14836143D01*
X19800600Y-14836143D01*
X19781552Y-14845667D01*
X19772029Y-14855190D01*
X19981552Y-14969476D02*
X19962505Y-14959952D01*
X19952981Y-14950428D01*
X19943457Y-14931381D01*
X19943457Y-14874238D01*
X19952981Y-14855190D01*
X19962505Y-14845667D01*
X19981552Y-14836143D01*
X20010124Y-14836143D01*
X20029171Y-14845667D01*
X20038695Y-14855190D01*
X20048219Y-14874238D01*
X20048219Y-14931381D01*
X20038695Y-14950428D01*
X20029171Y-14959952D01*
X20010124Y-14969476D01*
X19981552Y-14969476D01*
X20162505Y-14969476D02*
X20143457Y-14959952D01*
X20133933Y-14940905D01*
X20133933Y-14769476D01*
X20314886Y-14959952D02*
X20295838Y-14969476D01*
X20257743Y-14969476D01*
X20238695Y-14959952D01*
X20229171Y-14940905D01*
X20229171Y-14864714D01*
X20238695Y-14845667D01*
X20257743Y-14836143D01*
X20295838Y-14836143D01*
X20314886Y-14845667D01*
X20324410Y-14864714D01*
X20324410Y-14883762D01*
X20229171Y-14902809D01*
X20400600Y-14959952D02*
X20419648Y-14969476D01*
X20457743Y-14969476D01*
X20476790Y-14959952D01*
X20486314Y-14940905D01*
X20486314Y-14931381D01*
X20476790Y-14912333D01*
X20457743Y-14902809D01*
X20429171Y-14902809D01*
X20410124Y-14893286D01*
X20400600Y-14874238D01*
X20400600Y-14864714D01*
X20410124Y-14845667D01*
X20429171Y-14836143D01*
X20457743Y-14836143D01*
X20476790Y-14845667D01*
X20552981Y-15045667D02*
X20562505Y-15036143D01*
X20581552Y-15007571D01*
X20591076Y-14988524D01*
X20600600Y-14959952D01*
X20610124Y-14912333D01*
X20610124Y-14874238D01*
X20600600Y-14826619D01*
X20591076Y-14798048D01*
X20581552Y-14779000D01*
X20562505Y-14750428D01*
X20552981Y-14740905D01*
D14*
X15540600Y-15093000D02*
X15540600Y-15193000D01*
X15490600Y-15143000D02*
X15590600Y-15143000D01*
D11*
X15952981Y-15233476D02*
X15838695Y-15233476D01*
X15895838Y-15233476D02*
X15895838Y-15033476D01*
X15876790Y-15062048D01*
X15857743Y-15081095D01*
X15838695Y-15090619D01*
X16038695Y-15214428D02*
X16048219Y-15223952D01*
X16038695Y-15233476D01*
X16029171Y-15223952D01*
X16038695Y-15214428D01*
X16038695Y-15233476D01*
X16172028Y-15033476D02*
X16191076Y-15033476D01*
X16210124Y-15043000D01*
X16219648Y-15052524D01*
X16229171Y-15071571D01*
X16238695Y-15109667D01*
X16238695Y-15157286D01*
X16229171Y-15195381D01*
X16219648Y-15214428D01*
X16210124Y-15223952D01*
X16191076Y-15233476D01*
X16172028Y-15233476D01*
X16152981Y-15223952D01*
X16143457Y-15214428D01*
X16133933Y-15195381D01*
X16124409Y-15157286D01*
X16124409Y-15109667D01*
X16133933Y-15071571D01*
X16143457Y-15052524D01*
X16152981Y-15043000D01*
X16172028Y-15033476D01*
X16362505Y-15033476D02*
X16381552Y-15033476D01*
X16400600Y-15043000D01*
X16410124Y-15052524D01*
X16419648Y-15071571D01*
X16429171Y-15109667D01*
X16429171Y-15157286D01*
X16419648Y-15195381D01*
X16410124Y-15214428D01*
X16400600Y-15223952D01*
X16381552Y-15233476D01*
X16362505Y-15233476D01*
X16343457Y-15223952D01*
X16333933Y-15214428D01*
X16324409Y-15195381D01*
X16314886Y-15157286D01*
X16314886Y-15109667D01*
X16324409Y-15071571D01*
X16333933Y-15052524D01*
X16343457Y-15043000D01*
X16362505Y-15033476D01*
X16552981Y-15033476D02*
X16572028Y-15033476D01*
X16591076Y-15043000D01*
X16600600Y-15052524D01*
X16610124Y-15071571D01*
X16619648Y-15109667D01*
X16619648Y-15157286D01*
X16610124Y-15195381D01*
X16600600Y-15214428D01*
X16591076Y-15223952D01*
X16572028Y-15233476D01*
X16552981Y-15233476D01*
X16533933Y-15223952D01*
X16524409Y-15214428D01*
X16514886Y-15195381D01*
X16505362Y-15157286D01*
X16505362Y-15109667D01*
X16514886Y-15071571D01*
X16524409Y-15052524D01*
X16533933Y-15043000D01*
X16552981Y-15033476D01*
X16705362Y-15233476D02*
X16705362Y-15100143D01*
X16705362Y-15119190D02*
X16714886Y-15109667D01*
X16733933Y-15100143D01*
X16762505Y-15100143D01*
X16781552Y-15109667D01*
X16791076Y-15128714D01*
X16791076Y-15233476D01*
X16791076Y-15128714D02*
X16800600Y-15109667D01*
X16819648Y-15100143D01*
X16848219Y-15100143D01*
X16867267Y-15109667D01*
X16876790Y-15128714D01*
X16876790Y-15233476D01*
X16972029Y-15233476D02*
X16972029Y-15100143D01*
X16972029Y-15119190D02*
X16981552Y-15109667D01*
X17000600Y-15100143D01*
X17029171Y-15100143D01*
X17048219Y-15109667D01*
X17057743Y-15128714D01*
X17057743Y-15233476D01*
X17057743Y-15128714D02*
X17067267Y-15109667D01*
X17086314Y-15100143D01*
X17114886Y-15100143D01*
X17133933Y-15109667D01*
X17143457Y-15128714D01*
X17143457Y-15233476D01*
X17533933Y-15023952D02*
X17362505Y-15281095D01*
X17791076Y-15033476D02*
X17810124Y-15033476D01*
X17829171Y-15043000D01*
X17838695Y-15052524D01*
X17848219Y-15071571D01*
X17857743Y-15109667D01*
X17857743Y-15157286D01*
X17848219Y-15195381D01*
X17838695Y-15214428D01*
X17829171Y-15223952D01*
X17810124Y-15233476D01*
X17791076Y-15233476D01*
X17772029Y-15223952D01*
X17762505Y-15214428D01*
X17752981Y-15195381D01*
X17743457Y-15157286D01*
X17743457Y-15109667D01*
X17752981Y-15071571D01*
X17762505Y-15052524D01*
X17772029Y-15043000D01*
X17791076Y-15033476D01*
X17943457Y-15214428D02*
X17952981Y-15223952D01*
X17943457Y-15233476D01*
X17933933Y-15223952D01*
X17943457Y-15214428D01*
X17943457Y-15233476D01*
X18076790Y-15033476D02*
X18095838Y-15033476D01*
X18114886Y-15043000D01*
X18124410Y-15052524D01*
X18133933Y-15071571D01*
X18143457Y-15109667D01*
X18143457Y-15157286D01*
X18133933Y-15195381D01*
X18124410Y-15214428D01*
X18114886Y-15223952D01*
X18095838Y-15233476D01*
X18076790Y-15233476D01*
X18057743Y-15223952D01*
X18048219Y-15214428D01*
X18038695Y-15195381D01*
X18029171Y-15157286D01*
X18029171Y-15109667D01*
X18038695Y-15071571D01*
X18048219Y-15052524D01*
X18057743Y-15043000D01*
X18076790Y-15033476D01*
X18210124Y-15033476D02*
X18333933Y-15033476D01*
X18267267Y-15109667D01*
X18295838Y-15109667D01*
X18314886Y-15119190D01*
X18324410Y-15128714D01*
X18333933Y-15147762D01*
X18333933Y-15195381D01*
X18324410Y-15214428D01*
X18314886Y-15223952D01*
X18295838Y-15233476D01*
X18238695Y-15233476D01*
X18219648Y-15223952D01*
X18210124Y-15214428D01*
X18429171Y-15233476D02*
X18467267Y-15233476D01*
X18486314Y-15223952D01*
X18495838Y-15214428D01*
X18514886Y-15185857D01*
X18524410Y-15147762D01*
X18524410Y-15071571D01*
X18514886Y-15052524D01*
X18505362Y-15043000D01*
X18486314Y-15033476D01*
X18448219Y-15033476D01*
X18429171Y-15043000D01*
X18419648Y-15052524D01*
X18410124Y-15071571D01*
X18410124Y-15119190D01*
X18419648Y-15138238D01*
X18429171Y-15147762D01*
X18448219Y-15157286D01*
X18486314Y-15157286D01*
X18505362Y-15147762D01*
X18514886Y-15138238D01*
X18524410Y-15119190D01*
X18695838Y-15100143D02*
X18695838Y-15233476D01*
X18648219Y-15023952D02*
X18600600Y-15166809D01*
X18724410Y-15166809D01*
X18791076Y-15033476D02*
X18791076Y-15071571D01*
X18867267Y-15033476D02*
X18867267Y-15071571D01*
X19162505Y-15309667D02*
X19152981Y-15300143D01*
X19133933Y-15271571D01*
X19124410Y-15252524D01*
X19114886Y-15223952D01*
X19105362Y-15176333D01*
X19105362Y-15138238D01*
X19114886Y-15090619D01*
X19124410Y-15062048D01*
X19133933Y-15043000D01*
X19152981Y-15014428D01*
X19162505Y-15004905D01*
X19333933Y-15033476D02*
X19238695Y-15033476D01*
X19229171Y-15128714D01*
X19238695Y-15119190D01*
X19257743Y-15109667D01*
X19305362Y-15109667D01*
X19324410Y-15119190D01*
X19333933Y-15128714D01*
X19343457Y-15147762D01*
X19343457Y-15195381D01*
X19333933Y-15214428D01*
X19324410Y-15223952D01*
X19305362Y-15233476D01*
X19257743Y-15233476D01*
X19238695Y-15223952D01*
X19229171Y-15214428D01*
X19581552Y-15233476D02*
X19581552Y-15033476D01*
X19667267Y-15233476D02*
X19667267Y-15128714D01*
X19657743Y-15109667D01*
X19638695Y-15100143D01*
X19610124Y-15100143D01*
X19591076Y-15109667D01*
X19581552Y-15119190D01*
X19791076Y-15233476D02*
X19772029Y-15223952D01*
X19762505Y-15214428D01*
X19752981Y-15195381D01*
X19752981Y-15138238D01*
X19762505Y-15119190D01*
X19772029Y-15109667D01*
X19791076Y-15100143D01*
X19819648Y-15100143D01*
X19838695Y-15109667D01*
X19848219Y-15119190D01*
X19857743Y-15138238D01*
X19857743Y-15195381D01*
X19848219Y-15214428D01*
X19838695Y-15223952D01*
X19819648Y-15233476D01*
X19791076Y-15233476D01*
X19972029Y-15233476D02*
X19952981Y-15223952D01*
X19943457Y-15204905D01*
X19943457Y-15033476D01*
X20124410Y-15223952D02*
X20105362Y-15233476D01*
X20067267Y-15233476D01*
X20048219Y-15223952D01*
X20038695Y-15204905D01*
X20038695Y-15128714D01*
X20048219Y-15109667D01*
X20067267Y-15100143D01*
X20105362Y-15100143D01*
X20124410Y-15109667D01*
X20133933Y-15128714D01*
X20133933Y-15147762D01*
X20038695Y-15166809D01*
X20210124Y-15223952D02*
X20229171Y-15233476D01*
X20267267Y-15233476D01*
X20286314Y-15223952D01*
X20295838Y-15204905D01*
X20295838Y-15195381D01*
X20286314Y-15176333D01*
X20267267Y-15166809D01*
X20238695Y-15166809D01*
X20219648Y-15157286D01*
X20210124Y-15138238D01*
X20210124Y-15128714D01*
X20219648Y-15109667D01*
X20238695Y-15100143D01*
X20267267Y-15100143D01*
X20286314Y-15109667D01*
X20362505Y-15309667D02*
X20372029Y-15300143D01*
X20391076Y-15271571D01*
X20400600Y-15252524D01*
X20410124Y-15223952D01*
X20419648Y-15176333D01*
X20419648Y-15138238D01*
X20410124Y-15090619D01*
X20400600Y-15062048D01*
X20391076Y-15043000D01*
X20372029Y-15014428D01*
X20362505Y-15004905D01*
M02*
