%TF.GenerationSoftware,KiCad,Pcbnew,5.99.0-unknown-3b7f5a3db7~131~ubuntu20.04.1*%
%TF.CreationDate,2021-09-21T13:07:20-05:00*%
%TF.ProjectId,a2600-joystick-vizboard,61323630-302d-46a6-9f79-737469636b2d,rev?*%
%TF.SameCoordinates,Original*%
%TF.FileFunction,Legend,Bot*%
%TF.FilePolarity,Positive*%
%FSLAX46Y46*%
G04 Gerber Fmt 4.6, Leading zero omitted, Abs format (unit mm)*
G04 Created by KiCad (PCBNEW 5.99.0-unknown-3b7f5a3db7~131~ubuntu20.04.1) date 2021-09-21 13:07:20*
%MOMM*%
%LPD*%
G01*
G04 APERTURE LIST*
%ADD10C,0.200000*%
%ADD11C,0.225000*%
%ADD12C,0.300000*%
%ADD13C,0.150000*%
%ADD14C,0.120000*%
%ADD15C,3.200000*%
%ADD16O,1.600000X1.600000*%
%ADD17R,1.600000X1.600000*%
%ADD18C,1.600000*%
%ADD19R,1.700000X1.700000*%
%ADD20O,1.700000X1.700000*%
%ADD21R,1.800000X1.800000*%
%ADD22C,1.800000*%
G04 APERTURE END LIST*
D10*
X200022904Y-61496666D02*
X199499095Y-61496666D01*
X200127666Y-61868095D02*
X199761000Y-60568095D01*
X199394333Y-61868095D01*
X199184809Y-61001428D02*
X198765761Y-61001428D01*
X199027666Y-60568095D02*
X199027666Y-61682380D01*
X198975285Y-61806190D01*
X198870523Y-61868095D01*
X198765761Y-61868095D01*
X197927666Y-61868095D02*
X197927666Y-61187142D01*
X197980047Y-61063333D01*
X198084809Y-61001428D01*
X198294333Y-61001428D01*
X198399095Y-61063333D01*
X197927666Y-61806190D02*
X198032428Y-61868095D01*
X198294333Y-61868095D01*
X198399095Y-61806190D01*
X198451476Y-61682380D01*
X198451476Y-61558571D01*
X198399095Y-61434761D01*
X198294333Y-61372857D01*
X198032428Y-61372857D01*
X197927666Y-61310952D01*
X197403857Y-61868095D02*
X197403857Y-61001428D01*
X197403857Y-61249047D02*
X197351476Y-61125238D01*
X197299095Y-61063333D01*
X197194333Y-61001428D01*
X197089571Y-61001428D01*
X196722904Y-61868095D02*
X196722904Y-61001428D01*
X196722904Y-60568095D02*
X196775285Y-60630000D01*
X196722904Y-60691904D01*
X196670523Y-60630000D01*
X196722904Y-60568095D01*
X196722904Y-60691904D01*
X195413380Y-60691904D02*
X195361000Y-60630000D01*
X195256238Y-60568095D01*
X194994333Y-60568095D01*
X194889571Y-60630000D01*
X194837190Y-60691904D01*
X194784809Y-60815714D01*
X194784809Y-60939523D01*
X194837190Y-61125238D01*
X195465761Y-61868095D01*
X194784809Y-61868095D01*
X193841952Y-60568095D02*
X194051476Y-60568095D01*
X194156238Y-60630000D01*
X194208619Y-60691904D01*
X194313380Y-60877619D01*
X194365761Y-61125238D01*
X194365761Y-61620476D01*
X194313380Y-61744285D01*
X194261000Y-61806190D01*
X194156238Y-61868095D01*
X193946714Y-61868095D01*
X193841952Y-61806190D01*
X193789571Y-61744285D01*
X193737190Y-61620476D01*
X193737190Y-61310952D01*
X193789571Y-61187142D01*
X193841952Y-61125238D01*
X193946714Y-61063333D01*
X194156238Y-61063333D01*
X194261000Y-61125238D01*
X194313380Y-61187142D01*
X194365761Y-61310952D01*
X193056238Y-60568095D02*
X192951476Y-60568095D01*
X192846714Y-60630000D01*
X192794333Y-60691904D01*
X192741952Y-60815714D01*
X192689571Y-61063333D01*
X192689571Y-61372857D01*
X192741952Y-61620476D01*
X192794333Y-61744285D01*
X192846714Y-61806190D01*
X192951476Y-61868095D01*
X193056238Y-61868095D01*
X193161000Y-61806190D01*
X193213380Y-61744285D01*
X193265761Y-61620476D01*
X193318142Y-61372857D01*
X193318142Y-61063333D01*
X193265761Y-60815714D01*
X193213380Y-60691904D01*
X193161000Y-60630000D01*
X193056238Y-60568095D01*
X192008619Y-60568095D02*
X191903857Y-60568095D01*
X191799095Y-60630000D01*
X191746714Y-60691904D01*
X191694333Y-60815714D01*
X191641952Y-61063333D01*
X191641952Y-61372857D01*
X191694333Y-61620476D01*
X191746714Y-61744285D01*
X191799095Y-61806190D01*
X191903857Y-61868095D01*
X192008619Y-61868095D01*
X192113380Y-61806190D01*
X192165761Y-61744285D01*
X192218142Y-61620476D01*
X192270523Y-61372857D01*
X192270523Y-61063333D01*
X192218142Y-60815714D01*
X192165761Y-60691904D01*
X192113380Y-60630000D01*
X192008619Y-60568095D01*
X190018142Y-60568095D02*
X190018142Y-61496666D01*
X190070523Y-61682380D01*
X190175285Y-61806190D01*
X190332428Y-61868095D01*
X190437190Y-61868095D01*
X189337190Y-61868095D02*
X189441952Y-61806190D01*
X189494333Y-61744285D01*
X189546714Y-61620476D01*
X189546714Y-61249047D01*
X189494333Y-61125238D01*
X189441952Y-61063333D01*
X189337190Y-61001428D01*
X189180047Y-61001428D01*
X189075285Y-61063333D01*
X189022904Y-61125238D01*
X188970523Y-61249047D01*
X188970523Y-61620476D01*
X189022904Y-61744285D01*
X189075285Y-61806190D01*
X189180047Y-61868095D01*
X189337190Y-61868095D01*
X188603857Y-61001428D02*
X188341952Y-61868095D01*
X188080047Y-61001428D02*
X188341952Y-61868095D01*
X188446714Y-62177619D01*
X188499095Y-62239523D01*
X188603857Y-62301428D01*
X187713380Y-61806190D02*
X187608619Y-61868095D01*
X187399095Y-61868095D01*
X187294333Y-61806190D01*
X187241952Y-61682380D01*
X187241952Y-61620476D01*
X187294333Y-61496666D01*
X187399095Y-61434761D01*
X187556238Y-61434761D01*
X187661000Y-61372857D01*
X187713380Y-61249047D01*
X187713380Y-61187142D01*
X187661000Y-61063333D01*
X187556238Y-61001428D01*
X187399095Y-61001428D01*
X187294333Y-61063333D01*
X186927666Y-61001428D02*
X186508619Y-61001428D01*
X186770523Y-60568095D02*
X186770523Y-61682380D01*
X186718142Y-61806190D01*
X186613380Y-61868095D01*
X186508619Y-61868095D01*
X186141952Y-61868095D02*
X186141952Y-61001428D01*
X186141952Y-60568095D02*
X186194333Y-60630000D01*
X186141952Y-60691904D01*
X186089571Y-60630000D01*
X186141952Y-60568095D01*
X186141952Y-60691904D01*
X185146714Y-61806190D02*
X185251476Y-61868095D01*
X185461000Y-61868095D01*
X185565761Y-61806190D01*
X185618142Y-61744285D01*
X185670523Y-61620476D01*
X185670523Y-61249047D01*
X185618142Y-61125238D01*
X185565761Y-61063333D01*
X185461000Y-61001428D01*
X185251476Y-61001428D01*
X185146714Y-61063333D01*
X184675285Y-61868095D02*
X184675285Y-60568095D01*
X184570523Y-61372857D02*
X184256238Y-61868095D01*
X184256238Y-61001428D02*
X184675285Y-61496666D01*
X183103857Y-60568095D02*
X182737190Y-61868095D01*
X182370523Y-60568095D01*
X182003857Y-61868095D02*
X182003857Y-61001428D01*
X182003857Y-60568095D02*
X182056238Y-60630000D01*
X182003857Y-60691904D01*
X181951476Y-60630000D01*
X182003857Y-60568095D01*
X182003857Y-60691904D01*
X181584809Y-61001428D02*
X181008619Y-61001428D01*
X181584809Y-61868095D01*
X181008619Y-61868095D01*
X180589571Y-61868095D02*
X180589571Y-60568095D01*
X180589571Y-61063333D02*
X180484809Y-61001428D01*
X180275285Y-61001428D01*
X180170523Y-61063333D01*
X180118142Y-61125238D01*
X180065761Y-61249047D01*
X180065761Y-61620476D01*
X180118142Y-61744285D01*
X180170523Y-61806190D01*
X180275285Y-61868095D01*
X180484809Y-61868095D01*
X180589571Y-61806190D01*
X179437190Y-61868095D02*
X179541952Y-61806190D01*
X179594333Y-61744285D01*
X179646714Y-61620476D01*
X179646714Y-61249047D01*
X179594333Y-61125238D01*
X179541952Y-61063333D01*
X179437190Y-61001428D01*
X179280047Y-61001428D01*
X179175285Y-61063333D01*
X179122904Y-61125238D01*
X179070523Y-61249047D01*
X179070523Y-61620476D01*
X179122904Y-61744285D01*
X179175285Y-61806190D01*
X179280047Y-61868095D01*
X179437190Y-61868095D01*
X178127666Y-61868095D02*
X178127666Y-61187142D01*
X178180047Y-61063333D01*
X178284809Y-61001428D01*
X178494333Y-61001428D01*
X178599095Y-61063333D01*
X178127666Y-61806190D02*
X178232428Y-61868095D01*
X178494333Y-61868095D01*
X178599095Y-61806190D01*
X178651476Y-61682380D01*
X178651476Y-61558571D01*
X178599095Y-61434761D01*
X178494333Y-61372857D01*
X178232428Y-61372857D01*
X178127666Y-61310952D01*
X177603857Y-61868095D02*
X177603857Y-61001428D01*
X177603857Y-61249047D02*
X177551476Y-61125238D01*
X177499095Y-61063333D01*
X177394333Y-61001428D01*
X177289571Y-61001428D01*
X176451476Y-61868095D02*
X176451476Y-60568095D01*
X176451476Y-61806190D02*
X176556238Y-61868095D01*
X176765761Y-61868095D01*
X176870523Y-61806190D01*
X176922904Y-61744285D01*
X176975285Y-61620476D01*
X176975285Y-61249047D01*
X176922904Y-61125238D01*
X176870523Y-61063333D01*
X176765761Y-61001428D01*
X176556238Y-61001428D01*
X176451476Y-61063333D01*
X175089571Y-61868095D02*
X175089571Y-60568095D01*
X175089571Y-61063333D02*
X174984809Y-61001428D01*
X174775285Y-61001428D01*
X174670523Y-61063333D01*
X174618142Y-61125238D01*
X174565761Y-61249047D01*
X174565761Y-61620476D01*
X174618142Y-61744285D01*
X174670523Y-61806190D01*
X174775285Y-61868095D01*
X174984809Y-61868095D01*
X175089571Y-61806190D01*
X174199095Y-61001428D02*
X173937190Y-61868095D01*
X173675285Y-61001428D02*
X173937190Y-61868095D01*
X174041952Y-62177619D01*
X174094333Y-62239523D01*
X174199095Y-62301428D01*
X172051476Y-61187142D02*
X171894333Y-61249047D01*
X171841952Y-61310952D01*
X171789571Y-61434761D01*
X171789571Y-61620476D01*
X171841952Y-61744285D01*
X171894333Y-61806190D01*
X171999095Y-61868095D01*
X172418142Y-61868095D01*
X172418142Y-60568095D01*
X172051476Y-60568095D01*
X171946714Y-60630000D01*
X171894333Y-60691904D01*
X171841952Y-60815714D01*
X171841952Y-60939523D01*
X171894333Y-61063333D01*
X171946714Y-61125238D01*
X172051476Y-61187142D01*
X172418142Y-61187142D01*
X171318142Y-61868095D02*
X171318142Y-61001428D01*
X171318142Y-60568095D02*
X171370523Y-60630000D01*
X171318142Y-60691904D01*
X171265761Y-60630000D01*
X171318142Y-60568095D01*
X171318142Y-60691904D01*
X170322904Y-61001428D02*
X170322904Y-62053809D01*
X170375285Y-62177619D01*
X170427666Y-62239523D01*
X170532428Y-62301428D01*
X170689571Y-62301428D01*
X170794333Y-62239523D01*
X170322904Y-61806190D02*
X170427666Y-61868095D01*
X170637190Y-61868095D01*
X170741952Y-61806190D01*
X170794333Y-61744285D01*
X170846714Y-61620476D01*
X170846714Y-61249047D01*
X170794333Y-61125238D01*
X170741952Y-61063333D01*
X170637190Y-61001428D01*
X170427666Y-61001428D01*
X170322904Y-61063333D01*
X169799095Y-61868095D02*
X169799095Y-60568095D01*
X169799095Y-61063333D02*
X169694333Y-61001428D01*
X169484809Y-61001428D01*
X169380047Y-61063333D01*
X169327666Y-61125238D01*
X169275285Y-61249047D01*
X169275285Y-61620476D01*
X169327666Y-61744285D01*
X169380047Y-61806190D01*
X169484809Y-61868095D01*
X169694333Y-61868095D01*
X169799095Y-61806190D01*
X168332428Y-61868095D02*
X168332428Y-61187142D01*
X168384809Y-61063333D01*
X168489571Y-61001428D01*
X168699095Y-61001428D01*
X168803857Y-61063333D01*
X168332428Y-61806190D02*
X168437190Y-61868095D01*
X168699095Y-61868095D01*
X168803857Y-61806190D01*
X168856238Y-61682380D01*
X168856238Y-61558571D01*
X168803857Y-61434761D01*
X168699095Y-61372857D01*
X168437190Y-61372857D01*
X168332428Y-61310952D01*
X167861000Y-61806190D02*
X167756238Y-61868095D01*
X167546714Y-61868095D01*
X167441952Y-61806190D01*
X167389571Y-61682380D01*
X167389571Y-61620476D01*
X167441952Y-61496666D01*
X167546714Y-61434761D01*
X167703857Y-61434761D01*
X167808619Y-61372857D01*
X167861000Y-61249047D01*
X167861000Y-61187142D01*
X167808619Y-61063333D01*
X167703857Y-61001428D01*
X167546714Y-61001428D01*
X167441952Y-61063333D01*
X166970523Y-61806190D02*
X166865761Y-61868095D01*
X166656238Y-61868095D01*
X166551476Y-61806190D01*
X166499095Y-61682380D01*
X166499095Y-61620476D01*
X166551476Y-61496666D01*
X166656238Y-61434761D01*
X166813380Y-61434761D01*
X166918142Y-61372857D01*
X166970523Y-61249047D01*
X166970523Y-61187142D01*
X166918142Y-61063333D01*
X166813380Y-61001428D01*
X166656238Y-61001428D01*
X166551476Y-61063333D01*
X196932428Y-63961095D02*
X197456238Y-63961095D01*
X197456238Y-62661095D01*
X196565761Y-63961095D02*
X196565761Y-63094428D01*
X196565761Y-62661095D02*
X196618142Y-62723000D01*
X196565761Y-62784904D01*
X196513380Y-62723000D01*
X196565761Y-62661095D01*
X196565761Y-62784904D01*
X195570523Y-63899190D02*
X195675285Y-63961095D01*
X195884809Y-63961095D01*
X195989571Y-63899190D01*
X196041952Y-63837285D01*
X196094333Y-63713476D01*
X196094333Y-63342047D01*
X196041952Y-63218238D01*
X195989571Y-63156333D01*
X195884809Y-63094428D01*
X195675285Y-63094428D01*
X195570523Y-63156333D01*
X194680047Y-63899190D02*
X194784809Y-63961095D01*
X194994333Y-63961095D01*
X195099095Y-63899190D01*
X195151476Y-63775380D01*
X195151476Y-63280142D01*
X195099095Y-63156333D01*
X194994333Y-63094428D01*
X194784809Y-63094428D01*
X194680047Y-63156333D01*
X194627666Y-63280142D01*
X194627666Y-63403952D01*
X195151476Y-63527761D01*
X194156238Y-63094428D02*
X194156238Y-63961095D01*
X194156238Y-63218238D02*
X194103857Y-63156333D01*
X193999095Y-63094428D01*
X193841952Y-63094428D01*
X193737190Y-63156333D01*
X193684809Y-63280142D01*
X193684809Y-63961095D01*
X193213380Y-63899190D02*
X193108619Y-63961095D01*
X192899095Y-63961095D01*
X192794333Y-63899190D01*
X192741952Y-63775380D01*
X192741952Y-63713476D01*
X192794333Y-63589666D01*
X192899095Y-63527761D01*
X193056238Y-63527761D01*
X193161000Y-63465857D01*
X193213380Y-63342047D01*
X193213380Y-63280142D01*
X193161000Y-63156333D01*
X193056238Y-63094428D01*
X192899095Y-63094428D01*
X192794333Y-63156333D01*
X191851476Y-63899190D02*
X191956238Y-63961095D01*
X192165761Y-63961095D01*
X192270523Y-63899190D01*
X192322904Y-63775380D01*
X192322904Y-63280142D01*
X192270523Y-63156333D01*
X192165761Y-63094428D01*
X191956238Y-63094428D01*
X191851476Y-63156333D01*
X191799095Y-63280142D01*
X191799095Y-63403952D01*
X192322904Y-63527761D01*
X190856238Y-63961095D02*
X190856238Y-62661095D01*
X190856238Y-63899190D02*
X190961000Y-63961095D01*
X191170523Y-63961095D01*
X191275285Y-63899190D01*
X191327666Y-63837285D01*
X191380047Y-63713476D01*
X191380047Y-63342047D01*
X191327666Y-63218238D01*
X191275285Y-63156333D01*
X191170523Y-63094428D01*
X190961000Y-63094428D01*
X190856238Y-63156333D01*
X189022904Y-63094428D02*
X189022904Y-63961095D01*
X189494333Y-63094428D02*
X189494333Y-63775380D01*
X189441952Y-63899190D01*
X189337190Y-63961095D01*
X189180047Y-63961095D01*
X189075285Y-63899190D01*
X189022904Y-63837285D01*
X188499095Y-63094428D02*
X188499095Y-63961095D01*
X188499095Y-63218238D02*
X188446714Y-63156333D01*
X188341952Y-63094428D01*
X188184809Y-63094428D01*
X188080047Y-63156333D01*
X188027666Y-63280142D01*
X188027666Y-63961095D01*
X187032428Y-63961095D02*
X187032428Y-62661095D01*
X187032428Y-63899190D02*
X187137190Y-63961095D01*
X187346714Y-63961095D01*
X187451476Y-63899190D01*
X187503857Y-63837285D01*
X187556238Y-63713476D01*
X187556238Y-63342047D01*
X187503857Y-63218238D01*
X187451476Y-63156333D01*
X187346714Y-63094428D01*
X187137190Y-63094428D01*
X187032428Y-63156333D01*
X186089571Y-63899190D02*
X186194333Y-63961095D01*
X186403857Y-63961095D01*
X186508619Y-63899190D01*
X186561000Y-63775380D01*
X186561000Y-63280142D01*
X186508619Y-63156333D01*
X186403857Y-63094428D01*
X186194333Y-63094428D01*
X186089571Y-63156333D01*
X186037190Y-63280142D01*
X186037190Y-63403952D01*
X186561000Y-63527761D01*
X185565761Y-63961095D02*
X185565761Y-63094428D01*
X185565761Y-63342047D02*
X185513380Y-63218238D01*
X185461000Y-63156333D01*
X185356238Y-63094428D01*
X185251476Y-63094428D01*
X183418142Y-63837285D02*
X183470523Y-63899190D01*
X183627666Y-63961095D01*
X183732428Y-63961095D01*
X183889571Y-63899190D01*
X183994333Y-63775380D01*
X184046714Y-63651571D01*
X184099095Y-63403952D01*
X184099095Y-63218238D01*
X184046714Y-62970619D01*
X183994333Y-62846809D01*
X183889571Y-62723000D01*
X183732428Y-62661095D01*
X183627666Y-62661095D01*
X183470523Y-62723000D01*
X183418142Y-62784904D01*
X182946714Y-63280142D02*
X182580047Y-63280142D01*
X182422904Y-63961095D02*
X182946714Y-63961095D01*
X182946714Y-62661095D01*
X182422904Y-62661095D01*
X181322904Y-63961095D02*
X181689571Y-63342047D01*
X181951476Y-63961095D02*
X181951476Y-62661095D01*
X181532428Y-62661095D01*
X181427666Y-62723000D01*
X181375285Y-62784904D01*
X181322904Y-62908714D01*
X181322904Y-63094428D01*
X181375285Y-63218238D01*
X181427666Y-63280142D01*
X181532428Y-63342047D01*
X181951476Y-63342047D01*
X180851476Y-63961095D02*
X180851476Y-62661095D01*
X180222904Y-63961095D01*
X180222904Y-62661095D01*
X179699095Y-63465857D02*
X178861000Y-63465857D01*
X178127666Y-62661095D02*
X177918142Y-62661095D01*
X177813380Y-62723000D01*
X177708619Y-62846809D01*
X177656238Y-63094428D01*
X177656238Y-63527761D01*
X177708619Y-63775380D01*
X177813380Y-63899190D01*
X177918142Y-63961095D01*
X178127666Y-63961095D01*
X178232428Y-63899190D01*
X178337190Y-63775380D01*
X178389571Y-63527761D01*
X178389571Y-63094428D01*
X178337190Y-62846809D01*
X178232428Y-62723000D01*
X178127666Y-62661095D01*
X177184809Y-63961095D02*
X177184809Y-62661095D01*
X177184809Y-63280142D02*
X176556238Y-63280142D01*
X176556238Y-63961095D02*
X176556238Y-62661095D01*
X175508619Y-63961095D02*
X176032428Y-63961095D01*
X176032428Y-62661095D01*
X175141952Y-63465857D02*
X174303857Y-63465857D01*
X173884809Y-62661095D02*
X173622904Y-63961095D01*
X173413380Y-63032523D01*
X173203857Y-63961095D01*
X172941952Y-62661095D01*
X172522904Y-63465857D02*
X171684809Y-63465857D01*
X171213380Y-62784904D02*
X171161000Y-62723000D01*
X171056238Y-62661095D01*
X170794333Y-62661095D01*
X170689571Y-62723000D01*
X170637190Y-62784904D01*
X170584809Y-62908714D01*
X170584809Y-63032523D01*
X170637190Y-63218238D01*
X171265761Y-63961095D01*
X170584809Y-63961095D01*
X170113380Y-63837285D02*
X170061000Y-63899190D01*
X170113380Y-63961095D01*
X170165761Y-63899190D01*
X170113380Y-63837285D01*
X170113380Y-63961095D01*
X169380047Y-62661095D02*
X169275285Y-62661095D01*
X169170523Y-62723000D01*
X169118142Y-62784904D01*
X169065761Y-62908714D01*
X169013380Y-63156333D01*
X169013380Y-63465857D01*
X169065761Y-63713476D01*
X169118142Y-63837285D01*
X169170523Y-63899190D01*
X169275285Y-63961095D01*
X169380047Y-63961095D01*
X169484809Y-63899190D01*
X169537190Y-63837285D01*
X169589571Y-63713476D01*
X169641952Y-63465857D01*
X169641952Y-63156333D01*
X169589571Y-62908714D01*
X169537190Y-62784904D01*
X169484809Y-62723000D01*
X169380047Y-62661095D01*
X188603857Y-64877904D02*
X188551476Y-64816000D01*
X188446714Y-64754095D01*
X188184809Y-64754095D01*
X188080047Y-64816000D01*
X188027666Y-64877904D01*
X187975285Y-65001714D01*
X187975285Y-65125523D01*
X188027666Y-65311238D01*
X188656238Y-66054095D01*
X187975285Y-66054095D01*
X187294333Y-64754095D02*
X187189571Y-64754095D01*
X187084809Y-64816000D01*
X187032428Y-64877904D01*
X186980047Y-65001714D01*
X186927666Y-65249333D01*
X186927666Y-65558857D01*
X186980047Y-65806476D01*
X187032428Y-65930285D01*
X187084809Y-65992190D01*
X187189571Y-66054095D01*
X187294333Y-66054095D01*
X187399095Y-65992190D01*
X187451476Y-65930285D01*
X187503857Y-65806476D01*
X187556238Y-65558857D01*
X187556238Y-65249333D01*
X187503857Y-65001714D01*
X187451476Y-64877904D01*
X187399095Y-64816000D01*
X187294333Y-64754095D01*
X186508619Y-64877904D02*
X186456238Y-64816000D01*
X186351476Y-64754095D01*
X186089571Y-64754095D01*
X185984809Y-64816000D01*
X185932428Y-64877904D01*
X185880047Y-65001714D01*
X185880047Y-65125523D01*
X185932428Y-65311238D01*
X186561000Y-66054095D01*
X185880047Y-66054095D01*
X184832428Y-66054095D02*
X185461000Y-66054095D01*
X185146714Y-66054095D02*
X185146714Y-64754095D01*
X185251476Y-64939809D01*
X185356238Y-65063619D01*
X185461000Y-65125523D01*
X184361000Y-65558857D02*
X183522904Y-65558857D01*
X182789571Y-64754095D02*
X182684809Y-64754095D01*
X182580047Y-64816000D01*
X182527666Y-64877904D01*
X182475285Y-65001714D01*
X182422904Y-65249333D01*
X182422904Y-65558857D01*
X182475285Y-65806476D01*
X182527666Y-65930285D01*
X182580047Y-65992190D01*
X182684809Y-66054095D01*
X182789571Y-66054095D01*
X182894333Y-65992190D01*
X182946714Y-65930285D01*
X182999095Y-65806476D01*
X183051476Y-65558857D01*
X183051476Y-65249333D01*
X182999095Y-65001714D01*
X182946714Y-64877904D01*
X182894333Y-64816000D01*
X182789571Y-64754095D01*
X181899095Y-66054095D02*
X181689571Y-66054095D01*
X181584809Y-65992190D01*
X181532428Y-65930285D01*
X181427666Y-65744571D01*
X181375285Y-65496952D01*
X181375285Y-65001714D01*
X181427666Y-64877904D01*
X181480047Y-64816000D01*
X181584809Y-64754095D01*
X181794333Y-64754095D01*
X181899095Y-64816000D01*
X181951476Y-64877904D01*
X182003857Y-65001714D01*
X182003857Y-65311238D01*
X181951476Y-65435047D01*
X181899095Y-65496952D01*
X181794333Y-65558857D01*
X181584809Y-65558857D01*
X181480047Y-65496952D01*
X181427666Y-65435047D01*
X181375285Y-65311238D01*
X180903857Y-65558857D02*
X180065761Y-65558857D01*
X179594333Y-64877904D02*
X179541952Y-64816000D01*
X179437190Y-64754095D01*
X179175285Y-64754095D01*
X179070523Y-64816000D01*
X179018142Y-64877904D01*
X178965761Y-65001714D01*
X178965761Y-65125523D01*
X179018142Y-65311238D01*
X179646714Y-66054095D01*
X178965761Y-66054095D01*
X177918142Y-66054095D02*
X178546714Y-66054095D01*
X178232428Y-66054095D02*
X178232428Y-64754095D01*
X178337190Y-64939809D01*
X178441952Y-65063619D01*
X178546714Y-65125523D01*
D11*
X227068000Y-67265464D02*
X227115619Y-67379750D01*
X227115619Y-67551178D01*
X227068000Y-67722607D01*
X226972761Y-67836892D01*
X226877523Y-67894035D01*
X226687047Y-67951178D01*
X226544190Y-67951178D01*
X226353714Y-67894035D01*
X226258476Y-67836892D01*
X226163238Y-67722607D01*
X226115619Y-67551178D01*
X226115619Y-67436892D01*
X226163238Y-67265464D01*
X226210857Y-67208321D01*
X226544190Y-67208321D01*
X226544190Y-67436892D01*
X226115619Y-66694035D02*
X227115619Y-66694035D01*
X226115619Y-66008321D01*
X227115619Y-66008321D01*
X226115619Y-65436892D02*
X227115619Y-65436892D01*
X227115619Y-65151178D01*
X227068000Y-64979750D01*
X226972761Y-64865464D01*
X226877523Y-64808321D01*
X226687047Y-64751178D01*
X226544190Y-64751178D01*
X226353714Y-64808321D01*
X226258476Y-64865464D01*
X226163238Y-64979750D01*
X226115619Y-65151178D01*
X226115619Y-65436892D01*
X223623238Y-67951178D02*
X223575619Y-67779750D01*
X223575619Y-67494035D01*
X223623238Y-67379750D01*
X223670857Y-67322607D01*
X223766095Y-67265464D01*
X223861333Y-67265464D01*
X223956571Y-67322607D01*
X224004190Y-67379750D01*
X224051809Y-67494035D01*
X224099428Y-67722607D01*
X224147047Y-67836892D01*
X224194666Y-67894035D01*
X224289904Y-67951178D01*
X224385142Y-67951178D01*
X224480380Y-67894035D01*
X224528000Y-67836892D01*
X224575619Y-67722607D01*
X224575619Y-67436892D01*
X224528000Y-67265464D01*
X224099428Y-66751178D02*
X224099428Y-66351178D01*
X223575619Y-66179750D02*
X223575619Y-66751178D01*
X224575619Y-66751178D01*
X224575619Y-66179750D01*
X223575619Y-64979750D02*
X224051809Y-65379750D01*
X223575619Y-65665464D02*
X224575619Y-65665464D01*
X224575619Y-65208321D01*
X224528000Y-65094035D01*
X224480380Y-65036892D01*
X224385142Y-64979750D01*
X224242285Y-64979750D01*
X224147047Y-65036892D01*
X224099428Y-65094035D01*
X224051809Y-65208321D01*
X224051809Y-65665464D01*
X221130857Y-67208321D02*
X221083238Y-67265464D01*
X221035619Y-67436892D01*
X221035619Y-67551178D01*
X221083238Y-67722607D01*
X221178476Y-67836892D01*
X221273714Y-67894035D01*
X221464190Y-67951178D01*
X221607047Y-67951178D01*
X221797523Y-67894035D01*
X221892761Y-67836892D01*
X221988000Y-67722607D01*
X222035619Y-67551178D01*
X222035619Y-67436892D01*
X221988000Y-67265464D01*
X221940380Y-67208321D01*
X221035619Y-66122607D02*
X221035619Y-66694035D01*
X222035619Y-66694035D01*
X221035619Y-65722607D02*
X222035619Y-65722607D01*
X221035619Y-65036892D02*
X221607047Y-65551178D01*
X222035619Y-65036892D02*
X221464190Y-65722607D01*
X218543238Y-67951178D02*
X218495619Y-67779750D01*
X218495619Y-67494035D01*
X218543238Y-67379750D01*
X218590857Y-67322607D01*
X218686095Y-67265464D01*
X218781333Y-67265464D01*
X218876571Y-67322607D01*
X218924190Y-67379750D01*
X218971809Y-67494035D01*
X219019428Y-67722607D01*
X219067047Y-67836892D01*
X219114666Y-67894035D01*
X219209904Y-67951178D01*
X219305142Y-67951178D01*
X219400380Y-67894035D01*
X219448000Y-67836892D01*
X219495619Y-67722607D01*
X219495619Y-67436892D01*
X219448000Y-67265464D01*
X219495619Y-66922607D02*
X219495619Y-66236892D01*
X218495619Y-66579750D02*
X219495619Y-66579750D01*
X218495619Y-65151178D02*
X218971809Y-65551178D01*
X218495619Y-65836892D02*
X219495619Y-65836892D01*
X219495619Y-65379750D01*
X219448000Y-65265464D01*
X219400380Y-65208321D01*
X219305142Y-65151178D01*
X219162285Y-65151178D01*
X219067047Y-65208321D01*
X219019428Y-65265464D01*
X218971809Y-65379750D01*
X218971809Y-65836892D01*
X219495619Y-64408321D02*
X219495619Y-64179750D01*
X219448000Y-64065464D01*
X219352761Y-63951178D01*
X219162285Y-63894035D01*
X218828952Y-63894035D01*
X218638476Y-63951178D01*
X218543238Y-64065464D01*
X218495619Y-64179750D01*
X218495619Y-64408321D01*
X218543238Y-64522607D01*
X218638476Y-64636892D01*
X218828952Y-64694035D01*
X219162285Y-64694035D01*
X219352761Y-64636892D01*
X219448000Y-64522607D01*
X219495619Y-64408321D01*
X219019428Y-62979750D02*
X218971809Y-62808321D01*
X218924190Y-62751178D01*
X218828952Y-62694035D01*
X218686095Y-62694035D01*
X218590857Y-62751178D01*
X218543238Y-62808321D01*
X218495619Y-62922607D01*
X218495619Y-63379750D01*
X219495619Y-63379750D01*
X219495619Y-62979750D01*
X219448000Y-62865464D01*
X219400380Y-62808321D01*
X219305142Y-62751178D01*
X219209904Y-62751178D01*
X219114666Y-62808321D01*
X219067047Y-62865464D01*
X219019428Y-62979750D01*
X219019428Y-63379750D01*
X219019428Y-62179750D02*
X219019428Y-61779750D01*
X218495619Y-61608321D02*
X218495619Y-62179750D01*
X219495619Y-62179750D01*
X219495619Y-61608321D01*
X216955619Y-67322607D02*
X216955619Y-67894035D01*
X216479428Y-67951178D01*
X216527047Y-67894035D01*
X216574666Y-67779750D01*
X216574666Y-67494035D01*
X216527047Y-67379750D01*
X216479428Y-67322607D01*
X216384190Y-67265464D01*
X216146095Y-67265464D01*
X216050857Y-67322607D01*
X216003238Y-67379750D01*
X215955619Y-67494035D01*
X215955619Y-67779750D01*
X216003238Y-67894035D01*
X216050857Y-67951178D01*
X216955619Y-66922607D02*
X215955619Y-66522607D01*
X216955619Y-66122607D01*
D12*
X226463714Y-77957071D02*
X226463714Y-76457071D01*
X225749428Y-77957071D02*
X225749428Y-76457071D01*
X224892285Y-77957071D01*
X224892285Y-76457071D01*
X224249428Y-77885642D02*
X224035142Y-77957071D01*
X223678000Y-77957071D01*
X223535142Y-77885642D01*
X223463714Y-77814214D01*
X223392285Y-77671357D01*
X223392285Y-77528500D01*
X223463714Y-77385642D01*
X223535142Y-77314214D01*
X223678000Y-77242785D01*
X223963714Y-77171357D01*
X224106571Y-77099928D01*
X224178000Y-77028500D01*
X224249428Y-76885642D01*
X224249428Y-76742785D01*
X224178000Y-76599928D01*
X224106571Y-76528500D01*
X223963714Y-76457071D01*
X223606571Y-76457071D01*
X223392285Y-76528500D01*
X222749428Y-77171357D02*
X222249428Y-77171357D01*
X222035142Y-77957071D02*
X222749428Y-77957071D01*
X222749428Y-76457071D01*
X222035142Y-76457071D01*
X220535142Y-77957071D02*
X221035142Y-77242785D01*
X221392285Y-77957071D02*
X221392285Y-76457071D01*
X220820857Y-76457071D01*
X220678000Y-76528500D01*
X220606571Y-76599928D01*
X220535142Y-76742785D01*
X220535142Y-76957071D01*
X220606571Y-77099928D01*
X220678000Y-77171357D01*
X220820857Y-77242785D01*
X221392285Y-77242785D01*
X220106571Y-76457071D02*
X219249428Y-76457071D01*
X219678000Y-77957071D02*
X219678000Y-76457071D01*
X217606571Y-77957071D02*
X217606571Y-76457071D01*
X216035142Y-77814214D02*
X216106571Y-77885642D01*
X216320857Y-77957071D01*
X216463714Y-77957071D01*
X216678000Y-77885642D01*
X216820857Y-77742785D01*
X216892285Y-77599928D01*
X216963714Y-77314214D01*
X216963714Y-77099928D01*
X216892285Y-76814214D01*
X216820857Y-76671357D01*
X216678000Y-76528500D01*
X216463714Y-76457071D01*
X216320857Y-76457071D01*
X216106571Y-76528500D01*
X216035142Y-76599928D01*
X213749428Y-77171357D02*
X214249428Y-77171357D01*
X214249428Y-77957071D02*
X214249428Y-76457071D01*
X213535142Y-76457071D01*
X212106571Y-77957071D02*
X212606571Y-77242785D01*
X212963714Y-77957071D02*
X212963714Y-76457071D01*
X212392285Y-76457071D01*
X212249428Y-76528500D01*
X212178000Y-76599928D01*
X212106571Y-76742785D01*
X212106571Y-76957071D01*
X212178000Y-77099928D01*
X212249428Y-77171357D01*
X212392285Y-77242785D01*
X212963714Y-77242785D01*
X211178000Y-76457071D02*
X210892285Y-76457071D01*
X210749428Y-76528500D01*
X210606571Y-76671357D01*
X210535142Y-76957071D01*
X210535142Y-77457071D01*
X210606571Y-77742785D01*
X210749428Y-77885642D01*
X210892285Y-77957071D01*
X211178000Y-77957071D01*
X211320857Y-77885642D01*
X211463714Y-77742785D01*
X211535142Y-77457071D01*
X211535142Y-76957071D01*
X211463714Y-76671357D01*
X211320857Y-76528500D01*
X211178000Y-76457071D01*
X209892285Y-77957071D02*
X209892285Y-76457071D01*
X209392285Y-77528500D01*
X208892285Y-76457071D01*
X208892285Y-77957071D01*
X228499428Y-78872071D02*
X228213714Y-78872071D01*
X228070857Y-78943500D01*
X227928000Y-79086357D01*
X227856571Y-79372071D01*
X227856571Y-79872071D01*
X227928000Y-80157785D01*
X228070857Y-80300642D01*
X228213714Y-80372071D01*
X228499428Y-80372071D01*
X228642285Y-80300642D01*
X228785142Y-80157785D01*
X228856571Y-79872071D01*
X228856571Y-79372071D01*
X228785142Y-79086357D01*
X228642285Y-78943500D01*
X228499428Y-78872071D01*
X227428000Y-78872071D02*
X226570857Y-78872071D01*
X226999428Y-80372071D02*
X226999428Y-78872071D01*
X226070857Y-80372071D02*
X226070857Y-78872071D01*
X226070857Y-79586357D02*
X225213714Y-79586357D01*
X225213714Y-80372071D02*
X225213714Y-78872071D01*
X224499428Y-79586357D02*
X223999428Y-79586357D01*
X223785142Y-80372071D02*
X224499428Y-80372071D01*
X224499428Y-78872071D01*
X223785142Y-78872071D01*
X222285142Y-80372071D02*
X222785142Y-79657785D01*
X223142285Y-80372071D02*
X223142285Y-78872071D01*
X222570857Y-78872071D01*
X222428000Y-78943500D01*
X222356571Y-79014928D01*
X222285142Y-79157785D01*
X222285142Y-79372071D01*
X222356571Y-79514928D01*
X222428000Y-79586357D01*
X222570857Y-79657785D01*
X223142285Y-79657785D01*
X220570857Y-80300642D02*
X220356571Y-80372071D01*
X219999428Y-80372071D01*
X219856571Y-80300642D01*
X219785142Y-80229214D01*
X219713714Y-80086357D01*
X219713714Y-79943500D01*
X219785142Y-79800642D01*
X219856571Y-79729214D01*
X219999428Y-79657785D01*
X220285142Y-79586357D01*
X220428000Y-79514928D01*
X220499428Y-79443500D01*
X220570857Y-79300642D01*
X220570857Y-79157785D01*
X220499428Y-79014928D01*
X220428000Y-78943500D01*
X220285142Y-78872071D01*
X219928000Y-78872071D01*
X219713714Y-78943500D01*
X219070857Y-80372071D02*
X219070857Y-78872071D01*
X218356571Y-80372071D02*
X218356571Y-78872071D01*
X217999428Y-78872071D01*
X217785142Y-78943500D01*
X217642285Y-79086357D01*
X217570857Y-79229214D01*
X217499428Y-79514928D01*
X217499428Y-79729214D01*
X217570857Y-80014928D01*
X217642285Y-80157785D01*
X217785142Y-80300642D01*
X217999428Y-80372071D01*
X218356571Y-80372071D01*
X216856571Y-79586357D02*
X216356571Y-79586357D01*
X216142285Y-80372071D02*
X216856571Y-80372071D01*
X216856571Y-78872071D01*
X216142285Y-78872071D01*
X214070857Y-78872071D02*
X213785142Y-78872071D01*
X213642285Y-78943500D01*
X213499428Y-79086357D01*
X213428000Y-79372071D01*
X213428000Y-79872071D01*
X213499428Y-80157785D01*
X213642285Y-80300642D01*
X213785142Y-80372071D01*
X214070857Y-80372071D01*
X214213714Y-80300642D01*
X214356571Y-80157785D01*
X214428000Y-79872071D01*
X214428000Y-79372071D01*
X214356571Y-79086357D01*
X214213714Y-78943500D01*
X214070857Y-78872071D01*
X212285142Y-79586357D02*
X212785142Y-79586357D01*
X212785142Y-80372071D02*
X212785142Y-78872071D01*
X212070857Y-78872071D01*
X210356571Y-80372071D02*
X210356571Y-78872071D01*
X209785142Y-78872071D01*
X209642285Y-78943500D01*
X209570857Y-79014928D01*
X209499428Y-79157785D01*
X209499428Y-79372071D01*
X209570857Y-79514928D01*
X209642285Y-79586357D01*
X209785142Y-79657785D01*
X210356571Y-79657785D01*
X207999428Y-80229214D02*
X208070857Y-80300642D01*
X208285142Y-80372071D01*
X208428000Y-80372071D01*
X208642285Y-80300642D01*
X208785142Y-80157785D01*
X208856571Y-80014928D01*
X208928000Y-79729214D01*
X208928000Y-79514928D01*
X208856571Y-79229214D01*
X208785142Y-79086357D01*
X208642285Y-78943500D01*
X208428000Y-78872071D01*
X208285142Y-78872071D01*
X208070857Y-78943500D01*
X207999428Y-79014928D01*
X206856571Y-79586357D02*
X206642285Y-79657785D01*
X206570857Y-79729214D01*
X206499428Y-79872071D01*
X206499428Y-80086357D01*
X206570857Y-80229214D01*
X206642285Y-80300642D01*
X206785142Y-80372071D01*
X207356571Y-80372071D01*
X207356571Y-78872071D01*
X206856571Y-78872071D01*
X206713714Y-78943500D01*
X206642285Y-79014928D01*
X206570857Y-79157785D01*
X206570857Y-79300642D01*
X206642285Y-79443500D01*
X206713714Y-79514928D01*
X206856571Y-79586357D01*
X207356571Y-79586357D01*
D13*
X200138708Y-86955380D02*
X200138708Y-87764904D01*
X200091089Y-87860142D01*
X200043470Y-87907761D01*
X199948232Y-87955380D01*
X199757756Y-87955380D01*
X199662518Y-87907761D01*
X199614899Y-87860142D01*
X199567280Y-87764904D01*
X199567280Y-86955380D01*
X199138708Y-87050619D02*
X199091089Y-87003000D01*
X198995851Y-86955380D01*
X198757756Y-86955380D01*
X198662518Y-87003000D01*
X198614899Y-87050619D01*
X198567280Y-87145857D01*
X198567280Y-87241095D01*
X198614899Y-87383952D01*
X199186327Y-87955380D01*
X198567280Y-87955380D01*
X203710137Y-115530380D02*
X203138708Y-115530380D01*
X203424423Y-116530380D02*
X203424423Y-115530380D01*
X202329184Y-116530380D02*
X202805375Y-116530380D01*
X202805375Y-115530380D01*
X201424423Y-116435142D02*
X201472042Y-116482761D01*
X201614899Y-116530380D01*
X201710137Y-116530380D01*
X201852994Y-116482761D01*
X201948232Y-116387523D01*
X201995851Y-116292285D01*
X202043470Y-116101809D01*
X202043470Y-115958952D01*
X201995851Y-115768476D01*
X201948232Y-115673238D01*
X201852994Y-115578000D01*
X201710137Y-115530380D01*
X201614899Y-115530380D01*
X201472042Y-115578000D01*
X201424423Y-115625619D01*
X200519661Y-115530380D02*
X200995851Y-115530380D01*
X201043470Y-116006571D01*
X200995851Y-115958952D01*
X200900613Y-115911333D01*
X200662518Y-115911333D01*
X200567280Y-115958952D01*
X200519661Y-116006571D01*
X200472042Y-116101809D01*
X200472042Y-116339904D01*
X200519661Y-116435142D01*
X200567280Y-116482761D01*
X200662518Y-116530380D01*
X200900613Y-116530380D01*
X200995851Y-116482761D01*
X201043470Y-116435142D01*
X199995851Y-116530380D02*
X199805375Y-116530380D01*
X199710137Y-116482761D01*
X199662518Y-116435142D01*
X199567280Y-116292285D01*
X199519661Y-116101809D01*
X199519661Y-115720857D01*
X199567280Y-115625619D01*
X199614899Y-115578000D01*
X199710137Y-115530380D01*
X199900613Y-115530380D01*
X199995851Y-115578000D01*
X200043470Y-115625619D01*
X200091089Y-115720857D01*
X200091089Y-115958952D01*
X200043470Y-116054190D01*
X199995851Y-116101809D01*
X199900613Y-116149428D01*
X199710137Y-116149428D01*
X199614899Y-116101809D01*
X199567280Y-116054190D01*
X199519661Y-115958952D01*
X199138708Y-115625619D02*
X199091089Y-115578000D01*
X198995851Y-115530380D01*
X198757756Y-115530380D01*
X198662518Y-115578000D01*
X198614899Y-115625619D01*
X198567280Y-115720857D01*
X198567280Y-115816095D01*
X198614899Y-115958952D01*
X199186327Y-116530380D01*
X198567280Y-116530380D01*
X197614899Y-116530380D02*
X198186327Y-116530380D01*
X197900613Y-116530380D02*
X197900613Y-115530380D01*
X197995851Y-115673238D01*
X198091089Y-115768476D01*
X198186327Y-115816095D01*
X196662518Y-116530380D02*
X197233946Y-116530380D01*
X196948232Y-116530380D02*
X196948232Y-115530380D01*
X197043470Y-115673238D01*
X197138708Y-115768476D01*
X197233946Y-115816095D01*
X196233946Y-116530380D02*
X196233946Y-115530380D01*
X195757756Y-116530380D02*
X195757756Y-115530380D01*
X195186327Y-116530380D01*
X195186327Y-115530380D01*
D14*
X196726804Y-88967000D02*
X198376804Y-88967000D01*
X196726804Y-114487000D02*
X196726804Y-88967000D01*
X202026804Y-114487000D02*
X196726804Y-114487000D01*
X202026804Y-88967000D02*
X202026804Y-114487000D01*
X200376804Y-88967000D02*
X202026804Y-88967000D01*
X198376804Y-88967000D02*
G75*
G03*
X200376804Y-88967000I1000000J0D01*
G01*
%LPC*%
D15*
X177038000Y-85725000D03*
X177038000Y-117729000D03*
X209042000Y-117729000D03*
X209042000Y-65659000D03*
D16*
X195566804Y-90297000D03*
X203186804Y-113157000D03*
X195566804Y-92837000D03*
X203186804Y-110617000D03*
X195566804Y-95377000D03*
X203186804Y-108077000D03*
X195566804Y-97917000D03*
X203186804Y-105537000D03*
X195566804Y-100457000D03*
X203186804Y-102997000D03*
X195566804Y-102997000D03*
X203186804Y-100457000D03*
X195566804Y-105537000D03*
X203186804Y-97917000D03*
X195566804Y-108077000D03*
X203186804Y-95377000D03*
X195566804Y-110617000D03*
X203186804Y-92837000D03*
X195566804Y-113157000D03*
D17*
X203186804Y-90297000D03*
X208788000Y-82296000D03*
D16*
X226568000Y-74676000D03*
X211328000Y-82296000D03*
X224028000Y-74676000D03*
X213868000Y-82296000D03*
X221488000Y-74676000D03*
X216408000Y-82296000D03*
X218948000Y-74676000D03*
X218948000Y-82296000D03*
X216408000Y-74676000D03*
X221488000Y-82296000D03*
X213868000Y-74676000D03*
X224028000Y-82296000D03*
X211328000Y-74676000D03*
X226568000Y-82296000D03*
X208788000Y-74676000D03*
D18*
X180322684Y-101727000D03*
D16*
X190482684Y-101727000D03*
D18*
X180322684Y-107823000D03*
D16*
X190482684Y-107823000D03*
D18*
X180322684Y-98679000D03*
D16*
X190482684Y-98679000D03*
D18*
X180322684Y-104775000D03*
D16*
X190482684Y-104775000D03*
D18*
X180322684Y-95631000D03*
D16*
X190482684Y-95631000D03*
D19*
X216408000Y-69723000D03*
D20*
X218948000Y-69723000D03*
X221488000Y-69723000D03*
X224028000Y-69723000D03*
X226568000Y-69723000D03*
D21*
X194315000Y-69723000D03*
D22*
X191775000Y-69723000D03*
D21*
X194315000Y-133731000D03*
D22*
X191775000Y-133731000D03*
X162301000Y-101727000D03*
D21*
X159761000Y-101727000D03*
D22*
X226309000Y-101727000D03*
D21*
X223769000Y-101727000D03*
X166375000Y-66675000D03*
D22*
X163835000Y-66675000D03*
M02*
