%TF.GenerationSoftware,KiCad,Pcbnew,5.99.0-unknown-3b7f5a3db7~131~ubuntu20.04.1*%
%TF.CreationDate,2021-09-21T13:07:20-05:00*%
%TF.ProjectId,a2600-joystick-vizboard,61323630-302d-46a6-9f79-737469636b2d,rev?*%
%TF.SameCoordinates,Original*%
%TF.FileFunction,Copper,L2,Bot*%
%TF.FilePolarity,Positive*%
%FSLAX46Y46*%
G04 Gerber Fmt 4.6, Leading zero omitted, Abs format (unit mm)*
G04 Created by KiCad (PCBNEW 5.99.0-unknown-3b7f5a3db7~131~ubuntu20.04.1) date 2021-09-21 13:07:20*
%MOMM*%
%LPD*%
G01*
G04 APERTURE LIST*
%TA.AperFunction,ComponentPad*%
%ADD10O,1.600000X1.600000*%
%TD*%
%TA.AperFunction,ComponentPad*%
%ADD11R,1.600000X1.600000*%
%TD*%
%TA.AperFunction,ComponentPad*%
%ADD12C,1.600000*%
%TD*%
%TA.AperFunction,ComponentPad*%
%ADD13R,1.700000X1.700000*%
%TD*%
%TA.AperFunction,ComponentPad*%
%ADD14O,1.700000X1.700000*%
%TD*%
%TA.AperFunction,ComponentPad*%
%ADD15R,1.800000X1.800000*%
%TD*%
%TA.AperFunction,ComponentPad*%
%ADD16C,1.800000*%
%TD*%
%TA.AperFunction,Conductor*%
%ADD17C,0.250000*%
%TD*%
%TA.AperFunction,Conductor*%
%ADD18C,0.700000*%
%TD*%
G04 APERTURE END LIST*
D10*
X195566804Y-90297000D03*
X203186804Y-113157000D03*
X195566804Y-92837000D03*
X203186804Y-110617000D03*
X195566804Y-95377000D03*
X203186804Y-108077000D03*
X195566804Y-97917000D03*
X203186804Y-105537000D03*
X195566804Y-100457000D03*
X203186804Y-102997000D03*
X195566804Y-102997000D03*
X203186804Y-100457000D03*
X195566804Y-105537000D03*
X203186804Y-97917000D03*
X195566804Y-108077000D03*
X203186804Y-95377000D03*
X195566804Y-110617000D03*
X203186804Y-92837000D03*
X195566804Y-113157000D03*
D11*
X203186804Y-90297000D03*
X208788000Y-82296000D03*
D10*
X226568000Y-74676000D03*
X211328000Y-82296000D03*
X224028000Y-74676000D03*
X213868000Y-82296000D03*
X221488000Y-74676000D03*
X216408000Y-82296000D03*
X218948000Y-74676000D03*
X218948000Y-82296000D03*
X216408000Y-74676000D03*
X221488000Y-82296000D03*
X213868000Y-74676000D03*
X224028000Y-82296000D03*
X211328000Y-74676000D03*
X226568000Y-82296000D03*
X208788000Y-74676000D03*
D12*
X180322684Y-101727000D03*
D10*
X190482684Y-101727000D03*
D12*
X180322684Y-107823000D03*
D10*
X190482684Y-107823000D03*
D12*
X180322684Y-98679000D03*
D10*
X190482684Y-98679000D03*
D12*
X180322684Y-104775000D03*
D10*
X190482684Y-104775000D03*
D12*
X180322684Y-95631000D03*
D10*
X190482684Y-95631000D03*
D13*
X216408000Y-69723000D03*
D14*
X218948000Y-69723000D03*
X221488000Y-69723000D03*
X224028000Y-69723000D03*
X226568000Y-69723000D03*
D15*
X194315000Y-69723000D03*
D16*
X191775000Y-69723000D03*
D15*
X194315000Y-133731000D03*
D16*
X191775000Y-133731000D03*
X162301000Y-101727000D03*
D15*
X159761000Y-101727000D03*
D16*
X226309000Y-101727000D03*
D15*
X223769000Y-101727000D03*
X166375000Y-66675000D03*
D16*
X163835000Y-66675000D03*
D17*
X187833000Y-101727000D02*
X189357000Y-100203000D01*
X189357000Y-100203000D02*
X191516000Y-100203000D01*
X196342000Y-101727000D02*
X197416480Y-100652520D01*
X180322684Y-101727000D02*
X187833000Y-101727000D01*
X191516000Y-100203000D02*
X193040000Y-101727000D01*
X197416480Y-100652520D02*
X197416480Y-88832198D01*
X193040000Y-101727000D02*
X196342000Y-101727000D01*
X197416480Y-88832198D02*
X193865480Y-85281197D01*
X193865480Y-73977480D02*
X191775000Y-71887000D01*
X193865480Y-85281197D02*
X193865480Y-73977480D01*
X191775000Y-71887000D02*
X191775000Y-69723000D01*
X162301000Y-101727000D02*
X163375480Y-102801480D01*
X176200204Y-102801480D02*
X180322684Y-98679000D01*
X163375480Y-102801480D02*
X176200204Y-102801480D01*
X163835000Y-66675000D02*
X163835000Y-83190000D01*
X163835000Y-83190000D02*
X175201520Y-94556520D01*
X175201520Y-94556520D02*
X179248204Y-94556520D01*
X179248204Y-94556520D02*
X180322684Y-95631000D01*
X195566804Y-97917000D02*
X191756804Y-94107000D01*
X191756804Y-94107000D02*
X175387718Y-94107000D01*
X175387718Y-94107000D02*
X164284520Y-83003802D01*
X164284520Y-83003802D02*
X164284520Y-68765480D01*
X164284520Y-68765480D02*
X166375000Y-66675000D01*
D18*
X225171000Y-79248000D02*
X228473000Y-75946000D01*
X228473000Y-75946000D02*
X228473000Y-71628000D01*
X228473000Y-71628000D02*
X226568000Y-69723000D01*
D17*
X213868000Y-74676000D02*
X216154000Y-72390000D01*
X216154000Y-72390000D02*
X221361000Y-72390000D01*
X221361000Y-72390000D02*
X224028000Y-69723000D01*
D18*
X216408000Y-78232000D02*
X217424000Y-79248000D01*
X225171000Y-79248000D02*
X219456000Y-79248000D01*
X217424000Y-79248000D02*
X219456000Y-79248000D01*
X195566804Y-113157000D02*
X200787000Y-107936804D01*
X200787000Y-107936804D02*
X200787000Y-86741000D01*
X200787000Y-86741000D02*
X208280000Y-79248000D01*
X208280000Y-79248000D02*
X215392000Y-79248000D01*
X215392000Y-79248000D02*
X216408000Y-78232000D01*
X216408000Y-78232000D02*
X216408000Y-76835000D01*
D17*
X197866000Y-108317804D02*
X197866000Y-88646000D01*
X195566804Y-110617000D02*
X197866000Y-108317804D01*
X197866000Y-88646000D02*
X194315000Y-85095000D01*
X194315000Y-85095000D02*
X194315000Y-69723000D01*
X191775000Y-133731000D02*
X191775000Y-130297000D01*
X192844480Y-110802480D02*
X191897000Y-109855000D01*
X191775000Y-130297000D02*
X192844480Y-129227520D01*
X192844480Y-129227520D02*
X192844480Y-110802480D01*
X191897000Y-109855000D02*
X182354684Y-109855000D01*
X182354684Y-109855000D02*
X180322684Y-107823000D01*
X194315000Y-133731000D02*
X194315000Y-130307000D01*
X194315000Y-130307000D02*
X193294000Y-129286000D01*
X193294000Y-129286000D02*
X193294000Y-110349804D01*
X193294000Y-110349804D02*
X195566804Y-108077000D01*
X195566804Y-105537000D02*
X193280804Y-103251000D01*
X161285000Y-103251000D02*
X159761000Y-101727000D01*
X193280804Y-103251000D02*
X161285000Y-103251000D01*
D18*
X226568000Y-82296000D02*
X226568000Y-80645000D01*
X216408000Y-76835000D02*
X216408000Y-74676000D01*
X226568000Y-80645000D02*
X225171000Y-79248000D01*
M02*
