M48
; DRILL file {KiCad 5.99.0-unknown-3b7f5a3db7~131~ubuntu20.04.1} date Tue Sep 21 13:08:25 2021
; FORMAT={-:-/ absolute / metric / decimal}
; #@! TF.CreationDate,2021-09-21T13:08:25-05:00
; #@! TF.GenerationSoftware,Kicad,Pcbnew,5.99.0-unknown-3b7f5a3db7~131~ubuntu20.04.1
; #@! TF.FileFunction,Plated,1,2,PTH
FMAT,2
METRIC
; #@! TA.AperFunction,Plated,PTH,ComponentDrill
T1C0.800
; #@! TA.AperFunction,Plated,PTH,ComponentDrill
T2C0.900
; #@! TA.AperFunction,Plated,PTH,ComponentDrill
T3C1.000
%
G90
G05
T1
X180.323Y-95.631
X180.323Y-98.679
X180.323Y-101.727
X180.323Y-104.775
X180.323Y-107.823
X190.483Y-95.631
X190.483Y-98.679
X190.483Y-101.727
X190.483Y-104.775
X190.483Y-107.823
X195.567Y-90.297
X195.567Y-92.837
X195.567Y-95.377
X195.567Y-97.917
X195.567Y-100.457
X195.567Y-102.997
X195.567Y-105.537
X195.567Y-108.077
X195.567Y-110.617
X195.567Y-113.157
X203.187Y-90.297
X203.187Y-92.837
X203.187Y-95.377
X203.187Y-97.917
X203.187Y-100.457
X203.187Y-102.997
X203.187Y-105.537
X203.187Y-108.077
X203.187Y-110.617
X203.187Y-113.157
X208.788Y-74.676
X208.788Y-82.296
X211.328Y-74.676
X211.328Y-82.296
X213.868Y-74.676
X213.868Y-82.296
X216.408Y-74.676
X216.408Y-82.296
X218.948Y-74.676
X218.948Y-82.296
X221.488Y-74.676
X221.488Y-82.296
X224.028Y-74.676
X224.028Y-82.296
X226.568Y-74.676
X226.568Y-82.296
T2
X159.761Y-101.727
X162.301Y-101.727
X163.835Y-66.675
X166.375Y-66.675
X191.775Y-69.723
X191.775Y-133.731
X194.315Y-69.723
X194.315Y-133.731
X223.769Y-101.727
X226.309Y-101.727
T3
X216.408Y-69.723
X218.948Y-69.723
X221.488Y-69.723
X224.028Y-69.723
X226.568Y-69.723
T0
M30
