%TF.GenerationSoftware,KiCad,Pcbnew,5.99.0-unknown-3b7f5a3db7~131~ubuntu20.04.1*%
%TF.CreationDate,2021-09-21T13:07:21-05:00*%
%TF.ProjectId,a2600-joystick-vizboard,61323630-302d-46a6-9f79-737469636b2d,rev?*%
%TF.SameCoordinates,Original*%
%TF.FileFunction,Soldermask,Top*%
%TF.FilePolarity,Negative*%
%FSLAX46Y46*%
G04 Gerber Fmt 4.6, Leading zero omitted, Abs format (unit mm)*
G04 Created by KiCad (PCBNEW 5.99.0-unknown-3b7f5a3db7~131~ubuntu20.04.1) date 2021-09-21 13:07:21*
%MOMM*%
%LPD*%
G01*
G04 APERTURE LIST*
%ADD10C,3.200000*%
%ADD11O,1.600000X1.600000*%
%ADD12R,1.600000X1.600000*%
%ADD13C,1.600000*%
%ADD14R,1.700000X1.700000*%
%ADD15O,1.700000X1.700000*%
%ADD16R,1.800000X1.800000*%
%ADD17C,1.800000*%
G04 APERTURE END LIST*
D10*
X177038000Y-85725000D03*
X177038000Y-117729000D03*
X209042000Y-117729000D03*
X209042000Y-65659000D03*
D11*
X195566804Y-90297000D03*
X203186804Y-113157000D03*
X195566804Y-92837000D03*
X203186804Y-110617000D03*
X195566804Y-95377000D03*
X203186804Y-108077000D03*
X195566804Y-97917000D03*
X203186804Y-105537000D03*
X195566804Y-100457000D03*
X203186804Y-102997000D03*
X195566804Y-102997000D03*
X203186804Y-100457000D03*
X195566804Y-105537000D03*
X203186804Y-97917000D03*
X195566804Y-108077000D03*
X203186804Y-95377000D03*
X195566804Y-110617000D03*
X203186804Y-92837000D03*
X195566804Y-113157000D03*
D12*
X203186804Y-90297000D03*
X208788000Y-82296000D03*
D11*
X226568000Y-74676000D03*
X211328000Y-82296000D03*
X224028000Y-74676000D03*
X213868000Y-82296000D03*
X221488000Y-74676000D03*
X216408000Y-82296000D03*
X218948000Y-74676000D03*
X218948000Y-82296000D03*
X216408000Y-74676000D03*
X221488000Y-82296000D03*
X213868000Y-74676000D03*
X224028000Y-82296000D03*
X211328000Y-74676000D03*
X226568000Y-82296000D03*
X208788000Y-74676000D03*
D13*
X180322684Y-101727000D03*
D11*
X190482684Y-101727000D03*
D13*
X180322684Y-107823000D03*
D11*
X190482684Y-107823000D03*
D13*
X180322684Y-98679000D03*
D11*
X190482684Y-98679000D03*
D13*
X180322684Y-104775000D03*
D11*
X190482684Y-104775000D03*
D13*
X180322684Y-95631000D03*
D11*
X190482684Y-95631000D03*
D14*
X216408000Y-69723000D03*
D15*
X218948000Y-69723000D03*
X221488000Y-69723000D03*
X224028000Y-69723000D03*
X226568000Y-69723000D03*
D16*
X194315000Y-69723000D03*
D17*
X191775000Y-69723000D03*
D16*
X194315000Y-133731000D03*
D17*
X191775000Y-133731000D03*
X162301000Y-101727000D03*
D16*
X159761000Y-101727000D03*
D17*
X226309000Y-101727000D03*
D16*
X223769000Y-101727000D03*
X166375000Y-66675000D03*
D17*
X163835000Y-66675000D03*
M02*
